<svg xmlns="http://www.w3.org/2000/svg" xmlns:xlink="http://www.w3.org/1999/xlink" width="517" zoomAndPan="magnify" viewBox="0 0 387.75 378.749986" height="505" preserveAspectRatio="xMidYMid meet" version="1.2"><defs><clipPath id="7bb9941b8a"><path d="M 43.203125 45.234375 L 339 45.234375 L 339 340.589844 L 43.203125 340.589844 Z M 43.203125 45.234375 "/></clipPath><clipPath id="2773671677"><path d="M 225.570312 66.5 L 333.488281 274.089844 C 340.820312 288.195312 340.261719 305.109375 332.007812 318.699219 C 323.757812 332.292969 309.007812 340.589844 293.109375 340.589844 L 88.882812 340.589844 C 72.984375 340.589844 58.238281 332.292969 49.984375 318.699219 C 41.730469 305.109375 41.171875 288.195312 48.503906 274.089844 L 156.425781 66.5 C 163.128906 53.601562 176.457031 45.507812 190.996094 45.507812 C 205.535156 45.507812 218.863281 53.601562 225.570312 66.5 Z M 225.570312 66.5 "/></clipPath><clipPath id="037fba825f"><path d="M 0.203125 0.328125 L 296 0.328125 L 296 295.589844 L 0.203125 295.589844 Z M 0.203125 0.328125 "/></clipPath><clipPath id="0a6dcbdb9b"><path d="M 182.570312 21.5 L 290.488281 229.089844 C 297.820312 243.195312 297.261719 260.109375 289.007812 273.699219 C 280.757812 287.292969 266.007812 295.589844 250.109375 295.589844 L 45.882812 295.589844 C 29.984375 295.589844 15.238281 287.292969 6.984375 273.699219 C -1.269531 260.109375 -1.828125 243.195312 5.503906 229.089844 L 113.425781 21.5 C 120.128906 8.601562 133.457031 0.507812 147.996094 0.507812 C 162.535156 0.507812 175.863281 8.601562 182.570312 21.5 Z M 182.570312 21.5 "/></clipPath><clipPath id="b2b30a7215"><rect x="0" width="296" y="0" height="296"/></clipPath><clipPath id="794206fab7"><path d="M 43 45 L 339 45 L 339 340.273438 L 43 340.273438 Z M 43 45 "/></clipPath><clipPath id="66504a53b0"><path d="M 225.5625 66.5 L 333.480469 274.082031 C 340.8125 288.1875 340.253906 305.101562 332 318.691406 C 323.75 332.28125 309 340.578125 293.101562 340.578125 L 88.882812 340.578125 C 72.984375 340.578125 58.234375 332.28125 49.984375 318.691406 C 41.730469 305.101562 41.171875 288.1875 48.503906 274.082031 L 156.421875 66.5 C 163.128906 53.601562 176.457031 45.507812 190.992188 45.507812 C 205.53125 45.507812 218.859375 53.601562 225.5625 66.5 Z M 225.5625 66.5 "/></clipPath><clipPath id="3db81bac96"><path d="M 143.699219 140.511719 L 191 140.511719 L 191 210 L 143.699219 210 Z M 143.699219 140.511719 "/></clipPath><clipPath id="08a2e855cd"><path d="M 173 140.511719 L 238.136719 140.511719 L 238.136719 211 L 173 211 Z M 173 140.511719 "/></clipPath><clipPath id="03b2d39944"><path d="M 177 275 L 205 275 L 205 287.414062 L 177 287.414062 Z M 177 275 "/></clipPath><clipPath id="b7b0dda31d"><path d="M 189 113.207031 L 192 113.207031 L 192 131 L 189 131 Z M 189 113.207031 "/></clipPath><clipPath id="f5cddf3f28"><path d="M 114.589844 175 L 132 175 L 132 180 L 114.589844 180 Z M 114.589844 175 "/></clipPath><clipPath id="18c98977ad"><path d="M 114.589844 198 L 132 198 L 132 204 L 114.589844 204 Z M 114.589844 198 "/></clipPath><clipPath id="fec9e38250"><path d="M 250 175 L 267.488281 175 L 267.488281 181 L 250 181 Z M 250 175 "/></clipPath><clipPath id="19e51b9342"><path d="M 250 199 L 267.488281 199 L 267.488281 205 L 250 205 Z M 250 199 "/></clipPath><clipPath id="2a16cc3d9f"><path d="M 243 219 L 259 219 L 259 229.378906 L 243 229.378906 Z M 243 219 "/></clipPath></defs><g id="38486acdda"><g clip-rule="nonzero" clip-path="url(#7bb9941b8a)"><g clip-rule="nonzero" clip-path="url(#2773671677)"><g transform="matrix(1,0,0,1,43,45)"><g clip-path="url(#b2b30a7215)"><g clip-rule="nonzero" clip-path="url(#037fba825f)"><g clip-rule="nonzero" clip-path="url(#0a6dcbdb9b)"><path style=" stroke:none;fill-rule:nonzero;fill:#ffffff;fill-opacity:1;" d="M -29.066406 -45 L 324.828125 -45 L 324.828125 295.589844 L -29.066406 295.589844 Z M -29.066406 -45 "/></g></g></g></g></g></g><g clip-rule="nonzero" clip-path="url(#794206fab7)"><g clip-rule="nonzero" clip-path="url(#66504a53b0)"><path style="fill:none;stroke-width:8;stroke-linecap:butt;stroke-linejoin:miter;stroke:#000000;stroke-opacity:1;stroke-miterlimit:4;" d="M 282.356767 88.7252 L 426.342381 365.683954 C 436.124876 384.503661 435.379593 407.070632 424.367119 425.202385 C 413.359858 443.334139 393.680208 454.403942 372.468298 454.403942 L 99.996879 454.403942 C 78.784969 454.403942 59.105319 443.334139 48.098057 425.202385 C 37.085584 407.070632 36.340301 384.503661 46.122796 365.683954 L 190.10841 88.7252 C 199.057022 71.51593 216.839586 60.717139 236.232588 60.717139 C 255.630802 60.717139 273.413367 71.51593 282.356767 88.7252 Z M 282.356767 88.7252 " transform="matrix(0.749505,0,0,0.749505,13.93463,0)"/></g></g><path style=" stroke:none;fill-rule:evenodd;fill:#ff66c4;fill-opacity:1;" d="M 150.628906 213.796875 C 147.054688 207.097656 144.875 199.804688 144.152344 192.351562 L 156.660156 192.488281 C 157.648438 195.984375 154.144531 199.972656 154.601562 204.324219 C 155.019531 208.429688 158.128906 210.929688 162.070312 211.039062 C 176.6875 211.417969 166.964844 195.476562 169.949219 192.625 C 172.136719 191.625 186.847656 192.191406 190.445312 192.304688 L 190.238281 211.832031 C 185.550781 213.796875 182.777344 210.175781 177.824219 211.976562 C 170.125 214.765625 171.148438 230.214844 179.707031 230.425781 C 184.46875 230.546875 186.359375 226.601562 189.085938 227.765625 C 191.640625 228.863281 190.4375 243.886719 190.453125 249.691406 C 182.992188 249.679688 175.535156 249.34375 168.082031 248.695312 C 169.882812 227.859375 158.9375 227.75 150.628906 213.796875 Z M 150.628906 213.796875 "/><g clip-rule="nonzero" clip-path="url(#3db81bac96)"><path style=" stroke:none;fill-rule:evenodd;fill:#2097d6;fill-opacity:1;" d="M 144.023438 190.675781 C 143.703125 185.917969 143.976562 181.109375 144.867188 176.359375 C 145.195312 175.066406 145.578125 173.792969 145.996094 172.542969 C 147.355469 169.050781 149.496094 163.9375 152.246094 160.386719 C 160.804688 148.390625 174.714844 140.753906 190.09375 140.511719 C 190.445312 164.890625 185.503906 147.851562 177.222656 151.105469 C 170.589844 153.703125 170.734375 169.699219 178.804688 171.300781 C 184.941406 172.519531 184.253906 166.40625 190.09375 168.03125 C 191.085938 171.238281 190.453125 185.902344 190.445312 190.660156 L 169.394531 190.910156 C 166.0625 194.355469 168.875 198.523438 169.121094 202.851562 C 169.636719 212.226562 154.707031 211.648438 156.125 201.914062 C 156.695312 197.96875 159.722656 194.78125 157.621094 190.683594 Z M 144.023438 190.675781 "/></g><path style=" stroke:none;fill-rule:evenodd;fill:#fada09;fill-opacity:1;" d="M 237.855469 192.242188 C 237.070312 201.449219 233.894531 210.390625 228.519531 218.132812 C 218.199219 229.550781 212.675781 231.195312 213.980469 248.695312 C 206.609375 249.335938 199.238281 249.671875 191.871094 249.691406 C 191.914062 245.914062 192.296875 230.945312 191.6875 228.429688 C 190.132812 222.011719 182.527344 230.152344 178.121094 228.519531 C 173.515625 226.8125 172.753906 217.601562 176.429688 214.519531 C 181.472656 210.300781 187.039062 216.65625 191.855469 212.949219 L 191.914062 192.28125 L 205.246094 191.9375 C 212.820312 192.441406 205.609375 198.699219 205.015625 202.539062 C 203.660156 211.296875 213.269531 214.035156 220.066406 211.527344 C 229.039062 208.21875 220.671875 202.257812 221.683594 197.472656 C 223.09375 190.78125 231.972656 191.71875 237.855469 192.242188 Z M 237.855469 192.242188 "/><g clip-rule="nonzero" clip-path="url(#08a2e855cd)"><path style=" stroke:none;fill-rule:evenodd;fill:#52ae4c;fill-opacity:1;" d="M 191.414062 140.511719 C 212.902344 140.769531 231.570312 155.472656 236.820312 176.359375 C 237.847656 181.0625 238.222656 185.84375 237.96875 190.558594 C 233.253906 190.828125 226.441406 189.347656 223.335938 192.160156 C 213.949219 200.644531 229.792969 208.15625 217.8125 210.519531 C 209.292969 212.203125 203.71875 206.722656 207.492188 200.199219 C 209.222656 197.199219 210.832031 195.347656 209.925781 191.894531 C 208.710938 189.476562 198.097656 190.894531 191.863281 190.5 C 191.929688 186.054688 192.417969 172.742188 191.832031 169.175781 C 191.335938 166.195312 188.195312 165.15625 185.503906 166.859375 C 183.554688 168.078125 182.082031 170.730469 178.457031 169.585938 C 173.816406 168.121094 172.585938 158.886719 175.515625 154.351562 C 180.519531 146.59375 191.265625 165.203125 191.464844 147.242188 C 191.496094 144.109375 191.351562 141.964844 191.414062 140.511719 Z M 191.414062 140.511719 "/></g><path style=" stroke:none;fill-rule:evenodd;fill:#f6a32a;fill-opacity:1;" d="M 171.15625 253.320312 L 211.777344 253.320312 C 212.222656 253.320312 212.652344 253.386719 213.0625 253.519531 C 213.472656 253.65625 213.835938 253.84375 214.152344 254.089844 C 214.46875 254.335938 214.710938 254.621094 214.882812 254.945312 C 215.050781 255.265625 215.136719 255.601562 215.136719 255.949219 C 215.136719 256.300781 215.050781 256.632812 214.882812 256.957031 C 214.710938 257.277344 214.46875 257.5625 214.152344 257.808594 C 213.835938 258.054688 213.472656 258.246094 213.0625 258.378906 C 212.652344 258.511719 212.222656 258.578125 211.777344 258.578125 L 171.15625 258.578125 C 170.710938 258.578125 170.28125 258.511719 169.867188 258.378906 C 169.457031 258.246094 169.09375 258.054688 168.777344 257.808594 C 168.464844 257.5625 168.21875 257.277344 168.050781 256.957031 C 167.878906 256.632812 167.792969 256.300781 167.792969 255.949219 C 167.792969 255.601562 167.878906 255.265625 168.050781 254.945312 C 168.21875 254.621094 168.464844 254.335938 168.777344 254.089844 C 169.09375 253.84375 169.457031 253.65625 169.867188 253.519531 C 170.28125 253.386719 170.710938 253.320312 171.15625 253.320312 Z M 171.15625 253.320312 "/><path style=" stroke:none;fill-rule:evenodd;fill:#f6a32a;fill-opacity:1;" d="M 173.34375 260.773438 L 209.582031 260.773438 C 209.976562 260.773438 210.359375 260.839844 210.726562 260.976562 C 211.09375 261.109375 211.417969 261.296875 211.699219 261.542969 C 211.980469 261.792969 212.195312 262.074219 212.347656 262.398438 C 212.5 262.71875 212.578125 263.054688 212.578125 263.402344 C 212.578125 263.753906 212.5 264.089844 212.347656 264.410156 C 212.195312 264.730469 211.980469 265.015625 211.699219 265.261719 C 211.417969 265.507812 211.09375 265.699219 210.726562 265.832031 C 210.359375 265.964844 209.976562 266.03125 209.582031 266.035156 L 173.34375 266.035156 C 172.945312 266.03125 172.5625 265.964844 172.195312 265.832031 C 171.828125 265.699219 171.503906 265.507812 171.222656 265.261719 C 170.941406 265.015625 170.726562 264.730469 170.574219 264.410156 C 170.421875 264.089844 170.347656 263.753906 170.347656 263.402344 C 170.347656 263.054688 170.421875 262.71875 170.574219 262.398438 C 170.726562 262.074219 170.941406 261.792969 171.222656 261.542969 C 171.503906 261.296875 171.828125 261.109375 172.195312 260.976562 C 172.5625 260.839844 172.945312 260.773438 173.34375 260.773438 Z M 173.34375 260.773438 "/><path style=" stroke:none;fill-rule:evenodd;fill:#f6a32a;fill-opacity:1;" d="M 176.613281 268.226562 L 206.320312 268.226562 C 206.644531 268.226562 206.960938 268.292969 207.261719 268.429688 C 207.5625 268.5625 207.828125 268.75 208.058594 269 C 208.289062 269.246094 208.46875 269.527344 208.59375 269.851562 C 208.71875 270.171875 208.78125 270.507812 208.78125 270.859375 C 208.78125 271.207031 208.71875 271.542969 208.59375 271.863281 C 208.46875 272.1875 208.289062 272.46875 208.058594 272.714844 C 207.828125 272.964844 207.5625 273.152344 207.261719 273.285156 C 206.960938 273.421875 206.644531 273.488281 206.320312 273.488281 L 176.613281 273.488281 C 176.285156 273.488281 175.972656 273.421875 175.667969 273.285156 C 175.367188 273.152344 175.101562 272.964844 174.871094 272.714844 C 174.640625 272.46875 174.460938 272.1875 174.335938 271.863281 C 174.210938 271.542969 174.148438 271.207031 174.148438 270.859375 C 174.148438 270.507812 174.210938 270.171875 174.335938 269.851562 C 174.460938 269.527344 174.640625 269.246094 174.871094 269 C 175.101562 268.75 175.367188 268.5625 175.667969 268.429688 C 175.972656 268.292969 176.285156 268.226562 176.613281 268.226562 Z M 176.613281 268.226562 "/><g clip-rule="nonzero" clip-path="url(#03b2d39944)"><path style=" stroke:none;fill-rule:evenodd;fill:#f6a32a;fill-opacity:1;" d="M 204.949219 275.460938 C 204.15625 282.207031 198.421875 287.441406 191.464844 287.441406 C 184.507812 287.441406 178.777344 282.207031 177.984375 275.460938 Z M 204.949219 275.460938 "/></g><g clip-rule="nonzero" clip-path="url(#b7b0dda31d)"><path style=" stroke:none;fill-rule:nonzero;fill:#000000;fill-opacity:1;" d="M 190.289062 113.207031 C 189.714844 113.207031 189.25 113.671875 189.25 114.242188 L 189.25 129.347656 C 189.25 129.917969 189.714844 130.382812 190.289062 130.382812 C 190.863281 130.382812 191.328125 129.917969 191.328125 129.347656 L 191.328125 114.242188 C 191.328125 113.671875 190.863281 113.207031 190.289062 113.207031 Z M 190.289062 113.207031 "/></g><path style=" stroke:none;fill-rule:nonzero;fill:#000000;fill-opacity:1;" d="M 165.472656 118.324219 C 165.273438 117.785156 164.679688 117.507812 164.140625 117.703125 C 163.601562 117.898438 163.324219 118.496094 163.519531 119.03125 L 168.695312 133.226562 C 168.847656 133.644531 169.246094 133.90625 169.671875 133.90625 C 169.789062 133.90625 169.910156 133.886719 170.027344 133.84375 C 170.566406 133.648438 170.84375 133.054688 170.648438 132.515625 Z M 165.472656 118.324219 "/><path style=" stroke:none;fill-rule:nonzero;fill:#000000;fill-opacity:1;" d="M 142.570312 130.984375 C 142.203125 130.546875 141.550781 130.488281 141.109375 130.855469 C 140.671875 131.226562 140.613281 131.878906 140.980469 132.316406 L 150.707031 143.886719 C 150.914062 144.128906 151.207031 144.257812 151.503906 144.257812 C 151.738281 144.257812 151.976562 144.175781 152.171875 144.015625 C 152.609375 143.644531 152.667969 142.992188 152.300781 142.554688 Z M 142.570312 130.984375 "/><path style=" stroke:none;fill-rule:nonzero;fill:#000000;fill-opacity:1;" d="M 138.496094 158.25 L 125.394531 150.699219 C 124.894531 150.414062 124.261719 150.582031 123.972656 151.078125 C 123.6875 151.574219 123.859375 152.207031 124.355469 152.492188 L 137.460938 160.042969 C 137.625 160.140625 137.800781 160.183594 137.976562 160.183594 C 138.335938 160.183594 138.6875 159.996094 138.878906 159.664062 C 139.164062 159.167969 138.996094 158.535156 138.496094 158.25 Z M 138.496094 158.25 "/><g clip-rule="nonzero" clip-path="url(#f5cddf3f28)"><path style=" stroke:none;fill-rule:nonzero;fill:#000000;fill-opacity:1;" d="M 115.644531 177.128906 L 130.546875 179.75 C 130.609375 179.761719 130.667969 179.765625 130.730469 179.765625 C 131.222656 179.765625 131.660156 179.414062 131.75 178.910156 C 131.851562 178.347656 131.472656 177.808594 130.90625 177.710938 L 116.003906 175.085938 C 115.441406 174.988281 114.902344 175.363281 114.800781 175.929688 C 114.703125 176.492188 115.082031 177.03125 115.644531 177.128906 Z M 115.644531 177.128906 "/></g><g clip-rule="nonzero" clip-path="url(#18c98977ad)"><path style=" stroke:none;fill-rule:nonzero;fill:#000000;fill-opacity:1;" d="M 131.648438 199.429688 C 131.546875 198.863281 131.011719 198.488281 130.445312 198.585938 L 115.542969 201.210938 C 114.976562 201.308594 114.601562 201.847656 114.699219 202.410156 C 114.789062 202.914062 115.226562 203.269531 115.722656 203.269531 C 115.78125 203.269531 115.839844 203.261719 115.902344 203.253906 L 130.804688 200.628906 C 131.371094 200.53125 131.746094 199.992188 131.648438 199.429688 Z M 131.648438 199.429688 "/></g><path style=" stroke:none;fill-rule:nonzero;fill:#000000;fill-opacity:1;" d="M 137.164062 218.363281 L 124.058594 225.917969 C 123.5625 226.203125 123.390625 226.835938 123.679688 227.332031 C 123.871094 227.664062 124.21875 227.851562 124.578125 227.851562 C 124.753906 227.851562 124.933594 227.804688 125.097656 227.710938 L 138.199219 220.160156 C 138.699219 219.875 138.867188 219.238281 138.582031 218.746094 C 138.292969 218.25 137.660156 218.078125 137.164062 218.363281 Z M 137.164062 218.363281 "/><path style=" stroke:none;fill-rule:nonzero;fill:#000000;fill-opacity:1;" d="M 216.863281 117.675781 C 216.320312 117.480469 215.726562 117.753906 215.53125 118.292969 L 210.355469 132.484375 C 210.160156 133.023438 210.4375 133.617188 210.976562 133.8125 C 211.09375 133.855469 211.210938 133.875 211.332031 133.875 C 211.753906 133.875 212.152344 133.617188 212.304688 133.195312 L 217.480469 119.003906 C 217.679688 118.464844 217.398438 117.871094 216.863281 117.675781 Z M 216.863281 117.675781 "/><path style=" stroke:none;fill-rule:nonzero;fill:#000000;fill-opacity:1;" d="M 238.835938 131.070312 L 229.109375 142.640625 C 228.742188 143.078125 228.800781 143.730469 229.238281 144.101562 C 229.433594 144.261719 229.671875 144.34375 229.90625 144.34375 C 230.203125 144.34375 230.496094 144.21875 230.703125 143.972656 L 240.429688 132.402344 C 240.796875 131.964844 240.738281 131.3125 240.300781 130.945312 C 239.859375 130.574219 239.207031 130.632812 238.835938 131.070312 Z M 238.835938 131.070312 "/><path style=" stroke:none;fill-rule:nonzero;fill:#000000;fill-opacity:1;" d="M 244.292969 160.378906 L 257.398438 152.828125 C 257.894531 152.542969 258.066406 151.910156 257.777344 151.414062 C 257.492188 150.917969 256.855469 150.746094 256.359375 151.035156 L 243.253906 158.585938 C 242.757812 158.871094 242.589844 159.503906 242.875 160 C 243.066406 160.332031 243.417969 160.519531 243.777344 160.519531 C 243.953125 160.519531 244.128906 160.472656 244.292969 160.378906 Z M 244.292969 160.378906 "/><g clip-rule="nonzero" clip-path="url(#fec9e38250)"><path style=" stroke:none;fill-rule:nonzero;fill:#000000;fill-opacity:1;" d="M 250.242188 179.597656 C 250.332031 180.101562 250.769531 180.453125 251.261719 180.453125 C 251.324219 180.453125 251.382812 180.449219 251.445312 180.4375 L 266.347656 177.816406 C 266.910156 177.714844 267.289062 177.179688 267.1875 176.617188 C 267.089844 176.050781 266.550781 175.675781 265.984375 175.773438 L 251.085938 178.398438 C 250.519531 178.496094 250.140625 179.035156 250.242188 179.597656 Z M 250.242188 179.597656 "/></g><g clip-rule="nonzero" clip-path="url(#19e51b9342)"><path style=" stroke:none;fill-rule:nonzero;fill:#000000;fill-opacity:1;" d="M 266.550781 202.308594 L 251.652344 199.6875 C 251.085938 199.585938 250.546875 199.964844 250.449219 200.527344 C 250.347656 201.089844 250.726562 201.628906 251.289062 201.726562 L 266.191406 204.351562 C 266.253906 204.359375 266.3125 204.367188 266.371094 204.367188 C 266.867188 204.367188 267.304688 204.011719 267.394531 203.507812 C 267.492188 202.945312 267.117188 202.40625 266.550781 202.308594 Z M 266.550781 202.308594 "/></g><g clip-rule="nonzero" clip-path="url(#2a16cc3d9f)"><path style=" stroke:none;fill-rule:nonzero;fill:#000000;fill-opacity:1;" d="M 257.992188 227.4375 L 244.886719 219.882812 C 244.390625 219.597656 243.757812 219.769531 243.46875 220.265625 C 243.183594 220.761719 243.351562 221.394531 243.847656 221.679688 L 256.953125 229.230469 C 257.117188 229.324219 257.296875 229.371094 257.472656 229.371094 C 257.832031 229.371094 258.179688 229.183594 258.371094 228.851562 C 258.660156 228.355469 258.488281 227.722656 257.992188 227.4375 Z M 257.992188 227.4375 "/></g><g style="fill:#000000;fill-opacity:1;"><g transform="translate(50.402502, 246.685793)"><path style="stroke:none" d="M -11.109375 -21.109375 L -6.234375 -18.546875 C -5.734375 -18.285156 -5.394531 -17.90625 -5.21875 -17.40625 C -5.050781 -16.914062 -5.050781 -16.414062 -5.21875 -15.90625 L -5.171875 -15.875 C -4.847656 -16.300781 -4.425781 -16.582031 -3.90625 -16.71875 C -3.394531 -16.851562 -2.894531 -16.789062 -2.40625 -16.53125 L 2.484375 -13.96875 C 3.710938 -13.3125 4.484375 -12.484375 4.796875 -11.484375 C 5.109375 -10.492188 4.929688 -9.367188 4.265625 -8.109375 L 0.921875 -1.75 C 0.773438 -1.46875 0.5625 -1.398438 0.28125 -1.546875 L -20.109375 -12.28125 C -20.378906 -12.425781 -20.441406 -12.640625 -20.296875 -12.921875 L -16.953125 -19.28125 C -16.285156 -20.539062 -15.457031 -21.328125 -14.46875 -21.640625 C -13.476562 -21.953125 -12.359375 -21.773438 -11.109375 -21.109375 Z M -8.953125 -15.484375 L -12.21875 -17.203125 C -12.925781 -17.578125 -13.46875 -17.410156 -13.84375 -16.703125 L -15.109375 -14.296875 L -9.75 -11.46875 L -8.484375 -13.875 C -8.109375 -14.582031 -8.265625 -15.117188 -8.953125 -15.484375 Z M -0.125 -10.84375 L -3.359375 -12.546875 C -4.066406 -12.921875 -4.609375 -12.753906 -4.984375 -12.046875 L -6.25 -9.640625 L -0.890625 -6.8125 L 0.375 -9.21875 C 0.75 -9.925781 0.582031 -10.46875 -0.125 -10.84375 Z M -0.125 -10.84375 "/></g></g><g style="fill:#000000;fill-opacity:1;"><g transform="translate(59.604468, 229.202649)"><path style="stroke:none" d="M -20.296875 -12.921875 L -18.84375 -15.671875 C -18.695312 -15.960938 -18.488281 -16.035156 -18.21875 -15.890625 L 2.171875 -5.15625 C 2.453125 -5.007812 2.519531 -4.789062 2.375 -4.5 L 0.921875 -1.75 C 0.773438 -1.46875 0.5625 -1.398438 0.28125 -1.546875 L -20.109375 -12.28125 C -20.378906 -12.425781 -20.441406 -12.640625 -20.296875 -12.921875 Z M -20.296875 -12.921875 "/></g></g><g style="fill:#000000;fill-opacity:1;"><g transform="translate(65.106098, 218.749907)"><path style="stroke:none" d="M -10.96875 -21.390625 L -4.5 -17.984375 C -2.726562 -17.054688 -1.894531 -15.796875 -2 -14.203125 L 5.890625 -12.375 C 6.265625 -12.300781 6.363281 -12.09375 6.1875 -11.75 L 4.734375 -9 C 4.609375 -8.75 4.40625 -8.664062 4.125 -8.75 L -3.546875 -10.5 L -4.515625 -8.671875 L 2.171875 -5.15625 C 2.453125 -5.007812 2.519531 -4.789062 2.375 -4.5 L 0.921875 -1.75 C 0.773438 -1.46875 0.5625 -1.398438 0.28125 -1.546875 L -20.109375 -12.28125 C -20.378906 -12.425781 -20.441406 -12.640625 -20.296875 -12.921875 L -16.796875 -19.578125 C -16.128906 -20.835938 -15.300781 -21.617188 -14.3125 -21.921875 C -13.332031 -22.234375 -12.21875 -22.054688 -10.96875 -21.390625 Z M -8.03125 -10.53125 L -6.640625 -13.15625 C -6.265625 -13.863281 -6.425781 -14.398438 -7.125 -14.765625 L -12.109375 -17.390625 C -12.816406 -17.765625 -13.359375 -17.597656 -13.734375 -16.890625 L -15.125 -14.265625 Z M -8.03125 -10.53125 "/></g></g><g style="fill:#000000;fill-opacity:1;"><g transform="translate(74.447704, 201.00146)"><path style="stroke:none" d="M -14.6875 -23.59375 L -12.84375 -27.09375 C -12.65625 -27.445312 -12.390625 -27.53125 -12.046875 -27.34375 L 8.125 -16.734375 C 8.476562 -16.546875 8.5625 -16.273438 8.375 -15.921875 L 7.078125 -13.453125 C 6.890625 -13.097656 6.617188 -13.015625 6.265625 -13.203125 L -5.671875 -19.484375 L -5.765625 -19.296875 L 4.828125 -10.359375 C 5.117188 -10.117188 5.179688 -9.84375 5.015625 -9.53125 L 4.328125 -8.234375 C 4.171875 -7.921875 3.910156 -7.804688 3.546875 -7.890625 L -9.828125 -11.578125 L -9.921875 -11.390625 L 2.015625 -5.109375 C 2.367188 -4.921875 2.453125 -4.648438 2.265625 -4.296875 L 0.96875 -1.859375 C 0.789062 -1.503906 0.523438 -1.421875 0.171875 -1.609375 L -20 -12.21875 C -20.34375 -12.40625 -20.425781 -12.675781 -20.25 -13.03125 L -18.390625 -16.53125 C -18.222656 -16.84375 -17.96875 -16.957031 -17.625 -16.875 L -2.859375 -12.859375 L -14.515625 -22.75 C -14.785156 -23 -14.84375 -23.28125 -14.6875 -23.59375 Z M -14.6875 -23.59375 "/></g></g><g style="fill:#000000;fill-opacity:1;"><g transform="translate(86.009508, 179.034777)"><path style="stroke:none" d="M -20.296875 -12.921875 L -18.84375 -15.671875 C -18.695312 -15.960938 -18.488281 -16.035156 -18.21875 -15.890625 L 2.171875 -5.15625 C 2.453125 -5.007812 2.519531 -4.789062 2.375 -4.5 L 0.921875 -1.75 C 0.773438 -1.46875 0.5625 -1.398438 0.28125 -1.546875 L -20.109375 -12.28125 C -20.378906 -12.425781 -20.441406 -12.640625 -20.296875 -12.921875 Z M -20.296875 -12.921875 "/></g></g><g style="fill:#000000;fill-opacity:1;"><g transform="translate(91.511138, 168.582035)"><path style="stroke:none" d="M -16.234375 -20.640625 L -14.78125 -23.40625 C -14.632812 -23.6875 -14.425781 -23.753906 -14.15625 -23.609375 L 6.234375 -12.875 C 6.515625 -12.726562 6.582031 -12.515625 6.4375 -12.234375 L 5.0625 -9.609375 C 4.925781 -9.359375 4.722656 -9.257812 4.453125 -9.3125 L -9 -11.21875 L -9.078125 -11.078125 L 2.171875 -5.15625 C 2.453125 -5.007812 2.519531 -4.789062 2.375 -4.5 L 0.921875 -1.75 C 0.773438 -1.46875 0.5625 -1.398438 0.28125 -1.546875 L -20.109375 -12.28125 C -20.378906 -12.425781 -20.441406 -12.640625 -20.296875 -12.921875 L -18.90625 -15.5625 C -18.78125 -15.800781 -18.585938 -15.894531 -18.328125 -15.84375 L -4.9375 -13.953125 L -4.84375 -14.109375 L -16.046875 -20 C -16.316406 -20.144531 -16.378906 -20.359375 -16.234375 -20.640625 Z M -16.234375 -20.640625 "/></g></g><g style="fill:#000000;fill-opacity:1;"><g transform="translate(101.07616, 150.40911)"><path style="stroke:none" d="M -3.109375 -3.34375 L -16.703125 -10.484375 C -17.953125 -11.148438 -18.726562 -11.976562 -19.03125 -12.96875 C -19.332031 -13.96875 -19.160156 -15.082031 -18.515625 -16.3125 L -16.65625 -19.828125 C -16.007812 -21.066406 -15.191406 -21.84375 -14.203125 -22.15625 C -13.210938 -22.46875 -12.09375 -22.289062 -10.84375 -21.625 L -8.078125 -20.171875 C -7.804688 -20.023438 -7.742188 -19.8125 -7.890625 -19.53125 L -9.296875 -16.875 C -9.441406 -16.59375 -9.648438 -16.523438 -9.921875 -16.671875 L -11.9375 -17.734375 C -12.644531 -18.109375 -13.1875 -17.941406 -13.5625 -17.234375 L -14.5625 -15.328125 C -14.9375 -14.617188 -14.769531 -14.078125 -14.0625 -13.703125 L -1.96875 -7.34375 C -1.257812 -6.96875 -0.71875 -7.132812 -0.34375 -7.84375 L 0.65625 -9.75 C 1.03125 -10.457031 0.863281 -11 0.15625 -11.375 L -3.390625 -13.234375 L -4.109375 -11.859375 C -4.265625 -11.566406 -4.488281 -11.5 -4.78125 -11.65625 L -7.4375 -13.046875 C -7.71875 -13.203125 -7.78125 -13.425781 -7.625 -13.71875 L -5.28125 -18.171875 C -5.132812 -18.453125 -4.921875 -18.515625 -4.640625 -18.359375 L 2.75 -14.484375 C 3.976562 -13.828125 4.75 -13 5.0625 -12 C 5.375 -11.007812 5.207031 -9.894531 4.5625 -8.65625 L 2.703125 -5.140625 C 2.054688 -3.910156 1.234375 -3.140625 0.234375 -2.828125 C -0.765625 -2.515625 -1.878906 -2.6875 -3.109375 -3.34375 Z M -3.109375 -3.34375 "/></g></g><g style="fill:#000000;fill-opacity:1;"><g transform="translate(110.543438, 132.421893)"><path style="stroke:none" d="M -7.96875 -14.84375 L -16.421875 -19.296875 C -16.691406 -19.441406 -16.753906 -19.648438 -16.609375 -19.921875 L -15.171875 -22.65625 C -15.015625 -22.96875 -14.800781 -23.050781 -14.53125 -22.90625 L 5.859375 -12.171875 C 6.140625 -12.023438 6.203125 -11.796875 6.046875 -11.484375 L 4.609375 -8.75 C 4.460938 -8.476562 4.25 -8.414062 3.96875 -8.5625 L -4.46875 -13.015625 L -6.265625 -9.609375 L 2.171875 -5.15625 C 2.453125 -5.007812 2.519531 -4.789062 2.375 -4.5 L 0.9375 -1.78125 C 0.78125 -1.476562 0.5625 -1.398438 0.28125 -1.546875 L -20.109375 -12.28125 C -20.378906 -12.425781 -20.4375 -12.648438 -20.28125 -12.953125 L -18.84375 -15.671875 C -18.695312 -15.960938 -18.488281 -16.035156 -18.21875 -15.890625 L -9.765625 -11.4375 Z M -7.96875 -14.84375 "/></g></g><g style="fill:#000000;fill-opacity:1;"><g transform="translate(119.452172, 115.495874)"><path style="stroke:none" d="M 7.4375 -14.109375 L 5.953125 -11.296875 C 5.828125 -11.078125 5.628906 -11.003906 5.359375 -11.078125 L 1.078125 -12.375 L -1.40625 -7.640625 L 2.09375 -4.90625 C 2.320312 -4.71875 2.375 -4.503906 2.25 -4.265625 L 0.75 -1.4375 C 0.582031 -1.113281 0.375 -1.078125 0.125 -1.328125 L -17.953125 -16.453125 C -18.171875 -16.648438 -18.21875 -16.875 -18.09375 -17.125 L -16.140625 -20.8125 C -16.015625 -21.050781 -15.8125 -21.128906 -15.53125 -21.046875 L 7.171875 -14.71875 C 7.503906 -14.625 7.59375 -14.421875 7.4375 -14.109375 Z M -2.34375 -13.328125 L -12.484375 -16.484375 L -4.140625 -9.921875 Z M -2.34375 -13.328125 "/></g></g><g style="fill:#000000;fill-opacity:1;"><g transform="translate(129.561766, 96.288297)"><path style="stroke:none" d="M -14.6875 -23.59375 L -12.84375 -27.09375 C -12.65625 -27.445312 -12.390625 -27.53125 -12.046875 -27.34375 L 8.125 -16.734375 C 8.476562 -16.546875 8.5625 -16.273438 8.375 -15.921875 L 7.078125 -13.453125 C 6.890625 -13.097656 6.617188 -13.015625 6.265625 -13.203125 L -5.671875 -19.484375 L -5.765625 -19.296875 L 4.828125 -10.359375 C 5.117188 -10.117188 5.179688 -9.84375 5.015625 -9.53125 L 4.328125 -8.234375 C 4.171875 -7.921875 3.910156 -7.804688 3.546875 -7.890625 L -9.828125 -11.578125 L -9.921875 -11.390625 L 2.015625 -5.109375 C 2.367188 -4.921875 2.453125 -4.648438 2.265625 -4.296875 L 0.96875 -1.859375 C 0.789062 -1.503906 0.523438 -1.421875 0.171875 -1.609375 L -20 -12.21875 C -20.34375 -12.40625 -20.425781 -12.675781 -20.25 -13.03125 L -18.390625 -16.53125 C -18.222656 -16.84375 -17.96875 -16.957031 -17.625 -16.875 L -2.859375 -12.859375 L -14.515625 -22.75 C -14.785156 -23 -14.84375 -23.28125 -14.6875 -23.59375 Z M -14.6875 -23.59375 "/></g></g><g style="fill:#000000;fill-opacity:1;"><g transform="translate(248.477791, 88.787322)"><path style="stroke:none" d="M 22.203125 -9.3125 L 23.640625 -6.5625 C 23.785156 -6.269531 23.71875 -6.050781 23.4375 -5.90625 L 3 4.734375 C 2.71875 4.878906 2.503906 4.804688 2.359375 4.515625 L 0.921875 1.765625 C 0.765625 1.472656 0.828125 1.253906 1.109375 1.109375 L 21.546875 -9.53125 C 21.828125 -9.675781 22.046875 -9.601562 22.203125 -9.3125 Z M 22.203125 -9.3125 "/></g></g><g style="fill:#000000;fill-opacity:1;"><g transform="translate(253.932208, 99.264779)"><path style="stroke:none" d="M 26.21875 -1.578125 L 27.671875 1.1875 C 27.816406 1.46875 27.75 1.679688 27.46875 1.828125 L 7.03125 12.46875 C 6.75 12.613281 6.535156 12.546875 6.390625 12.265625 L 5.015625 9.625 C 4.878906 9.382812 4.910156 9.160156 5.109375 8.953125 L 14.34375 -1 L 14.28125 -1.140625 L 3 4.734375 C 2.71875 4.878906 2.503906 4.804688 2.359375 4.515625 L 0.921875 1.765625 C 0.765625 1.472656 0.828125 1.253906 1.109375 1.109375 L 21.546875 -9.53125 C 21.828125 -9.675781 22.046875 -9.601562 22.203125 -9.3125 L 23.5625 -6.6875 C 23.695312 -6.4375 23.660156 -6.21875 23.453125 -6.03125 L 14.265625 3.890625 L 14.34375 4.046875 L 25.578125 -1.796875 C 25.859375 -1.941406 26.070312 -1.867188 26.21875 -1.578125 Z M 26.21875 -1.578125 "/></g></g><g style="fill:#000000;fill-opacity:1;"><g transform="translate(263.415146, 117.48067)"><path style="stroke:none" d="M 26.8125 -0.46875 L 28.125 2.0625 C 28.332031 2.46875 28.21875 2.734375 27.78125 2.859375 L 5.234375 8.875 C 4.878906 8.96875 4.613281 8.851562 4.4375 8.53125 L 3.0625 5.875 C 2.90625 5.570312 2.960938 5.296875 3.234375 5.046875 L 21.109375 -9.953125 C 21.460938 -10.242188 21.742188 -10.1875 21.953125 -9.78125 L 23.265625 -7.25 C 23.441406 -6.925781 23.382812 -6.644531 23.09375 -6.40625 L 10.296875 3.796875 L 26.015625 -0.8125 C 26.378906 -0.882812 26.644531 -0.769531 26.8125 -0.46875 Z M 26.8125 -0.46875 "/></g></g><g style="fill:#000000;fill-opacity:1;"><g transform="translate(273.119583, 136.122042)"><path style="stroke:none" d="M 27.078125 1.09375 L 24.421875 2.484375 C 24.109375 2.640625 23.878906 2.570312 23.734375 2.28125 L 20.265625 -4.375 L 14.953125 -1.609375 L 17.609375 3.484375 C 17.742188 3.753906 17.660156 3.96875 17.359375 4.125 L 14.734375 5.5 C 14.429688 5.65625 14.210938 5.597656 14.078125 5.328125 L 11.421875 0.234375 L 6.03125 3.03125 L 9.5 9.6875 C 9.644531 9.976562 9.582031 10.195312 9.3125 10.34375 L 6.640625 11.734375 C 6.359375 11.878906 6.144531 11.804688 6 11.515625 L 0.90625 1.734375 C 0.757812 1.460938 0.828125 1.253906 1.109375 1.109375 L 21.546875 -9.53125 C 21.828125 -9.675781 22.039062 -9.613281 22.1875 -9.34375 L 27.28125 0.4375 C 27.425781 0.726562 27.359375 0.945312 27.078125 1.09375 Z M 27.078125 1.09375 "/></g></g><g style="fill:#000000;fill-opacity:1;"><g transform="translate(282.214893, 153.593335)"><path style="stroke:none" d="M 26.21875 -1.578125 L 27.671875 1.1875 C 27.816406 1.46875 27.75 1.679688 27.46875 1.828125 L 7.03125 12.46875 C 6.75 12.613281 6.535156 12.546875 6.390625 12.265625 L 5.015625 9.625 C 4.878906 9.382812 4.910156 9.160156 5.109375 8.953125 L 14.34375 -1 L 14.28125 -1.140625 L 3 4.734375 C 2.71875 4.878906 2.503906 4.804688 2.359375 4.515625 L 0.921875 1.765625 C 0.765625 1.472656 0.828125 1.253906 1.109375 1.109375 L 21.546875 -9.53125 C 21.828125 -9.675781 22.046875 -9.601562 22.203125 -9.3125 L 23.5625 -6.6875 C 23.695312 -6.4375 23.660156 -6.21875 23.453125 -6.03125 L 14.265625 3.890625 L 14.34375 4.046875 L 25.578125 -1.796875 C 25.859375 -1.941406 26.070312 -1.867188 26.21875 -1.578125 Z M 26.21875 -1.578125 "/></g></g><g style="fill:#000000;fill-opacity:1;"><g transform="translate(291.697831, 171.809227)"><path style="stroke:none" d="M 21.921875 -9.859375 L 27.015625 -0.078125 C 27.160156 0.210938 27.09375 0.429688 26.8125 0.578125 L 24.15625 1.96875 C 23.863281 2.113281 23.644531 2.039062 23.5 1.75 L 21.890625 -1.328125 L 4.546875 7.703125 C 4.265625 7.847656 4.050781 7.78125 3.90625 7.5 L 2.46875 4.734375 C 2.320312 4.453125 2.390625 4.238281 2.671875 4.09375 L 20.015625 -4.9375 L 18.40625 -8.03125 C 18.257812 -8.3125 18.332031 -8.523438 18.625 -8.671875 L 21.28125 -10.0625 C 21.5625 -10.207031 21.773438 -10.140625 21.921875 -9.859375 Z M 21.921875 -9.859375 "/></g></g><g style="fill:#000000;fill-opacity:1;"><g transform="translate(299.976362, 187.711558)"><path style="stroke:none" d="M 4.515625 -0.65625 L 18.140625 -7.75 C 19.390625 -8.40625 20.507812 -8.570312 21.5 -8.25 C 22.5 -7.9375 23.320312 -7.160156 23.96875 -5.921875 L 25.515625 -2.9375 C 26.171875 -1.6875 26.34375 -0.566406 26.03125 0.421875 C 25.71875 1.410156 24.9375 2.234375 23.6875 2.890625 L 10.0625 9.984375 C 8.820312 10.617188 7.703125 10.78125 6.703125 10.46875 C 5.710938 10.164062 4.890625 9.390625 4.234375 8.140625 L 2.6875 5.15625 C 2.039062 3.914062 1.875 2.796875 2.1875 1.796875 C 2.5 0.796875 3.273438 -0.0195312 4.515625 -0.65625 Z M 6.53125 4.140625 L 7.328125 5.671875 C 7.691406 6.378906 8.222656 6.550781 8.921875 6.1875 L 21.21875 -0.203125 C 21.925781 -0.578125 22.097656 -1.117188 21.734375 -1.828125 L 20.9375 -3.359375 C 20.5625 -4.078125 20.019531 -4.25 19.3125 -3.875 L 7.015625 2.515625 C 6.316406 2.878906 6.15625 3.421875 6.53125 4.140625 Z M 6.53125 4.140625 "/></g></g><g style="fill:#000000;fill-opacity:1;"><g transform="translate(309.085519, 205.20945)"><path style="stroke:none" d="M 23.84375 3.1875 L 17.359375 6.5625 C 15.578125 7.476562 14.0625 7.441406 12.8125 6.453125 L 6.8125 11.90625 C 6.539062 12.164062 6.3125 12.125 6.125 11.78125 L 4.703125 9.015625 C 4.566406 8.765625 4.609375 8.550781 4.828125 8.375 L 10.65625 3.078125 L 9.703125 1.25 L 3 4.734375 C 2.71875 4.878906 2.503906 4.804688 2.359375 4.515625 L 0.921875 1.765625 C 0.765625 1.472656 0.828125 1.253906 1.109375 1.109375 L 21.546875 -9.53125 C 21.828125 -9.675781 22.046875 -9.601562 22.203125 -9.3125 L 25.671875 -2.65625 C 26.328125 -1.382812 26.5 -0.257812 26.1875 0.71875 C 25.875 1.707031 25.09375 2.53125 23.84375 3.1875 Z M 13.21875 -0.59375 L 14.59375 2.03125 C 14.957031 2.738281 15.492188 2.910156 16.203125 2.546875 L 21.203125 -0.046875 C 21.910156 -0.421875 22.082031 -0.960938 21.71875 -1.671875 L 20.34375 -4.296875 Z M 13.21875 -0.59375 "/></g></g><g style="fill:#000000;fill-opacity:1;"><g transform="translate(318.346957, 222.99986)"><path style="stroke:none" d="M 23.96875 -5.921875 L 25.515625 -2.9375 C 26.171875 -1.6875 26.34375 -0.566406 26.03125 0.421875 C 25.71875 1.410156 24.9375 2.234375 23.6875 2.890625 L 20.859375 4.359375 C 20.578125 4.503906 20.363281 4.4375 20.21875 4.15625 L 18.765625 1.375 C 18.617188 1.101562 18.6875 0.894531 18.96875 0.75 L 21.046875 -0.328125 C 21.753906 -0.703125 21.925781 -1.242188 21.5625 -1.953125 L 20.890625 -3.234375 C 20.523438 -3.941406 19.988281 -4.109375 19.28125 -3.734375 L 15.609375 -1.828125 L 16.84375 5.578125 C 16.882812 6.128906 16.675781 6.53125 16.21875 6.78125 L 10.0625 9.984375 C 8.820312 10.617188 7.703125 10.78125 6.703125 10.46875 C 5.710938 10.164062 4.890625 9.390625 4.234375 8.140625 L 2.6875 5.15625 C 2.039062 3.914062 1.875 2.796875 2.1875 1.796875 C 2.5 0.796875 3.273438 -0.0195312 4.515625 -0.65625 L 7.3125 -2.125 C 7.59375 -2.269531 7.8125 -2.195312 7.96875 -1.90625 L 9.40625 0.84375 C 9.550781 1.132812 9.484375 1.351562 9.203125 1.5 L 7.15625 2.578125 C 6.4375 2.941406 6.257812 3.476562 6.625 4.1875 L 7.296875 5.46875 C 7.660156 6.175781 8.203125 6.347656 8.921875 5.984375 L 12.453125 4.140625 L 11.25 -3.25 C 11.15625 -3.8125 11.359375 -4.222656 11.859375 -4.484375 L 18.140625 -7.75 C 19.390625 -8.40625 20.507812 -8.570312 21.5 -8.25 C 22.5 -7.9375 23.320312 -7.160156 23.96875 -5.921875 Z M 23.96875 -5.921875 "/></g></g><g style="fill:#000000;fill-opacity:1;"><g transform="translate(144.386831, 325.247525)"><path style="stroke:none" d="M 1.5 -0.59375 L 1.5 -3.359375 C 1.5 -3.753906 1.695312 -3.953125 2.09375 -3.953125 L 4.828125 -3.953125 C 5.222656 -3.953125 5.421875 -3.753906 5.421875 -3.359375 L 5.421875 -0.59375 C 5.421875 -0.195312 5.222656 0 4.828125 0 L 2.09375 0 C 1.695312 0 1.5 -0.195312 1.5 -0.59375 Z M 1.5 -0.59375 "/></g></g><g style="fill:#000000;fill-opacity:1;"><g transform="translate(151.312252, 325.247525)"><path style="stroke:none" d="M 1.5 -4.3125 L 1.5 -19.671875 C 1.5 -21.085938 1.867188 -22.160156 2.609375 -22.890625 C 3.347656 -23.617188 4.414062 -23.984375 5.8125 -23.984375 L 9.171875 -23.984375 C 10.585938 -23.984375 11.660156 -23.617188 12.390625 -22.890625 C 13.128906 -22.160156 13.5 -21.085938 13.5 -19.671875 L 13.5 -4.3125 C 13.5 -2.914062 13.128906 -1.847656 12.390625 -1.109375 C 11.660156 -0.367188 10.585938 0 9.171875 0 L 5.8125 0 C 4.414062 0 3.347656 -0.367188 2.609375 -1.109375 C 1.867188 -1.847656 1.5 -2.914062 1.5 -4.3125 Z M 6.6875 -3.875 L 8.421875 -3.875 C 9.222656 -3.875 9.625 -4.269531 9.625 -5.0625 L 9.625 -18.921875 C 9.625 -19.722656 9.222656 -20.125 8.421875 -20.125 L 6.6875 -20.125 C 5.882812 -20.125 5.484375 -19.722656 5.484375 -18.921875 L 5.484375 -5.0625 C 5.484375 -4.269531 5.882812 -3.875 6.6875 -3.875 Z M 6.6875 -3.875 "/></g></g><g style="fill:#000000;fill-opacity:1;"><g transform="translate(166.302345, 325.247525)"><path style="stroke:none" d="M 13.828125 -19.671875 L 13.828125 -12.359375 C 13.828125 -10.359375 13.097656 -9.035156 11.640625 -8.390625 L 13.703125 -0.546875 C 13.804688 -0.179688 13.664062 0 13.28125 0 L 10.171875 0 C 9.890625 0 9.71875 -0.140625 9.65625 -0.421875 L 7.640625 -8.03125 L 5.578125 -8.03125 L 5.578125 -0.484375 C 5.578125 -0.160156 5.414062 0 5.09375 0 L 1.984375 0 C 1.660156 0 1.5 -0.160156 1.5 -0.484375 L 1.5 -23.515625 C 1.5 -23.828125 1.660156 -23.984375 1.984375 -23.984375 L 9.5 -23.984375 C 10.925781 -23.984375 12.003906 -23.617188 12.734375 -22.890625 C 13.460938 -22.160156 13.828125 -21.085938 13.828125 -19.671875 Z M 5.578125 -12 L 8.546875 -12 C 9.347656 -12 9.75 -12.394531 9.75 -13.1875 L 9.75 -18.828125 C 9.75 -19.628906 9.347656 -20.03125 8.546875 -20.03125 L 5.578125 -20.03125 Z M 5.578125 -12 "/></g></g><g style="fill:#000000;fill-opacity:1;"><g transform="translate(181.622222, 325.247525)"><path style="stroke:none" d="M 1.5 -4.3125 L 1.5 -19.671875 C 1.5 -21.085938 1.867188 -22.160156 2.609375 -22.890625 C 3.347656 -23.617188 4.414062 -23.984375 5.8125 -23.984375 L 9.78125 -23.984375 C 11.175781 -23.984375 12.242188 -23.617188 12.984375 -22.890625 C 13.722656 -22.160156 14.09375 -21.085938 14.09375 -19.671875 L 14.09375 -16.546875 C 14.09375 -16.234375 13.929688 -16.078125 13.609375 -16.078125 L 10.609375 -16.078125 C 10.296875 -16.078125 10.140625 -16.234375 10.140625 -16.546875 L 10.140625 -18.828125 C 10.140625 -19.628906 9.738281 -20.03125 8.9375 -20.03125 L 6.78125 -20.03125 C 5.976562 -20.03125 5.578125 -19.628906 5.578125 -18.828125 L 5.578125 -5.15625 C 5.578125 -4.351562 5.976562 -3.953125 6.78125 -3.953125 L 8.9375 -3.953125 C 9.738281 -3.953125 10.140625 -4.351562 10.140625 -5.15625 L 10.140625 -9.171875 L 8.578125 -9.171875 C 8.253906 -9.171875 8.09375 -9.332031 8.09375 -9.65625 L 8.09375 -12.65625 C 8.09375 -12.976562 8.253906 -13.140625 8.578125 -13.140625 L 13.609375 -13.140625 C 13.929688 -13.140625 14.09375 -12.976562 14.09375 -12.65625 L 14.09375 -4.3125 C 14.09375 -2.914062 13.722656 -1.847656 12.984375 -1.109375 C 12.242188 -0.367188 11.175781 0 9.78125 0 L 5.8125 0 C 4.414062 0 3.347656 -0.367188 2.609375 -1.109375 C 1.867188 -1.847656 1.5 -2.914062 1.5 -4.3125 Z M 1.5 -4.3125 "/></g></g><g style="fill:#000000;fill-opacity:1;"><g transform="translate(197.211921, 325.247525)"><path style="stroke:none" d="M 1.5 -0.59375 L 1.5 -3.359375 C 1.5 -3.753906 1.695312 -3.953125 2.09375 -3.953125 L 4.828125 -3.953125 C 5.222656 -3.953125 5.421875 -3.753906 5.421875 -3.359375 L 5.421875 -0.59375 C 5.421875 -0.195312 5.222656 0 4.828125 0 L 2.09375 0 C 1.695312 0 1.5 -0.195312 1.5 -0.59375 Z M 1.5 -0.59375 "/></g></g><g style="fill:#000000;fill-opacity:1;"><g transform="translate(204.137342, 325.247525)"><path style="stroke:none" d="M 10.140625 -23.984375 L 12.890625 -23.984375 C 13.054688 -23.984375 13.195312 -23.921875 13.3125 -23.796875 C 13.4375 -23.679688 13.5 -23.546875 13.5 -23.390625 L 13.5 -4.3125 C 13.5 -2.914062 13.128906 -1.847656 12.390625 -1.109375 C 11.660156 -0.367188 10.585938 0 9.171875 0 L 5.8125 0 C 4.414062 0 3.347656 -0.367188 2.609375 -1.109375 C 1.867188 -1.847656 1.5 -2.914062 1.5 -4.3125 L 1.5 -23.390625 C 1.5 -23.546875 1.554688 -23.679688 1.671875 -23.796875 C 1.796875 -23.921875 1.9375 -23.984375 2.09375 -23.984375 L 4.984375 -23.984375 C 5.140625 -23.984375 5.273438 -23.921875 5.390625 -23.796875 C 5.515625 -23.679688 5.578125 -23.546875 5.578125 -23.390625 L 5.578125 -5.15625 C 5.578125 -4.351562 5.976562 -3.953125 6.78125 -3.953125 L 8.328125 -3.953125 C 9.128906 -3.953125 9.53125 -4.351562 9.53125 -5.15625 L 9.53125 -23.390625 C 9.53125 -23.546875 9.585938 -23.679688 9.703125 -23.796875 C 9.828125 -23.921875 9.972656 -23.984375 10.140625 -23.984375 Z M 10.140625 -23.984375 "/></g></g><g style="fill:#000000;fill-opacity:1;"><g transform="translate(219.127435, 325.247525)"><path style="stroke:none" d="M 14.328125 0 L 11.15625 0 C 10.8125 0 10.582031 -0.148438 10.46875 -0.453125 L 6.6875 -9.359375 L 5.578125 -7.21875 L 5.578125 -0.59375 C 5.578125 -0.195312 5.378906 0 4.984375 0 L 2.09375 0 C 1.695312 0 1.5 -0.195312 1.5 -0.59375 L 1.5 -23.390625 C 1.5 -23.785156 1.695312 -23.984375 2.09375 -23.984375 L 4.984375 -23.984375 C 5.378906 -23.984375 5.578125 -23.785156 5.578125 -23.390625 L 5.578125 -14.09375 L 10.1875 -23.53125 C 10.351562 -23.832031 10.585938 -23.984375 10.890625 -23.984375 L 14.03125 -23.984375 C 14.25 -23.984375 14.398438 -23.914062 14.484375 -23.78125 C 14.566406 -23.65625 14.554688 -23.484375 14.453125 -23.265625 L 9.359375 -12.796875 L 14.78125 -0.6875 C 14.882812 -0.488281 14.894531 -0.320312 14.8125 -0.1875 C 14.726562 -0.0625 14.566406 0 14.328125 0 Z M 14.328125 0 "/></g></g><g style="fill:#a6a6a6;fill-opacity:1;"><g transform="translate(47.677236, 369.221171)"><path style="stroke:none" d="M 9.421875 -16.453125 L 9.421875 -14.359375 C 9.421875 -14.117188 9.3125 -14 9.09375 -14 L 3.84375 -14 L 3.84375 -9.796875 L 7.84375 -9.796875 C 8.070312 -9.796875 8.1875 -9.675781 8.1875 -9.4375 L 8.1875 -7.359375 C 8.1875 -7.128906 8.070312 -7.015625 7.84375 -7.015625 L 3.84375 -7.015625 L 3.84375 -2.765625 L 9.09375 -2.765625 C 9.3125 -2.765625 9.421875 -2.65625 9.421875 -2.4375 L 9.421875 -0.328125 C 9.421875 -0.109375 9.3125 0 9.09375 0 L 1.359375 0 C 1.148438 0 1.046875 -0.109375 1.046875 -0.328125 L 1.046875 -16.453125 C 1.046875 -16.671875 1.148438 -16.78125 1.359375 -16.78125 L 9.09375 -16.78125 C 9.3125 -16.78125 9.421875 -16.671875 9.421875 -16.453125 Z M 9.421875 -16.453125 "/></g></g><g style="fill:#a6a6a6;fill-opacity:1;"><g transform="translate(57.939508, 369.221171)"><path style="stroke:none" d="M 9.828125 -16.78125 L 12.59375 -16.78125 C 12.875 -16.78125 13.015625 -16.644531 13.015625 -16.375 L 13.015625 -0.421875 C 13.015625 -0.140625 12.875 0 12.59375 0 L 10.640625 0 C 10.359375 0 10.21875 -0.140625 10.21875 -0.421875 L 10.21875 -9.859375 L 10.078125 -9.859375 L 8 -0.375 C 7.9375 -0.125 7.78125 0 7.53125 0 L 6.5 0 C 6.257812 0 6.109375 -0.125 6.046875 -0.375 L 3.96875 -9.859375 L 3.8125 -9.859375 L 3.8125 -0.421875 C 3.8125 -0.140625 3.675781 0 3.40625 0 L 1.46875 0 C 1.1875 0 1.046875 -0.140625 1.046875 -0.421875 L 1.046875 -16.375 C 1.046875 -16.644531 1.1875 -16.78125 1.46875 -16.78125 L 4.234375 -16.78125 C 4.484375 -16.78125 4.640625 -16.65625 4.703125 -16.40625 L 7.03125 -5.953125 L 9.359375 -16.40625 C 9.429688 -16.65625 9.585938 -16.78125 9.828125 -16.78125 Z M 9.828125 -16.78125 "/></g></g><g style="fill:#a6a6a6;fill-opacity:1;"><g transform="translate(72.000279, 369.221171)"><path style="stroke:none" d="M 1.046875 -0.328125 L 1.046875 -16.453125 C 1.046875 -16.671875 1.160156 -16.78125 1.390625 -16.78125 L 6.421875 -16.78125 C 7.410156 -16.78125 8.160156 -16.523438 8.671875 -16.015625 C 9.179688 -15.503906 9.4375 -14.753906 9.4375 -13.765625 L 9.4375 -8.640625 C 9.4375 -7.660156 9.179688 -6.910156 8.671875 -6.390625 C 8.160156 -5.878906 7.410156 -5.625 6.421875 -5.625 L 3.90625 -5.625 L 3.90625 -0.328125 C 3.90625 -0.109375 3.789062 0 3.5625 0 L 1.390625 0 C 1.160156 0 1.046875 -0.109375 1.046875 -0.328125 Z M 3.90625 -8.390625 L 5.75 -8.390625 C 6.3125 -8.390625 6.59375 -8.671875 6.59375 -9.234375 L 6.59375 -13.171875 C 6.59375 -13.734375 6.3125 -14.015625 5.75 -14.015625 L 3.90625 -14.015625 Z M 3.90625 -8.390625 "/></g></g><g style="fill:#a6a6a6;fill-opacity:1;"><g transform="translate(82.493398, 369.221171)"><path style="stroke:none" d="M 1.046875 -3.015625 L 1.046875 -13.765625 C 1.046875 -14.753906 1.304688 -15.503906 1.828125 -16.015625 C 2.347656 -16.523438 3.097656 -16.78125 4.078125 -16.78125 L 6.421875 -16.78125 C 7.410156 -16.78125 8.160156 -16.523438 8.671875 -16.015625 C 9.179688 -15.503906 9.4375 -14.753906 9.4375 -13.765625 L 9.4375 -3.015625 C 9.4375 -2.035156 9.179688 -1.285156 8.671875 -0.765625 C 8.160156 -0.253906 7.410156 0 6.421875 0 L 4.078125 0 C 3.097656 0 2.347656 -0.253906 1.828125 -0.765625 C 1.304688 -1.285156 1.046875 -2.035156 1.046875 -3.015625 Z M 4.671875 -2.703125 L 5.890625 -2.703125 C 6.453125 -2.703125 6.734375 -2.984375 6.734375 -3.546875 L 6.734375 -13.234375 C 6.734375 -13.796875 6.453125 -14.078125 5.890625 -14.078125 L 4.671875 -14.078125 C 4.117188 -14.078125 3.84375 -13.796875 3.84375 -13.234375 L 3.84375 -3.546875 C 3.84375 -2.984375 4.117188 -2.703125 4.671875 -2.703125 Z M 4.671875 -2.703125 "/></g></g><g style="fill:#a6a6a6;fill-opacity:1;"><g transform="translate(92.566796, 369.221171)"><path style="stroke:none" d="M 12.53125 -16.78125 L 14.515625 -16.78125 C 14.816406 -16.78125 14.953125 -16.632812 14.921875 -16.34375 L 13.109375 -0.40625 C 13.097656 -0.132812 12.953125 0 12.671875 0 L 10.625 0 C 10.382812 0 10.226562 -0.125 10.15625 -0.375 L 7.96875 -9.859375 L 5.765625 -0.359375 C 5.703125 -0.117188 5.550781 0 5.3125 0 L 3.203125 0 C 2.929688 0 2.785156 -0.132812 2.765625 -0.40625 L 1.046875 -16.34375 C 1.015625 -16.632812 1.148438 -16.78125 1.453125 -16.78125 L 3.4375 -16.78125 C 3.707031 -16.78125 3.851562 -16.648438 3.875 -16.390625 L 4.703125 -6.5625 L 4.8125 -6.5625 L 6.890625 -16.40625 C 6.953125 -16.65625 7.101562 -16.78125 7.34375 -16.78125 L 8.609375 -16.78125 C 8.859375 -16.78125 9.007812 -16.65625 9.0625 -16.40625 L 11.125 -6.5625 L 11.234375 -6.5625 L 12.09375 -16.390625 C 12.113281 -16.648438 12.257812 -16.78125 12.53125 -16.78125 Z M 12.53125 -16.78125 "/></g></g><g style="fill:#a6a6a6;fill-opacity:1;"><g transform="translate(108.53732, 369.221171)"><path style="stroke:none" d="M 9.421875 -16.453125 L 9.421875 -14.359375 C 9.421875 -14.117188 9.3125 -14 9.09375 -14 L 3.84375 -14 L 3.84375 -9.796875 L 7.84375 -9.796875 C 8.070312 -9.796875 8.1875 -9.675781 8.1875 -9.4375 L 8.1875 -7.359375 C 8.1875 -7.128906 8.070312 -7.015625 7.84375 -7.015625 L 3.84375 -7.015625 L 3.84375 -2.765625 L 9.09375 -2.765625 C 9.3125 -2.765625 9.421875 -2.65625 9.421875 -2.4375 L 9.421875 -0.328125 C 9.421875 -0.109375 9.3125 0 9.09375 0 L 1.359375 0 C 1.148438 0 1.046875 -0.109375 1.046875 -0.328125 L 1.046875 -16.453125 C 1.046875 -16.671875 1.148438 -16.78125 1.359375 -16.78125 L 9.09375 -16.78125 C 9.3125 -16.78125 9.421875 -16.671875 9.421875 -16.453125 Z M 9.421875 -16.453125 "/></g></g><g style="fill:#a6a6a6;fill-opacity:1;"><g transform="translate(118.799592, 369.221171)"><path style="stroke:none" d="M 9.671875 -13.765625 L 9.671875 -8.640625 C 9.671875 -7.242188 9.160156 -6.320312 8.140625 -5.875 L 9.59375 -0.375 C 9.65625 -0.125 9.554688 0 9.296875 0 L 7.109375 0 C 6.910156 0 6.789062 -0.0976562 6.75 -0.296875 L 5.34375 -5.625 L 3.90625 -5.625 L 3.90625 -0.328125 C 3.90625 -0.109375 3.789062 0 3.5625 0 L 1.390625 0 C 1.160156 0 1.046875 -0.109375 1.046875 -0.328125 L 1.046875 -16.453125 C 1.046875 -16.671875 1.160156 -16.78125 1.390625 -16.78125 L 6.65625 -16.78125 C 7.644531 -16.78125 8.394531 -16.523438 8.90625 -16.015625 C 9.414062 -15.503906 9.671875 -14.753906 9.671875 -13.765625 Z M 3.90625 -8.390625 L 5.984375 -8.390625 C 6.535156 -8.390625 6.8125 -8.671875 6.8125 -9.234375 L 6.8125 -13.171875 C 6.8125 -13.734375 6.535156 -14.015625 5.984375 -14.015625 L 3.90625 -14.015625 Z M 3.90625 -8.390625 "/></g></g><g style="fill:#a6a6a6;fill-opacity:1;"><g transform="translate(129.523558, 369.221171)"><path style="stroke:none" d="M 1.390625 -16.78125 L 3.5625 -16.78125 C 3.789062 -16.78125 3.90625 -16.671875 3.90625 -16.453125 L 3.90625 -0.328125 C 3.90625 -0.109375 3.789062 0 3.5625 0 L 1.390625 0 C 1.160156 0 1.046875 -0.109375 1.046875 -0.328125 L 1.046875 -16.453125 C 1.046875 -16.671875 1.160156 -16.78125 1.390625 -16.78125 Z M 1.390625 -16.78125 "/></g></g><g style="fill:#a6a6a6;fill-opacity:1;"><g transform="translate(134.476312, 369.221171)"><path style="stroke:none" d="M 7.484375 -16.78125 L 9.671875 -16.78125 C 9.898438 -16.78125 10.015625 -16.671875 10.015625 -16.453125 L 10.015625 -0.328125 C 10.015625 -0.109375 9.898438 0 9.671875 0 L 7.59375 0 C 7.394531 0 7.269531 -0.0859375 7.21875 -0.265625 L 4.015625 -9.234375 L 3.90625 -9.234375 L 3.90625 -0.328125 C 3.90625 -0.109375 3.789062 0 3.5625 0 L 1.390625 0 C 1.160156 0 1.046875 -0.109375 1.046875 -0.328125 L 1.046875 -16.453125 C 1.046875 -16.671875 1.160156 -16.78125 1.390625 -16.78125 L 3.46875 -16.78125 C 3.65625 -16.78125 3.78125 -16.691406 3.84375 -16.515625 L 7.03125 -7.59375 L 7.15625 -7.59375 L 7.15625 -16.453125 C 7.15625 -16.671875 7.265625 -16.78125 7.484375 -16.78125 Z M 7.484375 -16.78125 "/></g></g><g style="fill:#a6a6a6;fill-opacity:1;"><g transform="translate(145.536055, 369.221171)"><path style="stroke:none" d="M 1.046875 -3.015625 L 1.046875 -13.765625 C 1.046875 -14.753906 1.304688 -15.503906 1.828125 -16.015625 C 2.347656 -16.523438 3.097656 -16.78125 4.078125 -16.78125 L 6.84375 -16.78125 C 7.820312 -16.78125 8.566406 -16.523438 9.078125 -16.015625 C 9.597656 -15.503906 9.859375 -14.753906 9.859375 -13.765625 L 9.859375 -11.578125 C 9.859375 -11.359375 9.75 -11.25 9.53125 -11.25 L 7.421875 -11.25 C 7.203125 -11.25 7.09375 -11.359375 7.09375 -11.578125 L 7.09375 -13.171875 C 7.09375 -13.734375 6.8125 -14.015625 6.25 -14.015625 L 4.75 -14.015625 C 4.1875 -14.015625 3.90625 -13.734375 3.90625 -13.171875 L 3.90625 -3.609375 C 3.90625 -3.046875 4.1875 -2.765625 4.75 -2.765625 L 6.25 -2.765625 C 6.8125 -2.765625 7.09375 -3.046875 7.09375 -3.609375 L 7.09375 -6.421875 L 6 -6.421875 C 5.78125 -6.421875 5.671875 -6.53125 5.671875 -6.75 L 5.671875 -8.859375 C 5.671875 -9.078125 5.78125 -9.1875 6 -9.1875 L 9.53125 -9.1875 C 9.75 -9.1875 9.859375 -9.078125 9.859375 -8.859375 L 9.859375 -3.015625 C 9.859375 -2.035156 9.597656 -1.285156 9.078125 -0.765625 C 8.566406 -0.253906 7.820312 0 6.84375 0 L 4.078125 0 C 3.097656 0 2.347656 -0.253906 1.828125 -0.765625 C 1.304688 -1.285156 1.046875 -2.035156 1.046875 -3.015625 Z M 1.046875 -3.015625 "/></g></g><g style="fill:#a6a6a6;fill-opacity:1;"><g transform="translate(156.448895, 369.221171)"><path style="stroke:none" d=""/></g></g><g style="fill:#a6a6a6;fill-opacity:1;"><g transform="translate(161.695454, 369.221171)"><path style="stroke:none" d="M 3.90625 -2.765625 L 3.90625 -16.453125 C 3.90625 -16.671875 3.789062 -16.78125 3.5625 -16.78125 L 1.390625 -16.78125 C 1.160156 -16.78125 1.046875 -16.671875 1.046875 -16.453125 L 1.046875 -0.328125 C 1.046875 -0.109375 1.160156 0 1.390625 0 L 8.890625 0 C 9.117188 0 9.234375 -0.109375 9.234375 -0.328125 L 9.234375 -2.4375 C 9.234375 -2.65625 9.117188 -2.765625 8.890625 -2.765625 Z M 3.90625 -2.765625 "/></g></g><g style="fill:#a6a6a6;fill-opacity:1;"><g transform="translate(171.558991, 369.221171)"><path style="stroke:none" d="M 1.390625 -16.78125 L 3.5625 -16.78125 C 3.789062 -16.78125 3.90625 -16.671875 3.90625 -16.453125 L 3.90625 -0.328125 C 3.90625 -0.109375 3.789062 0 3.5625 0 L 1.390625 0 C 1.160156 0 1.046875 -0.109375 1.046875 -0.328125 L 1.046875 -16.453125 C 1.046875 -16.671875 1.160156 -16.78125 1.390625 -16.78125 Z M 1.390625 -16.78125 "/></g></g><g style="fill:#a6a6a6;fill-opacity:1;"><g transform="translate(176.511746, 369.221171)"><path style="stroke:none" d="M 10.03125 0 L 7.8125 0 C 7.570312 0 7.410156 -0.101562 7.328125 -0.3125 L 4.671875 -6.546875 L 3.90625 -5.0625 L 3.90625 -0.421875 C 3.90625 -0.140625 3.765625 0 3.484375 0 L 1.46875 0 C 1.1875 0 1.046875 -0.140625 1.046875 -0.421875 L 1.046875 -16.375 C 1.046875 -16.644531 1.1875 -16.78125 1.46875 -16.78125 L 3.484375 -16.78125 C 3.765625 -16.78125 3.90625 -16.644531 3.90625 -16.375 L 3.90625 -9.859375 L 7.140625 -16.46875 C 7.242188 -16.675781 7.40625 -16.78125 7.625 -16.78125 L 9.828125 -16.78125 C 9.972656 -16.78125 10.070312 -16.734375 10.125 -16.640625 C 10.1875 -16.554688 10.179688 -16.4375 10.109375 -16.28125 L 6.546875 -8.953125 L 10.34375 -0.484375 C 10.414062 -0.335938 10.421875 -0.21875 10.359375 -0.125 C 10.304688 -0.0390625 10.195312 0 10.03125 0 Z M 10.03125 0 "/></g></g><g style="fill:#a6a6a6;fill-opacity:1;"><g transform="translate(187.340641, 369.221171)"><path style="stroke:none" d="M 9.421875 -16.453125 L 9.421875 -14.359375 C 9.421875 -14.117188 9.3125 -14 9.09375 -14 L 3.84375 -14 L 3.84375 -9.796875 L 7.84375 -9.796875 C 8.070312 -9.796875 8.1875 -9.675781 8.1875 -9.4375 L 8.1875 -7.359375 C 8.1875 -7.128906 8.070312 -7.015625 7.84375 -7.015625 L 3.84375 -7.015625 L 3.84375 -2.765625 L 9.09375 -2.765625 C 9.3125 -2.765625 9.421875 -2.65625 9.421875 -2.4375 L 9.421875 -0.328125 C 9.421875 -0.109375 9.3125 0 9.09375 0 L 1.359375 0 C 1.148438 0 1.046875 -0.109375 1.046875 -0.328125 L 1.046875 -16.453125 C 1.046875 -16.671875 1.148438 -16.78125 1.359375 -16.78125 L 9.09375 -16.78125 C 9.3125 -16.78125 9.421875 -16.671875 9.421875 -16.453125 Z M 9.421875 -16.453125 "/></g></g><g style="fill:#a6a6a6;fill-opacity:1;"><g transform="translate(197.812774, 369.221171)"><path style="stroke:none" d=""/></g></g><g style="fill:#a6a6a6;fill-opacity:1;"><g transform="translate(203.059334, 369.221171)"><path style="stroke:none" d="M 9.828125 -16.78125 L 12.59375 -16.78125 C 12.875 -16.78125 13.015625 -16.644531 13.015625 -16.375 L 13.015625 -0.421875 C 13.015625 -0.140625 12.875 0 12.59375 0 L 10.640625 0 C 10.359375 0 10.21875 -0.140625 10.21875 -0.421875 L 10.21875 -9.859375 L 10.078125 -9.859375 L 8 -0.375 C 7.9375 -0.125 7.78125 0 7.53125 0 L 6.5 0 C 6.257812 0 6.109375 -0.125 6.046875 -0.375 L 3.96875 -9.859375 L 3.8125 -9.859375 L 3.8125 -0.421875 C 3.8125 -0.140625 3.675781 0 3.40625 0 L 1.46875 0 C 1.1875 0 1.046875 -0.140625 1.046875 -0.421875 L 1.046875 -16.375 C 1.046875 -16.644531 1.1875 -16.78125 1.46875 -16.78125 L 4.234375 -16.78125 C 4.484375 -16.78125 4.640625 -16.65625 4.703125 -16.40625 L 7.03125 -5.953125 L 9.359375 -16.40625 C 9.429688 -16.65625 9.585938 -16.78125 9.828125 -16.78125 Z M 9.828125 -16.78125 "/></g></g><g style="fill:#a6a6a6;fill-opacity:1;"><g transform="translate(217.120105, 369.221171)"><path style="stroke:none" d="M 1.390625 -16.78125 L 3.5625 -16.78125 C 3.789062 -16.78125 3.90625 -16.671875 3.90625 -16.453125 L 3.90625 -0.328125 C 3.90625 -0.109375 3.789062 0 3.5625 0 L 1.390625 0 C 1.160156 0 1.046875 -0.109375 1.046875 -0.328125 L 1.046875 -16.453125 C 1.046875 -16.671875 1.160156 -16.78125 1.390625 -16.78125 Z M 1.390625 -16.78125 "/></g></g><g style="fill:#a6a6a6;fill-opacity:1;"><g transform="translate(222.072859, 369.221171)"><path style="stroke:none" d="M 7.484375 -16.78125 L 9.671875 -16.78125 C 9.898438 -16.78125 10.015625 -16.671875 10.015625 -16.453125 L 10.015625 -0.328125 C 10.015625 -0.109375 9.898438 0 9.671875 0 L 7.59375 0 C 7.394531 0 7.269531 -0.0859375 7.21875 -0.265625 L 4.015625 -9.234375 L 3.90625 -9.234375 L 3.90625 -0.328125 C 3.90625 -0.109375 3.789062 0 3.5625 0 L 1.390625 0 C 1.160156 0 1.046875 -0.109375 1.046875 -0.328125 L 1.046875 -16.453125 C 1.046875 -16.671875 1.160156 -16.78125 1.390625 -16.78125 L 3.46875 -16.78125 C 3.65625 -16.78125 3.78125 -16.691406 3.84375 -16.515625 L 7.03125 -7.59375 L 7.15625 -7.59375 L 7.15625 -16.453125 C 7.15625 -16.671875 7.265625 -16.78125 7.484375 -16.78125 Z M 7.484375 -16.78125 "/></g></g><g style="fill:#a6a6a6;fill-opacity:1;"><g transform="translate(233.132601, 369.221171)"><path style="stroke:none" d="M 1.046875 -0.328125 L 1.046875 -16.453125 C 1.046875 -16.671875 1.160156 -16.78125 1.390625 -16.78125 L 6.421875 -16.78125 C 7.410156 -16.78125 8.160156 -16.519531 8.671875 -16 C 9.179688 -15.488281 9.4375 -14.738281 9.4375 -13.75 L 9.4375 -3.015625 C 9.4375 -2.035156 9.179688 -1.285156 8.671875 -0.765625 C 8.160156 -0.253906 7.410156 0 6.421875 0 L 1.390625 0 C 1.160156 0 1.046875 -0.109375 1.046875 -0.328125 Z M 3.90625 -2.765625 L 5.828125 -2.765625 C 6.390625 -2.765625 6.671875 -3.046875 6.671875 -3.609375 L 6.671875 -13.15625 C 6.671875 -13.726562 6.390625 -14.015625 5.828125 -14.015625 L 3.90625 -14.015625 Z M 3.90625 -2.765625 "/></g></g><g style="fill:#a6a6a6;fill-opacity:1;"><g transform="translate(243.625732, 369.221171)"><path style="stroke:none" d="M 9.421875 -16.453125 L 9.421875 -14.359375 C 9.421875 -14.117188 9.3125 -14 9.09375 -14 L 3.84375 -14 L 3.84375 -9.796875 L 7.84375 -9.796875 C 8.070312 -9.796875 8.1875 -9.675781 8.1875 -9.4375 L 8.1875 -7.359375 C 8.1875 -7.128906 8.070312 -7.015625 7.84375 -7.015625 L 3.84375 -7.015625 L 3.84375 -2.765625 L 9.09375 -2.765625 C 9.3125 -2.765625 9.421875 -2.65625 9.421875 -2.4375 L 9.421875 -0.328125 C 9.421875 -0.109375 9.3125 0 9.09375 0 L 1.359375 0 C 1.148438 0 1.046875 -0.109375 1.046875 -0.328125 L 1.046875 -16.453125 C 1.046875 -16.671875 1.148438 -16.78125 1.359375 -16.78125 L 9.09375 -16.78125 C 9.3125 -16.78125 9.421875 -16.671875 9.421875 -16.453125 Z M 9.421875 -16.453125 "/></g></g><g style="fill:#a6a6a6;fill-opacity:1;"><g transform="translate(253.887992, 369.221171)"><path style="stroke:none" d="M 1.046875 -0.328125 L 1.046875 -16.453125 C 1.046875 -16.671875 1.160156 -16.78125 1.390625 -16.78125 L 6.421875 -16.78125 C 7.410156 -16.78125 8.160156 -16.519531 8.671875 -16 C 9.179688 -15.488281 9.4375 -14.738281 9.4375 -13.75 L 9.4375 -3.015625 C 9.4375 -2.035156 9.179688 -1.285156 8.671875 -0.765625 C 8.160156 -0.253906 7.410156 0 6.421875 0 L 1.390625 0 C 1.160156 0 1.046875 -0.109375 1.046875 -0.328125 Z M 3.90625 -2.765625 L 5.828125 -2.765625 C 6.390625 -2.765625 6.671875 -3.046875 6.671875 -3.609375 L 6.671875 -13.15625 C 6.671875 -13.726562 6.390625 -14.015625 5.828125 -14.015625 L 3.90625 -14.015625 Z M 3.90625 -2.765625 "/></g></g><g style="fill:#a6a6a6;fill-opacity:1;"><g transform="translate(264.381111, 369.221171)"><path style="stroke:none" d=""/></g></g><g style="fill:#a6a6a6;fill-opacity:1;"><g transform="translate(269.627671, 369.221171)"><path style="stroke:none" d="M 1.046875 -0.328125 L 1.046875 -16.453125 C 1.046875 -16.671875 1.160156 -16.78125 1.390625 -16.78125 L 6.421875 -16.78125 C 7.410156 -16.78125 8.160156 -16.523438 8.671875 -16.015625 C 9.179688 -15.503906 9.4375 -14.753906 9.4375 -13.765625 L 9.4375 -8.640625 C 9.4375 -7.660156 9.179688 -6.910156 8.671875 -6.390625 C 8.160156 -5.878906 7.410156 -5.625 6.421875 -5.625 L 3.90625 -5.625 L 3.90625 -0.328125 C 3.90625 -0.109375 3.789062 0 3.5625 0 L 1.390625 0 C 1.160156 0 1.046875 -0.109375 1.046875 -0.328125 Z M 3.90625 -8.390625 L 5.75 -8.390625 C 6.3125 -8.390625 6.59375 -8.671875 6.59375 -9.234375 L 6.59375 -13.171875 C 6.59375 -13.734375 6.3125 -14.015625 5.75 -14.015625 L 3.90625 -14.015625 Z M 3.90625 -8.390625 "/></g></g><g style="fill:#a6a6a6;fill-opacity:1;"><g transform="translate(280.120789, 369.221171)"><path style="stroke:none" d="M 9.421875 -16.453125 L 9.421875 -14.359375 C 9.421875 -14.117188 9.3125 -14 9.09375 -14 L 3.84375 -14 L 3.84375 -9.796875 L 7.84375 -9.796875 C 8.070312 -9.796875 8.1875 -9.675781 8.1875 -9.4375 L 8.1875 -7.359375 C 8.1875 -7.128906 8.070312 -7.015625 7.84375 -7.015625 L 3.84375 -7.015625 L 3.84375 -2.765625 L 9.09375 -2.765625 C 9.3125 -2.765625 9.421875 -2.65625 9.421875 -2.4375 L 9.421875 -0.328125 C 9.421875 -0.109375 9.3125 0 9.09375 0 L 1.359375 0 C 1.148438 0 1.046875 -0.109375 1.046875 -0.328125 L 1.046875 -16.453125 C 1.046875 -16.671875 1.148438 -16.78125 1.359375 -16.78125 L 9.09375 -16.78125 C 9.3125 -16.78125 9.421875 -16.671875 9.421875 -16.453125 Z M 9.421875 -16.453125 "/></g></g><g style="fill:#a6a6a6;fill-opacity:1;"><g transform="translate(290.592911, 369.221171)"><path style="stroke:none" d="M 1.046875 -3.015625 L 1.046875 -13.765625 C 1.046875 -14.753906 1.304688 -15.503906 1.828125 -16.015625 C 2.347656 -16.523438 3.097656 -16.78125 4.078125 -16.78125 L 6.421875 -16.78125 C 7.410156 -16.78125 8.160156 -16.523438 8.671875 -16.015625 C 9.179688 -15.503906 9.4375 -14.753906 9.4375 -13.765625 L 9.4375 -3.015625 C 9.4375 -2.035156 9.179688 -1.285156 8.671875 -0.765625 C 8.160156 -0.253906 7.410156 0 6.421875 0 L 4.078125 0 C 3.097656 0 2.347656 -0.253906 1.828125 -0.765625 C 1.304688 -1.285156 1.046875 -2.035156 1.046875 -3.015625 Z M 4.671875 -2.703125 L 5.890625 -2.703125 C 6.453125 -2.703125 6.734375 -2.984375 6.734375 -3.546875 L 6.734375 -13.234375 C 6.734375 -13.796875 6.453125 -14.078125 5.890625 -14.078125 L 4.671875 -14.078125 C 4.117188 -14.078125 3.84375 -13.796875 3.84375 -13.234375 L 3.84375 -3.546875 C 3.84375 -2.984375 4.117188 -2.703125 4.671875 -2.703125 Z M 4.671875 -2.703125 "/></g></g><g style="fill:#a6a6a6;fill-opacity:1;"><g transform="translate(301.086029, 369.221171)"><path style="stroke:none" d="M 1.046875 -0.328125 L 1.046875 -16.453125 C 1.046875 -16.671875 1.160156 -16.78125 1.390625 -16.78125 L 6.421875 -16.78125 C 7.410156 -16.78125 8.160156 -16.523438 8.671875 -16.015625 C 9.179688 -15.503906 9.4375 -14.753906 9.4375 -13.765625 L 9.4375 -8.640625 C 9.4375 -7.660156 9.179688 -6.910156 8.671875 -6.390625 C 8.160156 -5.878906 7.410156 -5.625 6.421875 -5.625 L 3.90625 -5.625 L 3.90625 -0.328125 C 3.90625 -0.109375 3.789062 0 3.5625 0 L 1.390625 0 C 1.160156 0 1.046875 -0.109375 1.046875 -0.328125 Z M 3.90625 -8.390625 L 5.75 -8.390625 C 6.3125 -8.390625 6.59375 -8.671875 6.59375 -9.234375 L 6.59375 -13.171875 C 6.59375 -13.734375 6.3125 -14.015625 5.75 -14.015625 L 3.90625 -14.015625 Z M 3.90625 -8.390625 "/></g></g><g style="fill:#a6a6a6;fill-opacity:1;"><g transform="translate(311.579148, 369.221171)"><path style="stroke:none" d="M 3.90625 -2.765625 L 3.90625 -16.453125 C 3.90625 -16.671875 3.789062 -16.78125 3.5625 -16.78125 L 1.390625 -16.78125 C 1.160156 -16.78125 1.046875 -16.671875 1.046875 -16.453125 L 1.046875 -0.328125 C 1.046875 -0.109375 1.160156 0 1.390625 0 L 8.890625 0 C 9.117188 0 9.234375 -0.109375 9.234375 -0.328125 L 9.234375 -2.4375 C 9.234375 -2.65625 9.117188 -2.765625 8.890625 -2.765625 Z M 3.90625 -2.765625 "/></g></g><g style="fill:#a6a6a6;fill-opacity:1;"><g transform="translate(321.442708, 369.221171)"><path style="stroke:none" d="M 9.421875 -16.453125 L 9.421875 -14.359375 C 9.421875 -14.117188 9.3125 -14 9.09375 -14 L 3.84375 -14 L 3.84375 -9.796875 L 7.84375 -9.796875 C 8.070312 -9.796875 8.1875 -9.675781 8.1875 -9.4375 L 8.1875 -7.359375 C 8.1875 -7.128906 8.070312 -7.015625 7.84375 -7.015625 L 3.84375 -7.015625 L 3.84375 -2.765625 L 9.09375 -2.765625 C 9.3125 -2.765625 9.421875 -2.65625 9.421875 -2.4375 L 9.421875 -0.328125 C 9.421875 -0.109375 9.3125 0 9.09375 0 L 1.359375 0 C 1.148438 0 1.046875 -0.109375 1.046875 -0.328125 L 1.046875 -16.453125 C 1.046875 -16.671875 1.148438 -16.78125 1.359375 -16.78125 L 9.09375 -16.78125 C 9.3125 -16.78125 9.421875 -16.671875 9.421875 -16.453125 Z M 9.421875 -16.453125 "/></g></g></g></svg>