<svg xmlns="http://www.w3.org/2000/svg" xmlns:xlink="http://www.w3.org/1999/xlink" width="544" zoomAndPan="magnify" viewBox="0 0 408 383.249997" height="511" preserveAspectRatio="xMidYMid meet" version="1.2"><defs><clipPath id="383b81d4f7"><path d="M 55 43 L 346 43 L 346 309.460938 L 55 309.460938 Z M 55 43 "/></clipPath><clipPath id="87f7589e48"><path d="M 237.683594 64.992188 L 340.242188 244.46875 C 347.925781 257.914062 347.871094 274.429688 340.097656 287.824219 C 332.324219 301.214844 318.011719 309.460938 302.527344 309.460938 L 98.566406 309.460938 C 83.082031 309.460938 68.765625 301.214844 60.996094 287.824219 C 53.222656 274.429688 53.167969 257.914062 60.851562 244.46875 L 163.410156 64.992188 C 171.023438 51.664062 185.195312 43.4375 200.546875 43.4375 C 215.894531 43.4375 230.070312 51.664062 237.683594 64.992188 Z M 237.683594 64.992188 "/></clipPath><clipPath id="b55cd8d985"><path d="M 0 0.355469 L 291 0.355469 L 291 266.460938 L 0 266.460938 Z M 0 0.355469 "/></clipPath><clipPath id="460ea95e49"><path d="M 182.683594 21.992188 L 285.242188 201.46875 C 292.925781 214.914062 292.871094 231.429688 285.097656 244.824219 C 277.324219 258.214844 263.011719 266.460938 247.527344 266.460938 L 43.566406 266.460938 C 28.082031 266.460938 13.765625 258.214844 5.996094 244.824219 C -1.777344 231.429688 -1.832031 214.914062 5.851562 201.46875 L 108.410156 21.992188 C 116.023438 8.664062 130.195312 0.4375 145.546875 0.4375 C 160.894531 0.4375 175.070312 8.664062 182.683594 21.992188 Z M 182.683594 21.992188 "/></clipPath><clipPath id="07965e78bb"><rect x="0" width="291" y="0" height="267"/></clipPath><clipPath id="f5812bdec1"><path d="M 55 43 L 346 43 L 346 309.144531 L 55 309.144531 Z M 55 43 "/></clipPath><clipPath id="eff7a7918e"><path d="M 237.679688 64.988281 L 340.234375 244.460938 C 347.917969 257.90625 347.859375 274.421875 340.089844 287.8125 C 332.316406 301.207031 318.003906 309.449219 302.519531 309.449219 L 98.566406 309.449219 C 83.082031 309.449219 68.765625 301.207031 60.996094 287.8125 C 53.222656 274.421875 53.167969 257.90625 60.851562 244.460938 L 163.40625 64.988281 C 171.019531 51.664062 185.191406 43.4375 200.542969 43.4375 C 215.890625 43.4375 230.0625 51.664062 237.679688 64.988281 Z M 237.679688 64.988281 "/></clipPath><clipPath id="1ae182b179"><path d="M 153.308594 191 L 201 191 L 201 250 L 153.308594 250 Z M 153.308594 191 "/></clipPath><clipPath id="095285cbb7"><path d="M 153.308594 140.328125 L 201 140.328125 L 201 210 L 153.308594 210 Z M 153.308594 140.328125 "/></clipPath><clipPath id="aef6fdddd6"><path d="M 183 191 L 247.625 191 L 247.625 250 L 183 250 Z M 183 191 "/></clipPath><clipPath id="eb0191ca31"><path d="M 183 140.328125 L 247.625 140.328125 L 247.625 211 L 183 211 Z M 183 140.328125 "/></clipPath><clipPath id="daa79da9a8"><path d="M 187 275 L 215 275 L 215 287.042969 L 187 287.042969 Z M 187 275 "/></clipPath><clipPath id="d82d7d31fe"><path d="M 198 113.058594 L 201 113.058594 L 201 131 L 198 131 Z M 198 113.058594 "/></clipPath><clipPath id="a637e18028"><path d="M 124.238281 174 L 142 174 L 142 180 L 124.238281 180 Z M 124.238281 174 "/></clipPath><clipPath id="e45e67c69b"><path d="M 124.238281 198 L 142 198 L 142 204 L 124.238281 204 Z M 124.238281 198 "/></clipPath><clipPath id="c4cc183bdc"><path d="M 259 175 L 276.941406 175 L 276.941406 181 L 259 181 Z M 259 175 "/></clipPath><clipPath id="6af3c38804"><path d="M 259 199 L 276.941406 199 L 276.941406 205 L 259 205 Z M 259 199 "/></clipPath><clipPath id="9f4eaac52a"><path d="M 252 219 L 268 219 L 268 229.082031 L 252 229.082031 Z M 252 219 "/></clipPath></defs><g id="8f0a01f28f"><g clip-rule="nonzero" clip-path="url(#383b81d4f7)"><g clip-rule="nonzero" clip-path="url(#87f7589e48)"><g transform="matrix(1,0,0,1,55,43)"><g clip-path="url(#07965e78bb)"><g clip-rule="nonzero" clip-path="url(#b55cd8d985)"><g clip-rule="nonzero" clip-path="url(#460ea95e49)"><path style=" stroke:none;fill-rule:nonzero;fill:#ffffff;fill-opacity:1;" d="M -31.289062 -43 L 322.898438 -43 L 322.898438 266.460938 L -31.289062 266.460938 Z M -31.289062 -43 "/></g></g></g></g></g></g><g clip-rule="nonzero" clip-path="url(#f5812bdec1)"><g clip-rule="nonzero" clip-path="url(#eff7a7918e)"><path style="fill:none;stroke-width:8;stroke-linecap:butt;stroke-linejoin:miter;stroke:#000000;stroke-opacity:1;stroke-miterlimit:4;" d="M 285.845759 86.820604 L 422.852941 326.585782 C 433.117782 344.547949 433.039504 366.611877 422.659856 384.500984 C 412.274989 402.39531 393.15431 413.4064 372.468073 413.4064 L 99.998392 413.4064 C 79.312155 413.4064 60.186257 402.39531 49.806608 384.500984 C 39.421742 366.611877 39.348682 344.547949 49.613523 326.585782 L 186.620705 86.820604 C 196.791612 69.020212 215.724425 58.029996 236.233232 58.029996 C 256.736821 58.029996 275.669633 69.020212 285.845759 86.820604 Z M 285.845759 86.820604 " transform="matrix(0.748535,0,0,0.748535,23.714098,0.00000998047)"/></g></g><g clip-rule="nonzero" clip-path="url(#1ae182b179)"><path style=" stroke:none;fill-rule:evenodd;fill:#ff66c4;fill-opacity:1;" d="M 160.234375 213.519531 C 156.664062 206.828125 154.484375 199.546875 153.761719 192.101562 L 166.253906 192.238281 C 167.242188 195.734375 163.742188 199.714844 164.199219 204.058594 C 164.617188 208.160156 167.722656 210.660156 171.65625 210.765625 C 186.257812 211.144531 176.542969 195.222656 179.527344 192.375 C 181.710938 191.378906 196.402344 191.941406 199.996094 192.054688 L 199.789062 211.554688 C 195.109375 213.519531 192.335938 209.90625 187.390625 211.703125 C 179.703125 214.488281 180.722656 229.914062 189.269531 230.128906 C 194.027344 230.25 195.914062 226.308594 198.640625 227.472656 C 201.191406 228.566406 199.988281 243.570312 200.003906 249.371094 C 192.550781 249.355469 185.105469 249.019531 177.664062 248.371094 C 179.460938 227.5625 168.527344 227.457031 160.234375 213.519531 Z M 160.234375 213.519531 "/></g><g clip-rule="nonzero" clip-path="url(#095285cbb7)"><path style=" stroke:none;fill-rule:evenodd;fill:#2097d6;fill-opacity:1;" d="M 153.632812 190.425781 C 153.3125 185.679688 153.589844 180.875 154.476562 176.132812 C 154.804688 174.839844 155.1875 173.566406 155.605469 172.320312 C 156.960938 168.832031 159.097656 163.726562 161.847656 160.179688 C 170.394531 148.199219 184.285156 140.574219 199.644531 140.328125 C 199.996094 164.679688 195.0625 147.660156 186.789062 150.910156 C 180.167969 153.503906 180.3125 169.480469 188.371094 171.078125 C 194.5 172.296875 193.8125 166.191406 199.644531 167.8125 C 200.632812 171.019531 200.003906 185.664062 199.996094 190.410156 L 178.972656 190.664062 C 175.644531 194.105469 178.453125 198.265625 178.699219 202.589844 C 179.214844 211.953125 164.304688 211.375 165.71875 201.652344 C 166.292969 197.710938 169.3125 194.53125 167.210938 190.433594 Z M 153.632812 190.425781 "/></g><g clip-rule="nonzero" clip-path="url(#aef6fdddd6)"><path style=" stroke:none;fill-rule:evenodd;fill:#fada09;fill-opacity:1;" d="M 247.34375 191.996094 C 246.5625 201.191406 243.386719 210.117188 238.019531 217.851562 C 227.714844 229.253906 222.195312 230.898438 223.5 248.371094 C 216.136719 249.011719 208.777344 249.347656 201.417969 249.371094 C 201.464844 245.59375 201.84375 230.644531 201.234375 228.132812 C 199.683594 221.726562 192.085938 229.855469 187.6875 228.226562 C 183.089844 226.519531 182.328125 217.320312 185.996094 214.242188 C 191.035156 210.027344 196.59375 216.375 201.402344 212.675781 L 201.464844 192.035156 L 214.777344 191.691406 C 222.34375 192.191406 215.140625 198.441406 214.546875 202.277344 C 213.191406 211.023438 222.789062 213.757812 229.582031 211.253906 C 238.539062 207.949219 230.179688 201.996094 231.195312 197.214844 C 232.601562 190.535156 241.46875 191.46875 247.34375 191.996094 Z M 247.34375 191.996094 "/></g><g clip-rule="nonzero" clip-path="url(#eb0191ca31)"><path style=" stroke:none;fill-rule:evenodd;fill:#52ae4c;fill-opacity:1;" d="M 200.960938 140.328125 C 222.425781 140.585938 241.066406 155.269531 246.308594 176.132812 C 247.335938 180.828125 247.710938 185.601562 247.460938 190.3125 C 242.746094 190.578125 235.945312 189.101562 232.84375 191.910156 C 223.46875 200.382812 239.292969 207.886719 227.328125 210.246094 C 218.816406 211.929688 213.253906 206.457031 217.019531 199.941406 C 218.75 196.941406 220.355469 195.09375 219.449219 191.644531 C 218.238281 189.230469 207.636719 190.648438 201.410156 190.253906 C 201.480469 185.816406 201.964844 172.519531 201.378906 168.957031 C 200.886719 165.980469 197.75 164.945312 195.0625 166.640625 C 193.113281 167.859375 191.644531 170.507812 188.023438 169.367188 C 183.386719 167.90625 182.160156 158.679688 185.082031 154.152344 C 190.085938 146.402344 200.816406 164.988281 201.015625 147.050781 C 201.046875 143.921875 200.902344 141.78125 200.960938 140.328125 Z M 200.960938 140.328125 "/></g><path style=" stroke:none;fill-rule:evenodd;fill:#f6a32a;fill-opacity:1;" d="M 180.730469 252.992188 L 221.300781 252.992188 C 221.746094 252.992188 222.171875 253.058594 222.582031 253.191406 C 222.996094 253.328125 223.359375 253.515625 223.671875 253.761719 C 223.988281 254.007812 224.230469 254.292969 224.398438 254.613281 C 224.570312 254.9375 224.65625 255.269531 224.65625 255.617188 C 224.65625 255.96875 224.570312 256.300781 224.398438 256.625 C 224.230469 256.945312 223.988281 257.230469 223.671875 257.476562 C 223.359375 257.722656 222.996094 257.910156 222.582031 258.046875 C 222.171875 258.179688 221.746094 258.246094 221.300781 258.246094 L 180.730469 258.246094 C 180.285156 258.246094 179.855469 258.179688 179.445312 258.046875 C 179.035156 257.910156 178.671875 257.722656 178.355469 257.476562 C 178.042969 257.230469 177.800781 256.945312 177.628906 256.625 C 177.457031 256.300781 177.375 255.96875 177.375 255.617188 C 177.375 255.269531 177.457031 254.9375 177.628906 254.613281 C 177.800781 254.292969 178.042969 254.007812 178.355469 253.761719 C 178.671875 253.515625 179.035156 253.328125 179.445312 253.191406 C 179.855469 253.058594 180.285156 252.992188 180.730469 252.992188 Z M 180.730469 252.992188 "/><path style=" stroke:none;fill-rule:evenodd;fill:#f6a32a;fill-opacity:1;" d="M 182.914062 260.4375 L 219.105469 260.4375 C 219.503906 260.4375 219.886719 260.503906 220.25 260.636719 C 220.617188 260.769531 220.941406 260.960938 221.222656 261.207031 C 221.503906 261.453125 221.71875 261.734375 221.871094 262.058594 C 222.023438 262.378906 222.097656 262.714844 222.097656 263.0625 C 222.097656 263.410156 222.023438 263.746094 221.871094 264.066406 C 221.71875 264.390625 221.503906 264.671875 221.222656 264.917969 C 220.941406 265.164062 220.617188 265.355469 220.25 265.488281 C 219.886719 265.621094 219.503906 265.6875 219.105469 265.6875 L 182.914062 265.6875 C 182.519531 265.6875 182.136719 265.621094 181.769531 265.488281 C 181.402344 265.355469 181.078125 265.164062 180.800781 264.917969 C 180.519531 264.671875 180.304688 264.390625 180.152344 264.066406 C 180 263.746094 179.921875 263.410156 179.921875 263.0625 C 179.921875 262.714844 180 262.378906 180.152344 262.058594 C 180.304688 261.734375 180.519531 261.453125 180.800781 261.207031 C 181.078125 260.960938 181.402344 260.769531 181.769531 260.636719 C 182.136719 260.503906 182.519531 260.4375 182.914062 260.4375 Z M 182.914062 260.4375 "/><path style=" stroke:none;fill-rule:evenodd;fill:#f6a32a;fill-opacity:1;" d="M 186.179688 267.882812 L 215.847656 267.882812 C 216.175781 267.882812 216.488281 267.949219 216.789062 268.082031 C 217.089844 268.214844 217.355469 268.402344 217.585938 268.648438 C 217.816406 268.894531 217.996094 269.179688 218.121094 269.503906 C 218.246094 269.824219 218.308594 270.160156 218.308594 270.507812 C 218.308594 270.855469 218.246094 271.191406 218.121094 271.511719 C 217.996094 271.832031 217.816406 272.117188 217.585938 272.363281 C 217.355469 272.609375 217.089844 272.800781 216.789062 272.933594 C 216.488281 273.066406 216.175781 273.132812 215.847656 273.132812 L 186.179688 273.132812 C 185.855469 273.132812 185.539062 273.066406 185.238281 272.933594 C 184.9375 272.800781 184.671875 272.609375 184.441406 272.363281 C 184.210938 272.117188 184.035156 271.832031 183.910156 271.511719 C 183.785156 271.191406 183.722656 270.855469 183.722656 270.507812 C 183.722656 270.160156 183.785156 269.824219 183.910156 269.503906 C 184.035156 269.179688 184.210938 268.894531 184.441406 268.648438 C 184.671875 268.402344 184.9375 268.214844 185.238281 268.082031 C 185.539062 267.949219 185.855469 267.882812 186.179688 267.882812 Z M 186.179688 267.882812 "/><g clip-rule="nonzero" clip-path="url(#daa79da9a8)"><path style=" stroke:none;fill-rule:evenodd;fill:#f6a32a;fill-opacity:1;" d="M 214.480469 275.105469 C 213.6875 281.839844 207.964844 287.070312 201.015625 287.070312 C 194.066406 287.070312 188.339844 281.839844 187.550781 275.105469 Z M 214.480469 275.105469 "/></g><g clip-rule="nonzero" clip-path="url(#d82d7d31fe)"><path style=" stroke:none;fill-rule:nonzero;fill:#000000;fill-opacity:1;" d="M 199.839844 113.058594 C 199.265625 113.058594 198.800781 113.523438 198.800781 114.09375 L 198.800781 129.179688 C 198.800781 129.75 199.265625 130.214844 199.839844 130.214844 C 200.410156 130.214844 200.875 129.75 200.875 129.179688 L 200.875 114.09375 C 200.875 113.523438 200.410156 113.058594 199.839844 113.058594 Z M 199.839844 113.058594 "/></g><path style=" stroke:none;fill-rule:nonzero;fill:#000000;fill-opacity:1;" d="M 175.054688 118.171875 C 174.859375 117.632812 174.261719 117.355469 173.722656 117.550781 C 173.1875 117.746094 172.910156 118.339844 173.105469 118.878906 L 178.273438 133.050781 C 178.425781 133.472656 178.824219 133.734375 179.25 133.734375 C 179.367188 133.734375 179.484375 133.714844 179.601562 133.671875 C 180.140625 133.476562 180.417969 132.882812 180.222656 132.34375 Z M 175.054688 118.171875 "/><path style=" stroke:none;fill-rule:nonzero;fill:#000000;fill-opacity:1;" d="M 152.183594 130.816406 C 151.816406 130.378906 151.164062 130.320312 150.722656 130.6875 C 150.285156 131.054688 150.226562 131.707031 150.597656 132.144531 L 160.308594 143.699219 C 160.515625 143.945312 160.808594 144.070312 161.105469 144.070312 C 161.339844 144.070312 161.578125 143.992188 161.769531 143.828125 C 162.210938 143.460938 162.265625 142.808594 161.898438 142.367188 Z M 152.183594 130.816406 "/><path style=" stroke:none;fill-rule:nonzero;fill:#000000;fill-opacity:1;" d="M 148.117188 158.042969 L 135.027344 150.503906 C 134.53125 150.21875 133.898438 150.386719 133.609375 150.882812 C 133.324219 151.378906 133.496094 152.011719 133.992188 152.296875 L 147.078125 159.835938 C 147.242188 159.929688 147.421875 159.976562 147.597656 159.976562 C 147.953125 159.976562 148.304688 159.789062 148.496094 159.457031 C 148.78125 158.964844 148.613281 158.332031 148.117188 158.042969 Z M 148.117188 158.042969 "/><g clip-rule="nonzero" clip-path="url(#a637e18028)"><path style=" stroke:none;fill-rule:nonzero;fill:#000000;fill-opacity:1;" d="M 125.292969 176.898438 L 140.175781 179.519531 C 140.234375 179.53125 140.296875 179.535156 140.355469 179.535156 C 140.851562 179.535156 141.289062 179.179688 141.375 178.679688 C 141.476562 178.117188 141.097656 177.578125 140.535156 177.480469 L 125.652344 174.859375 C 125.085938 174.761719 124.550781 175.136719 124.449219 175.699219 C 124.351562 176.265625 124.726562 176.800781 125.292969 176.898438 Z M 125.292969 176.898438 "/></g><g clip-rule="nonzero" clip-path="url(#e45e67c69b)"><path style=" stroke:none;fill-rule:nonzero;fill:#000000;fill-opacity:1;" d="M 141.273438 199.171875 C 141.175781 198.609375 140.640625 198.230469 140.070312 198.332031 L 125.1875 200.949219 C 124.625 201.050781 124.25 201.585938 124.347656 202.148438 C 124.4375 202.652344 124.875 203.003906 125.367188 203.003906 C 125.429688 203.003906 125.488281 203 125.550781 202.988281 L 140.433594 200.371094 C 140.996094 200.269531 141.371094 199.734375 141.273438 199.171875 Z M 141.273438 199.171875 "/></g><path style=" stroke:none;fill-rule:nonzero;fill:#000000;fill-opacity:1;" d="M 146.78125 218.082031 L 133.695312 225.625 C 133.199219 225.910156 133.027344 226.542969 133.316406 227.039062 C 133.507812 227.371094 133.855469 227.554688 134.214844 227.554688 C 134.390625 227.554688 134.566406 227.511719 134.730469 227.417969 L 147.820312 219.875 C 148.316406 219.589844 148.484375 218.957031 148.199219 218.460938 C 147.914062 217.964844 147.277344 217.796875 146.78125 218.082031 Z M 146.78125 218.082031 "/><path style=" stroke:none;fill-rule:nonzero;fill:#000000;fill-opacity:1;" d="M 226.378906 117.523438 C 225.839844 117.328125 225.246094 117.601562 225.046875 118.140625 L 219.878906 132.3125 C 219.683594 132.851562 219.960938 133.445312 220.5 133.640625 C 220.617188 133.683594 220.734375 133.703125 220.855469 133.703125 C 221.277344 133.703125 221.675781 133.441406 221.828125 133.023438 L 226.996094 118.847656 C 227.195312 118.3125 226.914062 117.71875 226.378906 117.523438 Z M 226.378906 117.523438 "/><path style=" stroke:none;fill-rule:nonzero;fill:#000000;fill-opacity:1;" d="M 248.324219 130.902344 L 238.609375 142.457031 C 238.242188 142.894531 238.300781 143.546875 238.738281 143.914062 C 238.933594 144.078125 239.167969 144.15625 239.40625 144.15625 C 239.699219 144.15625 239.996094 144.03125 240.199219 143.785156 L 249.914062 132.234375 C 250.28125 131.792969 250.226562 131.140625 249.785156 130.773438 C 249.347656 130.40625 248.691406 130.464844 248.324219 130.902344 Z M 248.324219 130.902344 "/><path style=" stroke:none;fill-rule:nonzero;fill:#000000;fill-opacity:1;" d="M 253.773438 160.171875 L 266.863281 152.632812 C 267.359375 152.34375 267.527344 151.710938 267.242188 151.21875 C 266.957031 150.722656 266.320312 150.550781 265.824219 150.839844 L 252.738281 158.378906 C 252.242188 158.664062 252.070312 159.296875 252.359375 159.792969 C 252.550781 160.125 252.898438 160.3125 253.257812 160.3125 C 253.433594 160.3125 253.613281 160.265625 253.773438 160.171875 Z M 253.773438 160.171875 "/><g clip-rule="nonzero" clip-path="url(#c4cc183bdc)"><path style=" stroke:none;fill-rule:nonzero;fill:#000000;fill-opacity:1;" d="M 259.714844 179.363281 C 259.804688 179.867188 260.242188 180.21875 260.734375 180.21875 C 260.792969 180.21875 260.855469 180.214844 260.914062 180.203125 L 275.796875 177.585938 C 276.363281 177.488281 276.738281 176.949219 276.640625 176.386719 C 276.539062 175.824219 276.003906 175.445312 275.4375 175.546875 L 260.554688 178.164062 C 259.992188 178.265625 259.613281 178.800781 259.714844 179.363281 Z M 259.714844 179.363281 "/></g><g clip-rule="nonzero" clip-path="url(#6af3c38804)"><path style=" stroke:none;fill-rule:nonzero;fill:#000000;fill-opacity:1;" d="M 276.003906 202.046875 L 261.121094 199.425781 C 260.558594 199.328125 260.019531 199.703125 259.921875 200.265625 C 259.820312 200.832031 260.199219 201.367188 260.761719 201.464844 L 275.644531 204.085938 C 275.703125 204.097656 275.765625 204.101562 275.824219 204.101562 C 276.320312 204.101562 276.757812 203.746094 276.84375 203.246094 C 276.945312 202.683594 276.566406 202.144531 276.003906 202.046875 Z M 276.003906 202.046875 "/></g><g clip-rule="nonzero" clip-path="url(#9f4eaac52a)"><path style=" stroke:none;fill-rule:nonzero;fill:#000000;fill-opacity:1;" d="M 267.457031 227.140625 L 254.367188 219.601562 C 253.871094 219.3125 253.238281 219.484375 252.953125 219.980469 C 252.664062 220.472656 252.835938 221.105469 253.332031 221.394531 L 266.417969 228.933594 C 266.582031 229.027344 266.761719 229.074219 266.9375 229.074219 C 267.292969 229.074219 267.644531 228.886719 267.835938 228.554688 C 268.121094 228.0625 267.953125 227.425781 267.457031 227.140625 Z M 267.457031 227.140625 "/></g><g style="fill:#000000;fill-opacity:1;"><g transform="translate(51.273412, 236.242517)"><path style="stroke:none" d="M -10.40625 -21.4375 L -5.609375 -18.71875 C -5.128906 -18.4375 -4.8125 -18.046875 -4.65625 -17.546875 C -4.5 -17.046875 -4.515625 -16.535156 -4.703125 -16.015625 L -4.640625 -15.984375 C -4.304688 -16.421875 -3.878906 -16.695312 -3.359375 -16.8125 C -2.847656 -16.9375 -2.347656 -16.859375 -1.859375 -16.578125 L 2.921875 -13.859375 C 4.140625 -13.171875 4.882812 -12.320312 5.15625 -11.3125 C 5.4375 -10.3125 5.226562 -9.191406 4.53125 -7.953125 L 0.96875 -1.71875 C 0.8125 -1.4375 0.59375 -1.375 0.3125 -1.53125 L -19.671875 -12.890625 C -19.953125 -13.046875 -20.015625 -13.265625 -19.859375 -13.546875 L -16.296875 -19.78125 C -15.597656 -21.019531 -14.75 -21.78125 -13.75 -22.0625 C -12.75 -22.34375 -11.632812 -22.132812 -10.40625 -21.4375 Z M -8.453125 -15.734375 L -11.640625 -17.546875 C -12.335938 -17.941406 -12.882812 -17.796875 -13.28125 -17.109375 L -14.625 -14.734375 L -9.359375 -11.75 L -8.015625 -14.125 C -7.617188 -14.8125 -7.765625 -15.347656 -8.453125 -15.734375 Z M 0.21875 -10.8125 L -2.9375 -12.609375 C -3.632812 -13.003906 -4.179688 -12.859375 -4.578125 -12.171875 L -5.921875 -9.796875 L -0.671875 -6.8125 L 0.671875 -9.1875 C 1.066406 -9.875 0.914062 -10.414062 0.21875 -10.8125 Z M 0.21875 -10.8125 "/></g></g><g style="fill:#000000;fill-opacity:1;"><g transform="translate(61.02213, 219.087657)"><path style="stroke:none" d="M -19.859375 -13.546875 L -18.3125 -16.25 C -18.15625 -16.53125 -17.9375 -16.59375 -17.65625 -16.4375 L 2.328125 -5.078125 C 2.609375 -4.921875 2.671875 -4.703125 2.515625 -4.421875 L 0.96875 -1.71875 C 0.8125 -1.4375 0.59375 -1.375 0.3125 -1.53125 L -19.671875 -12.890625 C -19.953125 -13.046875 -20.015625 -13.265625 -19.859375 -13.546875 Z M -19.859375 -13.546875 "/></g></g><g style="fill:#000000;fill-opacity:1;"><g transform="translate(66.850648, 208.831187)"><path style="stroke:none" d="M -10.265625 -21.703125 L -3.90625 -18.09375 C -2.175781 -17.101562 -1.390625 -15.816406 -1.546875 -14.234375 L 6.296875 -12.171875 C 6.648438 -12.066406 6.734375 -11.851562 6.546875 -11.53125 L 5.015625 -8.828125 C 4.878906 -8.585938 4.675781 -8.503906 4.40625 -8.578125 L -3.1875 -10.59375 L -4.21875 -8.796875 L 2.328125 -5.078125 C 2.609375 -4.921875 2.671875 -4.703125 2.515625 -4.421875 L 0.96875 -1.71875 C 0.8125 -1.4375 0.59375 -1.375 0.3125 -1.53125 L -19.671875 -12.890625 C -19.953125 -13.046875 -20.015625 -13.265625 -19.859375 -13.546875 L -16.140625 -20.078125 C -15.441406 -21.304688 -14.59375 -22.054688 -13.59375 -22.328125 C -12.601562 -22.609375 -11.492188 -22.398438 -10.265625 -21.703125 Z M -7.65625 -10.75 L -6.1875 -13.328125 C -5.789062 -14.023438 -5.941406 -14.570312 -6.640625 -14.96875 L -11.53125 -17.75 C -12.226562 -18.144531 -12.773438 -17.992188 -13.171875 -17.296875 L -14.640625 -14.71875 Z M -7.65625 -10.75 "/></g></g><g style="fill:#000000;fill-opacity:1;"><g transform="translate(76.747301, 191.416004)"><path style="stroke:none" d="M -13.90625 -24.015625 L -11.953125 -27.453125 C -11.753906 -27.796875 -11.476562 -27.867188 -11.125 -27.671875 L 8.65625 -16.4375 C 9 -16.238281 9.070312 -15.96875 8.875 -15.625 L 7.5 -13.1875 C 7.300781 -12.84375 7.03125 -12.769531 6.6875 -12.96875 L -5.03125 -19.625 L -5.125 -19.453125 L 5.171875 -10.1875 C 5.441406 -9.9375 5.488281 -9.65625 5.3125 -9.34375 L 4.578125 -8.0625 C 4.410156 -7.769531 4.148438 -7.671875 3.796875 -7.765625 L -9.4375 -11.875 L -9.546875 -11.6875 L 2.171875 -5.03125 C 2.515625 -4.832031 2.585938 -4.5625 2.390625 -4.21875 L 1.03125 -1.828125 C 0.832031 -1.472656 0.5625 -1.394531 0.21875 -1.59375 L -19.5625 -12.828125 C -19.914062 -13.023438 -19.992188 -13.300781 -19.796875 -13.65625 L -17.84375 -17.078125 C -17.664062 -17.398438 -17.394531 -17.503906 -17.03125 -17.390625 L -2.4375 -12.921875 L -13.75 -23.171875 C -14.019531 -23.429688 -14.070312 -23.710938 -13.90625 -24.015625 Z M -13.90625 -24.015625 "/></g></g><g style="fill:#000000;fill-opacity:1;"><g transform="translate(88.996069, 169.861792)"><path style="stroke:none" d="M -19.859375 -13.546875 L -18.3125 -16.25 C -18.15625 -16.53125 -17.9375 -16.59375 -17.65625 -16.4375 L 2.328125 -5.078125 C 2.609375 -4.921875 2.671875 -4.703125 2.515625 -4.421875 L 0.96875 -1.71875 C 0.8125 -1.4375 0.59375 -1.375 0.3125 -1.53125 L -19.671875 -12.890625 C -19.953125 -13.046875 -20.015625 -13.265625 -19.859375 -13.546875 Z M -19.859375 -13.546875 "/></g></g><g style="fill:#000000;fill-opacity:1;"><g transform="translate(94.824588, 159.605322)"><path style="stroke:none" d="M -15.546875 -21.125 L -14.015625 -23.828125 C -13.847656 -24.109375 -13.625 -24.171875 -13.34375 -24.015625 L 6.640625 -12.65625 C 6.921875 -12.5 6.976562 -12.28125 6.8125 -12 L 5.359375 -9.421875 C 5.222656 -9.179688 5.019531 -9.085938 4.75 -9.140625 L -8.625 -11.46875 L -8.703125 -11.34375 L 2.328125 -5.078125 C 2.609375 -4.921875 2.671875 -4.703125 2.515625 -4.421875 L 0.96875 -1.71875 C 0.8125 -1.4375 0.59375 -1.375 0.3125 -1.53125 L -19.671875 -12.890625 C -19.953125 -13.046875 -20.015625 -13.265625 -19.859375 -13.546875 L -18.390625 -16.125 C -18.253906 -16.363281 -18.050781 -16.457031 -17.78125 -16.40625 L -4.46875 -14.078125 L -4.375 -14.234375 L -15.359375 -20.46875 C -15.640625 -20.625 -15.703125 -20.84375 -15.546875 -21.125 Z M -15.546875 -21.125 "/></g></g><g style="fill:#000000;fill-opacity:1;"><g transform="translate(104.957932, 141.773633)"><path style="stroke:none" d="M -3.015625 -3.421875 L -16.34375 -11 C -17.570312 -11.695312 -18.316406 -12.546875 -18.578125 -13.546875 C -18.847656 -14.554688 -18.640625 -15.664062 -17.953125 -16.875 L -16 -20.3125 C -15.3125 -21.53125 -14.46875 -22.28125 -13.46875 -22.5625 C -12.46875 -22.84375 -11.351562 -22.632812 -10.125 -21.9375 L -7.421875 -20.40625 C -7.140625 -20.238281 -7.078125 -20.015625 -7.234375 -19.734375 L -8.71875 -17.125 C -8.875 -16.851562 -9.09375 -16.800781 -9.375 -16.96875 L -11.34375 -18.078125 C -12.039062 -18.472656 -12.585938 -18.320312 -12.984375 -17.625 L -14.046875 -15.75 C -14.441406 -15.0625 -14.289062 -14.519531 -13.59375 -14.125 L -1.734375 -7.390625 C -1.035156 -6.992188 -0.488281 -7.140625 -0.09375 -7.828125 L 0.96875 -9.703125 C 1.363281 -10.398438 1.210938 -10.945312 0.515625 -11.34375 L -2.953125 -13.328125 L -3.71875 -11.96875 C -3.882812 -11.6875 -4.109375 -11.625 -4.390625 -11.78125 L -7 -13.265625 C -7.269531 -13.421875 -7.320312 -13.640625 -7.15625 -13.921875 L -4.671875 -18.296875 C -4.515625 -18.578125 -4.300781 -18.640625 -4.03125 -18.484375 L 3.203125 -14.359375 C 4.421875 -13.671875 5.164062 -12.820312 5.4375 -11.8125 C 5.71875 -10.8125 5.515625 -9.703125 4.828125 -8.484375 L 2.875 -5.046875 C 2.1875 -3.835938 1.335938 -3.09375 0.328125 -2.8125 C -0.679688 -2.53125 -1.796875 -2.734375 -3.015625 -3.421875 Z M -3.015625 -3.421875 "/></g></g><g style="fill:#000000;fill-opacity:1;"><g transform="translate(114.987724, 124.124164)"><path style="stroke:none" d="M -7.484375 -15.0625 L -15.765625 -19.765625 C -16.046875 -19.921875 -16.109375 -20.132812 -15.953125 -20.40625 L -14.421875 -23.109375 C -14.253906 -23.390625 -14.03125 -23.453125 -13.75 -23.296875 L 6.234375 -11.9375 C 6.515625 -11.78125 6.570312 -11.5625 6.40625 -11.28125 L 4.875 -8.578125 C 4.71875 -8.304688 4.5 -8.25 4.21875 -8.40625 L -4.046875 -13.109375 L -5.9375 -9.78125 L 2.328125 -5.078125 C 2.609375 -4.921875 2.671875 -4.703125 2.515625 -4.421875 L 0.984375 -1.734375 C 0.816406 -1.441406 0.59375 -1.375 0.3125 -1.53125 L -19.671875 -12.890625 C -19.953125 -13.046875 -20.007812 -13.269531 -19.84375 -13.5625 L -18.3125 -16.25 C -18.15625 -16.53125 -17.9375 -16.59375 -17.65625 -16.4375 L -9.375 -11.734375 Z M -7.484375 -15.0625 "/></g></g><g style="fill:#000000;fill-opacity:1;"><g transform="translate(124.425785, 107.515967)"><path style="stroke:none" d="M 7.859375 -13.84375 L 6.296875 -11.078125 C 6.171875 -10.859375 5.972656 -10.789062 5.703125 -10.875 L 1.484375 -12.3125 L -1.15625 -7.6875 L 2.25 -4.8125 C 2.46875 -4.625 2.507812 -4.414062 2.375 -4.1875 L 0.796875 -1.40625 C 0.617188 -1.09375 0.40625 -1.066406 0.15625 -1.328125 L -17.390625 -17.015625 C -17.609375 -17.203125 -17.648438 -17.414062 -17.515625 -17.65625 L -15.453125 -21.28125 C -15.316406 -21.519531 -15.109375 -21.597656 -14.828125 -21.515625 L 7.625 -14.453125 C 7.957031 -14.347656 8.035156 -14.144531 7.859375 -13.84375 Z M -1.90625 -13.375 L -11.953125 -16.875 L -3.796875 -10.046875 Z M -1.90625 -13.375 "/></g></g><g style="fill:#000000;fill-opacity:1;"><g transform="translate(135.136058, 88.669053)"><path style="stroke:none" d="M -13.90625 -24.015625 L -11.953125 -27.453125 C -11.753906 -27.796875 -11.476562 -27.867188 -11.125 -27.671875 L 8.65625 -16.4375 C 9 -16.238281 9.070312 -15.96875 8.875 -15.625 L 7.5 -13.1875 C 7.300781 -12.84375 7.03125 -12.769531 6.6875 -12.96875 L -5.03125 -19.625 L -5.125 -19.453125 L 5.171875 -10.1875 C 5.441406 -9.9375 5.488281 -9.65625 5.3125 -9.34375 L 4.578125 -8.0625 C 4.410156 -7.769531 4.148438 -7.671875 3.796875 -7.765625 L -9.4375 -11.875 L -9.546875 -11.6875 L 2.171875 -5.03125 C 2.515625 -4.832031 2.585938 -4.5625 2.390625 -4.21875 L 1.03125 -1.828125 C 0.832031 -1.472656 0.5625 -1.394531 0.21875 -1.59375 L -19.5625 -12.828125 C -19.914062 -13.023438 -19.992188 -13.300781 -19.796875 -13.65625 L -17.84375 -17.078125 C -17.664062 -17.398438 -17.394531 -17.503906 -17.03125 -17.390625 L -2.4375 -12.921875 L -13.75 -23.171875 C -14.019531 -23.429688 -14.070312 -23.710938 -13.90625 -24.015625 Z M -13.90625 -24.015625 "/></g></g><g style="fill:#000000;fill-opacity:1;"><g transform="translate(260.998788, 81.893999)"><path style="stroke:none" d="M 21.71875 -10.28125 L 23.28125 -7.578125 C 23.4375 -7.304688 23.378906 -7.085938 23.109375 -6.921875 L 3.203125 4.5625 C 2.921875 4.726562 2.703125 4.675781 2.546875 4.40625 L 0.984375 1.703125 C 0.828125 1.429688 0.890625 1.210938 1.171875 1.046875 L 21.078125 -10.4375 C 21.347656 -10.601562 21.5625 -10.550781 21.71875 -10.28125 Z M 21.71875 -10.28125 "/></g></g><g style="fill:#000000;fill-opacity:1;"><g transform="translate(266.900063, 92.10878)"><path style="stroke:none" d="M 26.078125 -2.734375 L 27.640625 -0.03125 C 27.796875 0.238281 27.738281 0.457031 27.46875 0.625 L 7.5625 12.109375 C 7.28125 12.273438 7.0625 12.222656 6.90625 11.953125 L 5.421875 9.390625 C 5.285156 9.148438 5.3125 8.925781 5.5 8.71875 L 14.265625 -1.640625 L 14.1875 -1.78125 L 3.203125 4.5625 C 2.921875 4.726562 2.703125 4.675781 2.546875 4.40625 L 0.984375 1.703125 C 0.828125 1.429688 0.890625 1.210938 1.171875 1.046875 L 21.078125 -10.4375 C 21.347656 -10.601562 21.5625 -10.550781 21.71875 -10.28125 L 23.203125 -7.703125 C 23.347656 -7.460938 23.332031 -7.238281 23.15625 -7.03125 L 14.40625 3.265625 L 14.5 3.40625 L 25.4375 -2.90625 C 25.707031 -3.070312 25.921875 -3.015625 26.078125 -2.734375 Z M 26.078125 -2.734375 "/></g></g><g style="fill:#000000;fill-opacity:1;"><g transform="translate(277.1599, 109.867991)"><path style="stroke:none" d="M 26.703125 -1.640625 L 28.140625 0.828125 C 28.367188 1.222656 28.269531 1.484375 27.84375 1.609375 L 5.59375 8.625 C 5.25 8.738281 4.988281 8.640625 4.8125 8.328125 L 3.3125 5.71875 C 3.144531 5.4375 3.1875 5.160156 3.4375 4.890625 L 20.640625 -10.859375 C 20.960938 -11.160156 21.238281 -11.113281 21.46875 -10.71875 L 22.890625 -8.25 C 23.066406 -7.945312 23.019531 -7.664062 22.75 -7.40625 L 10.4375 3.328125 L 25.90625 -1.9375 C 26.269531 -2.03125 26.535156 -1.929688 26.703125 -1.640625 Z M 26.703125 -1.640625 "/></g></g><g style="fill:#000000;fill-opacity:1;"><g transform="translate(287.659382, 128.042016)"><path style="stroke:none" d="M 27.046875 -0.09375 L 24.453125 1.390625 C 24.160156 1.566406 23.9375 1.519531 23.78125 1.25 L 20.046875 -5.234375 L 14.859375 -2.25 L 17.71875 2.703125 C 17.875 2.972656 17.800781 3.195312 17.5 3.375 L 14.953125 4.84375 C 14.648438 5.019531 14.421875 4.972656 14.265625 4.703125 L 11.40625 -0.25 L 6.171875 2.765625 L 9.90625 9.25 C 10.0625 9.519531 10 9.738281 9.71875 9.90625 L 7.140625 11.390625 C 6.859375 11.554688 6.640625 11.503906 6.484375 11.234375 L 0.984375 1.6875 C 0.828125 1.425781 0.890625 1.210938 1.171875 1.046875 L 21.078125 -10.4375 C 21.347656 -10.601562 21.5625 -10.554688 21.71875 -10.296875 L 27.21875 -0.75 C 27.375 -0.476562 27.316406 -0.257812 27.046875 -0.09375 Z M 27.046875 -0.09375 "/></g></g><g style="fill:#000000;fill-opacity:1;"><g transform="translate(297.499834, 145.075295)"><path style="stroke:none" d="M 26.078125 -2.734375 L 27.640625 -0.03125 C 27.796875 0.238281 27.738281 0.457031 27.46875 0.625 L 7.5625 12.109375 C 7.28125 12.273438 7.0625 12.222656 6.90625 11.953125 L 5.421875 9.390625 C 5.285156 9.148438 5.3125 8.925781 5.5 8.71875 L 14.265625 -1.640625 L 14.1875 -1.78125 L 3.203125 4.5625 C 2.921875 4.726562 2.703125 4.675781 2.546875 4.40625 L 0.984375 1.703125 C 0.828125 1.429688 0.890625 1.210938 1.171875 1.046875 L 21.078125 -10.4375 C 21.347656 -10.601562 21.5625 -10.550781 21.71875 -10.28125 L 23.203125 -7.703125 C 23.347656 -7.460938 23.332031 -7.238281 23.15625 -7.03125 L 14.40625 3.265625 L 14.5 3.40625 L 25.4375 -2.90625 C 25.707031 -3.070312 25.921875 -3.015625 26.078125 -2.734375 Z M 26.078125 -2.734375 "/></g></g><g style="fill:#000000;fill-opacity:1;"><g transform="translate(307.759671, 162.834506)"><path style="stroke:none" d="M 21.421875 -10.796875 L 26.9375 -1.25 C 27.09375 -0.976562 27.035156 -0.757812 26.765625 -0.59375 L 24.171875 0.890625 C 23.890625 1.054688 23.671875 1.003906 23.515625 0.734375 L 21.78125 -2.28125 L 4.890625 7.46875 C 4.609375 7.632812 4.382812 7.582031 4.21875 7.3125 L 2.671875 4.609375 C 2.503906 4.328125 2.5625 4.101562 2.84375 3.9375 L 19.734375 -5.8125 L 18 -8.8125 C 17.84375 -9.09375 17.90625 -9.316406 18.1875 -9.484375 L 20.78125 -10.96875 C 21.050781 -11.132812 21.265625 -11.078125 21.421875 -10.796875 Z M 21.421875 -10.796875 "/></g></g><g style="fill:#000000;fill-opacity:1;"><g transform="translate(316.716428, 178.338159)"><path style="stroke:none" d="M 4.484375 -0.859375 L 17.75 -8.53125 C 18.976562 -9.238281 20.09375 -9.453125 21.09375 -9.171875 C 22.09375 -8.898438 22.941406 -8.160156 23.640625 -6.953125 L 25.3125 -4.0625 C 26.019531 -2.832031 26.238281 -1.71875 25.96875 -0.71875 C 25.707031 0.269531 24.960938 1.117188 23.734375 1.828125 L 10.46875 9.5 C 9.257812 10.195312 8.148438 10.414062 7.140625 10.15625 C 6.140625 9.894531 5.285156 9.148438 4.578125 7.921875 L 2.90625 5.03125 C 2.207031 3.820312 1.992188 2.710938 2.265625 1.703125 C 2.535156 0.691406 3.273438 -0.160156 4.484375 -0.859375 Z M 6.6875 3.84375 L 7.546875 5.34375 C 7.953125 6.039062 8.503906 6.191406 9.203125 5.796875 L 21.171875 -1.125 C 21.867188 -1.519531 22.015625 -2.066406 21.609375 -2.765625 L 20.75 -4.265625 C 20.351562 -4.953125 19.804688 -5.097656 19.109375 -4.703125 L 7.140625 2.21875 C 6.441406 2.613281 6.289062 3.15625 6.6875 3.84375 Z M 6.6875 3.84375 "/></g></g><g style="fill:#000000;fill-opacity:1;"><g transform="translate(326.571861, 195.39737)"><path style="stroke:none" d="M 23.90625 2.125 L 17.578125 5.78125 C 15.859375 6.78125 14.351562 6.804688 13.0625 5.859375 L 7.296875 11.59375 C 7.046875 11.84375 6.828125 11.804688 6.640625 11.484375 L 5.078125 8.796875 C 4.941406 8.546875 4.976562 8.320312 5.1875 8.125 L 10.765625 2.59375 L 9.71875 0.796875 L 3.203125 4.5625 C 2.921875 4.726562 2.703125 4.675781 2.546875 4.40625 L 0.984375 1.703125 C 0.828125 1.429688 0.890625 1.210938 1.171875 1.046875 L 21.078125 -10.4375 C 21.347656 -10.601562 21.5625 -10.550781 21.71875 -10.28125 L 25.484375 -3.765625 C 26.191406 -2.546875 26.410156 -1.4375 26.140625 -0.4375 C 25.878906 0.5625 25.132812 1.414062 23.90625 2.125 Z M 13.140625 -1.171875 L 14.625 1.40625 C 15.03125 2.09375 15.582031 2.234375 16.28125 1.828125 L 21.15625 -0.984375 C 21.84375 -1.378906 21.984375 -1.921875 21.578125 -2.609375 L 20.09375 -5.1875 Z M 13.140625 -1.171875 "/></g></g><g style="fill:#000000;fill-opacity:1;"><g transform="translate(336.592052, 212.741767)"><path style="stroke:none" d="M 23.640625 -6.953125 L 25.3125 -4.0625 C 26.019531 -2.832031 26.238281 -1.71875 25.96875 -0.71875 C 25.707031 0.269531 24.960938 1.117188 23.734375 1.828125 L 21 3.421875 C 20.71875 3.578125 20.5 3.519531 20.34375 3.25 L 18.78125 0.546875 C 18.625 0.273438 18.6875 0.0625 18.96875 -0.09375 L 20.984375 -1.265625 C 21.671875 -1.660156 21.816406 -2.203125 21.421875 -2.890625 L 20.703125 -4.140625 C 20.296875 -4.835938 19.75 -4.988281 19.0625 -4.59375 L 15.484375 -2.53125 L 17.015625 4.8125 C 17.085938 5.375 16.90625 5.78125 16.46875 6.03125 L 10.46875 9.5 C 9.257812 10.195312 8.148438 10.414062 7.140625 10.15625 C 6.140625 9.894531 5.285156 9.148438 4.578125 7.921875 L 2.90625 5.03125 C 2.207031 3.820312 1.992188 2.710938 2.265625 1.703125 C 2.535156 0.691406 3.273438 -0.160156 4.484375 -0.859375 L 7.203125 -2.4375 C 7.484375 -2.59375 7.703125 -2.535156 7.859375 -2.265625 L 9.421875 0.4375 C 9.578125 0.707031 9.515625 0.921875 9.234375 1.078125 L 7.25 2.234375 C 6.550781 2.628906 6.40625 3.175781 6.8125 3.875 L 7.53125 5.125 C 7.925781 5.8125 8.472656 5.957031 9.171875 5.5625 L 12.609375 3.578125 L 11.09375 -3.734375 C 10.96875 -4.296875 11.148438 -4.71875 11.640625 -5 L 17.75 -8.53125 C 18.976562 -9.238281 20.09375 -9.453125 21.09375 -9.171875 C 22.09375 -8.898438 22.941406 -8.160156 23.640625 -6.953125 Z M 23.640625 -6.953125 "/></g></g><g style="fill:#000000;fill-opacity:1;"><g transform="translate(153.996923, 343.143391)"><path style="stroke:none" d="M 1.5 -0.59375 L 1.5 -3.359375 C 1.5 -3.753906 1.695312 -3.953125 2.09375 -3.953125 L 4.8125 -3.953125 C 5.21875 -3.953125 5.421875 -3.753906 5.421875 -3.359375 L 5.421875 -0.59375 C 5.421875 -0.195312 5.21875 0 4.8125 0 L 2.09375 0 C 1.695312 0 1.5 -0.195312 1.5 -0.59375 Z M 1.5 -0.59375 "/></g></g><g style="fill:#000000;fill-opacity:1;"><g transform="translate(160.913381, 343.143391)"><path style="stroke:none" d="M 1.5 -4.3125 L 1.5 -19.640625 C 1.5 -21.054688 1.867188 -22.128906 2.609375 -22.859375 C 3.347656 -23.585938 4.414062 -23.953125 5.8125 -23.953125 L 9.15625 -23.953125 C 10.570312 -23.953125 11.644531 -23.585938 12.375 -22.859375 C 13.101562 -22.128906 13.46875 -21.054688 13.46875 -19.640625 L 13.46875 -4.3125 C 13.46875 -2.914062 13.101562 -1.847656 12.375 -1.109375 C 11.644531 -0.367188 10.570312 0 9.15625 0 L 5.8125 0 C 4.414062 0 3.347656 -0.367188 2.609375 -1.109375 C 1.867188 -1.847656 1.5 -2.914062 1.5 -4.3125 Z M 6.671875 -3.859375 L 8.40625 -3.859375 C 9.207031 -3.859375 9.609375 -4.257812 9.609375 -5.0625 L 9.609375 -18.890625 C 9.609375 -19.691406 9.207031 -20.09375 8.40625 -20.09375 L 6.671875 -20.09375 C 5.878906 -20.09375 5.484375 -19.691406 5.484375 -18.890625 L 5.484375 -5.0625 C 5.484375 -4.257812 5.878906 -3.859375 6.671875 -3.859375 Z M 6.671875 -3.859375 "/></g></g><g style="fill:#000000;fill-opacity:1;"><g transform="translate(175.884072, 343.143391)"><path style="stroke:none" d="M 13.796875 -19.640625 L 13.796875 -12.328125 C 13.796875 -10.335938 13.066406 -9.019531 11.609375 -8.375 L 13.6875 -0.53125 C 13.78125 -0.175781 13.640625 0 13.265625 0 L 10.15625 0 C 9.875 0 9.703125 -0.140625 9.640625 -0.421875 L 7.640625 -8.015625 L 5.5625 -8.015625 L 5.5625 -0.484375 C 5.5625 -0.160156 5.40625 0 5.09375 0 L 1.96875 0 C 1.65625 0 1.5 -0.160156 1.5 -0.484375 L 1.5 -23.46875 C 1.5 -23.789062 1.65625 -23.953125 1.96875 -23.953125 L 9.484375 -23.953125 C 10.898438 -23.953125 11.972656 -23.585938 12.703125 -22.859375 C 13.429688 -22.128906 13.796875 -21.054688 13.796875 -19.640625 Z M 5.5625 -11.96875 L 8.53125 -11.96875 C 9.332031 -11.96875 9.734375 -12.367188 9.734375 -13.171875 L 9.734375 -18.796875 C 9.734375 -19.597656 9.332031 -20 8.53125 -20 L 5.5625 -20 Z M 5.5625 -11.96875 "/></g></g><g style="fill:#000000;fill-opacity:1;"><g transform="translate(191.18412, 343.143391)"><path style="stroke:none" d="M 1.5 -4.3125 L 1.5 -19.640625 C 1.5 -21.054688 1.867188 -22.128906 2.609375 -22.859375 C 3.347656 -23.585938 4.414062 -23.953125 5.8125 -23.953125 L 9.765625 -23.953125 C 11.160156 -23.953125 12.226562 -23.585938 12.96875 -22.859375 C 13.707031 -22.128906 14.078125 -21.054688 14.078125 -19.640625 L 14.078125 -16.53125 C 14.078125 -16.207031 13.914062 -16.046875 13.59375 -16.046875 L 10.59375 -16.046875 C 10.28125 -16.046875 10.125 -16.207031 10.125 -16.53125 L 10.125 -18.796875 C 10.125 -19.597656 9.722656 -20 8.921875 -20 L 6.765625 -20 C 5.960938 -20 5.5625 -19.597656 5.5625 -18.796875 L 5.5625 -5.15625 C 5.5625 -4.351562 5.960938 -3.953125 6.765625 -3.953125 L 8.921875 -3.953125 C 9.722656 -3.953125 10.125 -4.351562 10.125 -5.15625 L 10.125 -9.15625 L 8.5625 -9.15625 C 8.238281 -9.15625 8.078125 -9.316406 8.078125 -9.640625 L 8.078125 -12.640625 C 8.078125 -12.953125 8.238281 -13.109375 8.5625 -13.109375 L 13.59375 -13.109375 C 13.914062 -13.109375 14.078125 -12.953125 14.078125 -12.640625 L 14.078125 -4.3125 C 14.078125 -2.914062 13.707031 -1.847656 12.96875 -1.109375 C 12.226562 -0.367188 11.160156 0 9.765625 0 L 5.8125 0 C 4.414062 0 3.347656 -0.367188 2.609375 -1.109375 C 1.867188 -1.847656 1.5 -2.914062 1.5 -4.3125 Z M 1.5 -4.3125 "/></g></g><g style="fill:#000000;fill-opacity:1;"><g transform="translate(206.753641, 343.143391)"><path style="stroke:none" d="M 1.5 -0.59375 L 1.5 -3.359375 C 1.5 -3.753906 1.695312 -3.953125 2.09375 -3.953125 L 4.8125 -3.953125 C 5.21875 -3.953125 5.421875 -3.753906 5.421875 -3.359375 L 5.421875 -0.59375 C 5.421875 -0.195312 5.21875 0 4.8125 0 L 2.09375 0 C 1.695312 0 1.5 -0.195312 1.5 -0.59375 Z M 1.5 -0.59375 "/></g></g><g style="fill:#000000;fill-opacity:1;"><g transform="translate(213.670098, 343.143391)"><path style="stroke:none" d="M 10.125 -23.953125 L 12.875 -23.953125 C 13.03125 -23.953125 13.164062 -23.890625 13.28125 -23.765625 C 13.40625 -23.648438 13.46875 -23.507812 13.46875 -23.34375 L 13.46875 -4.3125 C 13.46875 -2.914062 13.101562 -1.847656 12.375 -1.109375 C 11.644531 -0.367188 10.570312 0 9.15625 0 L 5.8125 0 C 4.414062 0 3.347656 -0.367188 2.609375 -1.109375 C 1.867188 -1.847656 1.5 -2.914062 1.5 -4.3125 L 1.5 -23.34375 C 1.5 -23.507812 1.554688 -23.648438 1.671875 -23.765625 C 1.796875 -23.890625 1.9375 -23.953125 2.09375 -23.953125 L 4.96875 -23.953125 C 5.125 -23.953125 5.257812 -23.890625 5.375 -23.765625 C 5.5 -23.648438 5.5625 -23.507812 5.5625 -23.34375 L 5.5625 -5.15625 C 5.5625 -4.351562 5.960938 -3.953125 6.765625 -3.953125 L 8.328125 -3.953125 C 9.117188 -3.953125 9.515625 -4.351562 9.515625 -5.15625 L 9.515625 -23.34375 C 9.515625 -23.507812 9.570312 -23.648438 9.6875 -23.765625 C 9.8125 -23.890625 9.957031 -23.953125 10.125 -23.953125 Z M 10.125 -23.953125 "/></g></g><g style="fill:#000000;fill-opacity:1;"><g transform="translate(228.64079, 343.143391)"><path style="stroke:none" d="M 14.3125 0 L 11.140625 0 C 10.796875 0 10.566406 -0.148438 10.453125 -0.453125 L 6.671875 -9.34375 L 5.5625 -7.21875 L 5.5625 -0.59375 C 5.5625 -0.195312 5.363281 0 4.96875 0 L 2.09375 0 C 1.695312 0 1.5 -0.195312 1.5 -0.59375 L 1.5 -23.34375 C 1.5 -23.75 1.695312 -23.953125 2.09375 -23.953125 L 4.96875 -23.953125 C 5.363281 -23.953125 5.5625 -23.75 5.5625 -23.34375 L 5.5625 -14.078125 L 10.171875 -23.5 C 10.335938 -23.800781 10.570312 -23.953125 10.875 -23.953125 L 14.015625 -23.953125 C 14.234375 -23.953125 14.378906 -23.882812 14.453125 -23.75 C 14.535156 -23.625 14.53125 -23.453125 14.4375 -23.234375 L 9.34375 -12.78125 L 14.765625 -0.6875 C 14.859375 -0.488281 14.863281 -0.320312 14.78125 -0.1875 C 14.707031 -0.0625 14.550781 0 14.3125 0 Z M 14.3125 0 "/></g></g><g style="fill:#a6a6a6;fill-opacity:1;"><g transform="translate(57.412501, 373.234502)"><path style="stroke:none" d="M 9.40625 -16.421875 L 9.40625 -14.328125 C 9.40625 -14.085938 9.296875 -13.96875 9.078125 -13.96875 L 3.828125 -13.96875 L 3.828125 -9.78125 L 7.84375 -9.78125 C 8.0625 -9.78125 8.171875 -9.660156 8.171875 -9.421875 L 8.171875 -7.359375 C 8.171875 -7.117188 8.0625 -7 7.84375 -7 L 3.828125 -7 L 3.828125 -2.765625 L 9.078125 -2.765625 C 9.296875 -2.765625 9.40625 -2.65625 9.40625 -2.4375 L 9.40625 -0.328125 C 9.40625 -0.109375 9.296875 0 9.078125 0 L 1.359375 0 C 1.148438 0 1.046875 -0.109375 1.046875 -0.328125 L 1.046875 -16.421875 C 1.046875 -16.648438 1.148438 -16.765625 1.359375 -16.765625 L 9.078125 -16.765625 C 9.296875 -16.765625 9.40625 -16.648438 9.40625 -16.421875 Z M 9.40625 -16.421875 "/></g></g><g style="fill:#a6a6a6;fill-opacity:1;"><g transform="translate(67.661491, 373.234502)"><path style="stroke:none" d="M 9.8125 -16.765625 L 12.578125 -16.765625 C 12.847656 -16.765625 12.984375 -16.625 12.984375 -16.34375 L 12.984375 -0.421875 C 12.984375 -0.140625 12.847656 0 12.578125 0 L 10.625 0 C 10.34375 0 10.203125 -0.140625 10.203125 -0.421875 L 10.203125 -9.84375 L 10.0625 -9.84375 L 7.984375 -0.375 C 7.929688 -0.125 7.773438 0 7.515625 0 L 6.5 0 C 6.257812 0 6.101562 -0.125 6.03125 -0.375 L 3.953125 -9.84375 L 3.8125 -9.84375 L 3.8125 -0.421875 C 3.8125 -0.140625 3.671875 0 3.390625 0 L 1.46875 0 C 1.1875 0 1.046875 -0.140625 1.046875 -0.421875 L 1.046875 -16.34375 C 1.046875 -16.625 1.1875 -16.765625 1.46875 -16.765625 L 4.234375 -16.765625 C 4.484375 -16.765625 4.632812 -16.640625 4.6875 -16.390625 L 7.015625 -5.953125 L 9.34375 -16.390625 C 9.414062 -16.640625 9.570312 -16.765625 9.8125 -16.765625 Z M 9.8125 -16.765625 "/></g></g><g style="fill:#a6a6a6;fill-opacity:1;"><g transform="translate(81.704063, 373.234502)"><path style="stroke:none" d="M 1.046875 -0.328125 L 1.046875 -16.421875 C 1.046875 -16.648438 1.160156 -16.765625 1.390625 -16.765625 L 6.40625 -16.765625 C 7.40625 -16.765625 8.15625 -16.507812 8.65625 -16 C 9.164062 -15.488281 9.421875 -14.738281 9.421875 -13.75 L 9.421875 -8.625 C 9.421875 -7.65625 9.164062 -6.910156 8.65625 -6.390625 C 8.15625 -5.867188 7.40625 -5.609375 6.40625 -5.609375 L 3.890625 -5.609375 L 3.890625 -0.328125 C 3.890625 -0.109375 3.78125 0 3.5625 0 L 1.390625 0 C 1.160156 0 1.046875 -0.109375 1.046875 -0.328125 Z M 3.890625 -8.375 L 5.734375 -8.375 C 6.296875 -8.375 6.578125 -8.65625 6.578125 -9.21875 L 6.578125 -13.15625 C 6.578125 -13.71875 6.296875 -14 5.734375 -14 L 3.890625 -14 Z M 3.890625 -8.375 "/></g></g><g style="fill:#a6a6a6;fill-opacity:1;"><g transform="translate(92.1836, 373.234502)"><path style="stroke:none" d="M 1.046875 -3.015625 L 1.046875 -13.75 C 1.046875 -14.738281 1.300781 -15.488281 1.8125 -16 C 2.332031 -16.507812 3.082031 -16.765625 4.0625 -16.765625 L 6.40625 -16.765625 C 7.40625 -16.765625 8.15625 -16.507812 8.65625 -16 C 9.164062 -15.488281 9.421875 -14.738281 9.421875 -13.75 L 9.421875 -3.015625 C 9.421875 -2.035156 9.164062 -1.285156 8.65625 -0.765625 C 8.15625 -0.253906 7.40625 0 6.40625 0 L 4.0625 0 C 3.082031 0 2.332031 -0.253906 1.8125 -0.765625 C 1.300781 -1.285156 1.046875 -2.035156 1.046875 -3.015625 Z M 4.671875 -2.703125 L 5.890625 -2.703125 C 6.441406 -2.703125 6.71875 -2.984375 6.71875 -3.546875 L 6.71875 -13.21875 C 6.71875 -13.78125 6.441406 -14.0625 5.890625 -14.0625 L 4.671875 -14.0625 C 4.109375 -14.0625 3.828125 -13.78125 3.828125 -13.21875 L 3.828125 -3.546875 C 3.828125 -2.984375 4.109375 -2.703125 4.671875 -2.703125 Z M 4.671875 -2.703125 "/></g></g><g style="fill:#a6a6a6;fill-opacity:1;"><g transform="translate(102.24396, 373.234502)"><path style="stroke:none" d="M 12.515625 -16.765625 L 14.5 -16.765625 C 14.789062 -16.765625 14.921875 -16.617188 14.890625 -16.328125 L 13.09375 -0.390625 C 13.082031 -0.128906 12.9375 0 12.65625 0 L 10.609375 0 C 10.367188 0 10.210938 -0.125 10.140625 -0.375 L 7.96875 -9.84375 L 5.765625 -0.359375 C 5.691406 -0.117188 5.535156 0 5.296875 0 L 3.203125 0 C 2.921875 0 2.773438 -0.128906 2.765625 -0.390625 L 1.046875 -16.328125 C 1.015625 -16.617188 1.148438 -16.765625 1.453125 -16.765625 L 3.4375 -16.765625 C 3.695312 -16.765625 3.84375 -16.628906 3.875 -16.359375 L 4.6875 -6.5625 L 4.796875 -6.5625 L 6.875 -16.390625 C 6.945312 -16.640625 7.097656 -16.765625 7.328125 -16.765625 L 8.59375 -16.765625 C 8.84375 -16.765625 8.992188 -16.640625 9.046875 -16.390625 L 11.109375 -6.5625 L 11.203125 -6.5625 L 12.0625 -16.359375 C 12.09375 -16.628906 12.242188 -16.765625 12.515625 -16.765625 Z M 12.515625 -16.765625 "/></g></g><g style="fill:#a6a6a6;fill-opacity:1;"><g transform="translate(118.193813, 373.234502)"><path style="stroke:none" d="M 9.40625 -16.421875 L 9.40625 -14.328125 C 9.40625 -14.085938 9.296875 -13.96875 9.078125 -13.96875 L 3.828125 -13.96875 L 3.828125 -9.78125 L 7.84375 -9.78125 C 8.0625 -9.78125 8.171875 -9.660156 8.171875 -9.421875 L 8.171875 -7.359375 C 8.171875 -7.117188 8.0625 -7 7.84375 -7 L 3.828125 -7 L 3.828125 -2.765625 L 9.078125 -2.765625 C 9.296875 -2.765625 9.40625 -2.65625 9.40625 -2.4375 L 9.40625 -0.328125 C 9.40625 -0.109375 9.296875 0 9.078125 0 L 1.359375 0 C 1.148438 0 1.046875 -0.109375 1.046875 -0.328125 L 1.046875 -16.421875 C 1.046875 -16.648438 1.148438 -16.765625 1.359375 -16.765625 L 9.078125 -16.765625 C 9.296875 -16.765625 9.40625 -16.648438 9.40625 -16.421875 Z M 9.40625 -16.421875 "/></g></g><g style="fill:#a6a6a6;fill-opacity:1;"><g transform="translate(128.442803, 373.234502)"><path style="stroke:none" d="M 9.65625 -13.75 L 9.65625 -8.625 C 9.65625 -7.226562 9.144531 -6.304688 8.125 -5.859375 L 9.578125 -0.375 C 9.648438 -0.125 9.550781 0 9.28125 0 L 7.109375 0 C 6.910156 0 6.789062 -0.0976562 6.75 -0.296875 L 5.34375 -5.609375 L 3.890625 -5.609375 L 3.890625 -0.328125 C 3.890625 -0.109375 3.78125 0 3.5625 0 L 1.390625 0 C 1.160156 0 1.046875 -0.109375 1.046875 -0.328125 L 1.046875 -16.421875 C 1.046875 -16.648438 1.160156 -16.765625 1.390625 -16.765625 L 6.640625 -16.765625 C 7.628906 -16.765625 8.378906 -16.507812 8.890625 -16 C 9.398438 -15.488281 9.65625 -14.738281 9.65625 -13.75 Z M 3.890625 -8.375 L 5.96875 -8.375 C 6.53125 -8.375 6.8125 -8.65625 6.8125 -9.21875 L 6.8125 -13.15625 C 6.8125 -13.71875 6.53125 -14 5.96875 -14 L 3.890625 -14 Z M 3.890625 -8.375 "/></g></g><g style="fill:#a6a6a6;fill-opacity:1;"><g transform="translate(139.152888, 373.234502)"><path style="stroke:none" d="M 1.390625 -16.765625 L 3.5625 -16.765625 C 3.78125 -16.765625 3.890625 -16.648438 3.890625 -16.421875 L 3.890625 -0.328125 C 3.890625 -0.109375 3.78125 0 3.5625 0 L 1.390625 0 C 1.160156 0 1.046875 -0.109375 1.046875 -0.328125 L 1.046875 -16.421875 C 1.046875 -16.648438 1.160156 -16.765625 1.390625 -16.765625 Z M 1.390625 -16.765625 "/></g></g><g style="fill:#a6a6a6;fill-opacity:1;"><g transform="translate(144.099232, 373.234502)"><path style="stroke:none" d="M 7.484375 -16.765625 L 9.65625 -16.765625 C 9.882812 -16.765625 10 -16.648438 10 -16.421875 L 10 -0.328125 C 10 -0.109375 9.882812 0 9.65625 0 L 7.578125 0 C 7.390625 0 7.265625 -0.0859375 7.203125 -0.265625 L 4 -9.21875 L 3.890625 -9.21875 L 3.890625 -0.328125 C 3.890625 -0.109375 3.78125 0 3.5625 0 L 1.390625 0 C 1.160156 0 1.046875 -0.109375 1.046875 -0.328125 L 1.046875 -16.421875 C 1.046875 -16.648438 1.160156 -16.765625 1.390625 -16.765625 L 3.453125 -16.765625 C 3.648438 -16.765625 3.773438 -16.671875 3.828125 -16.484375 L 7.015625 -7.578125 L 7.140625 -7.578125 L 7.140625 -16.421875 C 7.140625 -16.648438 7.253906 -16.765625 7.484375 -16.765625 Z M 7.484375 -16.765625 "/></g></g><g style="fill:#a6a6a6;fill-opacity:1;"><g transform="translate(155.14466, 373.234502)"><path style="stroke:none" d="M 1.046875 -3.015625 L 1.046875 -13.75 C 1.046875 -14.738281 1.300781 -15.488281 1.8125 -16 C 2.332031 -16.507812 3.082031 -16.765625 4.0625 -16.765625 L 6.828125 -16.765625 C 7.804688 -16.765625 8.550781 -16.507812 9.0625 -16 C 9.582031 -15.488281 9.84375 -14.738281 9.84375 -13.75 L 9.84375 -11.5625 C 9.84375 -11.34375 9.734375 -11.234375 9.515625 -11.234375 L 7.421875 -11.234375 C 7.191406 -11.234375 7.078125 -11.34375 7.078125 -11.5625 L 7.078125 -13.15625 C 7.078125 -13.71875 6.800781 -14 6.25 -14 L 4.734375 -14 C 4.171875 -14 3.890625 -13.71875 3.890625 -13.15625 L 3.890625 -3.609375 C 3.890625 -3.046875 4.171875 -2.765625 4.734375 -2.765625 L 6.25 -2.765625 C 6.800781 -2.765625 7.078125 -3.046875 7.078125 -3.609375 L 7.078125 -6.40625 L 6 -6.40625 C 5.769531 -6.40625 5.65625 -6.519531 5.65625 -6.75 L 5.65625 -8.84375 C 5.65625 -9.0625 5.769531 -9.171875 6 -9.171875 L 9.515625 -9.171875 C 9.734375 -9.171875 9.84375 -9.0625 9.84375 -8.84375 L 9.84375 -3.015625 C 9.84375 -2.035156 9.582031 -1.285156 9.0625 -0.765625 C 8.550781 -0.253906 7.804688 0 6.828125 0 L 4.0625 0 C 3.082031 0 2.332031 -0.253906 1.8125 -0.765625 C 1.300781 -1.285156 1.046875 -2.035156 1.046875 -3.015625 Z M 1.046875 -3.015625 "/></g></g><g style="fill:#a6a6a6;fill-opacity:1;"><g transform="translate(166.043375, 373.234502)"><path style="stroke:none" d=""/></g></g><g style="fill:#a6a6a6;fill-opacity:1;"><g transform="translate(171.283144, 373.234502)"><path style="stroke:none" d="M 3.890625 -2.765625 L 3.890625 -16.421875 C 3.890625 -16.648438 3.78125 -16.765625 3.5625 -16.765625 L 1.390625 -16.765625 C 1.160156 -16.765625 1.046875 -16.648438 1.046875 -16.421875 L 1.046875 -0.328125 C 1.046875 -0.109375 1.160156 0 1.390625 0 L 8.890625 0 C 9.109375 0 9.21875 -0.109375 9.21875 -0.328125 L 9.21875 -2.4375 C 9.21875 -2.65625 9.109375 -2.765625 8.890625 -2.765625 Z M 3.890625 -2.765625 "/></g></g><g style="fill:#a6a6a6;fill-opacity:1;"><g transform="translate(181.133914, 373.234502)"><path style="stroke:none" d="M 1.390625 -16.765625 L 3.5625 -16.765625 C 3.78125 -16.765625 3.890625 -16.648438 3.890625 -16.421875 L 3.890625 -0.328125 C 3.890625 -0.109375 3.78125 0 3.5625 0 L 1.390625 0 C 1.160156 0 1.046875 -0.109375 1.046875 -0.328125 L 1.046875 -16.421875 C 1.046875 -16.648438 1.160156 -16.765625 1.390625 -16.765625 Z M 1.390625 -16.765625 "/></g></g><g style="fill:#a6a6a6;fill-opacity:1;"><g transform="translate(186.080258, 373.234502)"><path style="stroke:none" d="M 10.015625 0 L 7.796875 0 C 7.554688 0 7.394531 -0.101562 7.3125 -0.3125 L 4.671875 -6.53125 L 3.890625 -5.046875 L 3.890625 -0.421875 C 3.890625 -0.140625 3.753906 0 3.484375 0 L 1.46875 0 C 1.1875 0 1.046875 -0.140625 1.046875 -0.421875 L 1.046875 -16.34375 C 1.046875 -16.625 1.1875 -16.765625 1.46875 -16.765625 L 3.484375 -16.765625 C 3.753906 -16.765625 3.890625 -16.625 3.890625 -16.34375 L 3.890625 -9.84375 L 7.125 -16.453125 C 7.238281 -16.660156 7.398438 -16.765625 7.609375 -16.765625 L 9.8125 -16.765625 C 9.957031 -16.765625 10.054688 -16.71875 10.109375 -16.625 C 10.171875 -16.53125 10.164062 -16.410156 10.09375 -16.265625 L 6.53125 -8.953125 L 10.328125 -0.484375 C 10.398438 -0.335938 10.40625 -0.21875 10.34375 -0.125 C 10.289062 -0.0390625 10.179688 0 10.015625 0 Z M 10.015625 0 "/></g></g><g style="fill:#a6a6a6;fill-opacity:1;"><g transform="translate(196.895138, 373.234502)"><path style="stroke:none" d="M 9.40625 -16.421875 L 9.40625 -14.328125 C 9.40625 -14.085938 9.296875 -13.96875 9.078125 -13.96875 L 3.828125 -13.96875 L 3.828125 -9.78125 L 7.84375 -9.78125 C 8.0625 -9.78125 8.171875 -9.660156 8.171875 -9.421875 L 8.171875 -7.359375 C 8.171875 -7.117188 8.0625 -7 7.84375 -7 L 3.828125 -7 L 3.828125 -2.765625 L 9.078125 -2.765625 C 9.296875 -2.765625 9.40625 -2.65625 9.40625 -2.4375 L 9.40625 -0.328125 C 9.40625 -0.109375 9.296875 0 9.078125 0 L 1.359375 0 C 1.148438 0 1.046875 -0.109375 1.046875 -0.328125 L 1.046875 -16.421875 C 1.046875 -16.648438 1.148438 -16.765625 1.359375 -16.765625 L 9.078125 -16.765625 C 9.296875 -16.765625 9.40625 -16.648438 9.40625 -16.421875 Z M 9.40625 -16.421875 "/></g></g><g style="fill:#a6a6a6;fill-opacity:1;"><g transform="translate(207.353716, 373.234502)"><path style="stroke:none" d=""/></g></g><g style="fill:#a6a6a6;fill-opacity:1;"><g transform="translate(212.593485, 373.234502)"><path style="stroke:none" d="M 9.8125 -16.765625 L 12.578125 -16.765625 C 12.847656 -16.765625 12.984375 -16.625 12.984375 -16.34375 L 12.984375 -0.421875 C 12.984375 -0.140625 12.847656 0 12.578125 0 L 10.625 0 C 10.34375 0 10.203125 -0.140625 10.203125 -0.421875 L 10.203125 -9.84375 L 10.0625 -9.84375 L 7.984375 -0.375 C 7.929688 -0.125 7.773438 0 7.515625 0 L 6.5 0 C 6.257812 0 6.101562 -0.125 6.03125 -0.375 L 3.953125 -9.84375 L 3.8125 -9.84375 L 3.8125 -0.421875 C 3.8125 -0.140625 3.671875 0 3.390625 0 L 1.46875 0 C 1.1875 0 1.046875 -0.140625 1.046875 -0.421875 L 1.046875 -16.34375 C 1.046875 -16.625 1.1875 -16.765625 1.46875 -16.765625 L 4.234375 -16.765625 C 4.484375 -16.765625 4.632812 -16.640625 4.6875 -16.390625 L 7.015625 -5.953125 L 9.34375 -16.390625 C 9.414062 -16.640625 9.570312 -16.765625 9.8125 -16.765625 Z M 9.8125 -16.765625 "/></g></g><g style="fill:#a6a6a6;fill-opacity:1;"><g transform="translate(226.636057, 373.234502)"><path style="stroke:none" d="M 1.390625 -16.765625 L 3.5625 -16.765625 C 3.78125 -16.765625 3.890625 -16.648438 3.890625 -16.421875 L 3.890625 -0.328125 C 3.890625 -0.109375 3.78125 0 3.5625 0 L 1.390625 0 C 1.160156 0 1.046875 -0.109375 1.046875 -0.328125 L 1.046875 -16.421875 C 1.046875 -16.648438 1.160156 -16.765625 1.390625 -16.765625 Z M 1.390625 -16.765625 "/></g></g><g style="fill:#a6a6a6;fill-opacity:1;"><g transform="translate(231.582401, 373.234502)"><path style="stroke:none" d="M 7.484375 -16.765625 L 9.65625 -16.765625 C 9.882812 -16.765625 10 -16.648438 10 -16.421875 L 10 -0.328125 C 10 -0.109375 9.882812 0 9.65625 0 L 7.578125 0 C 7.390625 0 7.265625 -0.0859375 7.203125 -0.265625 L 4 -9.21875 L 3.890625 -9.21875 L 3.890625 -0.328125 C 3.890625 -0.109375 3.78125 0 3.5625 0 L 1.390625 0 C 1.160156 0 1.046875 -0.109375 1.046875 -0.328125 L 1.046875 -16.421875 C 1.046875 -16.648438 1.160156 -16.765625 1.390625 -16.765625 L 3.453125 -16.765625 C 3.648438 -16.765625 3.773438 -16.671875 3.828125 -16.484375 L 7.015625 -7.578125 L 7.140625 -7.578125 L 7.140625 -16.421875 C 7.140625 -16.648438 7.253906 -16.765625 7.484375 -16.765625 Z M 7.484375 -16.765625 "/></g></g><g style="fill:#a6a6a6;fill-opacity:1;"><g transform="translate(242.627829, 373.234502)"><path style="stroke:none" d="M 1.046875 -0.328125 L 1.046875 -16.421875 C 1.046875 -16.648438 1.160156 -16.765625 1.390625 -16.765625 L 6.40625 -16.765625 C 7.40625 -16.765625 8.15625 -16.503906 8.65625 -15.984375 C 9.164062 -15.472656 9.421875 -14.71875 9.421875 -13.71875 L 9.421875 -3.015625 C 9.421875 -2.035156 9.164062 -1.285156 8.65625 -0.765625 C 8.15625 -0.253906 7.40625 0 6.40625 0 L 1.390625 0 C 1.160156 0 1.046875 -0.109375 1.046875 -0.328125 Z M 3.890625 -2.765625 L 5.828125 -2.765625 C 6.378906 -2.765625 6.65625 -3.046875 6.65625 -3.609375 L 6.65625 -13.140625 C 6.65625 -13.710938 6.378906 -14 5.828125 -14 L 3.890625 -14 Z M 3.890625 -2.765625 "/></g></g><g style="fill:#a6a6a6;fill-opacity:1;"><g transform="translate(253.107377, 373.234502)"><path style="stroke:none" d="M 9.40625 -16.421875 L 9.40625 -14.328125 C 9.40625 -14.085938 9.296875 -13.96875 9.078125 -13.96875 L 3.828125 -13.96875 L 3.828125 -9.78125 L 7.84375 -9.78125 C 8.0625 -9.78125 8.171875 -9.660156 8.171875 -9.421875 L 8.171875 -7.359375 C 8.171875 -7.117188 8.0625 -7 7.84375 -7 L 3.828125 -7 L 3.828125 -2.765625 L 9.078125 -2.765625 C 9.296875 -2.765625 9.40625 -2.65625 9.40625 -2.4375 L 9.40625 -0.328125 C 9.40625 -0.109375 9.296875 0 9.078125 0 L 1.359375 0 C 1.148438 0 1.046875 -0.109375 1.046875 -0.328125 L 1.046875 -16.421875 C 1.046875 -16.648438 1.148438 -16.765625 1.359375 -16.765625 L 9.078125 -16.765625 C 9.296875 -16.765625 9.40625 -16.648438 9.40625 -16.421875 Z M 9.40625 -16.421875 "/></g></g><g style="fill:#a6a6a6;fill-opacity:1;"><g transform="translate(263.356356, 373.234502)"><path style="stroke:none" d="M 1.046875 -0.328125 L 1.046875 -16.421875 C 1.046875 -16.648438 1.160156 -16.765625 1.390625 -16.765625 L 6.40625 -16.765625 C 7.40625 -16.765625 8.15625 -16.503906 8.65625 -15.984375 C 9.164062 -15.472656 9.421875 -14.71875 9.421875 -13.71875 L 9.421875 -3.015625 C 9.421875 -2.035156 9.164062 -1.285156 8.65625 -0.765625 C 8.15625 -0.253906 7.40625 0 6.40625 0 L 1.390625 0 C 1.160156 0 1.046875 -0.109375 1.046875 -0.328125 Z M 3.890625 -2.765625 L 5.828125 -2.765625 C 6.378906 -2.765625 6.65625 -3.046875 6.65625 -3.609375 L 6.65625 -13.140625 C 6.65625 -13.710938 6.378906 -14 5.828125 -14 L 3.890625 -14 Z M 3.890625 -2.765625 "/></g></g><g style="fill:#a6a6a6;fill-opacity:1;"><g transform="translate(273.835893, 373.234502)"><path style="stroke:none" d=""/></g></g><g style="fill:#a6a6a6;fill-opacity:1;"><g transform="translate(279.075662, 373.234502)"><path style="stroke:none" d="M 1.046875 -0.328125 L 1.046875 -16.421875 C 1.046875 -16.648438 1.160156 -16.765625 1.390625 -16.765625 L 6.40625 -16.765625 C 7.40625 -16.765625 8.15625 -16.507812 8.65625 -16 C 9.164062 -15.488281 9.421875 -14.738281 9.421875 -13.75 L 9.421875 -8.625 C 9.421875 -7.65625 9.164062 -6.910156 8.65625 -6.390625 C 8.15625 -5.867188 7.40625 -5.609375 6.40625 -5.609375 L 3.890625 -5.609375 L 3.890625 -0.328125 C 3.890625 -0.109375 3.78125 0 3.5625 0 L 1.390625 0 C 1.160156 0 1.046875 -0.109375 1.046875 -0.328125 Z M 3.890625 -8.375 L 5.734375 -8.375 C 6.296875 -8.375 6.578125 -8.65625 6.578125 -9.21875 L 6.578125 -13.15625 C 6.578125 -13.71875 6.296875 -14 5.734375 -14 L 3.890625 -14 Z M 3.890625 -8.375 "/></g></g><g style="fill:#a6a6a6;fill-opacity:1;"><g transform="translate(289.555199, 373.234502)"><path style="stroke:none" d="M 9.40625 -16.421875 L 9.40625 -14.328125 C 9.40625 -14.085938 9.296875 -13.96875 9.078125 -13.96875 L 3.828125 -13.96875 L 3.828125 -9.78125 L 7.84375 -9.78125 C 8.0625 -9.78125 8.171875 -9.660156 8.171875 -9.421875 L 8.171875 -7.359375 C 8.171875 -7.117188 8.0625 -7 7.84375 -7 L 3.828125 -7 L 3.828125 -2.765625 L 9.078125 -2.765625 C 9.296875 -2.765625 9.40625 -2.65625 9.40625 -2.4375 L 9.40625 -0.328125 C 9.40625 -0.109375 9.296875 0 9.078125 0 L 1.359375 0 C 1.148438 0 1.046875 -0.109375 1.046875 -0.328125 L 1.046875 -16.421875 C 1.046875 -16.648438 1.148438 -16.765625 1.359375 -16.765625 L 9.078125 -16.765625 C 9.296875 -16.765625 9.40625 -16.648438 9.40625 -16.421875 Z M 9.40625 -16.421875 "/></g></g><g style="fill:#a6a6a6;fill-opacity:1;"><g transform="translate(300.013766, 373.234502)"><path style="stroke:none" d="M 1.046875 -3.015625 L 1.046875 -13.75 C 1.046875 -14.738281 1.300781 -15.488281 1.8125 -16 C 2.332031 -16.507812 3.082031 -16.765625 4.0625 -16.765625 L 6.40625 -16.765625 C 7.40625 -16.765625 8.15625 -16.507812 8.65625 -16 C 9.164062 -15.488281 9.421875 -14.738281 9.421875 -13.75 L 9.421875 -3.015625 C 9.421875 -2.035156 9.164062 -1.285156 8.65625 -0.765625 C 8.15625 -0.253906 7.40625 0 6.40625 0 L 4.0625 0 C 3.082031 0 2.332031 -0.253906 1.8125 -0.765625 C 1.300781 -1.285156 1.046875 -2.035156 1.046875 -3.015625 Z M 4.671875 -2.703125 L 5.890625 -2.703125 C 6.441406 -2.703125 6.71875 -2.984375 6.71875 -3.546875 L 6.71875 -13.21875 C 6.71875 -13.78125 6.441406 -14.0625 5.890625 -14.0625 L 4.671875 -14.0625 C 4.109375 -14.0625 3.828125 -13.78125 3.828125 -13.21875 L 3.828125 -3.546875 C 3.828125 -2.984375 4.109375 -2.703125 4.671875 -2.703125 Z M 4.671875 -2.703125 "/></g></g><g style="fill:#a6a6a6;fill-opacity:1;"><g transform="translate(310.493303, 373.234502)"><path style="stroke:none" d="M 1.046875 -0.328125 L 1.046875 -16.421875 C 1.046875 -16.648438 1.160156 -16.765625 1.390625 -16.765625 L 6.40625 -16.765625 C 7.40625 -16.765625 8.15625 -16.507812 8.65625 -16 C 9.164062 -15.488281 9.421875 -14.738281 9.421875 -13.75 L 9.421875 -8.625 C 9.421875 -7.65625 9.164062 -6.910156 8.65625 -6.390625 C 8.15625 -5.867188 7.40625 -5.609375 6.40625 -5.609375 L 3.890625 -5.609375 L 3.890625 -0.328125 C 3.890625 -0.109375 3.78125 0 3.5625 0 L 1.390625 0 C 1.160156 0 1.046875 -0.109375 1.046875 -0.328125 Z M 3.890625 -8.375 L 5.734375 -8.375 C 6.296875 -8.375 6.578125 -8.65625 6.578125 -9.21875 L 6.578125 -13.15625 C 6.578125 -13.71875 6.296875 -14 5.734375 -14 L 3.890625 -14 Z M 3.890625 -8.375 "/></g></g><g style="fill:#a6a6a6;fill-opacity:1;"><g transform="translate(320.972841, 373.234502)"><path style="stroke:none" d="M 3.890625 -2.765625 L 3.890625 -16.421875 C 3.890625 -16.648438 3.78125 -16.765625 3.5625 -16.765625 L 1.390625 -16.765625 C 1.160156 -16.765625 1.046875 -16.648438 1.046875 -16.421875 L 1.046875 -0.328125 C 1.046875 -0.109375 1.160156 0 1.390625 0 L 8.890625 0 C 9.109375 0 9.21875 -0.109375 9.21875 -0.328125 L 9.21875 -2.4375 C 9.21875 -2.65625 9.109375 -2.765625 8.890625 -2.765625 Z M 3.890625 -2.765625 "/></g></g><g style="fill:#a6a6a6;fill-opacity:1;"><g transform="translate(330.823634, 373.234502)"><path style="stroke:none" d="M 9.40625 -16.421875 L 9.40625 -14.328125 C 9.40625 -14.085938 9.296875 -13.96875 9.078125 -13.96875 L 3.828125 -13.96875 L 3.828125 -9.78125 L 7.84375 -9.78125 C 8.0625 -9.78125 8.171875 -9.660156 8.171875 -9.421875 L 8.171875 -7.359375 C 8.171875 -7.117188 8.0625 -7 7.84375 -7 L 3.828125 -7 L 3.828125 -2.765625 L 9.078125 -2.765625 C 9.296875 -2.765625 9.40625 -2.65625 9.40625 -2.4375 L 9.40625 -0.328125 C 9.40625 -0.109375 9.296875 0 9.078125 0 L 1.359375 0 C 1.148438 0 1.046875 -0.109375 1.046875 -0.328125 L 1.046875 -16.421875 C 1.046875 -16.648438 1.148438 -16.765625 1.359375 -16.765625 L 9.078125 -16.765625 C 9.296875 -16.765625 9.40625 -16.648438 9.40625 -16.421875 Z M 9.40625 -16.421875 "/></g></g></g></svg>