<svg xmlns="http://www.w3.org/2000/svg" xmlns:xlink="http://www.w3.org/1999/xlink" width="586" zoomAndPan="magnify" viewBox="0 0 439.5 434.250001" height="579" preserveAspectRatio="xMidYMid meet" version="1.2"><defs><clipPath id="04cb7ab87a"><path d="M 56 45 L 410 45 L 410 395.316406 L 56 395.316406 Z M 56 45 "/></clipPath><clipPath id="6fb7199e69"><path d="M 267.539062 66.429688 L 404.058594 329.027344 C 411.382812 343.117188 410.824219 360.011719 402.578125 373.589844 C 394.335938 387.164062 379.605469 395.453125 363.722656 395.453125 L 102.289062 395.453125 C 86.40625 395.453125 71.675781 387.164062 63.433594 373.589844 C 55.191406 360.011719 54.628906 343.117188 61.957031 329.027344 L 198.472656 66.429688 C 205.171875 53.546875 218.484375 45.460938 233.007812 45.460938 C 247.527344 45.460938 260.84375 53.546875 267.539062 66.429688 Z M 267.539062 66.429688 "/></clipPath><clipPath id="41558d4d8c"><path d="M 160.730469 195.597656 L 208 195.597656 L 208 265 L 160.730469 265 Z M 160.730469 195.597656 "/></clipPath><clipPath id="31c011c5f0"><path d="M 190 195.597656 L 255 195.597656 L 255 266 L 190 266 Z M 190 195.597656 "/></clipPath><clipPath id="bb982b0867"><path d="M 194 330 L 222 330 L 222 342.34375 L 194 342.34375 Z M 194 330 "/></clipPath><clipPath id="a08e60c22e"><path d="M 206 168.320312 L 209 168.320312 L 209 186 L 206 186 Z M 206 168.320312 "/></clipPath><clipPath id="d9531b22bf"><path d="M 131.652344 230 L 149 230 L 149 235 L 131.652344 235 Z M 131.652344 230 "/></clipPath><clipPath id="ce0d1adf33"><path d="M 131.652344 253 L 149 253 L 149 259 L 131.652344 259 Z M 131.652344 253 "/></clipPath><clipPath id="f76669b873"><path d="M 267 230 L 284.390625 230 L 284.390625 236 L 267 236 Z M 267 230 "/></clipPath><clipPath id="7310e9d9a7"><path d="M 267 254 L 284.390625 254 L 284.390625 260 L 267 260 Z M 267 254 "/></clipPath><clipPath id="52fd467bec"><path d="M 260 274 L 276 274 L 276 284.371094 L 260 284.371094 Z M 260 274 "/></clipPath><clipPath id="21bad0ab7f"><path d="M 29 45 L 340 45 L 340 354.886719 L 29 354.886719 Z M 29 45 "/></clipPath><clipPath id="2ba4bd5462"><path d="M 219.253906 66.429688 L 334.777344 288.644531 C 342.105469 302.734375 341.542969 319.628906 333.300781 333.207031 C 325.054688 346.78125 310.324219 355.074219 294.441406 355.074219 L 75 355.074219 C 59.117188 355.074219 44.382812 346.78125 36.140625 333.207031 C 27.898438 319.628906 27.335938 302.734375 34.664062 288.644531 L 150.1875 66.429688 C 156.882812 53.546875 170.199219 45.460938 184.71875 45.460938 C 199.242188 45.460938 212.558594 53.546875 219.253906 66.429688 Z M 219.253906 66.429688 "/></clipPath></defs><g id="ae9e853f38"><g clip-rule="nonzero" clip-path="url(#04cb7ab87a)"><g clip-rule="nonzero" clip-path="url(#6fb7199e69)"><path style="fill:none;stroke-width:8;stroke-linecap:butt;stroke-linejoin:miter;stroke:#000000;stroke-opacity:1;stroke-miterlimit:4;" d="M 320.708928 88.722351 L 503.049357 439.457289 C 512.831848 458.276195 512.08577 480.841142 501.071989 498.976578 C 490.063425 517.106796 470.388878 528.177968 449.175218 528.177968 L 99.995044 528.177968 C 78.781385 528.177968 59.106837 517.106796 48.098273 498.976578 C 37.089709 480.841142 36.338414 458.276195 46.126123 439.457289 L 228.461335 88.722351 C 237.409054 71.5156 255.189711 60.71573 274.58774 60.71573 C 293.980551 60.71573 311.766426 71.5156 320.708928 88.722351 Z M 320.708928 88.722351 " transform="matrix(0.748707,0,0,0.748707,27.422086,0.00265389)"/></g></g><path style=" stroke:none;fill-rule:evenodd;fill:#ff66c4;fill-opacity:1;" d="M 167.65625 268.804688 C 164.085938 262.113281 161.90625 254.828125 161.183594 247.382812 L 173.675781 247.519531 C 174.667969 251.011719 171.164062 254.996094 171.621094 259.34375 C 172.039062 263.445312 175.148438 265.941406 179.082031 266.050781 C 193.683594 266.429688 183.96875 250.503906 186.953125 247.65625 C 189.140625 246.660156 203.832031 247.222656 207.425781 247.335938 L 207.222656 266.839844 C 202.539062 268.804688 199.769531 265.1875 194.820312 266.984375 C 187.128906 269.773438 188.148438 285.203125 196.699219 285.417969 C 201.457031 285.539062 203.347656 281.59375 206.070312 282.761719 C 208.621094 283.855469 207.417969 298.863281 207.433594 304.664062 C 199.980469 304.648438 192.535156 304.3125 185.089844 303.664062 C 186.886719 282.851562 175.953125 282.746094 167.65625 268.804688 Z M 167.65625 268.804688 "/><g clip-rule="nonzero" clip-path="url(#41558d4d8c)"><path style=" stroke:none;fill-rule:evenodd;fill:#2097d6;fill-opacity:1;" d="M 161.054688 245.707031 C 160.734375 240.957031 161.007812 236.152344 161.898438 231.410156 C 162.226562 230.113281 162.609375 228.84375 163.027344 227.59375 C 164.382812 224.109375 166.519531 219 169.269531 215.453125 C 177.820312 203.46875 191.714844 195.839844 207.078125 195.597656 C 207.425781 219.953125 202.492188 202.929688 194.21875 206.179688 C 187.59375 208.777344 187.738281 224.753906 195.800781 226.355469 C 201.929688 227.574219 201.246094 221.464844 207.078125 223.089844 C 208.066406 226.292969 207.433594 240.941406 207.425781 245.691406 L 186.398438 245.941406 C 183.074219 249.382812 185.882812 253.546875 186.125 257.871094 C 186.644531 267.238281 171.730469 266.660156 173.144531 256.9375 C 173.714844 252.992188 176.738281 249.808594 174.636719 245.714844 Z M 161.054688 245.707031 "/></g><path style=" stroke:none;fill-rule:evenodd;fill:#fada09;fill-opacity:1;" d="M 254.789062 247.273438 C 254.003906 256.472656 250.828125 265.402344 245.460938 273.136719 C 235.152344 284.542969 229.632812 286.1875 230.9375 303.664062 C 223.574219 304.304688 216.210938 304.640625 208.851562 304.664062 C 208.894531 300.886719 209.277344 285.933594 208.667969 283.421875 C 207.113281 277.011719 199.515625 285.144531 195.117188 283.515625 C 190.519531 281.808594 189.757812 272.605469 193.425781 269.527344 C 198.464844 265.3125 204.023438 271.660156 208.835938 267.960938 L 208.894531 247.3125 L 222.210938 246.96875 C 229.777344 247.472656 222.578125 253.722656 221.984375 257.558594 C 220.628906 266.308594 230.226562 269.042969 237.019531 266.535156 C 245.980469 263.230469 237.621094 257.277344 238.632812 252.496094 C 240.042969 245.8125 248.910156 246.75 254.789062 247.273438 Z M 254.789062 247.273438 "/><g clip-rule="nonzero" clip-path="url(#31c011c5f0)"><path style=" stroke:none;fill-rule:evenodd;fill:#52ae4c;fill-opacity:1;" d="M 208.394531 195.597656 C 229.863281 195.855469 248.507812 210.542969 253.753906 231.410156 C 254.78125 236.105469 255.152344 240.878906 254.902344 245.59375 C 250.191406 245.859375 243.382812 244.382812 240.285156 247.191406 C 230.90625 255.664062 246.734375 263.171875 234.765625 265.53125 C 226.253906 267.214844 220.6875 261.738281 224.457031 255.222656 C 226.1875 252.222656 227.792969 250.375 226.886719 246.925781 C 225.675781 244.511719 215.070312 245.925781 208.84375 245.53125 C 208.910156 241.09375 209.398438 227.792969 208.8125 224.230469 C 208.316406 221.253906 205.179688 220.21875 202.492188 221.914062 C 200.542969 223.132812 199.074219 225.785156 195.453125 224.640625 C 190.816406 223.179688 189.589844 213.953125 192.511719 209.421875 C 197.515625 201.671875 208.25 220.265625 208.445312 202.320312 C 208.476562 199.191406 208.332031 197.050781 208.394531 195.597656 Z M 208.394531 195.597656 "/></g><path style=" stroke:none;fill-rule:evenodd;fill:#f6a32a;fill-opacity:1;" d="M 188.15625 308.285156 L 228.734375 308.285156 C 229.179688 308.285156 229.609375 308.355469 230.019531 308.488281 C 230.433594 308.621094 230.796875 308.808594 231.109375 309.054688 C 231.425781 309.300781 231.667969 309.585938 231.835938 309.910156 C 232.007812 310.230469 232.09375 310.566406 232.09375 310.914062 C 232.09375 311.261719 232.007812 311.597656 231.835938 311.917969 C 231.667969 312.242188 231.425781 312.523438 231.109375 312.769531 C 230.796875 313.015625 230.433594 313.207031 230.019531 313.339844 C 229.609375 313.472656 229.179688 313.539062 228.734375 313.539062 L 188.15625 313.539062 C 187.710938 313.539062 187.285156 313.472656 186.875 313.339844 C 186.460938 313.207031 186.097656 313.015625 185.785156 312.769531 C 185.46875 312.523438 185.226562 312.242188 185.054688 311.917969 C 184.886719 311.597656 184.800781 311.261719 184.800781 310.914062 C 184.800781 310.566406 184.886719 310.230469 185.054688 309.910156 C 185.226562 309.585938 185.46875 309.300781 185.785156 309.054688 C 186.097656 308.808594 186.460938 308.621094 186.875 308.488281 C 187.285156 308.355469 187.710938 308.285156 188.15625 308.285156 Z M 188.15625 308.285156 "/><path style=" stroke:none;fill-rule:evenodd;fill:#f6a32a;fill-opacity:1;" d="M 190.34375 315.734375 L 226.542969 315.734375 C 226.941406 315.734375 227.320312 315.800781 227.6875 315.933594 C 228.054688 316.066406 228.378906 316.253906 228.660156 316.503906 C 228.941406 316.75 229.15625 317.03125 229.308594 317.355469 C 229.460938 317.675781 229.535156 318.011719 229.535156 318.359375 C 229.535156 318.707031 229.460938 319.042969 229.308594 319.363281 C 229.15625 319.6875 228.941406 319.96875 228.660156 320.214844 C 228.378906 320.460938 228.054688 320.652344 227.6875 320.785156 C 227.320312 320.917969 226.941406 320.984375 226.542969 320.984375 L 190.34375 320.984375 C 189.945312 320.984375 189.566406 320.917969 189.199219 320.785156 C 188.832031 320.652344 188.507812 320.460938 188.226562 320.214844 C 187.945312 319.96875 187.730469 319.6875 187.578125 319.363281 C 187.425781 319.042969 187.351562 318.707031 187.351562 318.359375 C 187.351562 318.011719 187.425781 317.675781 187.578125 317.355469 C 187.730469 317.03125 187.945312 316.75 188.226562 316.503906 C 188.507812 316.253906 188.832031 316.066406 189.199219 315.933594 C 189.566406 315.800781 189.945312 315.734375 190.34375 315.734375 Z M 190.34375 315.734375 "/><path style=" stroke:none;fill-rule:evenodd;fill:#f6a32a;fill-opacity:1;" d="M 193.609375 323.179688 L 223.285156 323.179688 C 223.609375 323.179688 223.925781 323.246094 224.226562 323.378906 C 224.527344 323.511719 224.792969 323.703125 225.023438 323.949219 C 225.253906 324.195312 225.433594 324.476562 225.558594 324.800781 C 225.683594 325.121094 225.742188 325.457031 225.742188 325.804688 C 225.742188 326.152344 225.683594 326.488281 225.558594 326.808594 C 225.433594 327.132812 225.253906 327.414062 225.023438 327.660156 C 224.792969 327.910156 224.527344 328.097656 224.226562 328.230469 C 223.925781 328.363281 223.609375 328.429688 223.285156 328.429688 L 193.609375 328.429688 C 193.28125 328.429688 192.96875 328.363281 192.667969 328.230469 C 192.367188 328.097656 192.101562 327.910156 191.871094 327.660156 C 191.640625 327.414062 191.460938 327.132812 191.335938 326.808594 C 191.210938 326.488281 191.148438 326.152344 191.148438 325.804688 C 191.148438 325.457031 191.210938 325.121094 191.335938 324.800781 C 191.460938 324.476562 191.640625 324.195312 191.871094 323.949219 C 192.101562 323.703125 192.367188 323.511719 192.667969 323.378906 C 192.96875 323.246094 193.28125 323.179688 193.609375 323.179688 Z M 193.609375 323.179688 "/><g clip-rule="nonzero" clip-path="url(#bb982b0867)"><path style=" stroke:none;fill-rule:evenodd;fill:#f6a32a;fill-opacity:1;" d="M 221.914062 330.402344 C 221.121094 337.140625 215.398438 342.371094 208.445312 342.371094 C 201.496094 342.371094 195.769531 337.140625 194.980469 330.402344 Z M 221.914062 330.402344 "/></g><g clip-rule="nonzero" clip-path="url(#a08e60c22e)"><path style=" stroke:none;fill-rule:nonzero;fill:#000000;fill-opacity:1;" d="M 207.269531 168.320312 C 206.699219 168.320312 206.234375 168.785156 206.234375 169.359375 L 206.234375 184.445312 C 206.234375 185.015625 206.699219 185.480469 207.269531 185.480469 C 207.84375 185.480469 208.308594 185.015625 208.308594 184.445312 L 208.308594 169.359375 C 208.308594 168.785156 207.84375 168.320312 207.269531 168.320312 Z M 207.269531 168.320312 "/></g><path style=" stroke:none;fill-rule:nonzero;fill:#000000;fill-opacity:1;" d="M 182.480469 173.433594 C 182.285156 172.894531 181.6875 172.621094 181.152344 172.816406 C 180.613281 173.011719 180.335938 173.605469 180.53125 174.140625 L 185.699219 188.320312 C 185.855469 188.738281 186.25 189 186.675781 189 C 186.792969 189 186.914062 188.980469 187.03125 188.9375 C 187.570312 188.742188 187.847656 188.148438 187.648438 187.609375 Z M 182.480469 173.433594 "/><path style=" stroke:none;fill-rule:nonzero;fill:#000000;fill-opacity:1;" d="M 159.605469 186.082031 C 159.238281 185.644531 158.582031 185.585938 158.144531 185.953125 C 157.707031 186.320312 157.648438 186.972656 158.015625 187.414062 L 167.734375 198.96875 C 167.9375 199.214844 168.230469 199.339844 168.527344 199.339844 C 168.761719 199.339844 169 199.257812 169.195312 199.097656 C 169.632812 198.730469 169.691406 198.074219 169.320312 197.636719 Z M 159.605469 186.082031 "/><path style=" stroke:none;fill-rule:nonzero;fill:#000000;fill-opacity:1;" d="M 155.535156 213.316406 L 142.445312 205.773438 C 141.949219 205.488281 141.316406 205.65625 141.027344 206.152344 C 140.742188 206.648438 140.910156 207.28125 141.40625 207.566406 L 154.5 215.109375 C 154.660156 215.203125 154.839844 215.25 155.015625 215.25 C 155.375 215.25 155.722656 215.0625 155.914062 214.730469 C 156.203125 214.234375 156.03125 213.601562 155.535156 213.316406 Z M 155.535156 213.316406 "/><g clip-rule="nonzero" clip-path="url(#d9531b22bf)"><path style=" stroke:none;fill-rule:nonzero;fill:#000000;fill-opacity:1;" d="M 132.707031 232.175781 L 147.59375 234.796875 C 147.65625 234.804688 147.714844 234.8125 147.773438 234.8125 C 148.269531 234.8125 148.707031 234.457031 148.796875 233.957031 C 148.894531 233.394531 148.519531 232.855469 147.953125 232.757812 L 133.066406 230.136719 C 132.503906 230.039062 131.964844 230.414062 131.867188 230.976562 C 131.765625 231.539062 132.144531 232.078125 132.707031 232.175781 Z M 132.707031 232.175781 "/></g><g clip-rule="nonzero" clip-path="url(#ce0d1adf33)"><path style=" stroke:none;fill-rule:nonzero;fill:#000000;fill-opacity:1;" d="M 148.691406 254.453125 C 148.59375 253.890625 148.058594 253.511719 147.492188 253.613281 L 132.605469 256.234375 C 132.039062 256.332031 131.664062 256.867188 131.761719 257.433594 C 131.851562 257.933594 132.289062 258.289062 132.785156 258.289062 C 132.84375 258.289062 132.902344 258.28125 132.964844 258.273438 L 147.851562 255.652344 C 148.414062 255.550781 148.792969 255.015625 148.691406 254.453125 Z M 148.691406 254.453125 "/></g><path style=" stroke:none;fill-rule:nonzero;fill:#000000;fill-opacity:1;" d="M 154.203125 273.367188 L 141.109375 280.914062 C 140.613281 281.199219 140.445312 281.832031 140.730469 282.328125 C 140.921875 282.660156 141.273438 282.84375 141.628906 282.84375 C 141.808594 282.84375 141.984375 282.800781 142.148438 282.707031 L 155.238281 275.160156 C 155.734375 274.875 155.90625 274.242188 155.617188 273.746094 C 155.332031 273.25 154.699219 273.082031 154.203125 273.367188 Z M 154.203125 273.367188 "/><path style=" stroke:none;fill-rule:nonzero;fill:#000000;fill-opacity:1;" d="M 233.816406 172.785156 C 233.277344 172.589844 232.683594 172.867188 232.484375 173.402344 L 227.316406 187.582031 C 227.121094 188.117188 227.398438 188.710938 227.9375 188.90625 C 228.054688 188.949219 228.171875 188.96875 228.289062 188.96875 C 228.714844 188.96875 229.113281 188.710938 229.265625 188.289062 L 234.4375 174.113281 C 234.632812 173.574219 234.355469 172.980469 233.816406 172.785156 Z M 233.816406 172.785156 "/><path style=" stroke:none;fill-rule:nonzero;fill:#000000;fill-opacity:1;" d="M 255.769531 186.167969 L 246.050781 197.722656 C 245.683594 198.160156 245.742188 198.816406 246.179688 199.183594 C 246.375 199.34375 246.609375 199.425781 246.847656 199.425781 C 247.140625 199.425781 247.4375 199.300781 247.640625 199.054688 L 257.359375 187.5 C 257.726562 187.0625 257.667969 186.40625 257.230469 186.039062 C 256.789062 185.671875 256.136719 185.730469 255.769531 186.167969 Z M 255.769531 186.167969 "/><path style=" stroke:none;fill-rule:nonzero;fill:#000000;fill-opacity:1;" d="M 261.21875 215.445312 L 274.308594 207.902344 C 274.804688 207.617188 274.976562 206.984375 274.691406 206.488281 C 274.402344 205.992188 273.769531 205.824219 273.273438 206.109375 L 260.183594 213.652344 C 259.6875 213.9375 259.515625 214.570312 259.800781 215.066406 C 259.996094 215.398438 260.34375 215.585938 260.703125 215.585938 C 260.878906 215.585938 261.054688 215.539062 261.21875 215.445312 Z M 261.21875 215.445312 "/><g clip-rule="nonzero" clip-path="url(#f76669b873)"><path style=" stroke:none;fill-rule:nonzero;fill:#000000;fill-opacity:1;" d="M 267.160156 234.640625 C 267.25 235.144531 267.6875 235.496094 268.179688 235.496094 C 268.242188 235.496094 268.300781 235.492188 268.363281 235.480469 L 283.246094 232.863281 C 283.8125 232.761719 284.1875 232.226562 284.089844 231.664062 C 283.988281 231.101562 283.453125 230.722656 282.886719 230.824219 L 268.003906 233.441406 C 267.4375 233.542969 267.0625 234.078125 267.160156 234.640625 Z M 267.160156 234.640625 "/></g><g clip-rule="nonzero" clip-path="url(#7310e9d9a7)"><path style=" stroke:none;fill-rule:nonzero;fill:#000000;fill-opacity:1;" d="M 283.453125 257.328125 L 268.566406 254.707031 C 268.003906 254.609375 267.464844 254.984375 267.367188 255.550781 C 267.265625 256.113281 267.644531 256.648438 268.207031 256.75 L 283.09375 259.367188 C 283.152344 259.378906 283.214844 259.382812 283.273438 259.382812 C 283.769531 259.382812 284.207031 259.03125 284.296875 258.527344 C 284.394531 257.964844 284.019531 257.429688 283.453125 257.328125 Z M 283.453125 257.328125 "/></g><g clip-rule="nonzero" clip-path="url(#52fd467bec)"><path style=" stroke:none;fill-rule:nonzero;fill:#000000;fill-opacity:1;" d="M 274.902344 282.429688 L 261.8125 274.886719 C 261.316406 274.601562 260.683594 274.769531 260.394531 275.265625 C 260.109375 275.761719 260.277344 276.394531 260.773438 276.679688 L 273.867188 284.222656 C 274.027344 284.316406 274.207031 284.363281 274.382812 284.363281 C 274.742188 284.363281 275.089844 284.175781 275.28125 283.84375 C 275.570312 283.347656 275.398438 282.714844 274.902344 282.429688 Z M 274.902344 282.429688 "/></g><g style="fill:#000000;fill-opacity:1;"><g transform="translate(79.513573, 277.700326)"><path style="stroke:none" d="M -11.09375 -21.109375 L -6.21875 -18.53125 C -5.71875 -18.269531 -5.378906 -17.890625 -5.203125 -17.390625 C -5.035156 -16.898438 -5.035156 -16.394531 -5.203125 -15.875 L -5.15625 -15.84375 C -4.832031 -16.289062 -4.414062 -16.582031 -3.90625 -16.71875 C -3.394531 -16.851562 -2.894531 -16.789062 -2.40625 -16.53125 L 2.484375 -13.96875 C 3.710938 -13.3125 4.484375 -12.484375 4.796875 -11.484375 C 5.109375 -10.492188 4.929688 -9.367188 4.265625 -8.109375 L 0.921875 -1.75 C 0.773438 -1.46875 0.5625 -1.398438 0.28125 -1.546875 L -20.078125 -12.265625 C -20.359375 -12.410156 -20.425781 -12.625 -20.28125 -12.90625 L -16.9375 -19.265625 C -16.269531 -20.523438 -15.441406 -21.3125 -14.453125 -21.625 C -13.472656 -21.9375 -12.351562 -21.765625 -11.09375 -21.109375 Z M -8.953125 -15.484375 L -12.203125 -17.203125 C -12.921875 -17.578125 -13.46875 -17.410156 -13.84375 -16.703125 L -15.109375 -14.28125 L -9.734375 -11.453125 L -8.46875 -13.875 C -8.09375 -14.582031 -8.253906 -15.117188 -8.953125 -15.484375 Z M -0.125 -10.84375 L -3.359375 -12.546875 C -4.054688 -12.910156 -4.59375 -12.738281 -4.96875 -12.03125 L -6.234375 -9.609375 L -0.890625 -6.796875 L 0.375 -9.21875 C 0.75 -9.925781 0.582031 -10.46875 -0.125 -10.84375 Z M -0.125 -10.84375 "/></g></g><g style="fill:#000000;fill-opacity:1;"><g transform="translate(88.705738, 260.235805)"><path style="stroke:none" d="M -20.28125 -12.90625 L -18.828125 -15.65625 C -18.679688 -15.945312 -18.46875 -16.019531 -18.1875 -15.875 L 2.171875 -5.15625 C 2.453125 -5.007812 2.519531 -4.789062 2.375 -4.5 L 0.921875 -1.75 C 0.773438 -1.46875 0.5625 -1.398438 0.28125 -1.546875 L -20.078125 -12.265625 C -20.359375 -12.410156 -20.425781 -12.625 -20.28125 -12.90625 Z M -20.28125 -12.90625 "/></g></g><g style="fill:#000000;fill-opacity:1;"><g transform="translate(94.201508, 249.794197)"><path style="stroke:none" d="M -10.953125 -21.375 L -4.484375 -17.96875 C -2.710938 -17.039062 -1.882812 -15.78125 -2 -14.1875 L 5.890625 -12.359375 C 6.265625 -12.285156 6.359375 -12.078125 6.171875 -11.734375 L 4.734375 -8.984375 C 4.597656 -8.734375 4.390625 -8.648438 4.109375 -8.734375 L -3.546875 -10.5 L -4.515625 -8.671875 L 2.171875 -5.15625 C 2.453125 -5.007812 2.519531 -4.789062 2.375 -4.5 L 0.921875 -1.75 C 0.773438 -1.46875 0.5625 -1.398438 0.28125 -1.546875 L -20.078125 -12.265625 C -20.359375 -12.410156 -20.425781 -12.625 -20.28125 -12.90625 L -16.78125 -19.5625 C -16.113281 -20.8125 -15.289062 -21.585938 -14.3125 -21.890625 C -13.332031 -22.203125 -12.210938 -22.03125 -10.953125 -21.375 Z M -8.015625 -10.515625 L -6.640625 -13.125 C -6.265625 -13.832031 -6.425781 -14.375 -7.125 -14.75 L -12.109375 -17.375 C -12.828125 -17.75 -13.375 -17.582031 -13.75 -16.875 L -15.125 -14.265625 Z M -8.015625 -10.515625 "/></g></g><g style="fill:#000000;fill-opacity:1;"><g transform="translate(103.533163, 232.064654)"><path style="stroke:none" d="M -14.671875 -23.5625 L -12.828125 -27.0625 C -12.640625 -27.414062 -12.367188 -27.5 -12.015625 -27.3125 L 8.125 -16.71875 C 8.476562 -16.53125 8.5625 -16.257812 8.375 -15.90625 L 7.078125 -13.4375 C 6.890625 -13.082031 6.617188 -13 6.265625 -13.1875 L -5.65625 -19.46875 L -5.765625 -19.28125 L 4.828125 -10.34375 C 5.117188 -10.113281 5.175781 -9.835938 5 -9.515625 L 4.328125 -8.21875 C 4.171875 -7.914062 3.90625 -7.800781 3.53125 -7.875 L -9.8125 -11.5625 L -9.90625 -11.390625 L 2.015625 -5.109375 C 2.367188 -4.921875 2.453125 -4.648438 2.265625 -4.296875 L 0.96875 -1.859375 C 0.789062 -1.503906 0.523438 -1.421875 0.171875 -1.609375 L -19.96875 -12.203125 C -20.320312 -12.390625 -20.410156 -12.660156 -20.234375 -13.015625 L -18.390625 -16.5 C -18.210938 -16.820312 -17.945312 -16.9375 -17.59375 -16.84375 L -2.84375 -12.828125 L -14.5 -22.734375 C -14.769531 -22.984375 -14.828125 -23.257812 -14.671875 -23.5625 Z M -14.671875 -23.5625 "/></g></g><g style="fill:#000000;fill-opacity:1;"><g transform="translate(115.082652, 210.12137)"><path style="stroke:none" d="M -20.28125 -12.90625 L -18.828125 -15.65625 C -18.679688 -15.945312 -18.46875 -16.019531 -18.1875 -15.875 L 2.171875 -5.15625 C 2.453125 -5.007812 2.519531 -4.789062 2.375 -4.5 L 0.921875 -1.75 C 0.773438 -1.46875 0.5625 -1.398438 0.28125 -1.546875 L -20.078125 -12.265625 C -20.359375 -12.410156 -20.425781 -12.625 -20.28125 -12.90625 Z M -20.28125 -12.90625 "/></g></g><g style="fill:#000000;fill-opacity:1;"><g transform="translate(120.578422, 199.679762)"><path style="stroke:none" d="M -16.21875 -20.609375 L -14.765625 -23.375 C -14.617188 -23.65625 -14.40625 -23.722656 -14.125 -23.578125 L 6.234375 -12.859375 C 6.515625 -12.710938 6.582031 -12.5 6.4375 -12.21875 L 5.046875 -9.59375 C 4.921875 -9.34375 4.722656 -9.242188 4.453125 -9.296875 L -9 -11.203125 L -9.0625 -11.078125 L 2.171875 -5.15625 C 2.453125 -5.007812 2.519531 -4.789062 2.375 -4.5 L 0.921875 -1.75 C 0.773438 -1.46875 0.5625 -1.398438 0.28125 -1.546875 L -20.078125 -12.265625 C -20.359375 -12.410156 -20.425781 -12.625 -20.28125 -12.90625 L -18.90625 -15.53125 C -18.769531 -15.78125 -18.570312 -15.882812 -18.3125 -15.84375 L -4.921875 -13.921875 L -4.828125 -14.09375 L -16.015625 -19.984375 C -16.296875 -20.128906 -16.363281 -20.335938 -16.21875 -20.609375 Z M -16.21875 -20.609375 "/></g></g><g style="fill:#000000;fill-opacity:1;"><g transform="translate(130.133256, 181.526194)"><path style="stroke:none" d="M -3.109375 -3.34375 L -16.6875 -10.484375 C -17.945312 -11.140625 -18.722656 -11.960938 -19.015625 -12.953125 C -19.316406 -13.953125 -19.144531 -15.066406 -18.5 -16.296875 L -16.65625 -19.796875 C -16.007812 -21.035156 -15.191406 -21.8125 -14.203125 -22.125 C -13.210938 -22.4375 -12.085938 -22.265625 -10.828125 -21.609375 L -8.0625 -20.15625 C -7.789062 -20.007812 -7.734375 -19.796875 -7.890625 -19.515625 L -9.28125 -16.875 C -9.425781 -16.582031 -9.632812 -16.507812 -9.90625 -16.65625 L -11.921875 -17.71875 C -12.640625 -18.09375 -13.1875 -17.925781 -13.5625 -17.21875 L -14.5625 -15.3125 C -14.9375 -14.613281 -14.765625 -14.078125 -14.046875 -13.703125 L -1.96875 -7.34375 C -1.257812 -6.96875 -0.71875 -7.128906 -0.34375 -7.828125 L 0.65625 -9.734375 C 1.03125 -10.441406 0.863281 -10.984375 0.15625 -11.359375 L -3.390625 -13.21875 L -4.125 -11.84375 C -4.269531 -11.5625 -4.484375 -11.492188 -4.765625 -11.640625 L -7.421875 -13.046875 C -7.703125 -13.191406 -7.769531 -13.40625 -7.625 -13.6875 L -5.28125 -18.140625 C -5.125 -18.421875 -4.90625 -18.488281 -4.625 -18.34375 L 2.75 -14.46875 C 3.976562 -13.8125 4.742188 -12.984375 5.046875 -11.984375 C 5.359375 -10.992188 5.191406 -9.878906 4.546875 -8.640625 L 2.703125 -5.140625 C 2.054688 -3.910156 1.234375 -3.140625 0.234375 -2.828125 C -0.765625 -2.515625 -1.878906 -2.6875 -3.109375 -3.34375 Z M -3.109375 -3.34375 "/></g></g><g style="fill:#000000;fill-opacity:1;"><g transform="translate(139.590449, 163.558137)"><path style="stroke:none" d="M -7.96875 -14.828125 L -16.40625 -19.265625 C -16.6875 -19.410156 -16.75 -19.625 -16.59375 -19.90625 L -15.15625 -22.625 C -15 -22.9375 -14.78125 -23.019531 -14.5 -22.875 L 5.859375 -12.15625 C 6.140625 -12.007812 6.203125 -11.78125 6.046875 -11.46875 L 4.609375 -8.75 C 4.453125 -8.46875 4.234375 -8.398438 3.953125 -8.546875 L -4.46875 -12.984375 L -6.25 -9.59375 L 2.171875 -5.15625 C 2.453125 -5.007812 2.519531 -4.789062 2.375 -4.5 L 0.9375 -1.765625 C 0.78125 -1.472656 0.5625 -1.398438 0.28125 -1.546875 L -20.078125 -12.265625 C -20.359375 -12.410156 -20.421875 -12.628906 -20.265625 -12.921875 L -18.828125 -15.65625 C -18.679688 -15.945312 -18.46875 -16.019531 -18.1875 -15.875 L -9.75 -11.4375 Z M -7.96875 -14.828125 "/></g></g><g style="fill:#000000;fill-opacity:1;"><g transform="translate(148.489694, 146.650147)"><path style="stroke:none" d="M 7.421875 -14.109375 L 5.953125 -11.296875 C 5.828125 -11.066406 5.625 -10.992188 5.34375 -11.078125 L 1.078125 -12.359375 L -1.40625 -7.640625 L 2.09375 -4.890625 C 2.320312 -4.710938 2.375 -4.503906 2.25 -4.265625 L 0.75 -1.4375 C 0.582031 -1.113281 0.375 -1.078125 0.125 -1.328125 L -17.953125 -16.453125 C -18.160156 -16.640625 -18.203125 -16.851562 -18.078125 -17.09375 L -16.140625 -20.78125 C -16.003906 -21.03125 -15.804688 -21.113281 -15.546875 -21.03125 L 7.171875 -14.703125 C 7.492188 -14.597656 7.578125 -14.398438 7.421875 -14.109375 Z M -2.328125 -13.296875 L -12.46875 -16.484375 L -4.125 -9.90625 Z M -2.328125 -13.296875 "/></g></g><g style="fill:#000000;fill-opacity:1;"><g transform="translate(158.588519, 127.463029)"><path style="stroke:none" d="M -14.671875 -23.5625 L -12.828125 -27.0625 C -12.640625 -27.414062 -12.367188 -27.5 -12.015625 -27.3125 L 8.125 -16.71875 C 8.476562 -16.53125 8.5625 -16.257812 8.375 -15.90625 L 7.078125 -13.4375 C 6.890625 -13.082031 6.617188 -13 6.265625 -13.1875 L -5.65625 -19.46875 L -5.765625 -19.28125 L 4.828125 -10.34375 C 5.117188 -10.113281 5.175781 -9.835938 5 -9.515625 L 4.328125 -8.21875 C 4.171875 -7.914062 3.90625 -7.800781 3.53125 -7.875 L -9.8125 -11.5625 L -9.90625 -11.390625 L 2.015625 -5.109375 C 2.367188 -4.921875 2.453125 -4.648438 2.265625 -4.296875 L 0.96875 -1.859375 C 0.789062 -1.503906 0.523438 -1.421875 0.171875 -1.609375 L -19.96875 -12.203125 C -20.320312 -12.390625 -20.410156 -12.660156 -20.234375 -13.015625 L -18.390625 -16.5 C -18.210938 -16.820312 -17.945312 -16.9375 -17.59375 -16.84375 L -2.84375 -12.828125 L -14.5 -22.734375 C -14.769531 -22.984375 -14.828125 -23.257812 -14.671875 -23.5625 Z M -14.671875 -23.5625 "/></g></g><g style="fill:#000000;fill-opacity:1;"><g transform="translate(266.147274, 139.443255)"><path style="stroke:none" d="M 22.1875 -9.296875 L 23.625 -6.546875 C 23.769531 -6.253906 23.695312 -6.035156 23.40625 -5.890625 L 3 4.734375 C 2.71875 4.878906 2.503906 4.804688 2.359375 4.515625 L 0.921875 1.765625 C 0.765625 1.472656 0.828125 1.253906 1.109375 1.109375 L 21.515625 -9.515625 C 21.804688 -9.660156 22.03125 -9.585938 22.1875 -9.296875 Z M 22.1875 -9.296875 "/></g></g><g style="fill:#000000;fill-opacity:1;"><g transform="translate(271.595881, 149.909551)"><path style="stroke:none" d="M 26.203125 -1.578125 L 27.640625 1.1875 C 27.785156 1.46875 27.710938 1.679688 27.421875 1.828125 L 7.015625 12.453125 C 6.734375 12.597656 6.519531 12.53125 6.375 12.25 L 5 9.625 C 4.875 9.375 4.90625 9.148438 5.09375 8.953125 L 14.328125 -1 L 14.265625 -1.125 L 3 4.734375 C 2.71875 4.878906 2.503906 4.804688 2.359375 4.515625 L 0.921875 1.765625 C 0.765625 1.472656 0.828125 1.253906 1.109375 1.109375 L 21.515625 -9.515625 C 21.804688 -9.660156 22.03125 -9.585938 22.1875 -9.296875 L 23.546875 -6.6875 C 23.671875 -6.4375 23.632812 -6.21875 23.4375 -6.03125 L 14.25 3.890625 L 14.34375 4.0625 L 25.546875 -1.78125 C 25.835938 -1.925781 26.054688 -1.859375 26.203125 -1.578125 Z M 26.203125 -1.578125 "/></g></g><g style="fill:#000000;fill-opacity:1;"><g transform="translate(281.068718, 168.10604)"><path style="stroke:none" d="M 26.78125 -0.453125 L 28.09375 2.0625 C 28.3125 2.46875 28.195312 2.734375 27.75 2.859375 L 5.234375 8.875 C 4.867188 8.96875 4.601562 8.851562 4.4375 8.53125 L 3.0625 5.875 C 2.90625 5.570312 2.960938 5.289062 3.234375 5.03125 L 21.09375 -9.9375 C 21.445312 -10.226562 21.726562 -10.171875 21.9375 -9.765625 L 23.25 -7.234375 C 23.425781 -6.910156 23.367188 -6.632812 23.078125 -6.40625 L 10.296875 3.796875 L 26 -0.796875 C 26.363281 -0.878906 26.625 -0.765625 26.78125 -0.453125 Z M 26.78125 -0.453125 "/></g></g><g style="fill:#000000;fill-opacity:1;"><g transform="translate(290.762818, 186.727555)"><path style="stroke:none" d="M 27.046875 1.09375 L 24.390625 2.484375 C 24.085938 2.628906 23.859375 2.554688 23.703125 2.265625 L 20.25 -4.375 L 14.9375 -1.59375 L 17.578125 3.484375 C 17.722656 3.765625 17.644531 3.976562 17.34375 4.125 L 14.71875 5.5 C 14.414062 5.65625 14.191406 5.59375 14.046875 5.3125 L 11.40625 0.234375 L 6.03125 3.03125 L 9.484375 9.671875 C 9.640625 9.960938 9.578125 10.179688 9.296875 10.328125 L 6.640625 11.71875 C 6.359375 11.863281 6.140625 11.789062 5.984375 11.5 L 0.90625 1.734375 C 0.757812 1.460938 0.828125 1.253906 1.109375 1.109375 L 21.515625 -9.515625 C 21.804688 -9.660156 22.023438 -9.597656 22.171875 -9.328125 L 27.25 0.4375 C 27.40625 0.726562 27.335938 0.945312 27.046875 1.09375 Z M 27.046875 1.09375 "/></g></g><g style="fill:#000000;fill-opacity:1;"><g transform="translate(299.84844, 204.180238)"><path style="stroke:none" d="M 26.203125 -1.578125 L 27.640625 1.1875 C 27.785156 1.46875 27.710938 1.679688 27.421875 1.828125 L 7.015625 12.453125 C 6.734375 12.597656 6.519531 12.53125 6.375 12.25 L 5 9.625 C 4.875 9.375 4.90625 9.148438 5.09375 8.953125 L 14.328125 -1 L 14.265625 -1.125 L 3 4.734375 C 2.71875 4.878906 2.503906 4.804688 2.359375 4.515625 L 0.921875 1.765625 C 0.765625 1.472656 0.828125 1.253906 1.109375 1.109375 L 21.515625 -9.515625 C 21.804688 -9.660156 22.03125 -9.585938 22.1875 -9.296875 L 23.546875 -6.6875 C 23.671875 -6.4375 23.632812 -6.21875 23.4375 -6.03125 L 14.25 3.890625 L 14.34375 4.0625 L 25.546875 -1.78125 C 25.835938 -1.925781 26.054688 -1.859375 26.203125 -1.578125 Z M 26.203125 -1.578125 "/></g></g><g style="fill:#000000;fill-opacity:1;"><g transform="translate(309.321277, 222.376727)"><path style="stroke:none" d="M 21.90625 -9.84375 L 27 -0.0625 C 27.132812 0.21875 27.054688 0.429688 26.765625 0.578125 L 24.109375 1.96875 C 23.828125 2.101562 23.617188 2.03125 23.484375 1.75 L 21.875 -1.34375 L 4.546875 7.6875 C 4.265625 7.832031 4.050781 7.769531 3.90625 7.5 L 2.453125 4.71875 C 2.316406 4.445312 2.390625 4.238281 2.671875 4.09375 L 20 -4.9375 L 18.390625 -8.03125 C 18.242188 -8.3125 18.3125 -8.519531 18.59375 -8.65625 L 21.25 -10.046875 C 21.539062 -10.191406 21.757812 -10.125 21.90625 -9.84375 Z M 21.90625 -9.84375 "/></g></g><g style="fill:#000000;fill-opacity:1;"><g transform="translate(317.59099, 238.26212)"><path style="stroke:none" d="M 4.515625 -0.65625 L 18.125 -7.75 C 19.375 -8.40625 20.492188 -8.570312 21.484375 -8.25 C 22.484375 -7.925781 23.304688 -7.144531 23.953125 -5.90625 L 25.5 -2.921875 C 26.15625 -1.671875 26.328125 -0.554688 26.015625 0.421875 C 25.703125 1.398438 24.921875 2.21875 23.671875 2.875 L 10.0625 9.96875 C 8.820312 10.601562 7.703125 10.769531 6.703125 10.46875 C 5.710938 10.164062 4.890625 9.390625 4.234375 8.140625 L 2.6875 5.15625 C 2.039062 3.914062 1.875 2.796875 2.1875 1.796875 C 2.5 0.796875 3.273438 -0.0195312 4.515625 -0.65625 Z M 6.5 4.140625 L 7.3125 5.6875 C 7.675781 6.394531 8.210938 6.5625 8.921875 6.1875 L 21.203125 -0.203125 C 21.910156 -0.566406 22.082031 -1.101562 21.71875 -1.8125 L 20.90625 -3.359375 C 20.539062 -4.066406 20.003906 -4.238281 19.296875 -3.875 L 7.015625 2.515625 C 6.304688 2.890625 6.132812 3.429688 6.5 4.140625 Z M 6.5 4.140625 "/></g></g><g style="fill:#000000;fill-opacity:1;"><g transform="translate(326.690444, 255.741373)"><path style="stroke:none" d="M 23.8125 3.171875 L 17.328125 6.546875 C 15.546875 7.472656 14.039062 7.4375 12.8125 6.4375 L 6.8125 11.890625 C 6.53125 12.148438 6.300781 12.109375 6.125 11.765625 L 4.6875 9.015625 C 4.5625 8.765625 4.609375 8.546875 4.828125 8.359375 L 10.65625 3.078125 L 9.703125 1.25 L 3 4.734375 C 2.71875 4.878906 2.503906 4.804688 2.359375 4.515625 L 0.921875 1.765625 C 0.765625 1.472656 0.828125 1.253906 1.109375 1.109375 L 21.515625 -9.515625 C 21.804688 -9.660156 22.03125 -9.585938 22.1875 -9.296875 L 25.65625 -2.640625 C 26.3125 -1.378906 26.476562 -0.257812 26.15625 0.71875 C 25.84375 1.695312 25.0625 2.515625 23.8125 3.171875 Z M 13.203125 -0.578125 L 14.5625 2.03125 C 14.9375 2.75 15.476562 2.925781 16.1875 2.5625 L 21.1875 -0.046875 C 21.894531 -0.421875 22.0625 -0.96875 21.6875 -1.6875 L 20.328125 -4.296875 Z M 13.203125 -0.578125 "/></g></g><g style="fill:#000000;fill-opacity:1;"><g transform="translate(335.942017, 273.512834)"><path style="stroke:none" d="M 23.953125 -5.90625 L 25.5 -2.921875 C 26.15625 -1.671875 26.328125 -0.554688 26.015625 0.421875 C 25.703125 1.398438 24.921875 2.21875 23.671875 2.875 L 20.84375 4.34375 C 20.5625 4.488281 20.34375 4.421875 20.1875 4.140625 L 18.75 1.375 C 18.601562 1.09375 18.671875 0.878906 18.953125 0.734375 L 21.03125 -0.34375 C 21.738281 -0.71875 21.90625 -1.257812 21.53125 -1.96875 L 20.875 -3.25 C 20.507812 -3.945312 19.972656 -4.109375 19.265625 -3.734375 L 15.59375 -1.828125 L 16.8125 5.5625 C 16.863281 6.125 16.660156 6.523438 16.203125 6.765625 L 10.0625 9.96875 C 8.820312 10.601562 7.703125 10.769531 6.703125 10.46875 C 5.710938 10.164062 4.890625 9.390625 4.234375 8.140625 L 2.6875 5.15625 C 2.039062 3.914062 1.875 2.796875 2.1875 1.796875 C 2.5 0.796875 3.273438 -0.0195312 4.515625 -0.65625 L 7.296875 -2.109375 C 7.585938 -2.265625 7.8125 -2.195312 7.96875 -1.90625 L 9.40625 0.84375 C 9.550781 1.132812 9.476562 1.359375 9.1875 1.515625 L 7.15625 2.578125 C 6.4375 2.941406 6.257812 3.472656 6.625 4.171875 L 7.28125 5.453125 C 7.65625 6.160156 8.203125 6.332031 8.921875 5.96875 L 12.453125 4.125 L 11.234375 -3.25 C 11.140625 -3.8125 11.34375 -4.222656 11.84375 -4.484375 L 18.125 -7.75 C 19.375 -8.40625 20.492188 -8.570312 21.484375 -8.25 C 22.484375 -7.925781 23.304688 -7.144531 23.953125 -5.90625 Z M 23.953125 -5.90625 "/></g></g><g style="fill:#000000;fill-opacity:1;"><g transform="translate(161.418484, 385.022516)"><path style="stroke:none" d="M 1.5 -0.59375 L 1.5 -3.359375 C 1.5 -3.753906 1.695312 -3.953125 2.09375 -3.953125 L 4.828125 -3.953125 C 5.222656 -3.953125 5.421875 -3.753906 5.421875 -3.359375 L 5.421875 -0.59375 C 5.421875 -0.195312 5.222656 0 4.828125 0 L 2.09375 0 C 1.695312 0 1.5 -0.195312 1.5 -0.59375 Z M 1.5 -0.59375 "/></g></g><g style="fill:#000000;fill-opacity:1;"><g transform="translate(168.336528, 385.022516)"><path style="stroke:none" d="M 1.5 -4.3125 L 1.5 -19.65625 C 1.5 -21.070312 1.867188 -22.144531 2.609375 -22.875 C 3.347656 -23.601562 4.414062 -23.96875 5.8125 -23.96875 L 9.171875 -23.96875 C 10.585938 -23.96875 11.660156 -23.601562 12.390625 -22.875 C 13.117188 -22.144531 13.484375 -21.070312 13.484375 -19.65625 L 13.484375 -4.3125 C 13.484375 -2.914062 13.117188 -1.847656 12.390625 -1.109375 C 11.660156 -0.367188 10.585938 0 9.171875 0 L 5.8125 0 C 4.414062 0 3.347656 -0.367188 2.609375 -1.109375 C 1.867188 -1.847656 1.5 -2.914062 1.5 -4.3125 Z M 6.671875 -3.859375 L 8.421875 -3.859375 C 9.210938 -3.859375 9.609375 -4.257812 9.609375 -5.0625 L 9.609375 -18.90625 C 9.609375 -19.695312 9.210938 -20.09375 8.421875 -20.09375 L 6.671875 -20.09375 C 5.878906 -20.09375 5.484375 -19.695312 5.484375 -18.90625 L 5.484375 -5.0625 C 5.484375 -4.257812 5.878906 -3.859375 6.671875 -3.859375 Z M 6.671875 -3.859375 "/></g></g><g style="fill:#000000;fill-opacity:1;"><g transform="translate(183.310654, 385.022516)"><path style="stroke:none" d="M 13.8125 -19.65625 L 13.8125 -12.34375 C 13.8125 -10.34375 13.082031 -9.023438 11.625 -8.390625 L 13.6875 -0.546875 C 13.789062 -0.179688 13.648438 0 13.265625 0 L 10.15625 0 C 9.875 0 9.703125 -0.140625 9.640625 -0.421875 L 7.640625 -8.03125 L 5.578125 -8.03125 L 5.578125 -0.484375 C 5.578125 -0.160156 5.414062 0 5.09375 0 L 1.984375 0 C 1.660156 0 1.5 -0.160156 1.5 -0.484375 L 1.5 -23.484375 C 1.5 -23.804688 1.660156 -23.96875 1.984375 -23.96875 L 9.5 -23.96875 C 10.914062 -23.96875 11.988281 -23.601562 12.71875 -22.875 C 13.445312 -22.144531 13.8125 -21.070312 13.8125 -19.65625 Z M 5.578125 -11.984375 L 8.53125 -11.984375 C 9.332031 -11.984375 9.734375 -12.378906 9.734375 -13.171875 L 9.734375 -18.8125 C 9.734375 -19.613281 9.332031 -20.015625 8.53125 -20.015625 L 5.578125 -20.015625 Z M 5.578125 -11.984375 "/></g></g><g style="fill:#000000;fill-opacity:1;"><g transform="translate(198.614213, 385.022516)"><path style="stroke:none" d="M 1.5 -4.3125 L 1.5 -19.65625 C 1.5 -21.070312 1.867188 -22.144531 2.609375 -22.875 C 3.347656 -23.601562 4.414062 -23.96875 5.8125 -23.96875 L 9.765625 -23.96875 C 11.160156 -23.96875 12.226562 -23.601562 12.96875 -22.875 C 13.707031 -22.144531 14.078125 -21.070312 14.078125 -19.65625 L 14.078125 -16.53125 C 14.078125 -16.21875 13.914062 -16.0625 13.59375 -16.0625 L 10.609375 -16.0625 C 10.285156 -16.0625 10.125 -16.21875 10.125 -16.53125 L 10.125 -18.8125 C 10.125 -19.613281 9.722656 -20.015625 8.921875 -20.015625 L 6.765625 -20.015625 C 5.972656 -20.015625 5.578125 -19.613281 5.578125 -18.8125 L 5.578125 -5.15625 C 5.578125 -4.351562 5.972656 -3.953125 6.765625 -3.953125 L 8.921875 -3.953125 C 9.722656 -3.953125 10.125 -4.351562 10.125 -5.15625 L 10.125 -9.171875 L 8.5625 -9.171875 C 8.25 -9.171875 8.09375 -9.328125 8.09375 -9.640625 L 8.09375 -12.640625 C 8.09375 -12.960938 8.25 -13.125 8.5625 -13.125 L 13.59375 -13.125 C 13.914062 -13.125 14.078125 -12.960938 14.078125 -12.640625 L 14.078125 -4.3125 C 14.078125 -2.914062 13.707031 -1.847656 12.96875 -1.109375 C 12.226562 -0.367188 11.160156 0 9.765625 0 L 5.8125 0 C 4.414062 0 3.347656 -0.367188 2.609375 -1.109375 C 1.867188 -1.847656 1.5 -2.914062 1.5 -4.3125 Z M 1.5 -4.3125 "/></g></g><g style="fill:#000000;fill-opacity:1;"><g transform="translate(214.187307, 385.022516)"><path style="stroke:none" d="M 1.5 -0.59375 L 1.5 -3.359375 C 1.5 -3.753906 1.695312 -3.953125 2.09375 -3.953125 L 4.828125 -3.953125 C 5.222656 -3.953125 5.421875 -3.753906 5.421875 -3.359375 L 5.421875 -0.59375 C 5.421875 -0.195312 5.222656 0 4.828125 0 L 2.09375 0 C 1.695312 0 1.5 -0.195312 1.5 -0.59375 Z M 1.5 -0.59375 "/></g></g><g style="fill:#000000;fill-opacity:1;"><g transform="translate(221.105351, 385.022516)"><path style="stroke:none" d="M 10.125 -23.96875 L 12.875 -23.96875 C 13.039062 -23.96875 13.179688 -23.90625 13.296875 -23.78125 C 13.421875 -23.664062 13.484375 -23.523438 13.484375 -23.359375 L 13.484375 -4.3125 C 13.484375 -2.914062 13.117188 -1.847656 12.390625 -1.109375 C 11.660156 -0.367188 10.585938 0 9.171875 0 L 5.8125 0 C 4.414062 0 3.347656 -0.367188 2.609375 -1.109375 C 1.867188 -1.847656 1.5 -2.914062 1.5 -4.3125 L 1.5 -23.359375 C 1.5 -23.523438 1.554688 -23.664062 1.671875 -23.78125 C 1.796875 -23.90625 1.9375 -23.96875 2.09375 -23.96875 L 4.96875 -23.96875 C 5.132812 -23.96875 5.273438 -23.90625 5.390625 -23.78125 C 5.515625 -23.664062 5.578125 -23.523438 5.578125 -23.359375 L 5.578125 -5.15625 C 5.578125 -4.351562 5.972656 -3.953125 6.765625 -3.953125 L 8.328125 -3.953125 C 9.128906 -3.953125 9.53125 -4.351562 9.53125 -5.15625 L 9.53125 -23.359375 C 9.53125 -23.523438 9.585938 -23.664062 9.703125 -23.78125 C 9.828125 -23.90625 9.96875 -23.96875 10.125 -23.96875 Z M 10.125 -23.96875 "/></g></g><g style="fill:#000000;fill-opacity:1;"><g transform="translate(236.079477, 385.022516)"><path style="stroke:none" d="M 14.3125 0 L 11.140625 0 C 10.804688 0 10.578125 -0.148438 10.453125 -0.453125 L 6.671875 -9.34375 L 5.578125 -7.21875 L 5.578125 -0.59375 C 5.578125 -0.195312 5.375 0 4.96875 0 L 2.09375 0 C 1.695312 0 1.5 -0.195312 1.5 -0.59375 L 1.5 -23.359375 C 1.5 -23.765625 1.695312 -23.96875 2.09375 -23.96875 L 4.96875 -23.96875 C 5.375 -23.96875 5.578125 -23.765625 5.578125 -23.359375 L 5.578125 -14.078125 L 10.1875 -23.515625 C 10.34375 -23.816406 10.570312 -23.96875 10.875 -23.96875 L 14.015625 -23.96875 C 14.234375 -23.96875 14.382812 -23.898438 14.46875 -23.765625 C 14.550781 -23.640625 14.539062 -23.46875 14.4375 -23.25 L 9.34375 -12.796875 L 14.765625 -0.6875 C 14.867188 -0.488281 14.878906 -0.320312 14.796875 -0.1875 C 14.710938 -0.0625 14.550781 0 14.3125 0 Z M 14.3125 0 "/></g></g><g style="fill:#a6a6a6;fill-opacity:1;"><g transform="translate(64.811901, 424.063748)"><path style="stroke:none" d="M 9.421875 -16.4375 L 9.421875 -14.34375 C 9.421875 -14.101562 9.304688 -13.984375 9.078125 -13.984375 L 3.84375 -13.984375 L 3.84375 -9.796875 L 7.84375 -9.796875 C 8.0625 -9.796875 8.171875 -9.675781 8.171875 -9.4375 L 8.171875 -7.359375 C 8.171875 -7.117188 8.0625 -7 7.84375 -7 L 3.84375 -7 L 3.84375 -2.765625 L 9.078125 -2.765625 C 9.304688 -2.765625 9.421875 -2.65625 9.421875 -2.4375 L 9.421875 -0.328125 C 9.421875 -0.109375 9.304688 0 9.078125 0 L 1.359375 0 C 1.148438 0 1.046875 -0.109375 1.046875 -0.328125 L 1.046875 -16.4375 C 1.046875 -16.664062 1.148438 -16.78125 1.359375 -16.78125 L 9.078125 -16.78125 C 9.304688 -16.78125 9.421875 -16.664062 9.421875 -16.4375 Z M 9.421875 -16.4375 "/></g></g><g style="fill:#a6a6a6;fill-opacity:1;"><g transform="translate(75.063242, 424.063748)"><path style="stroke:none" d="M 9.8125 -16.78125 L 12.578125 -16.78125 C 12.859375 -16.78125 13 -16.640625 13 -16.359375 L 13 -0.421875 C 13 -0.140625 12.859375 0 12.578125 0 L 10.625 0 C 10.351562 0 10.21875 -0.140625 10.21875 -0.421875 L 10.21875 -9.859375 L 10.0625 -9.859375 L 7.984375 -0.375 C 7.929688 -0.125 7.78125 0 7.53125 0 L 6.5 0 C 6.257812 0 6.101562 -0.125 6.03125 -0.375 L 3.96875 -9.859375 L 3.8125 -9.859375 L 3.8125 -0.421875 C 3.8125 -0.140625 3.671875 0 3.390625 0 L 1.46875 0 C 1.1875 0 1.046875 -0.140625 1.046875 -0.421875 L 1.046875 -16.359375 C 1.046875 -16.640625 1.1875 -16.78125 1.46875 -16.78125 L 4.234375 -16.78125 C 4.484375 -16.78125 4.640625 -16.648438 4.703125 -16.390625 L 7.03125 -5.953125 L 9.359375 -16.390625 C 9.421875 -16.648438 9.570312 -16.78125 9.8125 -16.78125 Z M 9.8125 -16.78125 "/></g></g><g style="fill:#a6a6a6;fill-opacity:1;"><g transform="translate(89.109036, 424.063748)"><path style="stroke:none" d="M 1.046875 -0.328125 L 1.046875 -16.4375 C 1.046875 -16.664062 1.160156 -16.78125 1.390625 -16.78125 L 6.421875 -16.78125 C 7.410156 -16.78125 8.160156 -16.523438 8.671875 -16.015625 C 9.179688 -15.503906 9.4375 -14.75 9.4375 -13.75 L 9.4375 -8.640625 C 9.4375 -7.660156 9.179688 -6.910156 8.671875 -6.390625 C 8.160156 -5.878906 7.410156 -5.625 6.421875 -5.625 L 3.90625 -5.625 L 3.90625 -0.328125 C 3.90625 -0.109375 3.789062 0 3.5625 0 L 1.390625 0 C 1.160156 0 1.046875 -0.109375 1.046875 -0.328125 Z M 3.90625 -8.390625 L 5.75 -8.390625 C 6.300781 -8.390625 6.578125 -8.664062 6.578125 -9.21875 L 6.578125 -13.171875 C 6.578125 -13.722656 6.300781 -14 5.75 -14 L 3.90625 -14 Z M 3.90625 -8.390625 "/></g></g><g style="fill:#a6a6a6;fill-opacity:1;"><g transform="translate(99.590978, 424.063748)"><path style="stroke:none" d="M 1.046875 -3.015625 L 1.046875 -13.75 C 1.046875 -14.75 1.300781 -15.503906 1.8125 -16.015625 C 2.332031 -16.523438 3.082031 -16.78125 4.0625 -16.78125 L 6.421875 -16.78125 C 7.410156 -16.78125 8.160156 -16.523438 8.671875 -16.015625 C 9.179688 -15.503906 9.4375 -14.75 9.4375 -13.75 L 9.4375 -3.015625 C 9.4375 -2.035156 9.179688 -1.285156 8.671875 -0.765625 C 8.160156 -0.253906 7.410156 0 6.421875 0 L 4.0625 0 C 3.082031 0 2.332031 -0.253906 1.8125 -0.765625 C 1.300781 -1.285156 1.046875 -2.035156 1.046875 -3.015625 Z M 4.671875 -2.703125 L 5.890625 -2.703125 C 6.453125 -2.703125 6.734375 -2.984375 6.734375 -3.546875 L 6.734375 -13.234375 C 6.734375 -13.785156 6.453125 -14.0625 5.890625 -14.0625 L 4.671875 -14.0625 C 4.117188 -14.0625 3.84375 -13.785156 3.84375 -13.234375 L 3.84375 -3.546875 C 3.84375 -2.984375 4.117188 -2.703125 4.671875 -2.703125 Z M 4.671875 -2.703125 "/></g></g><g style="fill:#a6a6a6;fill-opacity:1;"><g transform="translate(109.653646, 424.063748)"><path style="stroke:none" d="M 12.515625 -16.78125 L 14.515625 -16.78125 C 14.804688 -16.78125 14.9375 -16.628906 14.90625 -16.328125 L 13.109375 -0.390625 C 13.085938 -0.128906 12.941406 0 12.671875 0 L 10.609375 0 C 10.367188 0 10.21875 -0.125 10.15625 -0.375 L 7.96875 -9.859375 L 5.765625 -0.359375 C 5.691406 -0.117188 5.539062 0 5.3125 0 L 3.203125 0 C 2.921875 0 2.773438 -0.128906 2.765625 -0.390625 L 1.046875 -16.328125 C 1.015625 -16.628906 1.148438 -16.78125 1.453125 -16.78125 L 3.4375 -16.78125 C 3.707031 -16.78125 3.851562 -16.644531 3.875 -16.375 L 4.703125 -6.5625 L 4.796875 -6.5625 L 6.875 -16.390625 C 6.945312 -16.648438 7.101562 -16.78125 7.34375 -16.78125 L 8.59375 -16.78125 C 8.84375 -16.78125 9 -16.648438 9.0625 -16.390625 L 11.109375 -6.5625 L 11.21875 -6.5625 L 12.078125 -16.375 C 12.109375 -16.644531 12.253906 -16.78125 12.515625 -16.78125 Z M 12.515625 -16.78125 "/></g></g><g style="fill:#a6a6a6;fill-opacity:1;"><g transform="translate(125.607159, 424.063748)"><path style="stroke:none" d="M 9.421875 -16.4375 L 9.421875 -14.34375 C 9.421875 -14.101562 9.304688 -13.984375 9.078125 -13.984375 L 3.84375 -13.984375 L 3.84375 -9.796875 L 7.84375 -9.796875 C 8.0625 -9.796875 8.171875 -9.675781 8.171875 -9.4375 L 8.171875 -7.359375 C 8.171875 -7.117188 8.0625 -7 7.84375 -7 L 3.84375 -7 L 3.84375 -2.765625 L 9.078125 -2.765625 C 9.304688 -2.765625 9.421875 -2.65625 9.421875 -2.4375 L 9.421875 -0.328125 C 9.421875 -0.109375 9.304688 0 9.078125 0 L 1.359375 0 C 1.148438 0 1.046875 -0.109375 1.046875 -0.328125 L 1.046875 -16.4375 C 1.046875 -16.664062 1.148438 -16.78125 1.359375 -16.78125 L 9.078125 -16.78125 C 9.304688 -16.78125 9.421875 -16.664062 9.421875 -16.4375 Z M 9.421875 -16.4375 "/></g></g><g style="fill:#a6a6a6;fill-opacity:1;"><g transform="translate(135.8585, 424.063748)"><path style="stroke:none" d="M 9.671875 -13.75 L 9.671875 -8.640625 C 9.671875 -7.242188 9.160156 -6.320312 8.140625 -5.875 L 9.578125 -0.375 C 9.648438 -0.125 9.554688 0 9.296875 0 L 7.109375 0 C 6.910156 0 6.789062 -0.0976562 6.75 -0.296875 L 5.34375 -5.625 L 3.90625 -5.625 L 3.90625 -0.328125 C 3.90625 -0.109375 3.789062 0 3.5625 0 L 1.390625 0 C 1.160156 0 1.046875 -0.109375 1.046875 -0.328125 L 1.046875 -16.4375 C 1.046875 -16.664062 1.160156 -16.78125 1.390625 -16.78125 L 6.640625 -16.78125 C 7.640625 -16.78125 8.394531 -16.523438 8.90625 -16.015625 C 9.414062 -15.503906 9.671875 -14.75 9.671875 -13.75 Z M 3.90625 -8.390625 L 5.96875 -8.390625 C 6.53125 -8.390625 6.8125 -8.664062 6.8125 -9.21875 L 6.8125 -13.171875 C 6.8125 -13.722656 6.53125 -14 5.96875 -14 L 3.90625 -14 Z M 3.90625 -8.390625 "/></g></g><g style="fill:#a6a6a6;fill-opacity:1;"><g transform="translate(146.571043, 424.063748)"><path style="stroke:none" d="M 1.390625 -16.78125 L 3.5625 -16.78125 C 3.789062 -16.78125 3.90625 -16.664062 3.90625 -16.4375 L 3.90625 -0.328125 C 3.90625 -0.109375 3.789062 0 3.5625 0 L 1.390625 0 C 1.160156 0 1.046875 -0.109375 1.046875 -0.328125 L 1.046875 -16.4375 C 1.046875 -16.664062 1.160156 -16.78125 1.390625 -16.78125 Z M 1.390625 -16.78125 "/></g></g><g style="fill:#a6a6a6;fill-opacity:1;"><g transform="translate(151.518522, 424.063748)"><path style="stroke:none" d="M 7.484375 -16.78125 L 9.671875 -16.78125 C 9.890625 -16.78125 10 -16.664062 10 -16.4375 L 10 -0.328125 C 10 -0.109375 9.890625 0 9.671875 0 L 7.59375 0 C 7.394531 0 7.269531 -0.0859375 7.21875 -0.265625 L 4 -9.21875 L 3.90625 -9.21875 L 3.90625 -0.328125 C 3.90625 -0.109375 3.789062 0 3.5625 0 L 1.390625 0 C 1.160156 0 1.046875 -0.109375 1.046875 -0.328125 L 1.046875 -16.4375 C 1.046875 -16.664062 1.160156 -16.78125 1.390625 -16.78125 L 3.453125 -16.78125 C 3.648438 -16.78125 3.78125 -16.6875 3.84375 -16.5 L 7.03125 -7.59375 L 7.15625 -7.59375 L 7.15625 -16.4375 C 7.15625 -16.664062 7.265625 -16.78125 7.484375 -16.78125 Z M 7.484375 -16.78125 "/></g></g><g style="fill:#a6a6a6;fill-opacity:1;"><g transform="translate(162.566484, 424.063748)"><path style="stroke:none" d="M 1.046875 -3.015625 L 1.046875 -13.75 C 1.046875 -14.75 1.300781 -15.503906 1.8125 -16.015625 C 2.332031 -16.523438 3.082031 -16.78125 4.0625 -16.78125 L 6.828125 -16.78125 C 7.804688 -16.78125 8.554688 -16.523438 9.078125 -16.015625 C 9.597656 -15.503906 9.859375 -14.75 9.859375 -13.75 L 9.859375 -11.578125 C 9.859375 -11.347656 9.742188 -11.234375 9.515625 -11.234375 L 7.421875 -11.234375 C 7.203125 -11.234375 7.09375 -11.347656 7.09375 -11.578125 L 7.09375 -13.171875 C 7.09375 -13.722656 6.8125 -14 6.25 -14 L 4.734375 -14 C 4.179688 -14 3.90625 -13.722656 3.90625 -13.171875 L 3.90625 -3.609375 C 3.90625 -3.046875 4.179688 -2.765625 4.734375 -2.765625 L 6.25 -2.765625 C 6.8125 -2.765625 7.09375 -3.046875 7.09375 -3.609375 L 7.09375 -6.421875 L 6 -6.421875 C 5.769531 -6.421875 5.65625 -6.53125 5.65625 -6.75 L 5.65625 -8.84375 C 5.65625 -9.070312 5.769531 -9.1875 6 -9.1875 L 9.515625 -9.1875 C 9.742188 -9.1875 9.859375 -9.070312 9.859375 -8.84375 L 9.859375 -3.015625 C 9.859375 -2.035156 9.597656 -1.285156 9.078125 -0.765625 C 8.554688 -0.253906 7.804688 0 6.828125 0 L 4.0625 0 C 3.082031 0 2.332031 -0.253906 1.8125 -0.765625 C 1.300781 -1.285156 1.046875 -2.035156 1.046875 -3.015625 Z M 1.046875 -3.015625 "/></g></g><g style="fill:#a6a6a6;fill-opacity:1;"><g transform="translate(173.4677, 424.063748)"><path style="stroke:none" d=""/></g></g><g style="fill:#a6a6a6;fill-opacity:1;"><g transform="translate(178.70867, 424.063748)"><path style="stroke:none" d="M 3.90625 -2.765625 L 3.90625 -16.4375 C 3.90625 -16.664062 3.789062 -16.78125 3.5625 -16.78125 L 1.390625 -16.78125 C 1.160156 -16.78125 1.046875 -16.664062 1.046875 -16.4375 L 1.046875 -0.328125 C 1.046875 -0.109375 1.160156 0 1.390625 0 L 8.890625 0 C 9.109375 0 9.21875 -0.109375 9.21875 -0.328125 L 9.21875 -2.4375 C 9.21875 -2.65625 9.109375 -2.765625 8.890625 -2.765625 Z M 3.90625 -2.765625 "/></g></g><g style="fill:#a6a6a6;fill-opacity:1;"><g transform="translate(188.561701, 424.063748)"><path style="stroke:none" d="M 1.390625 -16.78125 L 3.5625 -16.78125 C 3.789062 -16.78125 3.90625 -16.664062 3.90625 -16.4375 L 3.90625 -0.328125 C 3.90625 -0.109375 3.789062 0 3.5625 0 L 1.390625 0 C 1.160156 0 1.046875 -0.109375 1.046875 -0.328125 L 1.046875 -16.4375 C 1.046875 -16.664062 1.160156 -16.78125 1.390625 -16.78125 Z M 1.390625 -16.78125 "/></g></g><g style="fill:#a6a6a6;fill-opacity:1;"><g transform="translate(193.50918, 424.063748)"><path style="stroke:none" d="M 10.015625 0 L 7.796875 0 C 7.554688 0 7.394531 -0.101562 7.3125 -0.3125 L 4.671875 -6.546875 L 3.90625 -5.046875 L 3.90625 -0.421875 C 3.90625 -0.140625 3.765625 0 3.484375 0 L 1.46875 0 C 1.1875 0 1.046875 -0.140625 1.046875 -0.421875 L 1.046875 -16.359375 C 1.046875 -16.640625 1.1875 -16.78125 1.46875 -16.78125 L 3.484375 -16.78125 C 3.765625 -16.78125 3.90625 -16.640625 3.90625 -16.359375 L 3.90625 -9.859375 L 7.125 -16.453125 C 7.238281 -16.671875 7.398438 -16.78125 7.609375 -16.78125 L 9.8125 -16.78125 C 9.96875 -16.78125 10.070312 -16.734375 10.125 -16.640625 C 10.1875 -16.546875 10.179688 -16.421875 10.109375 -16.265625 L 6.546875 -8.953125 L 10.34375 -0.484375 C 10.40625 -0.335938 10.410156 -0.21875 10.359375 -0.125 C 10.304688 -0.0390625 10.191406 0 10.015625 0 Z M 10.015625 0 "/></g></g><g style="fill:#a6a6a6;fill-opacity:1;"><g transform="translate(204.326541, 424.063748)"><path style="stroke:none" d="M 9.421875 -16.4375 L 9.421875 -14.34375 C 9.421875 -14.101562 9.304688 -13.984375 9.078125 -13.984375 L 3.84375 -13.984375 L 3.84375 -9.796875 L 7.84375 -9.796875 C 8.0625 -9.796875 8.171875 -9.675781 8.171875 -9.4375 L 8.171875 -7.359375 C 8.171875 -7.117188 8.0625 -7 7.84375 -7 L 3.84375 -7 L 3.84375 -2.765625 L 9.078125 -2.765625 C 9.304688 -2.765625 9.421875 -2.65625 9.421875 -2.4375 L 9.421875 -0.328125 C 9.421875 -0.109375 9.304688 0 9.078125 0 L 1.359375 0 C 1.148438 0 1.046875 -0.109375 1.046875 -0.328125 L 1.046875 -16.4375 C 1.046875 -16.664062 1.148438 -16.78125 1.359375 -16.78125 L 9.078125 -16.78125 C 9.304688 -16.78125 9.421875 -16.664062 9.421875 -16.4375 Z M 9.421875 -16.4375 "/></g></g><g style="fill:#a6a6a6;fill-opacity:1;"><g transform="translate(214.78752, 424.063748)"><path style="stroke:none" d=""/></g></g><g style="fill:#a6a6a6;fill-opacity:1;"><g transform="translate(220.02849, 424.063748)"><path style="stroke:none" d="M 9.8125 -16.78125 L 12.578125 -16.78125 C 12.859375 -16.78125 13 -16.640625 13 -16.359375 L 13 -0.421875 C 13 -0.140625 12.859375 0 12.578125 0 L 10.625 0 C 10.351562 0 10.21875 -0.140625 10.21875 -0.421875 L 10.21875 -9.859375 L 10.0625 -9.859375 L 7.984375 -0.375 C 7.929688 -0.125 7.78125 0 7.53125 0 L 6.5 0 C 6.257812 0 6.101562 -0.125 6.03125 -0.375 L 3.96875 -9.859375 L 3.8125 -9.859375 L 3.8125 -0.421875 C 3.8125 -0.140625 3.671875 0 3.390625 0 L 1.46875 0 C 1.1875 0 1.046875 -0.140625 1.046875 -0.421875 L 1.046875 -16.359375 C 1.046875 -16.640625 1.1875 -16.78125 1.46875 -16.78125 L 4.234375 -16.78125 C 4.484375 -16.78125 4.640625 -16.648438 4.703125 -16.390625 L 7.03125 -5.953125 L 9.359375 -16.390625 C 9.421875 -16.648438 9.570312 -16.78125 9.8125 -16.78125 Z M 9.8125 -16.78125 "/></g></g><g style="fill:#a6a6a6;fill-opacity:1;"><g transform="translate(234.074284, 424.063748)"><path style="stroke:none" d="M 1.390625 -16.78125 L 3.5625 -16.78125 C 3.789062 -16.78125 3.90625 -16.664062 3.90625 -16.4375 L 3.90625 -0.328125 C 3.90625 -0.109375 3.789062 0 3.5625 0 L 1.390625 0 C 1.160156 0 1.046875 -0.109375 1.046875 -0.328125 L 1.046875 -16.4375 C 1.046875 -16.664062 1.160156 -16.78125 1.390625 -16.78125 Z M 1.390625 -16.78125 "/></g></g><g style="fill:#a6a6a6;fill-opacity:1;"><g transform="translate(239.021764, 424.063748)"><path style="stroke:none" d="M 7.484375 -16.78125 L 9.671875 -16.78125 C 9.890625 -16.78125 10 -16.664062 10 -16.4375 L 10 -0.328125 C 10 -0.109375 9.890625 0 9.671875 0 L 7.59375 0 C 7.394531 0 7.269531 -0.0859375 7.21875 -0.265625 L 4 -9.21875 L 3.90625 -9.21875 L 3.90625 -0.328125 C 3.90625 -0.109375 3.789062 0 3.5625 0 L 1.390625 0 C 1.160156 0 1.046875 -0.109375 1.046875 -0.328125 L 1.046875 -16.4375 C 1.046875 -16.664062 1.160156 -16.78125 1.390625 -16.78125 L 3.453125 -16.78125 C 3.648438 -16.78125 3.78125 -16.6875 3.84375 -16.5 L 7.03125 -7.59375 L 7.15625 -7.59375 L 7.15625 -16.4375 C 7.15625 -16.664062 7.265625 -16.78125 7.484375 -16.78125 Z M 7.484375 -16.78125 "/></g></g><g style="fill:#a6a6a6;fill-opacity:1;"><g transform="translate(250.069725, 424.063748)"><path style="stroke:none" d="M 1.046875 -0.328125 L 1.046875 -16.4375 C 1.046875 -16.664062 1.160156 -16.78125 1.390625 -16.78125 L 6.421875 -16.78125 C 7.410156 -16.78125 8.160156 -16.519531 8.671875 -16 C 9.179688 -15.476562 9.4375 -14.722656 9.4375 -13.734375 L 9.4375 -3.015625 C 9.4375 -2.035156 9.179688 -1.285156 8.671875 -0.765625 C 8.160156 -0.253906 7.410156 0 6.421875 0 L 1.390625 0 C 1.160156 0 1.046875 -0.109375 1.046875 -0.328125 Z M 3.90625 -2.765625 L 5.828125 -2.765625 C 6.390625 -2.765625 6.671875 -3.046875 6.671875 -3.609375 L 6.671875 -13.140625 C 6.671875 -13.710938 6.390625 -14 5.828125 -14 L 3.90625 -14 Z M 3.90625 -2.765625 "/></g></g><g style="fill:#a6a6a6;fill-opacity:1;"><g transform="translate(260.551678, 424.063748)"><path style="stroke:none" d="M 9.421875 -16.4375 L 9.421875 -14.34375 C 9.421875 -14.101562 9.304688 -13.984375 9.078125 -13.984375 L 3.84375 -13.984375 L 3.84375 -9.796875 L 7.84375 -9.796875 C 8.0625 -9.796875 8.171875 -9.675781 8.171875 -9.4375 L 8.171875 -7.359375 C 8.171875 -7.117188 8.0625 -7 7.84375 -7 L 3.84375 -7 L 3.84375 -2.765625 L 9.078125 -2.765625 C 9.304688 -2.765625 9.421875 -2.65625 9.421875 -2.4375 L 9.421875 -0.328125 C 9.421875 -0.109375 9.304688 0 9.078125 0 L 1.359375 0 C 1.148438 0 1.046875 -0.109375 1.046875 -0.328125 L 1.046875 -16.4375 C 1.046875 -16.664062 1.148438 -16.78125 1.359375 -16.78125 L 9.078125 -16.78125 C 9.304688 -16.78125 9.421875 -16.664062 9.421875 -16.4375 Z M 9.421875 -16.4375 "/></g></g><g style="fill:#a6a6a6;fill-opacity:1;"><g transform="translate(270.803008, 424.063748)"><path style="stroke:none" d="M 1.046875 -0.328125 L 1.046875 -16.4375 C 1.046875 -16.664062 1.160156 -16.78125 1.390625 -16.78125 L 6.421875 -16.78125 C 7.410156 -16.78125 8.160156 -16.519531 8.671875 -16 C 9.179688 -15.476562 9.4375 -14.722656 9.4375 -13.734375 L 9.4375 -3.015625 C 9.4375 -2.035156 9.179688 -1.285156 8.671875 -0.765625 C 8.160156 -0.253906 7.410156 0 6.421875 0 L 1.390625 0 C 1.160156 0 1.046875 -0.109375 1.046875 -0.328125 Z M 3.90625 -2.765625 L 5.828125 -2.765625 C 6.390625 -2.765625 6.671875 -3.046875 6.671875 -3.609375 L 6.671875 -13.140625 C 6.671875 -13.710938 6.390625 -14 5.828125 -14 L 3.90625 -14 Z M 3.90625 -2.765625 "/></g></g><g style="fill:#a6a6a6;fill-opacity:1;"><g transform="translate(281.28495, 424.063748)"><path style="stroke:none" d=""/></g></g><g style="fill:#a6a6a6;fill-opacity:1;"><g transform="translate(286.525921, 424.063748)"><path style="stroke:none" d="M 1.046875 -0.328125 L 1.046875 -16.4375 C 1.046875 -16.664062 1.160156 -16.78125 1.390625 -16.78125 L 6.421875 -16.78125 C 7.410156 -16.78125 8.160156 -16.523438 8.671875 -16.015625 C 9.179688 -15.503906 9.4375 -14.75 9.4375 -13.75 L 9.4375 -8.640625 C 9.4375 -7.660156 9.179688 -6.910156 8.671875 -6.390625 C 8.160156 -5.878906 7.410156 -5.625 6.421875 -5.625 L 3.90625 -5.625 L 3.90625 -0.328125 C 3.90625 -0.109375 3.789062 0 3.5625 0 L 1.390625 0 C 1.160156 0 1.046875 -0.109375 1.046875 -0.328125 Z M 3.90625 -8.390625 L 5.75 -8.390625 C 6.300781 -8.390625 6.578125 -8.664062 6.578125 -9.21875 L 6.578125 -13.171875 C 6.578125 -13.722656 6.300781 -14 5.75 -14 L 3.90625 -14 Z M 3.90625 -8.390625 "/></g></g><g style="fill:#a6a6a6;fill-opacity:1;"><g transform="translate(297.007863, 424.063748)"><path style="stroke:none" d="M 9.421875 -16.4375 L 9.421875 -14.34375 C 9.421875 -14.101562 9.304688 -13.984375 9.078125 -13.984375 L 3.84375 -13.984375 L 3.84375 -9.796875 L 7.84375 -9.796875 C 8.0625 -9.796875 8.171875 -9.675781 8.171875 -9.4375 L 8.171875 -7.359375 C 8.171875 -7.117188 8.0625 -7 7.84375 -7 L 3.84375 -7 L 3.84375 -2.765625 L 9.078125 -2.765625 C 9.304688 -2.765625 9.421875 -2.65625 9.421875 -2.4375 L 9.421875 -0.328125 C 9.421875 -0.109375 9.304688 0 9.078125 0 L 1.359375 0 C 1.148438 0 1.046875 -0.109375 1.046875 -0.328125 L 1.046875 -16.4375 C 1.046875 -16.664062 1.148438 -16.78125 1.359375 -16.78125 L 9.078125 -16.78125 C 9.304688 -16.78125 9.421875 -16.664062 9.421875 -16.4375 Z M 9.421875 -16.4375 "/></g></g><g style="fill:#a6a6a6;fill-opacity:1;"><g transform="translate(307.468829, 424.063748)"><path style="stroke:none" d="M 1.046875 -3.015625 L 1.046875 -13.75 C 1.046875 -14.75 1.300781 -15.503906 1.8125 -16.015625 C 2.332031 -16.523438 3.082031 -16.78125 4.0625 -16.78125 L 6.421875 -16.78125 C 7.410156 -16.78125 8.160156 -16.523438 8.671875 -16.015625 C 9.179688 -15.503906 9.4375 -14.75 9.4375 -13.75 L 9.4375 -3.015625 C 9.4375 -2.035156 9.179688 -1.285156 8.671875 -0.765625 C 8.160156 -0.253906 7.410156 0 6.421875 0 L 4.0625 0 C 3.082031 0 2.332031 -0.253906 1.8125 -0.765625 C 1.300781 -1.285156 1.046875 -2.035156 1.046875 -3.015625 Z M 4.671875 -2.703125 L 5.890625 -2.703125 C 6.453125 -2.703125 6.734375 -2.984375 6.734375 -3.546875 L 6.734375 -13.234375 C 6.734375 -13.785156 6.453125 -14.0625 5.890625 -14.0625 L 4.671875 -14.0625 C 4.117188 -14.0625 3.84375 -13.785156 3.84375 -13.234375 L 3.84375 -3.546875 C 3.84375 -2.984375 4.117188 -2.703125 4.671875 -2.703125 Z M 4.671875 -2.703125 "/></g></g><g style="fill:#a6a6a6;fill-opacity:1;"><g transform="translate(317.950771, 424.063748)"><path style="stroke:none" d="M 1.046875 -0.328125 L 1.046875 -16.4375 C 1.046875 -16.664062 1.160156 -16.78125 1.390625 -16.78125 L 6.421875 -16.78125 C 7.410156 -16.78125 8.160156 -16.523438 8.671875 -16.015625 C 9.179688 -15.503906 9.4375 -14.75 9.4375 -13.75 L 9.4375 -8.640625 C 9.4375 -7.660156 9.179688 -6.910156 8.671875 -6.390625 C 8.160156 -5.878906 7.410156 -5.625 6.421875 -5.625 L 3.90625 -5.625 L 3.90625 -0.328125 C 3.90625 -0.109375 3.789062 0 3.5625 0 L 1.390625 0 C 1.160156 0 1.046875 -0.109375 1.046875 -0.328125 Z M 3.90625 -8.390625 L 5.75 -8.390625 C 6.300781 -8.390625 6.578125 -8.664062 6.578125 -9.21875 L 6.578125 -13.171875 C 6.578125 -13.722656 6.300781 -14 5.75 -14 L 3.90625 -14 Z M 3.90625 -8.390625 "/></g></g><g style="fill:#a6a6a6;fill-opacity:1;"><g transform="translate(328.432713, 424.063748)"><path style="stroke:none" d="M 3.90625 -2.765625 L 3.90625 -16.4375 C 3.90625 -16.664062 3.789062 -16.78125 3.5625 -16.78125 L 1.390625 -16.78125 C 1.160156 -16.78125 1.046875 -16.664062 1.046875 -16.4375 L 1.046875 -0.328125 C 1.046875 -0.109375 1.160156 0 1.390625 0 L 8.890625 0 C 9.109375 0 9.21875 -0.109375 9.21875 -0.328125 L 9.21875 -2.4375 C 9.21875 -2.65625 9.109375 -2.765625 8.890625 -2.765625 Z M 3.90625 -2.765625 "/></g></g><g style="fill:#a6a6a6;fill-opacity:1;"><g transform="translate(338.285767, 424.063748)"><path style="stroke:none" d="M 9.421875 -16.4375 L 9.421875 -14.34375 C 9.421875 -14.101562 9.304688 -13.984375 9.078125 -13.984375 L 3.84375 -13.984375 L 3.84375 -9.796875 L 7.84375 -9.796875 C 8.0625 -9.796875 8.171875 -9.675781 8.171875 -9.4375 L 8.171875 -7.359375 C 8.171875 -7.117188 8.0625 -7 7.84375 -7 L 3.84375 -7 L 3.84375 -2.765625 L 9.078125 -2.765625 C 9.304688 -2.765625 9.421875 -2.65625 9.421875 -2.4375 L 9.421875 -0.328125 C 9.421875 -0.109375 9.304688 0 9.078125 0 L 1.359375 0 C 1.148438 0 1.046875 -0.109375 1.046875 -0.328125 L 1.046875 -16.4375 C 1.046875 -16.664062 1.148438 -16.78125 1.359375 -16.78125 L 9.078125 -16.78125 C 9.304688 -16.78125 9.421875 -16.664062 9.421875 -16.4375 Z M 9.421875 -16.4375 "/></g></g><g clip-rule="nonzero" clip-path="url(#21bad0ab7f)"><g clip-rule="nonzero" clip-path="url(#2ba4bd5462)"><path style="fill:none;stroke-width:8;stroke-linecap:butt;stroke-linejoin:miter;stroke:#000000;stroke-opacity:1;stroke-miterlimit:4;" d="M 292.670745 88.723798 L 446.968031 385.52199 C 456.75574 404.340895 456.004445 426.905843 444.99588 445.041278 C 433.982099 463.171496 414.307552 474.247886 393.093892 474.247886 L 100.000004 474.247886 C 78.786345 474.247886 59.10658 463.171496 48.098016 445.041278 C 37.089452 426.905843 36.338157 404.340895 46.125866 385.52199 L 200.423152 88.723798 C 209.365654 71.517048 227.151528 60.717177 246.54434 60.717177 C 265.942369 60.717177 283.728243 71.517048 292.670745 88.723798 Z M 292.670745 88.723798 " transform="matrix(0.748707,0,0,0.748707,0.12931,0.00157043)"/></g></g></g></svg>