<svg xmlns="http://www.w3.org/2000/svg" xmlns:xlink="http://www.w3.org/1999/xlink" width="615" zoomAndPan="magnify" viewBox="0 0 461.25 434.250001" height="579" preserveAspectRatio="xMidYMid meet" version="1.2"><defs><clipPath id="4007c4fb92"><path d="M 78 45 L 431 45 L 431 395.316406 L 78 395.316406 Z M 78 45 "/></clipPath><clipPath id="50afb8239c"><path d="M 289.230469 66.429688 L 425.746094 329.027344 C 433.070312 343.117188 432.511719 360.011719 424.269531 373.589844 C 416.023438 387.164062 401.292969 395.453125 385.410156 395.453125 L 123.980469 395.453125 C 108.097656 395.453125 93.367188 387.164062 85.121094 373.589844 C 76.878906 360.011719 76.320312 343.117188 83.644531 329.027344 L 220.160156 66.429688 C 226.859375 53.546875 240.175781 45.460938 254.695312 45.460938 C 269.21875 45.460938 282.53125 53.546875 289.230469 66.429688 Z M 289.230469 66.429688 "/></clipPath><clipPath id="8b0d17acd0"><path d="M 182.417969 247 L 230 247 L 230 305 L 182.417969 305 Z M 182.417969 247 "/></clipPath><clipPath id="f5759bee6b"><path d="M 182.417969 195.597656 L 230 195.597656 L 230 265 L 182.417969 265 Z M 182.417969 195.597656 "/></clipPath><clipPath id="840da9b8ef"><path d="M 212 246 L 276.757812 246 L 276.757812 305 L 212 305 Z M 212 246 "/></clipPath><clipPath id="00e9fc814a"><path d="M 212 195.597656 L 276.757812 195.597656 L 276.757812 266 L 212 266 Z M 212 195.597656 "/></clipPath><clipPath id="7d06d95fdf"><path d="M 216 330 L 244 330 L 244 342.34375 L 216 342.34375 Z M 216 330 "/></clipPath><clipPath id="6fb466dc7a"><path d="M 227 168.320312 L 230 168.320312 L 230 186 L 227 186 Z M 227 168.320312 "/></clipPath><clipPath id="87240c994e"><path d="M 153.34375 230 L 171 230 L 171 235 L 153.34375 235 Z M 153.34375 230 "/></clipPath><clipPath id="a53de08a4b"><path d="M 153.34375 253 L 171 253 L 171 259 L 153.34375 259 Z M 153.34375 253 "/></clipPath><clipPath id="0fde5e65f9"><path d="M 281 274 L 298 274 L 298 284.371094 L 281 284.371094 Z M 281 274 "/></clipPath><clipPath id="9a6d67e7c8"><path d="M 29 45 L 382 45 L 382 395.316406 L 29 395.316406 Z M 29 45 "/></clipPath><clipPath id="25cb3f2bd9"><path d="M 240.140625 66.429688 L 376.65625 329.027344 C 383.984375 343.117188 383.425781 360.011719 375.179688 373.589844 C 366.9375 387.164062 352.207031 395.453125 336.324219 395.453125 L 74.890625 395.453125 C 59.007812 395.453125 44.277344 387.164062 36.035156 373.589844 C 27.792969 360.011719 27.230469 343.117188 34.558594 329.027344 L 171.074219 66.429688 C 177.773438 53.546875 191.085938 45.460938 205.609375 45.460938 C 220.128906 45.460938 233.445312 53.546875 240.140625 66.429688 Z M 240.140625 66.429688 "/></clipPath></defs><g id="6af8aec8d7"><g clip-rule="nonzero" clip-path="url(#4007c4fb92)"><g clip-rule="nonzero" clip-path="url(#50afb8239c)"><path style="fill:none;stroke-width:8;stroke-linecap:butt;stroke-linejoin:miter;stroke:#000000;stroke-opacity:1;stroke-miterlimit:4;" d="M 320.711989 88.722351 L 503.047201 439.457289 C 512.829693 458.276195 512.083615 480.841142 501.075051 498.976578 C 490.061269 517.106796 470.386722 528.177968 449.173062 528.177968 L 99.998106 528.177968 C 78.784446 528.177968 59.109899 517.106796 48.096118 498.976578 C 37.087554 480.841142 36.341476 458.276195 46.123967 439.457289 L 228.459179 88.722351 C 237.406898 71.5156 255.192772 60.71573 274.585584 60.71573 C 293.983613 60.71573 311.76427 71.5156 320.711989 88.722351 Z M 320.711989 88.722351 " transform="matrix(0.748707,0,0,0.748707,49.1112,0.00265389)"/></g></g><g clip-rule="nonzero" clip-path="url(#8b0d17acd0)"><path style=" stroke:none;fill-rule:evenodd;fill:#ff66c4;fill-opacity:1;" d="M 189.34375 268.804688 C 185.773438 262.113281 183.597656 254.828125 182.875 247.382812 L 195.367188 247.519531 C 196.355469 251.011719 192.855469 254.996094 193.3125 259.34375 C 193.730469 263.445312 196.835938 265.941406 200.773438 266.050781 C 215.375 266.429688 205.660156 250.503906 208.644531 247.65625 C 210.828125 246.660156 225.523438 247.222656 229.117188 247.335938 L 228.910156 266.839844 C 224.226562 268.804688 221.457031 265.1875 216.507812 266.984375 C 208.820312 269.773438 209.839844 285.203125 218.390625 285.417969 C 223.148438 285.539062 225.035156 281.59375 227.761719 282.761719 C 230.3125 283.855469 229.109375 298.863281 229.125 304.664062 C 221.671875 304.648438 214.222656 304.3125 206.777344 303.664062 C 208.574219 282.851562 197.644531 282.746094 189.34375 268.804688 Z M 189.34375 268.804688 "/></g><g clip-rule="nonzero" clip-path="url(#f5759bee6b)"><path style=" stroke:none;fill-rule:evenodd;fill:#2097d6;fill-opacity:1;" d="M 182.746094 245.707031 C 182.425781 240.957031 182.699219 236.152344 183.589844 231.410156 C 183.917969 230.113281 184.296875 228.84375 184.714844 227.59375 C 186.070312 224.109375 188.210938 219 190.957031 215.453125 C 199.507812 203.46875 213.402344 195.839844 228.765625 195.597656 C 229.117188 219.953125 224.183594 202.929688 215.90625 206.179688 C 209.285156 208.777344 209.429688 224.753906 217.492188 226.355469 C 223.621094 227.574219 222.933594 221.464844 228.765625 223.089844 C 229.753906 226.292969 229.125 240.941406 229.117188 245.691406 L 208.089844 245.941406 C 204.761719 249.382812 207.570312 253.546875 207.8125 257.871094 C 208.332031 267.238281 193.417969 266.660156 194.832031 256.9375 C 195.40625 252.992188 198.425781 249.808594 196.324219 245.714844 Z M 182.746094 245.707031 "/></g><g clip-rule="nonzero" clip-path="url(#840da9b8ef)"><path style=" stroke:none;fill-rule:evenodd;fill:#fada09;fill-opacity:1;" d="M 276.476562 247.273438 C 275.691406 256.472656 272.519531 265.402344 267.152344 273.136719 C 256.84375 284.542969 251.324219 286.1875 252.625 303.664062 C 245.261719 304.304688 237.902344 304.640625 230.539062 304.664062 C 230.585938 300.886719 230.964844 285.933594 230.355469 283.421875 C 228.804688 277.011719 221.207031 285.144531 216.804688 283.515625 C 212.207031 281.808594 211.445312 272.605469 215.117188 269.527344 C 220.15625 265.3125 225.710938 271.660156 230.523438 267.960938 L 230.585938 247.3125 L 243.902344 246.96875 C 251.46875 247.472656 244.265625 253.722656 243.671875 257.558594 C 242.316406 266.308594 251.917969 269.042969 258.707031 266.535156 C 267.667969 263.230469 259.308594 257.277344 260.320312 252.496094 C 261.730469 245.8125 270.601562 246.75 276.476562 247.273438 Z M 276.476562 247.273438 "/></g><g clip-rule="nonzero" clip-path="url(#00e9fc814a)"><path style=" stroke:none;fill-rule:evenodd;fill:#52ae4c;fill-opacity:1;" d="M 230.082031 195.597656 C 251.550781 195.855469 270.195312 210.542969 275.441406 231.410156 C 276.46875 236.105469 276.84375 240.878906 276.589844 245.59375 C 271.878906 245.859375 265.074219 244.382812 261.972656 247.191406 C 252.59375 255.664062 268.421875 263.171875 256.453125 265.53125 C 247.941406 267.214844 242.378906 261.738281 246.148438 255.222656 C 247.875 252.222656 249.480469 250.375 248.574219 246.925781 C 247.363281 244.511719 236.757812 245.925781 230.53125 245.53125 C 230.601562 241.09375 231.085938 227.792969 230.5 224.230469 C 230.007812 221.253906 226.871094 220.21875 224.183594 221.914062 C 222.234375 223.132812 220.765625 225.785156 217.140625 224.640625 C 212.503906 223.179688 211.277344 213.953125 214.203125 209.421875 C 219.203125 201.671875 229.9375 220.265625 230.136719 202.320312 C 230.167969 199.191406 230.023438 197.050781 230.082031 195.597656 Z M 230.082031 195.597656 "/></g><path style=" stroke:none;fill-rule:evenodd;fill:#f6a32a;fill-opacity:1;" d="M 209.847656 308.285156 L 250.425781 308.285156 C 250.871094 308.285156 251.296875 308.355469 251.710938 308.488281 C 252.121094 308.621094 252.484375 308.808594 252.800781 309.054688 C 253.113281 309.300781 253.355469 309.585938 253.527344 309.910156 C 253.699219 310.230469 253.78125 310.566406 253.78125 310.914062 C 253.78125 311.261719 253.699219 311.597656 253.527344 311.917969 C 253.355469 312.242188 253.113281 312.523438 252.800781 312.769531 C 252.484375 313.015625 252.121094 313.207031 251.710938 313.339844 C 251.296875 313.472656 250.871094 313.539062 250.425781 313.539062 L 209.847656 313.539062 C 209.402344 313.539062 208.972656 313.472656 208.5625 313.339844 C 208.152344 313.207031 207.789062 313.015625 207.472656 312.769531 C 207.15625 312.523438 206.914062 312.242188 206.746094 311.917969 C 206.574219 311.597656 206.488281 311.261719 206.488281 310.914062 C 206.488281 310.566406 206.574219 310.230469 206.746094 309.910156 C 206.914062 309.585938 207.15625 309.300781 207.472656 309.054688 C 207.789062 308.808594 208.152344 308.621094 208.5625 308.488281 C 208.972656 308.355469 209.402344 308.285156 209.847656 308.285156 Z M 209.847656 308.285156 "/><path style=" stroke:none;fill-rule:evenodd;fill:#f6a32a;fill-opacity:1;" d="M 212.03125 315.734375 L 248.234375 315.734375 C 248.628906 315.734375 249.011719 315.800781 249.378906 315.933594 C 249.742188 316.066406 250.066406 316.253906 250.347656 316.503906 C 250.628906 316.75 250.84375 317.03125 250.996094 317.355469 C 251.148438 317.675781 251.222656 318.011719 251.222656 318.359375 C 251.222656 318.707031 251.148438 319.042969 250.996094 319.363281 C 250.84375 319.6875 250.628906 319.96875 250.347656 320.214844 C 250.066406 320.460938 249.742188 320.652344 249.378906 320.785156 C 249.011719 320.917969 248.628906 320.984375 248.234375 320.984375 L 212.03125 320.984375 C 211.636719 320.984375 211.253906 320.917969 210.886719 320.785156 C 210.519531 320.652344 210.195312 320.460938 209.917969 320.214844 C 209.636719 319.96875 209.417969 319.6875 209.269531 319.363281 C 209.117188 319.042969 209.039062 318.707031 209.039062 318.359375 C 209.039062 318.011719 209.117188 317.675781 209.269531 317.355469 C 209.417969 317.03125 209.636719 316.75 209.917969 316.503906 C 210.195312 316.253906 210.519531 316.066406 210.886719 315.933594 C 211.253906 315.800781 211.636719 315.734375 212.03125 315.734375 Z M 212.03125 315.734375 "/><path style=" stroke:none;fill-rule:evenodd;fill:#f6a32a;fill-opacity:1;" d="M 215.296875 323.179688 L 244.972656 323.179688 C 245.300781 323.179688 245.613281 323.246094 245.914062 323.378906 C 246.214844 323.511719 246.480469 323.703125 246.714844 323.949219 C 246.945312 324.195312 247.121094 324.476562 247.246094 324.800781 C 247.371094 325.121094 247.433594 325.457031 247.433594 325.804688 C 247.433594 326.152344 247.371094 326.488281 247.246094 326.808594 C 247.121094 327.132812 246.945312 327.414062 246.714844 327.660156 C 246.480469 327.910156 246.214844 328.097656 245.914062 328.230469 C 245.613281 328.363281 245.300781 328.429688 244.972656 328.429688 L 215.296875 328.429688 C 214.972656 328.429688 214.660156 328.363281 214.355469 328.230469 C 214.054688 328.097656 213.789062 327.910156 213.558594 327.660156 C 213.328125 327.414062 213.152344 327.132812 213.027344 326.808594 C 212.902344 326.488281 212.839844 326.152344 212.839844 325.804688 C 212.839844 325.457031 212.902344 325.121094 213.027344 324.800781 C 213.152344 324.476562 213.328125 324.195312 213.558594 323.949219 C 213.789062 323.703125 214.054688 323.511719 214.355469 323.378906 C 214.660156 323.246094 214.972656 323.179688 215.296875 323.179688 Z M 215.296875 323.179688 "/><g clip-rule="nonzero" clip-path="url(#7d06d95fdf)"><path style=" stroke:none;fill-rule:evenodd;fill:#f6a32a;fill-opacity:1;" d="M 243.605469 330.402344 C 242.8125 337.140625 237.085938 342.371094 230.136719 342.371094 C 223.183594 342.371094 217.460938 337.140625 216.667969 330.402344 Z M 243.605469 330.402344 "/></g><g clip-rule="nonzero" clip-path="url(#6fb466dc7a)"><path style=" stroke:none;fill-rule:nonzero;fill:#000000;fill-opacity:1;" d="M 228.960938 168.320312 C 228.386719 168.320312 227.921875 168.785156 227.921875 169.359375 L 227.921875 184.445312 C 227.921875 185.015625 228.386719 185.480469 228.960938 185.480469 C 229.535156 185.480469 229.996094 185.015625 229.996094 184.445312 L 229.996094 169.359375 C 229.996094 168.785156 229.535156 168.320312 228.960938 168.320312 Z M 228.960938 168.320312 "/></g><path style=" stroke:none;fill-rule:nonzero;fill:#000000;fill-opacity:1;" d="M 204.167969 173.433594 C 203.972656 172.894531 203.378906 172.621094 202.839844 172.816406 C 202.300781 173.011719 202.023438 173.605469 202.21875 174.140625 L 207.390625 188.320312 C 207.542969 188.738281 207.941406 189 208.363281 189 C 208.480469 189 208.601562 188.980469 208.71875 188.9375 C 209.257812 188.742188 209.535156 188.148438 209.339844 187.609375 Z M 204.167969 173.433594 "/><path style=" stroke:none;fill-rule:nonzero;fill:#000000;fill-opacity:1;" d="M 181.292969 186.082031 C 180.925781 185.644531 180.273438 185.585938 179.832031 185.953125 C 179.394531 186.320312 179.335938 186.972656 179.707031 187.414062 L 189.421875 198.96875 C 189.628906 199.214844 189.921875 199.339844 190.21875 199.339844 C 190.453125 199.339844 190.6875 199.257812 190.882812 199.097656 C 191.324219 198.730469 191.378906 198.074219 191.011719 197.636719 Z M 181.292969 186.082031 "/><path style=" stroke:none;fill-rule:nonzero;fill:#000000;fill-opacity:1;" d="M 177.226562 213.316406 L 164.132812 205.773438 C 163.636719 205.488281 163.003906 205.65625 162.71875 206.152344 C 162.429688 206.648438 162.601562 207.28125 163.097656 207.566406 L 176.1875 215.109375 C 176.351562 215.203125 176.53125 215.25 176.707031 215.25 C 177.0625 215.25 177.414062 215.0625 177.605469 214.730469 C 177.890625 214.234375 177.722656 213.601562 177.226562 213.316406 Z M 177.226562 213.316406 "/><g clip-rule="nonzero" clip-path="url(#87240c994e)"><path style=" stroke:none;fill-rule:nonzero;fill:#000000;fill-opacity:1;" d="M 154.394531 232.175781 L 169.28125 234.796875 C 169.34375 234.804688 169.40625 234.8125 169.464844 234.8125 C 169.957031 234.8125 170.394531 234.457031 170.484375 233.957031 C 170.582031 233.394531 170.207031 232.855469 169.644531 232.757812 L 154.757812 230.136719 C 154.191406 230.039062 153.652344 230.414062 153.554688 230.976562 C 153.457031 231.539062 153.832031 232.078125 154.394531 232.175781 Z M 154.394531 232.175781 "/></g><g clip-rule="nonzero" clip-path="url(#a53de08a4b)"><path style=" stroke:none;fill-rule:nonzero;fill:#000000;fill-opacity:1;" d="M 170.382812 254.453125 C 170.28125 253.890625 169.746094 253.511719 169.179688 253.613281 L 154.292969 256.234375 C 153.730469 256.332031 153.351562 256.867188 153.453125 257.433594 C 153.539062 257.933594 153.976562 258.289062 154.472656 258.289062 C 154.53125 258.289062 154.59375 258.28125 154.652344 258.273438 L 169.539062 255.652344 C 170.105469 255.550781 170.480469 255.015625 170.382812 254.453125 Z M 170.382812 254.453125 "/></g><path style=" stroke:none;fill-rule:nonzero;fill:#000000;fill-opacity:1;" d="M 175.890625 273.367188 L 162.800781 280.914062 C 162.304688 281.199219 162.132812 281.832031 162.421875 282.328125 C 162.613281 282.660156 162.960938 282.84375 163.320312 282.84375 C 163.496094 282.84375 163.675781 282.800781 163.835938 282.707031 L 176.929688 275.160156 C 177.425781 274.875 177.59375 274.242188 177.308594 273.746094 C 177.023438 273.25 176.386719 273.082031 175.890625 273.367188 Z M 175.890625 273.367188 "/><path style=" stroke:none;fill-rule:nonzero;fill:#000000;fill-opacity:1;" d="M 255.503906 172.785156 C 254.964844 172.589844 254.371094 172.867188 254.175781 173.402344 L 249.003906 187.582031 C 248.808594 188.117188 249.085938 188.710938 249.625 188.90625 C 249.742188 188.949219 249.863281 188.96875 249.980469 188.96875 C 250.402344 188.96875 250.800781 188.710938 250.953125 188.289062 L 256.125 174.113281 C 256.320312 173.574219 256.042969 172.980469 255.503906 172.785156 Z M 255.503906 172.785156 "/><path style=" stroke:none;fill-rule:nonzero;fill:#000000;fill-opacity:1;" d="M 277.457031 186.167969 L 267.742188 197.722656 C 267.371094 198.160156 267.429688 198.816406 267.867188 199.183594 C 268.0625 199.34375 268.300781 199.425781 268.535156 199.425781 C 268.832031 199.425781 269.125 199.300781 269.332031 199.054688 L 279.046875 187.5 C 279.414062 187.0625 279.359375 186.40625 278.917969 186.039062 C 278.480469 185.671875 277.824219 185.730469 277.457031 186.167969 Z M 277.457031 186.167969 "/><path style=" stroke:none;fill-rule:nonzero;fill:#000000;fill-opacity:1;" d="M 282.910156 215.445312 L 296 207.902344 C 296.496094 207.617188 296.664062 206.984375 296.378906 206.488281 C 296.09375 205.992188 295.457031 205.824219 294.960938 206.109375 L 281.871094 213.652344 C 281.375 213.9375 281.203125 214.570312 281.492188 215.066406 C 281.683594 215.398438 282.03125 215.585938 282.390625 215.585938 C 282.566406 215.585938 282.746094 215.539062 282.910156 215.445312 Z M 282.910156 215.445312 "/><path style=" stroke:none;fill-rule:nonzero;fill:#000000;fill-opacity:1;" d="M 288.847656 234.640625 C 288.9375 235.144531 289.375 235.496094 289.871094 235.496094 C 289.929688 235.496094 289.992188 235.492188 290.050781 235.480469 L 304.9375 232.863281 C 305.5 232.761719 305.878906 232.226562 305.777344 231.664062 C 305.679688 231.101562 305.140625 230.722656 304.578125 230.824219 L 289.691406 233.441406 C 289.125 233.542969 288.75 234.078125 288.847656 234.640625 Z M 288.847656 234.640625 "/><path style=" stroke:none;fill-rule:nonzero;fill:#000000;fill-opacity:1;" d="M 305.144531 257.328125 L 290.257812 254.707031 C 289.691406 254.609375 289.15625 254.984375 289.054688 255.550781 C 288.957031 256.113281 289.332031 256.648438 289.898438 256.75 L 304.78125 259.367188 C 304.84375 259.378906 304.902344 259.382812 304.964844 259.382812 C 305.457031 259.382812 305.894531 259.03125 305.984375 258.527344 C 306.082031 257.964844 305.707031 257.429688 305.144531 257.328125 Z M 305.144531 257.328125 "/><g clip-rule="nonzero" clip-path="url(#0fde5e65f9)"><path style=" stroke:none;fill-rule:nonzero;fill:#000000;fill-opacity:1;" d="M 296.59375 282.429688 L 283.5 274.886719 C 283.007812 274.601562 282.371094 274.769531 282.085938 275.265625 C 281.796875 275.761719 281.96875 276.394531 282.464844 276.679688 L 295.554688 284.222656 C 295.71875 284.316406 295.894531 284.363281 296.074219 284.363281 C 296.429688 284.363281 296.78125 284.175781 296.972656 283.84375 C 297.257812 283.347656 297.089844 282.714844 296.59375 282.429688 Z M 296.59375 282.429688 "/></g><g style="fill:#000000;fill-opacity:1;"><g transform="translate(89.223375, 301.658945)"><path style="stroke:none" d="M -11.09375 -21.109375 L -6.21875 -18.53125 C -5.71875 -18.269531 -5.378906 -17.890625 -5.203125 -17.390625 C -5.035156 -16.898438 -5.035156 -16.394531 -5.203125 -15.875 L -5.15625 -15.84375 C -4.832031 -16.289062 -4.414062 -16.582031 -3.90625 -16.71875 C -3.394531 -16.851562 -2.894531 -16.789062 -2.40625 -16.53125 L 2.484375 -13.96875 C 3.710938 -13.3125 4.484375 -12.484375 4.796875 -11.484375 C 5.109375 -10.492188 4.929688 -9.367188 4.265625 -8.109375 L 0.921875 -1.75 C 0.773438 -1.46875 0.5625 -1.398438 0.28125 -1.546875 L -20.078125 -12.265625 C -20.359375 -12.410156 -20.425781 -12.625 -20.28125 -12.90625 L -16.9375 -19.265625 C -16.269531 -20.523438 -15.441406 -21.3125 -14.453125 -21.625 C -13.472656 -21.9375 -12.351562 -21.765625 -11.09375 -21.109375 Z M -8.953125 -15.484375 L -12.203125 -17.203125 C -12.921875 -17.578125 -13.46875 -17.410156 -13.84375 -16.703125 L -15.109375 -14.28125 L -9.734375 -11.453125 L -8.46875 -13.875 C -8.09375 -14.582031 -8.253906 -15.117188 -8.953125 -15.484375 Z M -0.125 -10.84375 L -3.359375 -12.546875 C -4.054688 -12.910156 -4.59375 -12.738281 -4.96875 -12.03125 L -6.234375 -9.609375 L -0.890625 -6.796875 L 0.375 -9.21875 C 0.75 -9.925781 0.582031 -10.46875 -0.125 -10.84375 Z M -0.125 -10.84375 "/></g></g><g style="fill:#000000;fill-opacity:1;"><g transform="translate(98.41554, 284.194425)"><path style="stroke:none" d="M -20.28125 -12.90625 L -18.828125 -15.65625 C -18.679688 -15.945312 -18.46875 -16.019531 -18.1875 -15.875 L 2.171875 -5.15625 C 2.453125 -5.007812 2.519531 -4.789062 2.375 -4.5 L 0.921875 -1.75 C 0.773438 -1.46875 0.5625 -1.398438 0.28125 -1.546875 L -20.078125 -12.265625 C -20.359375 -12.410156 -20.425781 -12.625 -20.28125 -12.90625 Z M -20.28125 -12.90625 "/></g></g><g style="fill:#000000;fill-opacity:1;"><g transform="translate(103.91131, 273.752816)"><path style="stroke:none" d="M -10.953125 -21.375 L -4.484375 -17.96875 C -2.710938 -17.039062 -1.882812 -15.78125 -2 -14.1875 L 5.890625 -12.359375 C 6.265625 -12.285156 6.359375 -12.078125 6.171875 -11.734375 L 4.734375 -8.984375 C 4.597656 -8.734375 4.390625 -8.648438 4.109375 -8.734375 L -3.546875 -10.5 L -4.515625 -8.671875 L 2.171875 -5.15625 C 2.453125 -5.007812 2.519531 -4.789062 2.375 -4.5 L 0.921875 -1.75 C 0.773438 -1.46875 0.5625 -1.398438 0.28125 -1.546875 L -20.078125 -12.265625 C -20.359375 -12.410156 -20.425781 -12.625 -20.28125 -12.90625 L -16.78125 -19.5625 C -16.113281 -20.8125 -15.289062 -21.585938 -14.3125 -21.890625 C -13.332031 -22.203125 -12.210938 -22.03125 -10.953125 -21.375 Z M -8.015625 -10.515625 L -6.640625 -13.125 C -6.265625 -13.832031 -6.425781 -14.375 -7.125 -14.75 L -12.109375 -17.375 C -12.828125 -17.75 -13.375 -17.582031 -13.75 -16.875 L -15.125 -14.265625 Z M -8.015625 -10.515625 "/></g></g><g style="fill:#000000;fill-opacity:1;"><g transform="translate(113.242965, 256.023274)"><path style="stroke:none" d="M -14.671875 -23.5625 L -12.828125 -27.0625 C -12.640625 -27.414062 -12.367188 -27.5 -12.015625 -27.3125 L 8.125 -16.71875 C 8.476562 -16.53125 8.5625 -16.257812 8.375 -15.90625 L 7.078125 -13.4375 C 6.890625 -13.082031 6.617188 -13 6.265625 -13.1875 L -5.65625 -19.46875 L -5.765625 -19.28125 L 4.828125 -10.34375 C 5.117188 -10.113281 5.175781 -9.835938 5 -9.515625 L 4.328125 -8.21875 C 4.171875 -7.914062 3.90625 -7.800781 3.53125 -7.875 L -9.8125 -11.5625 L -9.90625 -11.390625 L 2.015625 -5.109375 C 2.367188 -4.921875 2.453125 -4.648438 2.265625 -4.296875 L 0.96875 -1.859375 C 0.789062 -1.503906 0.523438 -1.421875 0.171875 -1.609375 L -19.96875 -12.203125 C -20.320312 -12.390625 -20.410156 -12.660156 -20.234375 -13.015625 L -18.390625 -16.5 C -18.210938 -16.820312 -17.945312 -16.9375 -17.59375 -16.84375 L -2.84375 -12.828125 L -14.5 -22.734375 C -14.769531 -22.984375 -14.828125 -23.257812 -14.671875 -23.5625 Z M -14.671875 -23.5625 "/></g></g><g style="fill:#000000;fill-opacity:1;"><g transform="translate(124.792454, 234.07999)"><path style="stroke:none" d="M -20.28125 -12.90625 L -18.828125 -15.65625 C -18.679688 -15.945312 -18.46875 -16.019531 -18.1875 -15.875 L 2.171875 -5.15625 C 2.453125 -5.007812 2.519531 -4.789062 2.375 -4.5 L 0.921875 -1.75 C 0.773438 -1.46875 0.5625 -1.398438 0.28125 -1.546875 L -20.078125 -12.265625 C -20.359375 -12.410156 -20.425781 -12.625 -20.28125 -12.90625 Z M -20.28125 -12.90625 "/></g></g><g style="fill:#000000;fill-opacity:1;"><g transform="translate(130.288224, 223.638381)"><path style="stroke:none" d="M -16.21875 -20.609375 L -14.765625 -23.375 C -14.617188 -23.65625 -14.40625 -23.722656 -14.125 -23.578125 L 6.234375 -12.859375 C 6.515625 -12.710938 6.582031 -12.5 6.4375 -12.21875 L 5.046875 -9.59375 C 4.921875 -9.34375 4.722656 -9.242188 4.453125 -9.296875 L -9 -11.203125 L -9.0625 -11.078125 L 2.171875 -5.15625 C 2.453125 -5.007812 2.519531 -4.789062 2.375 -4.5 L 0.921875 -1.75 C 0.773438 -1.46875 0.5625 -1.398438 0.28125 -1.546875 L -20.078125 -12.265625 C -20.359375 -12.410156 -20.425781 -12.625 -20.28125 -12.90625 L -18.90625 -15.53125 C -18.769531 -15.78125 -18.570312 -15.882812 -18.3125 -15.84375 L -4.921875 -13.921875 L -4.828125 -14.09375 L -16.015625 -19.984375 C -16.296875 -20.128906 -16.363281 -20.335938 -16.21875 -20.609375 Z M -16.21875 -20.609375 "/></g></g><g style="fill:#000000;fill-opacity:1;"><g transform="translate(139.843058, 205.484814)"><path style="stroke:none" d="M -3.109375 -3.34375 L -16.6875 -10.484375 C -17.945312 -11.140625 -18.722656 -11.960938 -19.015625 -12.953125 C -19.316406 -13.953125 -19.144531 -15.066406 -18.5 -16.296875 L -16.65625 -19.796875 C -16.007812 -21.035156 -15.191406 -21.8125 -14.203125 -22.125 C -13.210938 -22.4375 -12.085938 -22.265625 -10.828125 -21.609375 L -8.0625 -20.15625 C -7.789062 -20.007812 -7.734375 -19.796875 -7.890625 -19.515625 L -9.28125 -16.875 C -9.425781 -16.582031 -9.632812 -16.507812 -9.90625 -16.65625 L -11.921875 -17.71875 C -12.640625 -18.09375 -13.1875 -17.925781 -13.5625 -17.21875 L -14.5625 -15.3125 C -14.9375 -14.613281 -14.765625 -14.078125 -14.046875 -13.703125 L -1.96875 -7.34375 C -1.257812 -6.96875 -0.71875 -7.128906 -0.34375 -7.828125 L 0.65625 -9.734375 C 1.03125 -10.441406 0.863281 -10.984375 0.15625 -11.359375 L -3.390625 -13.21875 L -4.125 -11.84375 C -4.269531 -11.5625 -4.484375 -11.492188 -4.765625 -11.640625 L -7.421875 -13.046875 C -7.703125 -13.191406 -7.769531 -13.40625 -7.625 -13.6875 L -5.28125 -18.140625 C -5.125 -18.421875 -4.90625 -18.488281 -4.625 -18.34375 L 2.75 -14.46875 C 3.976562 -13.8125 4.742188 -12.984375 5.046875 -11.984375 C 5.359375 -10.992188 5.191406 -9.878906 4.546875 -8.640625 L 2.703125 -5.140625 C 2.054688 -3.910156 1.234375 -3.140625 0.234375 -2.828125 C -0.765625 -2.515625 -1.878906 -2.6875 -3.109375 -3.34375 Z M -3.109375 -3.34375 "/></g></g><g style="fill:#000000;fill-opacity:1;"><g transform="translate(149.300251, 187.516756)"><path style="stroke:none" d="M -7.96875 -14.828125 L -16.40625 -19.265625 C -16.6875 -19.410156 -16.75 -19.625 -16.59375 -19.90625 L -15.15625 -22.625 C -15 -22.9375 -14.78125 -23.019531 -14.5 -22.875 L 5.859375 -12.15625 C 6.140625 -12.007812 6.203125 -11.78125 6.046875 -11.46875 L 4.609375 -8.75 C 4.453125 -8.46875 4.234375 -8.398438 3.953125 -8.546875 L -4.46875 -12.984375 L -6.25 -9.59375 L 2.171875 -5.15625 C 2.453125 -5.007812 2.519531 -4.789062 2.375 -4.5 L 0.9375 -1.765625 C 0.78125 -1.472656 0.5625 -1.398438 0.28125 -1.546875 L -20.078125 -12.265625 C -20.359375 -12.410156 -20.421875 -12.628906 -20.265625 -12.921875 L -18.828125 -15.65625 C -18.679688 -15.945312 -18.46875 -16.019531 -18.1875 -15.875 L -9.75 -11.4375 Z M -7.96875 -14.828125 "/></g></g><g style="fill:#000000;fill-opacity:1;"><g transform="translate(158.199496, 170.608766)"><path style="stroke:none" d="M 7.421875 -14.109375 L 5.953125 -11.296875 C 5.828125 -11.066406 5.625 -10.992188 5.34375 -11.078125 L 1.078125 -12.359375 L -1.40625 -7.640625 L 2.09375 -4.890625 C 2.320312 -4.710938 2.375 -4.503906 2.25 -4.265625 L 0.75 -1.4375 C 0.582031 -1.113281 0.375 -1.078125 0.125 -1.328125 L -17.953125 -16.453125 C -18.160156 -16.640625 -18.203125 -16.851562 -18.078125 -17.09375 L -16.140625 -20.78125 C -16.003906 -21.03125 -15.804688 -21.113281 -15.546875 -21.03125 L 7.171875 -14.703125 C 7.492188 -14.597656 7.578125 -14.398438 7.421875 -14.109375 Z M -2.328125 -13.296875 L -12.46875 -16.484375 L -4.125 -9.90625 Z M -2.328125 -13.296875 "/></g></g><g style="fill:#000000;fill-opacity:1;"><g transform="translate(168.298321, 151.421649)"><path style="stroke:none" d="M -14.671875 -23.5625 L -12.828125 -27.0625 C -12.640625 -27.414062 -12.367188 -27.5 -12.015625 -27.3125 L 8.125 -16.71875 C 8.476562 -16.53125 8.5625 -16.257812 8.375 -15.90625 L 7.078125 -13.4375 C 6.890625 -13.082031 6.617188 -13 6.265625 -13.1875 L -5.65625 -19.46875 L -5.765625 -19.28125 L 4.828125 -10.34375 C 5.117188 -10.113281 5.175781 -9.835938 5 -9.515625 L 4.328125 -8.21875 C 4.171875 -7.914062 3.90625 -7.800781 3.53125 -7.875 L -9.8125 -11.5625 L -9.90625 -11.390625 L 2.015625 -5.109375 C 2.367188 -4.921875 2.453125 -4.648438 2.265625 -4.296875 L 0.96875 -1.859375 C 0.789062 -1.503906 0.523438 -1.421875 0.171875 -1.609375 L -19.96875 -12.203125 C -20.320312 -12.390625 -20.410156 -12.660156 -20.234375 -13.015625 L -18.390625 -16.5 C -18.210938 -16.820312 -17.945312 -16.9375 -17.59375 -16.84375 L -2.84375 -12.828125 L -14.5 -22.734375 C -14.769531 -22.984375 -14.828125 -23.257812 -14.671875 -23.5625 Z M -14.671875 -23.5625 "/></g></g><g style="fill:#000000;fill-opacity:1;"><g transform="translate(287.836389, 139.443255)"><path style="stroke:none" d="M 22.1875 -9.296875 L 23.625 -6.546875 C 23.769531 -6.253906 23.695312 -6.035156 23.40625 -5.890625 L 3 4.734375 C 2.71875 4.878906 2.503906 4.804688 2.359375 4.515625 L 0.921875 1.765625 C 0.765625 1.472656 0.828125 1.253906 1.109375 1.109375 L 21.515625 -9.515625 C 21.804688 -9.660156 22.03125 -9.585938 22.1875 -9.296875 Z M 22.1875 -9.296875 "/></g></g><g style="fill:#000000;fill-opacity:1;"><g transform="translate(293.284995, 149.909551)"><path style="stroke:none" d="M 26.203125 -1.578125 L 27.640625 1.1875 C 27.785156 1.46875 27.710938 1.679688 27.421875 1.828125 L 7.015625 12.453125 C 6.734375 12.597656 6.519531 12.53125 6.375 12.25 L 5 9.625 C 4.875 9.375 4.90625 9.148438 5.09375 8.953125 L 14.328125 -1 L 14.265625 -1.125 L 3 4.734375 C 2.71875 4.878906 2.503906 4.804688 2.359375 4.515625 L 0.921875 1.765625 C 0.765625 1.472656 0.828125 1.253906 1.109375 1.109375 L 21.515625 -9.515625 C 21.804688 -9.660156 22.03125 -9.585938 22.1875 -9.296875 L 23.546875 -6.6875 C 23.671875 -6.4375 23.632812 -6.21875 23.4375 -6.03125 L 14.25 3.890625 L 14.34375 4.0625 L 25.546875 -1.78125 C 25.835938 -1.925781 26.054688 -1.859375 26.203125 -1.578125 Z M 26.203125 -1.578125 "/></g></g><g style="fill:#000000;fill-opacity:1;"><g transform="translate(302.757832, 168.10604)"><path style="stroke:none" d="M 26.78125 -0.453125 L 28.09375 2.0625 C 28.3125 2.46875 28.195312 2.734375 27.75 2.859375 L 5.234375 8.875 C 4.867188 8.96875 4.601562 8.851562 4.4375 8.53125 L 3.0625 5.875 C 2.90625 5.570312 2.960938 5.289062 3.234375 5.03125 L 21.09375 -9.9375 C 21.445312 -10.226562 21.726562 -10.171875 21.9375 -9.765625 L 23.25 -7.234375 C 23.425781 -6.910156 23.367188 -6.632812 23.078125 -6.40625 L 10.296875 3.796875 L 26 -0.796875 C 26.363281 -0.878906 26.625 -0.765625 26.78125 -0.453125 Z M 26.78125 -0.453125 "/></g></g><g style="fill:#000000;fill-opacity:1;"><g transform="translate(312.451933, 186.727555)"><path style="stroke:none" d="M 27.046875 1.09375 L 24.390625 2.484375 C 24.085938 2.628906 23.859375 2.554688 23.703125 2.265625 L 20.25 -4.375 L 14.9375 -1.59375 L 17.578125 3.484375 C 17.722656 3.765625 17.644531 3.976562 17.34375 4.125 L 14.71875 5.5 C 14.414062 5.65625 14.191406 5.59375 14.046875 5.3125 L 11.40625 0.234375 L 6.03125 3.03125 L 9.484375 9.671875 C 9.640625 9.960938 9.578125 10.179688 9.296875 10.328125 L 6.640625 11.71875 C 6.359375 11.863281 6.140625 11.789062 5.984375 11.5 L 0.90625 1.734375 C 0.757812 1.460938 0.828125 1.253906 1.109375 1.109375 L 21.515625 -9.515625 C 21.804688 -9.660156 22.023438 -9.597656 22.171875 -9.328125 L 27.25 0.4375 C 27.40625 0.726562 27.335938 0.945312 27.046875 1.09375 Z M 27.046875 1.09375 "/></g></g><g style="fill:#000000;fill-opacity:1;"><g transform="translate(321.537555, 204.180238)"><path style="stroke:none" d="M 26.203125 -1.578125 L 27.640625 1.1875 C 27.785156 1.46875 27.710938 1.679688 27.421875 1.828125 L 7.015625 12.453125 C 6.734375 12.597656 6.519531 12.53125 6.375 12.25 L 5 9.625 C 4.875 9.375 4.90625 9.148438 5.09375 8.953125 L 14.328125 -1 L 14.265625 -1.125 L 3 4.734375 C 2.71875 4.878906 2.503906 4.804688 2.359375 4.515625 L 0.921875 1.765625 C 0.765625 1.472656 0.828125 1.253906 1.109375 1.109375 L 21.515625 -9.515625 C 21.804688 -9.660156 22.03125 -9.585938 22.1875 -9.296875 L 23.546875 -6.6875 C 23.671875 -6.4375 23.632812 -6.21875 23.4375 -6.03125 L 14.25 3.890625 L 14.34375 4.0625 L 25.546875 -1.78125 C 25.835938 -1.925781 26.054688 -1.859375 26.203125 -1.578125 Z M 26.203125 -1.578125 "/></g></g><g style="fill:#000000;fill-opacity:1;"><g transform="translate(331.010392, 222.376727)"><path style="stroke:none" d="M 21.90625 -9.84375 L 27 -0.0625 C 27.132812 0.21875 27.054688 0.429688 26.765625 0.578125 L 24.109375 1.96875 C 23.828125 2.101562 23.617188 2.03125 23.484375 1.75 L 21.875 -1.34375 L 4.546875 7.6875 C 4.265625 7.832031 4.050781 7.769531 3.90625 7.5 L 2.453125 4.71875 C 2.316406 4.445312 2.390625 4.238281 2.671875 4.09375 L 20 -4.9375 L 18.390625 -8.03125 C 18.242188 -8.3125 18.3125 -8.519531 18.59375 -8.65625 L 21.25 -10.046875 C 21.539062 -10.191406 21.757812 -10.125 21.90625 -9.84375 Z M 21.90625 -9.84375 "/></g></g><g style="fill:#000000;fill-opacity:1;"><g transform="translate(339.280105, 238.26212)"><path style="stroke:none" d="M 4.515625 -0.65625 L 18.125 -7.75 C 19.375 -8.40625 20.492188 -8.570312 21.484375 -8.25 C 22.484375 -7.925781 23.304688 -7.144531 23.953125 -5.90625 L 25.5 -2.921875 C 26.15625 -1.671875 26.328125 -0.554688 26.015625 0.421875 C 25.703125 1.398438 24.921875 2.21875 23.671875 2.875 L 10.0625 9.96875 C 8.820312 10.601562 7.703125 10.769531 6.703125 10.46875 C 5.710938 10.164062 4.890625 9.390625 4.234375 8.140625 L 2.6875 5.15625 C 2.039062 3.914062 1.875 2.796875 2.1875 1.796875 C 2.5 0.796875 3.273438 -0.0195312 4.515625 -0.65625 Z M 6.5 4.140625 L 7.3125 5.6875 C 7.675781 6.394531 8.210938 6.5625 8.921875 6.1875 L 21.203125 -0.203125 C 21.910156 -0.566406 22.082031 -1.101562 21.71875 -1.8125 L 20.90625 -3.359375 C 20.539062 -4.066406 20.003906 -4.238281 19.296875 -3.875 L 7.015625 2.515625 C 6.304688 2.890625 6.132812 3.429688 6.5 4.140625 Z M 6.5 4.140625 "/></g></g><g style="fill:#000000;fill-opacity:1;"><g transform="translate(348.379559, 255.741373)"><path style="stroke:none" d="M 23.8125 3.171875 L 17.328125 6.546875 C 15.546875 7.472656 14.039062 7.4375 12.8125 6.4375 L 6.8125 11.890625 C 6.53125 12.148438 6.300781 12.109375 6.125 11.765625 L 4.6875 9.015625 C 4.5625 8.765625 4.609375 8.546875 4.828125 8.359375 L 10.65625 3.078125 L 9.703125 1.25 L 3 4.734375 C 2.71875 4.878906 2.503906 4.804688 2.359375 4.515625 L 0.921875 1.765625 C 0.765625 1.472656 0.828125 1.253906 1.109375 1.109375 L 21.515625 -9.515625 C 21.804688 -9.660156 22.03125 -9.585938 22.1875 -9.296875 L 25.65625 -2.640625 C 26.3125 -1.378906 26.476562 -0.257812 26.15625 0.71875 C 25.84375 1.695312 25.0625 2.515625 23.8125 3.171875 Z M 13.203125 -0.578125 L 14.5625 2.03125 C 14.9375 2.75 15.476562 2.925781 16.1875 2.5625 L 21.1875 -0.046875 C 21.894531 -0.421875 22.0625 -0.96875 21.6875 -1.6875 L 20.328125 -4.296875 Z M 13.203125 -0.578125 "/></g></g><g style="fill:#000000;fill-opacity:1;"><g transform="translate(357.631132, 273.512834)"><path style="stroke:none" d="M 23.953125 -5.90625 L 25.5 -2.921875 C 26.15625 -1.671875 26.328125 -0.554688 26.015625 0.421875 C 25.703125 1.398438 24.921875 2.21875 23.671875 2.875 L 20.84375 4.34375 C 20.5625 4.488281 20.34375 4.421875 20.1875 4.140625 L 18.75 1.375 C 18.601562 1.09375 18.671875 0.878906 18.953125 0.734375 L 21.03125 -0.34375 C 21.738281 -0.71875 21.90625 -1.257812 21.53125 -1.96875 L 20.875 -3.25 C 20.507812 -3.945312 19.972656 -4.109375 19.265625 -3.734375 L 15.59375 -1.828125 L 16.8125 5.5625 C 16.863281 6.125 16.660156 6.523438 16.203125 6.765625 L 10.0625 9.96875 C 8.820312 10.601562 7.703125 10.769531 6.703125 10.46875 C 5.710938 10.164062 4.890625 9.390625 4.234375 8.140625 L 2.6875 5.15625 C 2.039062 3.914062 1.875 2.796875 2.1875 1.796875 C 2.5 0.796875 3.273438 -0.0195312 4.515625 -0.65625 L 7.296875 -2.109375 C 7.585938 -2.265625 7.8125 -2.195312 7.96875 -1.90625 L 9.40625 0.84375 C 9.550781 1.132812 9.476562 1.359375 9.1875 1.515625 L 7.15625 2.578125 C 6.4375 2.941406 6.257812 3.472656 6.625 4.171875 L 7.28125 5.453125 C 7.65625 6.160156 8.203125 6.332031 8.921875 5.96875 L 12.453125 4.125 L 11.234375 -3.25 C 11.140625 -3.8125 11.34375 -4.222656 11.84375 -4.484375 L 18.125 -7.75 C 19.375 -8.40625 20.492188 -8.570312 21.484375 -8.25 C 22.484375 -7.925781 23.304688 -7.144531 23.953125 -5.90625 Z M 23.953125 -5.90625 "/></g></g><g style="fill:#000000;fill-opacity:1;"><g transform="translate(183.107592, 380.13697)"><path style="stroke:none" d="M 1.5 -0.59375 L 1.5 -3.359375 C 1.5 -3.753906 1.695312 -3.953125 2.09375 -3.953125 L 4.828125 -3.953125 C 5.222656 -3.953125 5.421875 -3.753906 5.421875 -3.359375 L 5.421875 -0.59375 C 5.421875 -0.195312 5.222656 0 4.828125 0 L 2.09375 0 C 1.695312 0 1.5 -0.195312 1.5 -0.59375 Z M 1.5 -0.59375 "/></g></g><g style="fill:#000000;fill-opacity:1;"><g transform="translate(190.025636, 380.13697)"><path style="stroke:none" d="M 1.5 -4.3125 L 1.5 -19.65625 C 1.5 -21.070312 1.867188 -22.144531 2.609375 -22.875 C 3.347656 -23.601562 4.414062 -23.96875 5.8125 -23.96875 L 9.171875 -23.96875 C 10.585938 -23.96875 11.660156 -23.601562 12.390625 -22.875 C 13.117188 -22.144531 13.484375 -21.070312 13.484375 -19.65625 L 13.484375 -4.3125 C 13.484375 -2.914062 13.117188 -1.847656 12.390625 -1.109375 C 11.660156 -0.367188 10.585938 0 9.171875 0 L 5.8125 0 C 4.414062 0 3.347656 -0.367188 2.609375 -1.109375 C 1.867188 -1.847656 1.5 -2.914062 1.5 -4.3125 Z M 6.671875 -3.859375 L 8.421875 -3.859375 C 9.210938 -3.859375 9.609375 -4.257812 9.609375 -5.0625 L 9.609375 -18.90625 C 9.609375 -19.695312 9.210938 -20.09375 8.421875 -20.09375 L 6.671875 -20.09375 C 5.878906 -20.09375 5.484375 -19.695312 5.484375 -18.90625 L 5.484375 -5.0625 C 5.484375 -4.257812 5.878906 -3.859375 6.671875 -3.859375 Z M 6.671875 -3.859375 "/></g></g><g style="fill:#000000;fill-opacity:1;"><g transform="translate(204.999762, 380.13697)"><path style="stroke:none" d="M 13.8125 -19.65625 L 13.8125 -12.34375 C 13.8125 -10.34375 13.082031 -9.023438 11.625 -8.390625 L 13.6875 -0.546875 C 13.789062 -0.179688 13.648438 0 13.265625 0 L 10.15625 0 C 9.875 0 9.703125 -0.140625 9.640625 -0.421875 L 7.640625 -8.03125 L 5.578125 -8.03125 L 5.578125 -0.484375 C 5.578125 -0.160156 5.414062 0 5.09375 0 L 1.984375 0 C 1.660156 0 1.5 -0.160156 1.5 -0.484375 L 1.5 -23.484375 C 1.5 -23.804688 1.660156 -23.96875 1.984375 -23.96875 L 9.5 -23.96875 C 10.914062 -23.96875 11.988281 -23.601562 12.71875 -22.875 C 13.445312 -22.144531 13.8125 -21.070312 13.8125 -19.65625 Z M 5.578125 -11.984375 L 8.53125 -11.984375 C 9.332031 -11.984375 9.734375 -12.378906 9.734375 -13.171875 L 9.734375 -18.8125 C 9.734375 -19.613281 9.332031 -20.015625 8.53125 -20.015625 L 5.578125 -20.015625 Z M 5.578125 -11.984375 "/></g></g><g style="fill:#000000;fill-opacity:1;"><g transform="translate(220.30332, 380.13697)"><path style="stroke:none" d="M 1.5 -4.3125 L 1.5 -19.65625 C 1.5 -21.070312 1.867188 -22.144531 2.609375 -22.875 C 3.347656 -23.601562 4.414062 -23.96875 5.8125 -23.96875 L 9.765625 -23.96875 C 11.160156 -23.96875 12.226562 -23.601562 12.96875 -22.875 C 13.707031 -22.144531 14.078125 -21.070312 14.078125 -19.65625 L 14.078125 -16.53125 C 14.078125 -16.21875 13.914062 -16.0625 13.59375 -16.0625 L 10.609375 -16.0625 C 10.285156 -16.0625 10.125 -16.21875 10.125 -16.53125 L 10.125 -18.8125 C 10.125 -19.613281 9.722656 -20.015625 8.921875 -20.015625 L 6.765625 -20.015625 C 5.972656 -20.015625 5.578125 -19.613281 5.578125 -18.8125 L 5.578125 -5.15625 C 5.578125 -4.351562 5.972656 -3.953125 6.765625 -3.953125 L 8.921875 -3.953125 C 9.722656 -3.953125 10.125 -4.351562 10.125 -5.15625 L 10.125 -9.171875 L 8.5625 -9.171875 C 8.25 -9.171875 8.09375 -9.328125 8.09375 -9.640625 L 8.09375 -12.640625 C 8.09375 -12.960938 8.25 -13.125 8.5625 -13.125 L 13.59375 -13.125 C 13.914062 -13.125 14.078125 -12.960938 14.078125 -12.640625 L 14.078125 -4.3125 C 14.078125 -2.914062 13.707031 -1.847656 12.96875 -1.109375 C 12.226562 -0.367188 11.160156 0 9.765625 0 L 5.8125 0 C 4.414062 0 3.347656 -0.367188 2.609375 -1.109375 C 1.867188 -1.847656 1.5 -2.914062 1.5 -4.3125 Z M 1.5 -4.3125 "/></g></g><g style="fill:#000000;fill-opacity:1;"><g transform="translate(235.876414, 380.13697)"><path style="stroke:none" d="M 1.5 -0.59375 L 1.5 -3.359375 C 1.5 -3.753906 1.695312 -3.953125 2.09375 -3.953125 L 4.828125 -3.953125 C 5.222656 -3.953125 5.421875 -3.753906 5.421875 -3.359375 L 5.421875 -0.59375 C 5.421875 -0.195312 5.222656 0 4.828125 0 L 2.09375 0 C 1.695312 0 1.5 -0.195312 1.5 -0.59375 Z M 1.5 -0.59375 "/></g></g><g style="fill:#000000;fill-opacity:1;"><g transform="translate(242.794458, 380.13697)"><path style="stroke:none" d="M 10.125 -23.96875 L 12.875 -23.96875 C 13.039062 -23.96875 13.179688 -23.90625 13.296875 -23.78125 C 13.421875 -23.664062 13.484375 -23.523438 13.484375 -23.359375 L 13.484375 -4.3125 C 13.484375 -2.914062 13.117188 -1.847656 12.390625 -1.109375 C 11.660156 -0.367188 10.585938 0 9.171875 0 L 5.8125 0 C 4.414062 0 3.347656 -0.367188 2.609375 -1.109375 C 1.867188 -1.847656 1.5 -2.914062 1.5 -4.3125 L 1.5 -23.359375 C 1.5 -23.523438 1.554688 -23.664062 1.671875 -23.78125 C 1.796875 -23.90625 1.9375 -23.96875 2.09375 -23.96875 L 4.96875 -23.96875 C 5.132812 -23.96875 5.273438 -23.90625 5.390625 -23.78125 C 5.515625 -23.664062 5.578125 -23.523438 5.578125 -23.359375 L 5.578125 -5.15625 C 5.578125 -4.351562 5.972656 -3.953125 6.765625 -3.953125 L 8.328125 -3.953125 C 9.128906 -3.953125 9.53125 -4.351562 9.53125 -5.15625 L 9.53125 -23.359375 C 9.53125 -23.523438 9.585938 -23.664062 9.703125 -23.78125 C 9.828125 -23.90625 9.96875 -23.96875 10.125 -23.96875 Z M 10.125 -23.96875 "/></g></g><g style="fill:#000000;fill-opacity:1;"><g transform="translate(257.768584, 380.13697)"><path style="stroke:none" d="M 14.3125 0 L 11.140625 0 C 10.804688 0 10.578125 -0.148438 10.453125 -0.453125 L 6.671875 -9.34375 L 5.578125 -7.21875 L 5.578125 -0.59375 C 5.578125 -0.195312 5.375 0 4.96875 0 L 2.09375 0 C 1.695312 0 1.5 -0.195312 1.5 -0.59375 L 1.5 -23.359375 C 1.5 -23.765625 1.695312 -23.96875 2.09375 -23.96875 L 4.96875 -23.96875 C 5.375 -23.96875 5.578125 -23.765625 5.578125 -23.359375 L 5.578125 -14.078125 L 10.1875 -23.515625 C 10.34375 -23.816406 10.570312 -23.96875 10.875 -23.96875 L 14.015625 -23.96875 C 14.234375 -23.96875 14.382812 -23.898438 14.46875 -23.765625 C 14.550781 -23.640625 14.539062 -23.46875 14.4375 -23.25 L 9.34375 -12.796875 L 14.765625 -0.6875 C 14.867188 -0.488281 14.878906 -0.320312 14.796875 -0.1875 C 14.710938 -0.0625 14.550781 0 14.3125 0 Z M 14.3125 0 "/></g></g><g style="fill:#a6a6a6;fill-opacity:1;"><g transform="translate(86.501009, 424.063748)"><path style="stroke:none" d="M 9.421875 -16.4375 L 9.421875 -14.34375 C 9.421875 -14.101562 9.304688 -13.984375 9.078125 -13.984375 L 3.84375 -13.984375 L 3.84375 -9.796875 L 7.84375 -9.796875 C 8.0625 -9.796875 8.171875 -9.675781 8.171875 -9.4375 L 8.171875 -7.359375 C 8.171875 -7.117188 8.0625 -7 7.84375 -7 L 3.84375 -7 L 3.84375 -2.765625 L 9.078125 -2.765625 C 9.304688 -2.765625 9.421875 -2.65625 9.421875 -2.4375 L 9.421875 -0.328125 C 9.421875 -0.109375 9.304688 0 9.078125 0 L 1.359375 0 C 1.148438 0 1.046875 -0.109375 1.046875 -0.328125 L 1.046875 -16.4375 C 1.046875 -16.664062 1.148438 -16.78125 1.359375 -16.78125 L 9.078125 -16.78125 C 9.304688 -16.78125 9.421875 -16.664062 9.421875 -16.4375 Z M 9.421875 -16.4375 "/></g></g><g style="fill:#a6a6a6;fill-opacity:1;"><g transform="translate(96.75235, 424.063748)"><path style="stroke:none" d="M 9.8125 -16.78125 L 12.578125 -16.78125 C 12.859375 -16.78125 13 -16.640625 13 -16.359375 L 13 -0.421875 C 13 -0.140625 12.859375 0 12.578125 0 L 10.625 0 C 10.351562 0 10.21875 -0.140625 10.21875 -0.421875 L 10.21875 -9.859375 L 10.0625 -9.859375 L 7.984375 -0.375 C 7.929688 -0.125 7.78125 0 7.53125 0 L 6.5 0 C 6.257812 0 6.101562 -0.125 6.03125 -0.375 L 3.96875 -9.859375 L 3.8125 -9.859375 L 3.8125 -0.421875 C 3.8125 -0.140625 3.671875 0 3.390625 0 L 1.46875 0 C 1.1875 0 1.046875 -0.140625 1.046875 -0.421875 L 1.046875 -16.359375 C 1.046875 -16.640625 1.1875 -16.78125 1.46875 -16.78125 L 4.234375 -16.78125 C 4.484375 -16.78125 4.640625 -16.648438 4.703125 -16.390625 L 7.03125 -5.953125 L 9.359375 -16.390625 C 9.421875 -16.648438 9.570312 -16.78125 9.8125 -16.78125 Z M 9.8125 -16.78125 "/></g></g><g style="fill:#a6a6a6;fill-opacity:1;"><g transform="translate(110.798144, 424.063748)"><path style="stroke:none" d="M 1.046875 -0.328125 L 1.046875 -16.4375 C 1.046875 -16.664062 1.160156 -16.78125 1.390625 -16.78125 L 6.421875 -16.78125 C 7.410156 -16.78125 8.160156 -16.523438 8.671875 -16.015625 C 9.179688 -15.503906 9.4375 -14.75 9.4375 -13.75 L 9.4375 -8.640625 C 9.4375 -7.660156 9.179688 -6.910156 8.671875 -6.390625 C 8.160156 -5.878906 7.410156 -5.625 6.421875 -5.625 L 3.90625 -5.625 L 3.90625 -0.328125 C 3.90625 -0.109375 3.789062 0 3.5625 0 L 1.390625 0 C 1.160156 0 1.046875 -0.109375 1.046875 -0.328125 Z M 3.90625 -8.390625 L 5.75 -8.390625 C 6.300781 -8.390625 6.578125 -8.664062 6.578125 -9.21875 L 6.578125 -13.171875 C 6.578125 -13.722656 6.300781 -14 5.75 -14 L 3.90625 -14 Z M 3.90625 -8.390625 "/></g></g><g style="fill:#a6a6a6;fill-opacity:1;"><g transform="translate(121.280086, 424.063748)"><path style="stroke:none" d="M 1.046875 -3.015625 L 1.046875 -13.75 C 1.046875 -14.75 1.300781 -15.503906 1.8125 -16.015625 C 2.332031 -16.523438 3.082031 -16.78125 4.0625 -16.78125 L 6.421875 -16.78125 C 7.410156 -16.78125 8.160156 -16.523438 8.671875 -16.015625 C 9.179688 -15.503906 9.4375 -14.75 9.4375 -13.75 L 9.4375 -3.015625 C 9.4375 -2.035156 9.179688 -1.285156 8.671875 -0.765625 C 8.160156 -0.253906 7.410156 0 6.421875 0 L 4.0625 0 C 3.082031 0 2.332031 -0.253906 1.8125 -0.765625 C 1.300781 -1.285156 1.046875 -2.035156 1.046875 -3.015625 Z M 4.671875 -2.703125 L 5.890625 -2.703125 C 6.453125 -2.703125 6.734375 -2.984375 6.734375 -3.546875 L 6.734375 -13.234375 C 6.734375 -13.785156 6.453125 -14.0625 5.890625 -14.0625 L 4.671875 -14.0625 C 4.117188 -14.0625 3.84375 -13.785156 3.84375 -13.234375 L 3.84375 -3.546875 C 3.84375 -2.984375 4.117188 -2.703125 4.671875 -2.703125 Z M 4.671875 -2.703125 "/></g></g><g style="fill:#a6a6a6;fill-opacity:1;"><g transform="translate(131.342753, 424.063748)"><path style="stroke:none" d="M 12.515625 -16.78125 L 14.515625 -16.78125 C 14.804688 -16.78125 14.9375 -16.628906 14.90625 -16.328125 L 13.109375 -0.390625 C 13.085938 -0.128906 12.941406 0 12.671875 0 L 10.609375 0 C 10.367188 0 10.21875 -0.125 10.15625 -0.375 L 7.96875 -9.859375 L 5.765625 -0.359375 C 5.691406 -0.117188 5.539062 0 5.3125 0 L 3.203125 0 C 2.921875 0 2.773438 -0.128906 2.765625 -0.390625 L 1.046875 -16.328125 C 1.015625 -16.628906 1.148438 -16.78125 1.453125 -16.78125 L 3.4375 -16.78125 C 3.707031 -16.78125 3.851562 -16.644531 3.875 -16.375 L 4.703125 -6.5625 L 4.796875 -6.5625 L 6.875 -16.390625 C 6.945312 -16.648438 7.101562 -16.78125 7.34375 -16.78125 L 8.59375 -16.78125 C 8.84375 -16.78125 9 -16.648438 9.0625 -16.390625 L 11.109375 -6.5625 L 11.21875 -6.5625 L 12.078125 -16.375 C 12.109375 -16.644531 12.253906 -16.78125 12.515625 -16.78125 Z M 12.515625 -16.78125 "/></g></g><g style="fill:#a6a6a6;fill-opacity:1;"><g transform="translate(147.296267, 424.063748)"><path style="stroke:none" d="M 9.421875 -16.4375 L 9.421875 -14.34375 C 9.421875 -14.101562 9.304688 -13.984375 9.078125 -13.984375 L 3.84375 -13.984375 L 3.84375 -9.796875 L 7.84375 -9.796875 C 8.0625 -9.796875 8.171875 -9.675781 8.171875 -9.4375 L 8.171875 -7.359375 C 8.171875 -7.117188 8.0625 -7 7.84375 -7 L 3.84375 -7 L 3.84375 -2.765625 L 9.078125 -2.765625 C 9.304688 -2.765625 9.421875 -2.65625 9.421875 -2.4375 L 9.421875 -0.328125 C 9.421875 -0.109375 9.304688 0 9.078125 0 L 1.359375 0 C 1.148438 0 1.046875 -0.109375 1.046875 -0.328125 L 1.046875 -16.4375 C 1.046875 -16.664062 1.148438 -16.78125 1.359375 -16.78125 L 9.078125 -16.78125 C 9.304688 -16.78125 9.421875 -16.664062 9.421875 -16.4375 Z M 9.421875 -16.4375 "/></g></g><g style="fill:#a6a6a6;fill-opacity:1;"><g transform="translate(157.547608, 424.063748)"><path style="stroke:none" d="M 9.671875 -13.75 L 9.671875 -8.640625 C 9.671875 -7.242188 9.160156 -6.320312 8.140625 -5.875 L 9.578125 -0.375 C 9.648438 -0.125 9.554688 0 9.296875 0 L 7.109375 0 C 6.910156 0 6.789062 -0.0976562 6.75 -0.296875 L 5.34375 -5.625 L 3.90625 -5.625 L 3.90625 -0.328125 C 3.90625 -0.109375 3.789062 0 3.5625 0 L 1.390625 0 C 1.160156 0 1.046875 -0.109375 1.046875 -0.328125 L 1.046875 -16.4375 C 1.046875 -16.664062 1.160156 -16.78125 1.390625 -16.78125 L 6.640625 -16.78125 C 7.640625 -16.78125 8.394531 -16.523438 8.90625 -16.015625 C 9.414062 -15.503906 9.671875 -14.75 9.671875 -13.75 Z M 3.90625 -8.390625 L 5.96875 -8.390625 C 6.53125 -8.390625 6.8125 -8.664062 6.8125 -9.21875 L 6.8125 -13.171875 C 6.8125 -13.722656 6.53125 -14 5.96875 -14 L 3.90625 -14 Z M 3.90625 -8.390625 "/></g></g><g style="fill:#a6a6a6;fill-opacity:1;"><g transform="translate(168.26015, 424.063748)"><path style="stroke:none" d="M 1.390625 -16.78125 L 3.5625 -16.78125 C 3.789062 -16.78125 3.90625 -16.664062 3.90625 -16.4375 L 3.90625 -0.328125 C 3.90625 -0.109375 3.789062 0 3.5625 0 L 1.390625 0 C 1.160156 0 1.046875 -0.109375 1.046875 -0.328125 L 1.046875 -16.4375 C 1.046875 -16.664062 1.160156 -16.78125 1.390625 -16.78125 Z M 1.390625 -16.78125 "/></g></g><g style="fill:#a6a6a6;fill-opacity:1;"><g transform="translate(173.207629, 424.063748)"><path style="stroke:none" d="M 7.484375 -16.78125 L 9.671875 -16.78125 C 9.890625 -16.78125 10 -16.664062 10 -16.4375 L 10 -0.328125 C 10 -0.109375 9.890625 0 9.671875 0 L 7.59375 0 C 7.394531 0 7.269531 -0.0859375 7.21875 -0.265625 L 4 -9.21875 L 3.90625 -9.21875 L 3.90625 -0.328125 C 3.90625 -0.109375 3.789062 0 3.5625 0 L 1.390625 0 C 1.160156 0 1.046875 -0.109375 1.046875 -0.328125 L 1.046875 -16.4375 C 1.046875 -16.664062 1.160156 -16.78125 1.390625 -16.78125 L 3.453125 -16.78125 C 3.648438 -16.78125 3.78125 -16.6875 3.84375 -16.5 L 7.03125 -7.59375 L 7.15625 -7.59375 L 7.15625 -16.4375 C 7.15625 -16.664062 7.265625 -16.78125 7.484375 -16.78125 Z M 7.484375 -16.78125 "/></g></g><g style="fill:#a6a6a6;fill-opacity:1;"><g transform="translate(184.255591, 424.063748)"><path style="stroke:none" d="M 1.046875 -3.015625 L 1.046875 -13.75 C 1.046875 -14.75 1.300781 -15.503906 1.8125 -16.015625 C 2.332031 -16.523438 3.082031 -16.78125 4.0625 -16.78125 L 6.828125 -16.78125 C 7.804688 -16.78125 8.554688 -16.523438 9.078125 -16.015625 C 9.597656 -15.503906 9.859375 -14.75 9.859375 -13.75 L 9.859375 -11.578125 C 9.859375 -11.347656 9.742188 -11.234375 9.515625 -11.234375 L 7.421875 -11.234375 C 7.203125 -11.234375 7.09375 -11.347656 7.09375 -11.578125 L 7.09375 -13.171875 C 7.09375 -13.722656 6.8125 -14 6.25 -14 L 4.734375 -14 C 4.179688 -14 3.90625 -13.722656 3.90625 -13.171875 L 3.90625 -3.609375 C 3.90625 -3.046875 4.179688 -2.765625 4.734375 -2.765625 L 6.25 -2.765625 C 6.8125 -2.765625 7.09375 -3.046875 7.09375 -3.609375 L 7.09375 -6.421875 L 6 -6.421875 C 5.769531 -6.421875 5.65625 -6.53125 5.65625 -6.75 L 5.65625 -8.84375 C 5.65625 -9.070312 5.769531 -9.1875 6 -9.1875 L 9.515625 -9.1875 C 9.742188 -9.1875 9.859375 -9.070312 9.859375 -8.84375 L 9.859375 -3.015625 C 9.859375 -2.035156 9.597656 -1.285156 9.078125 -0.765625 C 8.554688 -0.253906 7.804688 0 6.828125 0 L 4.0625 0 C 3.082031 0 2.332031 -0.253906 1.8125 -0.765625 C 1.300781 -1.285156 1.046875 -2.035156 1.046875 -3.015625 Z M 1.046875 -3.015625 "/></g></g><g style="fill:#a6a6a6;fill-opacity:1;"><g transform="translate(195.156807, 424.063748)"><path style="stroke:none" d=""/></g></g><g style="fill:#a6a6a6;fill-opacity:1;"><g transform="translate(200.397778, 424.063748)"><path style="stroke:none" d="M 3.90625 -2.765625 L 3.90625 -16.4375 C 3.90625 -16.664062 3.789062 -16.78125 3.5625 -16.78125 L 1.390625 -16.78125 C 1.160156 -16.78125 1.046875 -16.664062 1.046875 -16.4375 L 1.046875 -0.328125 C 1.046875 -0.109375 1.160156 0 1.390625 0 L 8.890625 0 C 9.109375 0 9.21875 -0.109375 9.21875 -0.328125 L 9.21875 -2.4375 C 9.21875 -2.65625 9.109375 -2.765625 8.890625 -2.765625 Z M 3.90625 -2.765625 "/></g></g><g style="fill:#a6a6a6;fill-opacity:1;"><g transform="translate(210.250809, 424.063748)"><path style="stroke:none" d="M 1.390625 -16.78125 L 3.5625 -16.78125 C 3.789062 -16.78125 3.90625 -16.664062 3.90625 -16.4375 L 3.90625 -0.328125 C 3.90625 -0.109375 3.789062 0 3.5625 0 L 1.390625 0 C 1.160156 0 1.046875 -0.109375 1.046875 -0.328125 L 1.046875 -16.4375 C 1.046875 -16.664062 1.160156 -16.78125 1.390625 -16.78125 Z M 1.390625 -16.78125 "/></g></g><g style="fill:#a6a6a6;fill-opacity:1;"><g transform="translate(215.198288, 424.063748)"><path style="stroke:none" d="M 10.015625 0 L 7.796875 0 C 7.554688 0 7.394531 -0.101562 7.3125 -0.3125 L 4.671875 -6.546875 L 3.90625 -5.046875 L 3.90625 -0.421875 C 3.90625 -0.140625 3.765625 0 3.484375 0 L 1.46875 0 C 1.1875 0 1.046875 -0.140625 1.046875 -0.421875 L 1.046875 -16.359375 C 1.046875 -16.640625 1.1875 -16.78125 1.46875 -16.78125 L 3.484375 -16.78125 C 3.765625 -16.78125 3.90625 -16.640625 3.90625 -16.359375 L 3.90625 -9.859375 L 7.125 -16.453125 C 7.238281 -16.671875 7.398438 -16.78125 7.609375 -16.78125 L 9.8125 -16.78125 C 9.96875 -16.78125 10.070312 -16.734375 10.125 -16.640625 C 10.1875 -16.546875 10.179688 -16.421875 10.109375 -16.265625 L 6.546875 -8.953125 L 10.34375 -0.484375 C 10.40625 -0.335938 10.410156 -0.21875 10.359375 -0.125 C 10.304688 -0.0390625 10.191406 0 10.015625 0 Z M 10.015625 0 "/></g></g><g style="fill:#a6a6a6;fill-opacity:1;"><g transform="translate(226.015649, 424.063748)"><path style="stroke:none" d="M 9.421875 -16.4375 L 9.421875 -14.34375 C 9.421875 -14.101562 9.304688 -13.984375 9.078125 -13.984375 L 3.84375 -13.984375 L 3.84375 -9.796875 L 7.84375 -9.796875 C 8.0625 -9.796875 8.171875 -9.675781 8.171875 -9.4375 L 8.171875 -7.359375 C 8.171875 -7.117188 8.0625 -7 7.84375 -7 L 3.84375 -7 L 3.84375 -2.765625 L 9.078125 -2.765625 C 9.304688 -2.765625 9.421875 -2.65625 9.421875 -2.4375 L 9.421875 -0.328125 C 9.421875 -0.109375 9.304688 0 9.078125 0 L 1.359375 0 C 1.148438 0 1.046875 -0.109375 1.046875 -0.328125 L 1.046875 -16.4375 C 1.046875 -16.664062 1.148438 -16.78125 1.359375 -16.78125 L 9.078125 -16.78125 C 9.304688 -16.78125 9.421875 -16.664062 9.421875 -16.4375 Z M 9.421875 -16.4375 "/></g></g><g style="fill:#a6a6a6;fill-opacity:1;"><g transform="translate(236.476627, 424.063748)"><path style="stroke:none" d=""/></g></g><g style="fill:#a6a6a6;fill-opacity:1;"><g transform="translate(241.717598, 424.063748)"><path style="stroke:none" d="M 9.8125 -16.78125 L 12.578125 -16.78125 C 12.859375 -16.78125 13 -16.640625 13 -16.359375 L 13 -0.421875 C 13 -0.140625 12.859375 0 12.578125 0 L 10.625 0 C 10.351562 0 10.21875 -0.140625 10.21875 -0.421875 L 10.21875 -9.859375 L 10.0625 -9.859375 L 7.984375 -0.375 C 7.929688 -0.125 7.78125 0 7.53125 0 L 6.5 0 C 6.257812 0 6.101562 -0.125 6.03125 -0.375 L 3.96875 -9.859375 L 3.8125 -9.859375 L 3.8125 -0.421875 C 3.8125 -0.140625 3.671875 0 3.390625 0 L 1.46875 0 C 1.1875 0 1.046875 -0.140625 1.046875 -0.421875 L 1.046875 -16.359375 C 1.046875 -16.640625 1.1875 -16.78125 1.46875 -16.78125 L 4.234375 -16.78125 C 4.484375 -16.78125 4.640625 -16.648438 4.703125 -16.390625 L 7.03125 -5.953125 L 9.359375 -16.390625 C 9.421875 -16.648438 9.570312 -16.78125 9.8125 -16.78125 Z M 9.8125 -16.78125 "/></g></g><g style="fill:#a6a6a6;fill-opacity:1;"><g transform="translate(255.763392, 424.063748)"><path style="stroke:none" d="M 1.390625 -16.78125 L 3.5625 -16.78125 C 3.789062 -16.78125 3.90625 -16.664062 3.90625 -16.4375 L 3.90625 -0.328125 C 3.90625 -0.109375 3.789062 0 3.5625 0 L 1.390625 0 C 1.160156 0 1.046875 -0.109375 1.046875 -0.328125 L 1.046875 -16.4375 C 1.046875 -16.664062 1.160156 -16.78125 1.390625 -16.78125 Z M 1.390625 -16.78125 "/></g></g><g style="fill:#a6a6a6;fill-opacity:1;"><g transform="translate(260.710871, 424.063748)"><path style="stroke:none" d="M 7.484375 -16.78125 L 9.671875 -16.78125 C 9.890625 -16.78125 10 -16.664062 10 -16.4375 L 10 -0.328125 C 10 -0.109375 9.890625 0 9.671875 0 L 7.59375 0 C 7.394531 0 7.269531 -0.0859375 7.21875 -0.265625 L 4 -9.21875 L 3.90625 -9.21875 L 3.90625 -0.328125 C 3.90625 -0.109375 3.789062 0 3.5625 0 L 1.390625 0 C 1.160156 0 1.046875 -0.109375 1.046875 -0.328125 L 1.046875 -16.4375 C 1.046875 -16.664062 1.160156 -16.78125 1.390625 -16.78125 L 3.453125 -16.78125 C 3.648438 -16.78125 3.78125 -16.6875 3.84375 -16.5 L 7.03125 -7.59375 L 7.15625 -7.59375 L 7.15625 -16.4375 C 7.15625 -16.664062 7.265625 -16.78125 7.484375 -16.78125 Z M 7.484375 -16.78125 "/></g></g><g style="fill:#a6a6a6;fill-opacity:1;"><g transform="translate(271.758833, 424.063748)"><path style="stroke:none" d="M 1.046875 -0.328125 L 1.046875 -16.4375 C 1.046875 -16.664062 1.160156 -16.78125 1.390625 -16.78125 L 6.421875 -16.78125 C 7.410156 -16.78125 8.160156 -16.519531 8.671875 -16 C 9.179688 -15.476562 9.4375 -14.722656 9.4375 -13.734375 L 9.4375 -3.015625 C 9.4375 -2.035156 9.179688 -1.285156 8.671875 -0.765625 C 8.160156 -0.253906 7.410156 0 6.421875 0 L 1.390625 0 C 1.160156 0 1.046875 -0.109375 1.046875 -0.328125 Z M 3.90625 -2.765625 L 5.828125 -2.765625 C 6.390625 -2.765625 6.671875 -3.046875 6.671875 -3.609375 L 6.671875 -13.140625 C 6.671875 -13.710938 6.390625 -14 5.828125 -14 L 3.90625 -14 Z M 3.90625 -2.765625 "/></g></g><g style="fill:#a6a6a6;fill-opacity:1;"><g transform="translate(282.240786, 424.063748)"><path style="stroke:none" d="M 9.421875 -16.4375 L 9.421875 -14.34375 C 9.421875 -14.101562 9.304688 -13.984375 9.078125 -13.984375 L 3.84375 -13.984375 L 3.84375 -9.796875 L 7.84375 -9.796875 C 8.0625 -9.796875 8.171875 -9.675781 8.171875 -9.4375 L 8.171875 -7.359375 C 8.171875 -7.117188 8.0625 -7 7.84375 -7 L 3.84375 -7 L 3.84375 -2.765625 L 9.078125 -2.765625 C 9.304688 -2.765625 9.421875 -2.65625 9.421875 -2.4375 L 9.421875 -0.328125 C 9.421875 -0.109375 9.304688 0 9.078125 0 L 1.359375 0 C 1.148438 0 1.046875 -0.109375 1.046875 -0.328125 L 1.046875 -16.4375 C 1.046875 -16.664062 1.148438 -16.78125 1.359375 -16.78125 L 9.078125 -16.78125 C 9.304688 -16.78125 9.421875 -16.664062 9.421875 -16.4375 Z M 9.421875 -16.4375 "/></g></g><g style="fill:#a6a6a6;fill-opacity:1;"><g transform="translate(292.492116, 424.063748)"><path style="stroke:none" d="M 1.046875 -0.328125 L 1.046875 -16.4375 C 1.046875 -16.664062 1.160156 -16.78125 1.390625 -16.78125 L 6.421875 -16.78125 C 7.410156 -16.78125 8.160156 -16.519531 8.671875 -16 C 9.179688 -15.476562 9.4375 -14.722656 9.4375 -13.734375 L 9.4375 -3.015625 C 9.4375 -2.035156 9.179688 -1.285156 8.671875 -0.765625 C 8.160156 -0.253906 7.410156 0 6.421875 0 L 1.390625 0 C 1.160156 0 1.046875 -0.109375 1.046875 -0.328125 Z M 3.90625 -2.765625 L 5.828125 -2.765625 C 6.390625 -2.765625 6.671875 -3.046875 6.671875 -3.609375 L 6.671875 -13.140625 C 6.671875 -13.710938 6.390625 -14 5.828125 -14 L 3.90625 -14 Z M 3.90625 -2.765625 "/></g></g><g style="fill:#a6a6a6;fill-opacity:1;"><g transform="translate(302.974057, 424.063748)"><path style="stroke:none" d=""/></g></g><g style="fill:#a6a6a6;fill-opacity:1;"><g transform="translate(308.215028, 424.063748)"><path style="stroke:none" d="M 1.046875 -0.328125 L 1.046875 -16.4375 C 1.046875 -16.664062 1.160156 -16.78125 1.390625 -16.78125 L 6.421875 -16.78125 C 7.410156 -16.78125 8.160156 -16.523438 8.671875 -16.015625 C 9.179688 -15.503906 9.4375 -14.75 9.4375 -13.75 L 9.4375 -8.640625 C 9.4375 -7.660156 9.179688 -6.910156 8.671875 -6.390625 C 8.160156 -5.878906 7.410156 -5.625 6.421875 -5.625 L 3.90625 -5.625 L 3.90625 -0.328125 C 3.90625 -0.109375 3.789062 0 3.5625 0 L 1.390625 0 C 1.160156 0 1.046875 -0.109375 1.046875 -0.328125 Z M 3.90625 -8.390625 L 5.75 -8.390625 C 6.300781 -8.390625 6.578125 -8.664062 6.578125 -9.21875 L 6.578125 -13.171875 C 6.578125 -13.722656 6.300781 -14 5.75 -14 L 3.90625 -14 Z M 3.90625 -8.390625 "/></g></g><g style="fill:#a6a6a6;fill-opacity:1;"><g transform="translate(318.69697, 424.063748)"><path style="stroke:none" d="M 9.421875 -16.4375 L 9.421875 -14.34375 C 9.421875 -14.101562 9.304688 -13.984375 9.078125 -13.984375 L 3.84375 -13.984375 L 3.84375 -9.796875 L 7.84375 -9.796875 C 8.0625 -9.796875 8.171875 -9.675781 8.171875 -9.4375 L 8.171875 -7.359375 C 8.171875 -7.117188 8.0625 -7 7.84375 -7 L 3.84375 -7 L 3.84375 -2.765625 L 9.078125 -2.765625 C 9.304688 -2.765625 9.421875 -2.65625 9.421875 -2.4375 L 9.421875 -0.328125 C 9.421875 -0.109375 9.304688 0 9.078125 0 L 1.359375 0 C 1.148438 0 1.046875 -0.109375 1.046875 -0.328125 L 1.046875 -16.4375 C 1.046875 -16.664062 1.148438 -16.78125 1.359375 -16.78125 L 9.078125 -16.78125 C 9.304688 -16.78125 9.421875 -16.664062 9.421875 -16.4375 Z M 9.421875 -16.4375 "/></g></g><g style="fill:#a6a6a6;fill-opacity:1;"><g transform="translate(329.157937, 424.063748)"><path style="stroke:none" d="M 1.046875 -3.015625 L 1.046875 -13.75 C 1.046875 -14.75 1.300781 -15.503906 1.8125 -16.015625 C 2.332031 -16.523438 3.082031 -16.78125 4.0625 -16.78125 L 6.421875 -16.78125 C 7.410156 -16.78125 8.160156 -16.523438 8.671875 -16.015625 C 9.179688 -15.503906 9.4375 -14.75 9.4375 -13.75 L 9.4375 -3.015625 C 9.4375 -2.035156 9.179688 -1.285156 8.671875 -0.765625 C 8.160156 -0.253906 7.410156 0 6.421875 0 L 4.0625 0 C 3.082031 0 2.332031 -0.253906 1.8125 -0.765625 C 1.300781 -1.285156 1.046875 -2.035156 1.046875 -3.015625 Z M 4.671875 -2.703125 L 5.890625 -2.703125 C 6.453125 -2.703125 6.734375 -2.984375 6.734375 -3.546875 L 6.734375 -13.234375 C 6.734375 -13.785156 6.453125 -14.0625 5.890625 -14.0625 L 4.671875 -14.0625 C 4.117188 -14.0625 3.84375 -13.785156 3.84375 -13.234375 L 3.84375 -3.546875 C 3.84375 -2.984375 4.117188 -2.703125 4.671875 -2.703125 Z M 4.671875 -2.703125 "/></g></g><g style="fill:#a6a6a6;fill-opacity:1;"><g transform="translate(339.639879, 424.063748)"><path style="stroke:none" d="M 1.046875 -0.328125 L 1.046875 -16.4375 C 1.046875 -16.664062 1.160156 -16.78125 1.390625 -16.78125 L 6.421875 -16.78125 C 7.410156 -16.78125 8.160156 -16.523438 8.671875 -16.015625 C 9.179688 -15.503906 9.4375 -14.75 9.4375 -13.75 L 9.4375 -8.640625 C 9.4375 -7.660156 9.179688 -6.910156 8.671875 -6.390625 C 8.160156 -5.878906 7.410156 -5.625 6.421875 -5.625 L 3.90625 -5.625 L 3.90625 -0.328125 C 3.90625 -0.109375 3.789062 0 3.5625 0 L 1.390625 0 C 1.160156 0 1.046875 -0.109375 1.046875 -0.328125 Z M 3.90625 -8.390625 L 5.75 -8.390625 C 6.300781 -8.390625 6.578125 -8.664062 6.578125 -9.21875 L 6.578125 -13.171875 C 6.578125 -13.722656 6.300781 -14 5.75 -14 L 3.90625 -14 Z M 3.90625 -8.390625 "/></g></g><g style="fill:#a6a6a6;fill-opacity:1;"><g transform="translate(350.12182, 424.063748)"><path style="stroke:none" d="M 3.90625 -2.765625 L 3.90625 -16.4375 C 3.90625 -16.664062 3.789062 -16.78125 3.5625 -16.78125 L 1.390625 -16.78125 C 1.160156 -16.78125 1.046875 -16.664062 1.046875 -16.4375 L 1.046875 -0.328125 C 1.046875 -0.109375 1.160156 0 1.390625 0 L 8.890625 0 C 9.109375 0 9.21875 -0.109375 9.21875 -0.328125 L 9.21875 -2.4375 C 9.21875 -2.65625 9.109375 -2.765625 8.890625 -2.765625 Z M 3.90625 -2.765625 "/></g></g><g style="fill:#a6a6a6;fill-opacity:1;"><g transform="translate(359.974874, 424.063748)"><path style="stroke:none" d="M 9.421875 -16.4375 L 9.421875 -14.34375 C 9.421875 -14.101562 9.304688 -13.984375 9.078125 -13.984375 L 3.84375 -13.984375 L 3.84375 -9.796875 L 7.84375 -9.796875 C 8.0625 -9.796875 8.171875 -9.675781 8.171875 -9.4375 L 8.171875 -7.359375 C 8.171875 -7.117188 8.0625 -7 7.84375 -7 L 3.84375 -7 L 3.84375 -2.765625 L 9.078125 -2.765625 C 9.304688 -2.765625 9.421875 -2.65625 9.421875 -2.4375 L 9.421875 -0.328125 C 9.421875 -0.109375 9.304688 0 9.078125 0 L 1.359375 0 C 1.148438 0 1.046875 -0.109375 1.046875 -0.328125 L 1.046875 -16.4375 C 1.046875 -16.664062 1.148438 -16.78125 1.359375 -16.78125 L 9.078125 -16.78125 C 9.304688 -16.78125 9.421875 -16.664062 9.421875 -16.4375 Z M 9.421875 -16.4375 "/></g></g><g clip-rule="nonzero" clip-path="url(#9a6d67e7c8)"><g clip-rule="nonzero" clip-path="url(#25cb3f2bd9)"><path style="fill:none;stroke-width:8;stroke-linecap:butt;stroke-linejoin:miter;stroke:#000000;stroke-opacity:1;stroke-miterlimit:4;" d="M 320.709426 88.722351 L 503.044638 439.457289 C 512.832347 458.276195 512.086269 480.841142 501.072488 498.976578 C 490.063923 517.106796 470.389376 528.177968 449.175717 528.177968 L 99.995543 528.177968 C 78.781883 528.177968 59.107336 517.106796 48.098772 498.976578 C 37.090208 480.841142 36.338912 458.276195 46.126621 439.457289 L 228.461833 88.722351 C 237.409552 71.5156 255.190209 60.71573 274.588238 60.71573 C 293.98105 60.71573 311.766924 71.5156 320.709426 88.722351 Z M 320.709426 88.722351 " transform="matrix(0.748707,0,0,0.748707,0.0232755,0.00265389)"/></g></g></g></svg>