<svg xmlns="http://www.w3.org/2000/svg" xmlns:xlink="http://www.w3.org/1999/xlink" width="549" zoomAndPan="magnify" viewBox="0 0 411.75 356.250003" height="475" preserveAspectRatio="xMidYMid meet" version="1.2"><defs><clipPath id="fb1130ad4e"><path d="M 58 43 L 349.980469 43 L 349.980469 309.414062 L 58 309.414062 Z M 58 43 "/></clipPath><clipPath id="9d313ada8f"><path d="M 241.210938 64.980469 L 343.753906 244.433594 C 351.4375 257.875 351.382812 274.390625 343.609375 287.78125 C 335.839844 301.171875 321.527344 309.414062 306.042969 309.414062 L 102.113281 309.414062 C 86.632812 309.414062 72.320312 301.171875 64.546875 287.78125 C 56.777344 274.390625 56.722656 257.875 64.402344 244.433594 L 166.945312 64.980469 C 174.5625 51.65625 188.730469 43.433594 204.078125 43.433594 C 219.425781 43.433594 233.597656 51.65625 241.210938 64.980469 Z M 241.210938 64.980469 "/></clipPath><clipPath id="009ff4871b"><path d="M 0 0.347656 L 291.980469 0.347656 L 291.980469 266.414062 L 0 266.414062 Z M 0 0.347656 "/></clipPath><clipPath id="e85a048106"><path d="M 183.210938 21.980469 L 285.753906 201.433594 C 293.4375 214.875 293.382812 231.390625 285.609375 244.78125 C 277.839844 258.171875 263.527344 266.414062 248.042969 266.414062 L 44.113281 266.414062 C 28.632812 266.414062 14.320312 258.171875 6.546875 244.78125 C -1.222656 231.390625 -1.277344 214.875 6.402344 201.433594 L 108.945312 21.980469 C 116.5625 8.65625 130.730469 0.433594 146.078125 0.433594 C 161.425781 0.433594 175.597656 8.65625 183.210938 21.980469 Z M 183.210938 21.980469 "/></clipPath><clipPath id="168a6053fe"><rect x="0" width="292" y="0" height="267"/></clipPath><clipPath id="45ebfb6a73"><path d="M 58 43 L 350 43 L 350 309.097656 L 58 309.097656 Z M 58 43 "/></clipPath><clipPath id="32799b4f76"><path d="M 241.207031 64.980469 L 343.746094 244.425781 C 351.425781 257.867188 351.371094 274.378906 343.601562 287.769531 C 335.832031 301.160156 321.519531 309.402344 306.035156 309.402344 L 102.113281 309.402344 C 86.632812 309.402344 72.320312 301.160156 64.550781 287.769531 C 56.777344 274.378906 56.722656 257.867188 64.402344 244.425781 L 166.945312 64.980469 C 174.558594 51.65625 188.726562 43.429688 204.074219 43.429688 C 219.421875 43.429688 233.59375 51.65625 241.207031 64.980469 Z M 241.207031 64.980469 "/></clipPath><clipPath id="bc63a1c3c9"><path d="M 157 140.308594 L 204 140.308594 L 204 210 L 157 210 Z M 157 140.308594 "/></clipPath><clipPath id="4d8893bf92"><path d="M 187 140.308594 L 251.148438 140.308594 L 251.148438 211 L 187 211 Z M 187 140.308594 "/></clipPath><clipPath id="f9a46a15cd"><path d="M 191 275 L 219 275 L 219 287 L 191 287 Z M 191 275 "/></clipPath><clipPath id="ff71cb50c3"><path d="M 202 113.042969 L 205 113.042969 L 205 131 L 202 131 Z M 202 113.042969 "/></clipPath><clipPath id="74a7daeed2"><path d="M 127.785156 174 L 145 174 L 145 180 L 127.785156 180 Z M 127.785156 174 "/></clipPath><clipPath id="0d82a54f35"><path d="M 127.785156 198 L 145 198 L 145 203 L 127.785156 203 Z M 127.785156 198 "/></clipPath><clipPath id="443cbc66ad"><path d="M 263 175 L 280.460938 175 L 280.460938 181 L 263 181 Z M 263 175 "/></clipPath><clipPath id="ff3d0756d8"><path d="M 263 199 L 280.460938 199 L 280.460938 205 L 263 205 Z M 263 199 "/></clipPath><clipPath id="c2b68a940a"><path d="M 256 219 L 272 219 L 272 229.050781 L 256 229.050781 Z M 256 219 "/></clipPath></defs><g id="707b399577"><g clip-rule="nonzero" clip-path="url(#fb1130ad4e)"><g clip-rule="nonzero" clip-path="url(#9d313ada8f)"><g transform="matrix(1,0,0,1,58,43)"><g clip-path="url(#168a6053fe)"><g clip-rule="nonzero" clip-path="url(#009ff4871b)"><g clip-rule="nonzero" clip-path="url(#e85a048106)"><path style=" stroke:none;fill-rule:nonzero;fill:#ffffff;fill-opacity:1;" d="M -30.726562 -43 L 323.40625 -43 L 323.40625 266.414062 L -30.726562 266.414062 Z M -30.726562 -43 "/></g></g></g></g></g></g><g clip-rule="nonzero" clip-path="url(#45ebfb6a73)"><g clip-rule="nonzero" clip-path="url(#32799b4f76)"><path style="fill:none;stroke-width:8;stroke-linecap:butt;stroke-linejoin:miter;stroke:#000000;stroke-opacity:1;stroke-miterlimit:4;" d="M 285.845618 86.823016 L 422.852201 326.587147 C 433.113342 344.546753 433.040272 366.608727 422.659087 384.500482 C 412.277903 402.392237 393.154393 413.404957 372.465094 413.404957 L 99.99684 413.404957 C 79.31276 413.404957 60.189251 402.392237 49.808066 384.500482 C 39.421662 366.608727 39.348592 344.546753 49.609733 326.587147 L 186.621536 86.823016 C 196.793948 69.019989 215.724344 58.028146 236.230967 58.028146 C 256.737591 58.028146 275.673205 69.019989 285.845618 86.823016 Z M 285.845618 86.823016 " transform="matrix(0.748424,0,0,0.748424,27.273212,0.00000997899)"/></g></g><path style=" stroke:none;fill-rule:evenodd;fill:#ff66c4;fill-opacity:1;" d="M 163.773438 213.488281 C 160.203125 206.800781 158.027344 199.515625 157.304688 192.074219 L 169.792969 192.210938 C 170.78125 195.703125 167.28125 199.683594 167.738281 204.027344 C 168.15625 208.132812 171.261719 210.628906 175.195312 210.734375 C 189.792969 211.113281 180.082031 195.195312 183.0625 192.347656 C 185.246094 191.351562 199.9375 191.914062 203.527344 192.027344 L 203.320312 211.523438 C 198.640625 213.488281 195.871094 209.875 190.925781 211.667969 C 183.238281 214.457031 184.257812 229.882812 192.804688 230.09375 C 197.5625 230.214844 199.449219 226.273438 202.171875 227.4375 C 204.722656 228.535156 203.519531 243.535156 203.535156 249.332031 C 196.085938 249.316406 188.640625 248.984375 181.199219 248.335938 C 182.996094 227.53125 172.066406 227.421875 163.773438 213.488281 Z M 163.773438 213.488281 "/><g clip-rule="nonzero" clip-path="url(#bc63a1c3c9)"><path style=" stroke:none;fill-rule:evenodd;fill:#2097d6;fill-opacity:1;" d="M 157.171875 190.398438 C 156.855469 185.648438 157.128906 180.847656 158.019531 176.105469 C 158.34375 174.8125 158.726562 173.542969 159.144531 172.292969 C 160.5 168.808594 162.636719 163.703125 165.386719 160.15625 C 173.929688 148.175781 187.820312 140.550781 203.175781 140.308594 C 203.527344 164.652344 198.597656 147.636719 190.324219 150.886719 C 183.703125 153.480469 183.847656 169.457031 191.90625 171.054688 C 198.03125 172.269531 197.347656 166.167969 203.175781 167.789062 C 204.167969 170.992188 203.535156 185.636719 203.527344 190.382812 L 182.507812 190.636719 C 179.183594 194.074219 181.992188 198.238281 182.234375 202.558594 C 182.75 211.921875 167.84375 211.34375 169.257812 201.625 C 169.828125 197.683594 172.851562 194.5 170.75 190.40625 Z M 157.171875 190.398438 "/></g><path style=" stroke:none;fill-rule:evenodd;fill:#fada09;fill-opacity:1;" d="M 250.871094 191.96875 C 250.085938 201.160156 246.914062 210.085938 241.546875 217.820312 C 231.246094 229.21875 225.726562 230.863281 227.027344 248.335938 C 219.667969 248.976562 212.308594 249.308594 204.949219 249.332031 C 204.996094 245.558594 205.378906 230.613281 204.769531 228.101562 C 203.214844 221.691406 195.621094 229.820312 191.222656 228.191406 C 186.625 226.488281 185.863281 217.285156 189.53125 214.210938 C 194.570312 209.996094 200.125 216.34375 204.9375 212.644531 L 204.996094 192.003906 L 218.308594 191.664062 C 225.871094 192.164062 218.671875 198.414062 218.078125 202.25 C 216.722656 210.992188 226.320312 213.726562 233.109375 211.222656 C 242.066406 207.917969 233.710938 201.964844 234.722656 197.1875 C 236.128906 190.503906 244.996094 191.441406 250.871094 191.96875 Z M 250.871094 191.96875 "/><g clip-rule="nonzero" clip-path="url(#4d8893bf92)"><path style=" stroke:none;fill-rule:evenodd;fill:#52ae4c;fill-opacity:1;" d="M 204.496094 140.308594 C 225.957031 140.566406 244.59375 155.246094 249.835938 176.105469 C 250.863281 180.800781 251.238281 185.574219 250.984375 190.285156 C 246.273438 190.550781 239.472656 189.074219 236.375 191.882812 C 226.996094 200.351562 242.820312 207.855469 230.855469 210.214844 C 222.347656 211.898438 216.785156 206.425781 220.550781 199.910156 C 222.28125 196.914062 223.886719 195.0625 222.980469 191.617188 C 221.769531 189.203125 211.167969 190.621094 204.941406 190.222656 C 205.011719 185.789062 205.5 172.492188 204.914062 168.929688 C 204.417969 165.953125 201.28125 164.917969 198.597656 166.617188 C 196.648438 167.835938 195.179688 170.484375 191.558594 169.339844 C 186.921875 167.878906 185.695312 158.65625 188.621094 154.128906 C 193.621094 146.382812 204.351562 164.964844 204.546875 147.027344 C 204.578125 143.898438 204.433594 141.761719 204.496094 140.308594 Z M 204.496094 140.308594 "/></g><path style=" stroke:none;fill-rule:evenodd;fill:#f6a32a;fill-opacity:1;" d="M 184.265625 252.957031 L 224.828125 252.957031 C 225.273438 252.957031 225.703125 253.023438 226.113281 253.15625 C 226.523438 253.289062 226.886719 253.476562 227.203125 253.726562 C 227.515625 253.972656 227.757812 254.253906 227.929688 254.578125 C 228.101562 254.898438 228.183594 255.234375 228.183594 255.582031 C 228.183594 255.929688 228.101562 256.265625 227.929688 256.585938 C 227.757812 256.90625 227.515625 257.191406 227.203125 257.4375 C 226.886719 257.683594 226.523438 257.875 226.113281 258.007812 C 225.703125 258.140625 225.273438 258.207031 224.828125 258.207031 L 184.265625 258.207031 C 183.820312 258.207031 183.394531 258.140625 182.980469 258.007812 C 182.570312 257.875 182.207031 257.683594 181.894531 257.4375 C 181.578125 257.191406 181.335938 256.90625 181.164062 256.585938 C 180.996094 256.265625 180.910156 255.929688 180.910156 255.582031 C 180.910156 255.234375 180.996094 254.898438 181.164062 254.578125 C 181.335938 254.253906 181.578125 253.972656 181.894531 253.726562 C 182.207031 253.476562 182.570312 253.289062 182.980469 253.15625 C 183.394531 253.023438 183.820312 252.957031 184.265625 252.957031 Z M 184.265625 252.957031 "/><path style=" stroke:none;fill-rule:evenodd;fill:#f6a32a;fill-opacity:1;" d="M 186.449219 260.398438 L 222.636719 260.398438 C 223.035156 260.398438 223.414062 260.464844 223.78125 260.597656 C 224.148438 260.730469 224.472656 260.921875 224.753906 261.167969 C 225.03125 261.414062 225.25 261.699219 225.398438 262.019531 C 225.550781 262.339844 225.628906 262.675781 225.628906 263.023438 C 225.628906 263.371094 225.550781 263.707031 225.398438 264.027344 C 225.25 264.351562 225.03125 264.632812 224.753906 264.878906 C 224.472656 265.125 224.148438 265.316406 223.78125 265.449219 C 223.414062 265.582031 223.035156 265.648438 222.636719 265.648438 L 186.449219 265.648438 C 186.054688 265.648438 185.671875 265.582031 185.304688 265.449219 C 184.9375 265.316406 184.617188 265.125 184.335938 264.878906 C 184.054688 264.632812 183.839844 264.351562 183.6875 264.027344 C 183.535156 263.707031 183.460938 263.371094 183.460938 263.023438 C 183.460938 262.675781 183.535156 262.339844 183.6875 262.019531 C 183.839844 261.699219 184.054688 261.414062 184.335938 261.167969 C 184.617188 260.921875 184.9375 260.730469 185.304688 260.597656 C 185.671875 260.464844 186.054688 260.398438 186.449219 260.398438 Z M 186.449219 260.398438 "/><path style=" stroke:none;fill-rule:evenodd;fill:#f6a32a;fill-opacity:1;" d="M 189.714844 267.839844 L 219.378906 267.839844 C 219.707031 267.839844 220.019531 267.90625 220.320312 268.042969 C 220.621094 268.175781 220.886719 268.363281 221.117188 268.609375 C 221.347656 268.855469 221.527344 269.140625 221.652344 269.460938 C 221.777344 269.785156 221.839844 270.117188 221.839844 270.46875 C 221.839844 270.816406 221.777344 271.148438 221.652344 271.472656 C 221.527344 271.792969 221.347656 272.078125 221.117188 272.324219 C 220.886719 272.570312 220.621094 272.757812 220.320312 272.890625 C 220.019531 273.027344 219.707031 273.09375 219.378906 273.09375 L 189.714844 273.09375 C 189.390625 273.09375 189.074219 273.027344 188.773438 272.890625 C 188.472656 272.757812 188.207031 272.570312 187.976562 272.324219 C 187.746094 272.078125 187.570312 271.792969 187.445312 271.472656 C 187.320312 271.148438 187.257812 270.816406 187.257812 270.46875 C 187.257812 270.117188 187.320312 269.785156 187.445312 269.460938 C 187.570312 269.140625 187.746094 268.855469 187.976562 268.609375 C 188.207031 268.363281 188.472656 268.175781 188.773438 268.042969 C 189.074219 267.90625 189.390625 267.839844 189.714844 267.839844 Z M 189.714844 267.839844 "/><g clip-rule="nonzero" clip-path="url(#f9a46a15cd)"><path style=" stroke:none;fill-rule:evenodd;fill:#f6a32a;fill-opacity:1;" d="M 218.011719 275.0625 C 217.21875 281.796875 211.496094 287.027344 204.546875 287.027344 C 197.597656 287.027344 191.875 281.796875 191.085938 275.0625 Z M 218.011719 275.0625 "/></g><g clip-rule="nonzero" clip-path="url(#ff71cb50c3)"><path style=" stroke:none;fill-rule:nonzero;fill:#000000;fill-opacity:1;" d="M 203.371094 113.042969 C 202.800781 113.042969 202.335938 113.507812 202.335938 114.078125 L 202.335938 129.160156 C 202.335938 129.730469 202.800781 130.195312 203.371094 130.195312 C 203.945312 130.195312 204.410156 129.730469 204.410156 129.160156 L 204.410156 114.078125 C 204.410156 113.507812 203.945312 113.042969 203.371094 113.042969 Z M 203.371094 113.042969 "/></g><path style=" stroke:none;fill-rule:nonzero;fill:#000000;fill-opacity:1;" d="M 178.589844 118.152344 C 178.394531 117.617188 177.800781 117.339844 177.261719 117.535156 C 176.722656 117.730469 176.445312 118.324219 176.640625 118.859375 L 181.808594 133.03125 C 181.964844 133.453125 182.359375 133.714844 182.785156 133.714844 C 182.902344 133.714844 183.023438 133.695312 183.140625 133.652344 C 183.675781 133.457031 183.953125 132.863281 183.757812 132.324219 Z M 178.589844 118.152344 "/><path style=" stroke:none;fill-rule:nonzero;fill:#000000;fill-opacity:1;" d="M 155.726562 130.796875 C 155.355469 130.359375 154.703125 130.300781 154.265625 130.667969 C 153.824219 131.035156 153.769531 131.6875 154.136719 132.125 L 163.847656 143.679688 C 164.054688 143.921875 164.347656 144.046875 164.644531 144.046875 C 164.878906 144.046875 165.117188 143.96875 165.308594 143.804688 C 165.75 143.4375 165.804688 142.785156 165.4375 142.347656 Z M 155.726562 130.796875 "/><path style=" stroke:none;fill-rule:nonzero;fill:#000000;fill-opacity:1;" d="M 151.65625 158.019531 L 138.570312 150.480469 C 138.074219 150.195312 137.441406 150.363281 137.152344 150.859375 C 136.867188 151.355469 137.039062 151.988281 137.535156 152.273438 L 150.621094 159.8125 C 150.78125 159.90625 150.960938 159.953125 151.136719 159.953125 C 151.496094 159.953125 151.84375 159.765625 152.035156 159.433594 C 152.324219 158.941406 152.152344 158.308594 151.65625 158.019531 Z M 151.65625 158.019531 "/><g clip-rule="nonzero" clip-path="url(#74a7daeed2)"><path style=" stroke:none;fill-rule:nonzero;fill:#000000;fill-opacity:1;" d="M 128.835938 176.875 L 143.71875 179.492188 C 143.777344 179.503906 143.839844 179.507812 143.898438 179.507812 C 144.390625 179.507812 144.828125 179.15625 144.917969 178.652344 C 145.019531 178.089844 144.640625 177.554688 144.078125 177.453125 L 129.195312 174.835938 C 128.632812 174.734375 128.09375 175.113281 127.996094 175.675781 C 127.894531 176.238281 128.273438 176.773438 128.835938 176.875 Z M 128.835938 176.875 "/></g><g clip-rule="nonzero" clip-path="url(#0d82a54f35)"><path style=" stroke:none;fill-rule:nonzero;fill:#000000;fill-opacity:1;" d="M 144.816406 199.140625 C 144.714844 198.578125 144.179688 198.203125 143.613281 198.300781 L 128.734375 200.921875 C 128.167969 201.019531 127.792969 201.558594 127.890625 202.121094 C 127.980469 202.621094 128.417969 202.976562 128.914062 202.976562 C 128.972656 202.976562 129.03125 202.96875 129.09375 202.960938 L 143.972656 200.339844 C 144.539062 200.242188 144.914062 199.703125 144.816406 199.140625 Z M 144.816406 199.140625 "/></g><path style=" stroke:none;fill-rule:nonzero;fill:#000000;fill-opacity:1;" d="M 150.324219 218.050781 L 137.238281 225.589844 C 136.742188 225.878906 136.570312 226.511719 136.859375 227.003906 C 137.050781 227.335938 137.398438 227.523438 137.757812 227.523438 C 137.933594 227.523438 138.109375 227.476562 138.273438 227.382812 L 151.359375 219.84375 C 151.855469 219.558594 152.027344 218.925781 151.738281 218.429688 C 151.453125 217.933594 150.816406 217.765625 150.324219 218.050781 Z M 150.324219 218.050781 "/><path style=" stroke:none;fill-rule:nonzero;fill:#000000;fill-opacity:1;" d="M 229.90625 117.503906 C 229.367188 117.308594 228.773438 117.585938 228.578125 118.125 L 223.410156 132.292969 C 223.214844 132.832031 223.492188 133.425781 224.027344 133.621094 C 224.144531 133.664062 224.265625 133.683594 224.382812 133.683594 C 224.808594 133.683594 225.207031 133.421875 225.359375 133.003906 L 230.527344 118.832031 C 230.722656 118.292969 230.445312 117.699219 229.90625 117.503906 Z M 229.90625 117.503906 "/><path style=" stroke:none;fill-rule:nonzero;fill:#000000;fill-opacity:1;" d="M 251.851562 130.882812 L 242.136719 142.433594 C 241.769531 142.871094 241.828125 143.523438 242.265625 143.890625 C 242.460938 144.054688 242.695312 144.132812 242.933594 144.132812 C 243.226562 144.132812 243.523438 144.007812 243.726562 143.765625 L 253.441406 132.210938 C 253.808594 131.773438 253.75 131.121094 253.3125 130.753906 C 252.875 130.386719 252.21875 130.445312 251.851562 130.882812 Z M 251.851562 130.882812 "/><path style=" stroke:none;fill-rule:nonzero;fill:#000000;fill-opacity:1;" d="M 257.300781 160.148438 L 270.386719 152.609375 C 270.882812 152.324219 271.050781 151.691406 270.765625 151.195312 C 270.480469 150.699219 269.84375 150.53125 269.347656 150.816406 L 256.261719 158.355469 C 255.765625 158.640625 255.597656 159.273438 255.882812 159.769531 C 256.074219 160.101562 256.425781 160.289062 256.78125 160.289062 C 256.957031 160.289062 257.136719 160.242188 257.300781 160.148438 Z M 257.300781 160.148438 "/><g clip-rule="nonzero" clip-path="url(#443cbc66ad)"><path style=" stroke:none;fill-rule:nonzero;fill:#000000;fill-opacity:1;" d="M 263.238281 179.339844 C 263.328125 179.839844 263.765625 180.195312 264.257812 180.195312 C 264.320312 180.195312 264.378906 180.1875 264.441406 180.179688 L 279.320312 177.558594 C 279.882812 177.460938 280.261719 176.921875 280.160156 176.359375 C 280.0625 175.796875 279.527344 175.421875 278.960938 175.519531 L 264.078125 178.140625 C 263.515625 178.238281 263.140625 178.777344 263.238281 179.339844 Z M 263.238281 179.339844 "/></g><g clip-rule="nonzero" clip-path="url(#ff3d0756d8)"><path style=" stroke:none;fill-rule:nonzero;fill:#000000;fill-opacity:1;" d="M 279.527344 202.015625 L 264.644531 199.398438 C 264.082031 199.300781 263.542969 199.675781 263.445312 200.238281 C 263.34375 200.800781 263.722656 201.335938 264.285156 201.4375 L 279.164062 204.054688 C 279.226562 204.066406 279.289062 204.070312 279.347656 204.070312 C 279.839844 204.070312 280.277344 203.71875 280.367188 203.214844 C 280.464844 202.652344 280.089844 202.117188 279.527344 202.015625 Z M 279.527344 202.015625 "/></g><g clip-rule="nonzero" clip-path="url(#c2b68a940a)"><path style=" stroke:none;fill-rule:nonzero;fill:#000000;fill-opacity:1;" d="M 270.976562 227.109375 L 257.894531 219.566406 C 257.398438 219.28125 256.761719 219.453125 256.476562 219.945312 C 256.191406 220.441406 256.359375 221.074219 256.855469 221.359375 L 269.941406 228.902344 C 270.105469 228.996094 270.28125 229.039062 270.457031 229.039062 C 270.816406 229.039062 271.164062 228.855469 271.359375 228.523438 C 271.644531 228.027344 271.472656 227.394531 270.976562 227.109375 Z M 270.976562 227.109375 "/></g><g style="fill:#000000;fill-opacity:1;"><g transform="translate(54.82845, 236.207556)"><path style="stroke:none" d="M -10.40625 -21.4375 L -5.609375 -18.71875 C -5.128906 -18.4375 -4.8125 -18.046875 -4.65625 -17.546875 C -4.5 -17.046875 -4.515625 -16.535156 -4.703125 -16.015625 L -4.640625 -15.984375 C -4.304688 -16.421875 -3.878906 -16.695312 -3.359375 -16.8125 C -2.847656 -16.9375 -2.347656 -16.859375 -1.859375 -16.578125 L 2.921875 -13.859375 C 4.140625 -13.171875 4.882812 -12.320312 5.15625 -11.3125 C 5.4375 -10.3125 5.226562 -9.191406 4.53125 -7.953125 L 0.96875 -1.71875 C 0.8125 -1.4375 0.59375 -1.375 0.3125 -1.53125 L -19.671875 -12.890625 C -19.953125 -13.046875 -20.015625 -13.265625 -19.859375 -13.546875 L -16.296875 -19.78125 C -15.597656 -21.019531 -14.75 -21.78125 -13.75 -22.0625 C -12.75 -22.34375 -11.632812 -22.132812 -10.40625 -21.4375 Z M -8.453125 -15.734375 L -11.640625 -17.546875 C -12.335938 -17.941406 -12.882812 -17.796875 -13.28125 -17.109375 L -14.625 -14.734375 L -9.359375 -11.75 L -8.015625 -14.125 C -7.617188 -14.8125 -7.765625 -15.347656 -8.453125 -15.734375 Z M 0.21875 -10.8125 L -2.9375 -12.609375 C -3.632812 -13.003906 -4.179688 -12.859375 -4.578125 -12.171875 L -5.921875 -9.796875 L -0.671875 -6.8125 L 0.671875 -9.1875 C 1.066406 -9.875 0.914062 -10.414062 0.21875 -10.8125 Z M 0.21875 -10.8125 "/></g></g><g style="fill:#000000;fill-opacity:1;"><g transform="translate(64.575724, 219.055234)"><path style="stroke:none" d="M -19.859375 -13.546875 L -18.3125 -16.25 C -18.15625 -16.53125 -17.9375 -16.59375 -17.65625 -16.4375 L 2.328125 -5.078125 C 2.609375 -4.921875 2.671875 -4.703125 2.515625 -4.421875 L 0.96875 -1.71875 C 0.8125 -1.4375 0.59375 -1.375 0.3125 -1.53125 L -19.671875 -12.890625 C -19.953125 -13.046875 -20.015625 -13.265625 -19.859375 -13.546875 Z M -19.859375 -13.546875 "/></g></g><g style="fill:#000000;fill-opacity:1;"><g transform="translate(70.40338, 208.800282)"><path style="stroke:none" d="M -10.265625 -21.703125 L -3.90625 -18.09375 C -2.175781 -17.101562 -1.390625 -15.816406 -1.546875 -14.234375 L 6.296875 -12.171875 C 6.648438 -12.066406 6.734375 -11.851562 6.546875 -11.53125 L 5.015625 -8.828125 C 4.878906 -8.585938 4.675781 -8.503906 4.40625 -8.578125 L -3.1875 -10.59375 L -4.21875 -8.796875 L 2.328125 -5.078125 C 2.609375 -4.921875 2.671875 -4.703125 2.515625 -4.421875 L 0.96875 -1.71875 C 0.8125 -1.4375 0.59375 -1.375 0.3125 -1.53125 L -19.671875 -12.890625 C -19.953125 -13.046875 -20.015625 -13.265625 -19.859375 -13.546875 L -16.140625 -20.078125 C -15.441406 -21.304688 -14.59375 -22.054688 -13.59375 -22.328125 C -12.601562 -22.609375 -11.492188 -22.398438 -10.265625 -21.703125 Z M -7.65625 -10.75 L -6.1875 -13.328125 C -5.789062 -14.023438 -5.941406 -14.570312 -6.640625 -14.96875 L -11.53125 -17.75 C -12.226562 -18.144531 -12.773438 -17.992188 -13.171875 -17.296875 L -14.640625 -14.71875 Z M -7.65625 -10.75 "/></g></g><g style="fill:#000000;fill-opacity:1;"><g transform="translate(80.298568, 191.387677)"><path style="stroke:none" d="M -13.90625 -24.015625 L -11.953125 -27.453125 C -11.753906 -27.796875 -11.476562 -27.867188 -11.125 -27.671875 L 8.65625 -16.4375 C 9 -16.238281 9.070312 -15.96875 8.875 -15.625 L 7.5 -13.1875 C 7.300781 -12.84375 7.03125 -12.769531 6.6875 -12.96875 L -5.03125 -19.625 L -5.125 -19.453125 L 5.171875 -10.1875 C 5.441406 -9.9375 5.488281 -9.65625 5.3125 -9.34375 L 4.578125 -8.0625 C 4.410156 -7.769531 4.148438 -7.671875 3.796875 -7.765625 L -9.4375 -11.875 L -9.546875 -11.6875 L 2.171875 -5.03125 C 2.515625 -4.832031 2.585938 -4.5625 2.390625 -4.21875 L 1.03125 -1.828125 C 0.832031 -1.472656 0.5625 -1.394531 0.21875 -1.59375 L -19.5625 -12.828125 C -19.914062 -13.023438 -19.992188 -13.300781 -19.796875 -13.65625 L -17.84375 -17.078125 C -17.664062 -17.398438 -17.394531 -17.503906 -17.03125 -17.390625 L -2.4375 -12.921875 L -13.75 -23.171875 C -14.019531 -23.429688 -14.070312 -23.710938 -13.90625 -24.015625 Z M -13.90625 -24.015625 "/></g></g><g style="fill:#000000;fill-opacity:1;"><g transform="translate(92.545524, 169.836655)"><path style="stroke:none" d="M -19.859375 -13.546875 L -18.3125 -16.25 C -18.15625 -16.53125 -17.9375 -16.59375 -17.65625 -16.4375 L 2.328125 -5.078125 C 2.609375 -4.921875 2.671875 -4.703125 2.515625 -4.421875 L 0.96875 -1.71875 C 0.8125 -1.4375 0.59375 -1.375 0.3125 -1.53125 L -19.671875 -12.890625 C -19.953125 -13.046875 -20.015625 -13.265625 -19.859375 -13.546875 Z M -19.859375 -13.546875 "/></g></g><g style="fill:#000000;fill-opacity:1;"><g transform="translate(98.37318, 159.581703)"><path style="stroke:none" d="M -15.546875 -21.125 L -14.015625 -23.828125 C -13.847656 -24.109375 -13.625 -24.171875 -13.34375 -24.015625 L 6.640625 -12.65625 C 6.921875 -12.5 6.976562 -12.28125 6.8125 -12 L 5.359375 -9.421875 C 5.222656 -9.179688 5.019531 -9.085938 4.75 -9.140625 L -8.625 -11.46875 L -8.703125 -11.34375 L 2.328125 -5.078125 C 2.609375 -4.921875 2.671875 -4.703125 2.515625 -4.421875 L 0.96875 -1.71875 C 0.8125 -1.4375 0.59375 -1.375 0.3125 -1.53125 L -19.671875 -12.890625 C -19.953125 -13.046875 -20.015625 -13.265625 -19.859375 -13.546875 L -18.390625 -16.125 C -18.253906 -16.363281 -18.050781 -16.457031 -17.78125 -16.40625 L -4.46875 -14.078125 L -4.375 -14.234375 L -15.359375 -20.46875 C -15.640625 -20.625 -15.703125 -20.84375 -15.546875 -21.125 Z M -15.546875 -21.125 "/></g></g><g style="fill:#000000;fill-opacity:1;"><g transform="translate(108.505025, 141.752652)"><path style="stroke:none" d="M -3.015625 -3.421875 L -16.34375 -11 C -17.570312 -11.695312 -18.316406 -12.546875 -18.578125 -13.546875 C -18.847656 -14.554688 -18.640625 -15.664062 -17.953125 -16.875 L -16 -20.3125 C -15.3125 -21.53125 -14.46875 -22.28125 -13.46875 -22.5625 C -12.46875 -22.84375 -11.351562 -22.632812 -10.125 -21.9375 L -7.421875 -20.40625 C -7.140625 -20.238281 -7.078125 -20.015625 -7.234375 -19.734375 L -8.71875 -17.125 C -8.875 -16.851562 -9.09375 -16.800781 -9.375 -16.96875 L -11.34375 -18.078125 C -12.039062 -18.472656 -12.585938 -18.320312 -12.984375 -17.625 L -14.046875 -15.75 C -14.441406 -15.0625 -14.289062 -14.519531 -13.59375 -14.125 L -1.734375 -7.390625 C -1.035156 -6.992188 -0.488281 -7.140625 -0.09375 -7.828125 L 0.96875 -9.703125 C 1.363281 -10.398438 1.210938 -10.945312 0.515625 -11.34375 L -2.953125 -13.328125 L -3.71875 -11.96875 C -3.882812 -11.6875 -4.109375 -11.625 -4.390625 -11.78125 L -7 -13.265625 C -7.269531 -13.421875 -7.320312 -13.640625 -7.15625 -13.921875 L -4.671875 -18.296875 C -4.515625 -18.578125 -4.300781 -18.640625 -4.03125 -18.484375 L 3.203125 -14.359375 C 4.421875 -13.671875 5.164062 -12.820312 5.4375 -11.8125 C 5.71875 -10.8125 5.515625 -9.703125 4.828125 -8.484375 L 2.875 -5.046875 C 2.1875 -3.835938 1.335938 -3.09375 0.328125 -2.8125 C -0.679688 -2.53125 -1.796875 -2.734375 -3.015625 -3.421875 Z M -3.015625 -3.421875 "/></g></g><g style="fill:#000000;fill-opacity:1;"><g transform="translate(118.533332, 124.105795)"><path style="stroke:none" d="M -7.484375 -15.0625 L -15.765625 -19.765625 C -16.046875 -19.921875 -16.109375 -20.132812 -15.953125 -20.40625 L -14.421875 -23.109375 C -14.253906 -23.390625 -14.03125 -23.453125 -13.75 -23.296875 L 6.234375 -11.9375 C 6.515625 -11.78125 6.570312 -11.5625 6.40625 -11.28125 L 4.875 -8.578125 C 4.71875 -8.304688 4.5 -8.25 4.21875 -8.40625 L -4.046875 -13.109375 L -5.9375 -9.78125 L 2.328125 -5.078125 C 2.609375 -4.921875 2.671875 -4.703125 2.515625 -4.421875 L 0.984375 -1.734375 C 0.816406 -1.441406 0.59375 -1.375 0.3125 -1.53125 L -19.671875 -12.890625 C -19.953125 -13.046875 -20.007812 -13.269531 -19.84375 -13.5625 L -18.3125 -16.25 C -18.15625 -16.53125 -17.9375 -16.59375 -17.65625 -16.4375 L -9.375 -11.734375 Z M -7.484375 -15.0625 "/></g></g><g style="fill:#000000;fill-opacity:1;"><g transform="translate(127.969996, 107.500055)"><path style="stroke:none" d="M 7.859375 -13.84375 L 6.296875 -11.078125 C 6.171875 -10.859375 5.972656 -10.789062 5.703125 -10.875 L 1.484375 -12.3125 L -1.15625 -7.6875 L 2.25 -4.8125 C 2.46875 -4.625 2.507812 -4.414062 2.375 -4.1875 L 0.796875 -1.40625 C 0.617188 -1.09375 0.40625 -1.066406 0.15625 -1.328125 L -17.390625 -17.015625 C -17.609375 -17.203125 -17.648438 -17.414062 -17.515625 -17.65625 L -15.453125 -21.28125 C -15.316406 -21.519531 -15.109375 -21.597656 -14.828125 -21.515625 L 7.625 -14.453125 C 7.957031 -14.347656 8.035156 -14.144531 7.859375 -13.84375 Z M -1.90625 -13.375 L -11.953125 -16.875 L -3.796875 -10.046875 Z M -1.90625 -13.375 "/></g></g><g style="fill:#000000;fill-opacity:1;"><g transform="translate(138.678684, 88.655931)"><path style="stroke:none" d="M -13.90625 -24.015625 L -11.953125 -27.453125 C -11.753906 -27.796875 -11.476562 -27.867188 -11.125 -27.671875 L 8.65625 -16.4375 C 9 -16.238281 9.070312 -15.96875 8.875 -15.625 L 7.5 -13.1875 C 7.300781 -12.84375 7.03125 -12.769531 6.6875 -12.96875 L -5.03125 -19.625 L -5.125 -19.453125 L 5.171875 -10.1875 C 5.441406 -9.9375 5.488281 -9.65625 5.3125 -9.34375 L 4.578125 -8.0625 C 4.410156 -7.769531 4.148438 -7.671875 3.796875 -7.765625 L -9.4375 -11.875 L -9.546875 -11.6875 L 2.171875 -5.03125 C 2.515625 -4.832031 2.585938 -4.5625 2.390625 -4.21875 L 1.03125 -1.828125 C 0.832031 -1.472656 0.5625 -1.394531 0.21875 -1.59375 L -19.5625 -12.828125 C -19.914062 -13.023438 -19.992188 -13.300781 -19.796875 -13.65625 L -17.84375 -17.078125 C -17.664062 -17.398438 -17.394531 -17.503906 -17.03125 -17.390625 L -2.4375 -12.921875 L -13.75 -23.171875 C -14.019531 -23.429688 -14.070312 -23.710938 -13.90625 -24.015625 Z M -13.90625 -24.015625 "/></g></g><g style="fill:#000000;fill-opacity:1;"><g transform="translate(264.522773, 81.88188)"><path style="stroke:none" d="M 21.71875 -10.28125 L 23.28125 -7.578125 C 23.4375 -7.304688 23.378906 -7.085938 23.109375 -6.921875 L 3.203125 4.5625 C 2.921875 4.726562 2.703125 4.675781 2.546875 4.40625 L 0.984375 1.703125 C 0.828125 1.429688 0.890625 1.210938 1.171875 1.046875 L 21.078125 -10.4375 C 21.347656 -10.601562 21.5625 -10.550781 21.71875 -10.28125 Z M 21.71875 -10.28125 "/></g></g><g style="fill:#000000;fill-opacity:1;"><g transform="translate(270.423175, 92.095149)"><path style="stroke:none" d="M 26.078125 -2.734375 L 27.640625 -0.03125 C 27.796875 0.238281 27.738281 0.457031 27.46875 0.625 L 7.5625 12.109375 C 7.28125 12.273438 7.0625 12.222656 6.90625 11.953125 L 5.421875 9.390625 C 5.285156 9.148438 5.3125 8.925781 5.5 8.71875 L 14.265625 -1.640625 L 14.1875 -1.78125 L 3.203125 4.5625 C 2.921875 4.726562 2.703125 4.675781 2.546875 4.40625 L 0.984375 1.703125 C 0.828125 1.429688 0.890625 1.210938 1.171875 1.046875 L 21.078125 -10.4375 C 21.347656 -10.601562 21.5625 -10.550781 21.71875 -10.28125 L 23.203125 -7.703125 C 23.347656 -7.460938 23.332031 -7.238281 23.15625 -7.03125 L 14.40625 3.265625 L 14.5 3.40625 L 25.4375 -2.90625 C 25.707031 -3.070312 25.921875 -3.015625 26.078125 -2.734375 Z M 26.078125 -2.734375 "/></g></g><g style="fill:#000000;fill-opacity:1;"><g transform="translate(280.681493, 109.851732)"><path style="stroke:none" d="M 26.703125 -1.640625 L 28.140625 0.828125 C 28.367188 1.222656 28.269531 1.484375 27.84375 1.609375 L 5.59375 8.625 C 5.25 8.738281 4.988281 8.640625 4.8125 8.328125 L 3.3125 5.71875 C 3.144531 5.4375 3.1875 5.160156 3.4375 4.890625 L 20.640625 -10.859375 C 20.960938 -11.160156 21.238281 -11.113281 21.46875 -10.71875 L 22.890625 -8.25 C 23.066406 -7.945312 23.019531 -7.664062 22.75 -7.40625 L 10.4375 3.328125 L 25.90625 -1.9375 C 26.269531 -2.03125 26.535156 -1.929688 26.703125 -1.640625 Z M 26.703125 -1.640625 "/></g></g><g style="fill:#000000;fill-opacity:1;"><g transform="translate(291.179421, 128.023067)"><path style="stroke:none" d="M 27.046875 -0.09375 L 24.453125 1.390625 C 24.160156 1.566406 23.9375 1.519531 23.78125 1.25 L 20.046875 -5.234375 L 14.859375 -2.25 L 17.71875 2.703125 C 17.875 2.972656 17.800781 3.195312 17.5 3.375 L 14.953125 4.84375 C 14.648438 5.019531 14.421875 4.972656 14.265625 4.703125 L 11.40625 -0.25 L 6.171875 2.765625 L 9.90625 9.25 C 10.0625 9.519531 10 9.738281 9.71875 9.90625 L 7.140625 11.390625 C 6.859375 11.554688 6.640625 11.503906 6.484375 11.234375 L 0.984375 1.6875 C 0.828125 1.425781 0.890625 1.210938 1.171875 1.046875 L 21.078125 -10.4375 C 21.347656 -10.601562 21.5625 -10.554688 21.71875 -10.296875 L 27.21875 -0.75 C 27.375 -0.476562 27.316406 -0.257812 27.046875 -0.09375 Z M 27.046875 -0.09375 "/></g></g><g style="fill:#000000;fill-opacity:1;"><g transform="translate(301.018417, 145.053826)"><path style="stroke:none" d="M 26.078125 -2.734375 L 27.640625 -0.03125 C 27.796875 0.238281 27.738281 0.457031 27.46875 0.625 L 7.5625 12.109375 C 7.28125 12.273438 7.0625 12.222656 6.90625 11.953125 L 5.421875 9.390625 C 5.285156 9.148438 5.3125 8.925781 5.5 8.71875 L 14.265625 -1.640625 L 14.1875 -1.78125 L 3.203125 4.5625 C 2.921875 4.726562 2.703125 4.675781 2.546875 4.40625 L 0.984375 1.703125 C 0.828125 1.429688 0.890625 1.210938 1.171875 1.046875 L 21.078125 -10.4375 C 21.347656 -10.601562 21.5625 -10.550781 21.71875 -10.28125 L 23.203125 -7.703125 C 23.347656 -7.460938 23.332031 -7.238281 23.15625 -7.03125 L 14.40625 3.265625 L 14.5 3.40625 L 25.4375 -2.90625 C 25.707031 -3.070312 25.921875 -3.015625 26.078125 -2.734375 Z M 26.078125 -2.734375 "/></g></g><g style="fill:#000000;fill-opacity:1;"><g transform="translate(311.276735, 162.810408)"><path style="stroke:none" d="M 21.421875 -10.796875 L 26.9375 -1.25 C 27.09375 -0.976562 27.035156 -0.757812 26.765625 -0.59375 L 24.171875 0.890625 C 23.890625 1.054688 23.671875 1.003906 23.515625 0.734375 L 21.78125 -2.28125 L 4.890625 7.46875 C 4.609375 7.632812 4.382812 7.582031 4.21875 7.3125 L 2.671875 4.609375 C 2.503906 4.328125 2.5625 4.101562 2.84375 3.9375 L 19.734375 -5.8125 L 18 -8.8125 C 17.84375 -9.09375 17.90625 -9.316406 18.1875 -9.484375 L 20.78125 -10.96875 C 21.050781 -11.132812 21.265625 -11.078125 21.421875 -10.796875 Z M 21.421875 -10.796875 "/></g></g><g style="fill:#000000;fill-opacity:1;"><g transform="translate(320.232167, 178.311767)"><path style="stroke:none" d="M 4.484375 -0.859375 L 17.75 -8.53125 C 18.976562 -9.238281 20.09375 -9.453125 21.09375 -9.171875 C 22.09375 -8.898438 22.941406 -8.160156 23.640625 -6.953125 L 25.3125 -4.0625 C 26.019531 -2.832031 26.238281 -1.71875 25.96875 -0.71875 C 25.707031 0.269531 24.960938 1.117188 23.734375 1.828125 L 10.46875 9.5 C 9.257812 10.195312 8.148438 10.414062 7.140625 10.15625 C 6.140625 9.894531 5.285156 9.148438 4.578125 7.921875 L 2.90625 5.03125 C 2.207031 3.820312 1.992188 2.710938 2.265625 1.703125 C 2.535156 0.691406 3.273438 -0.160156 4.484375 -0.859375 Z M 6.6875 3.84375 L 7.546875 5.34375 C 7.953125 6.039062 8.503906 6.191406 9.203125 5.796875 L 21.171875 -1.125 C 21.867188 -1.519531 22.015625 -2.066406 21.609375 -2.765625 L 20.75 -4.265625 C 20.351562 -4.953125 19.804688 -5.097656 19.109375 -4.703125 L 7.140625 2.21875 C 6.441406 2.613281 6.289062 3.15625 6.6875 3.84375 Z M 6.6875 3.84375 "/></g></g><g style="fill:#000000;fill-opacity:1;"><g transform="translate(330.086142, 195.368453)"><path style="stroke:none" d="M 23.90625 2.125 L 17.578125 5.78125 C 15.859375 6.78125 14.351562 6.804688 13.0625 5.859375 L 7.296875 11.59375 C 7.046875 11.84375 6.828125 11.804688 6.640625 11.484375 L 5.078125 8.796875 C 4.941406 8.546875 4.976562 8.320312 5.1875 8.125 L 10.765625 2.59375 L 9.71875 0.796875 L 3.203125 4.5625 C 2.921875 4.726562 2.703125 4.675781 2.546875 4.40625 L 0.984375 1.703125 C 0.828125 1.429688 0.890625 1.210938 1.171875 1.046875 L 21.078125 -10.4375 C 21.347656 -10.601562 21.5625 -10.550781 21.71875 -10.28125 L 25.484375 -3.765625 C 26.191406 -2.546875 26.410156 -1.4375 26.140625 -0.4375 C 25.878906 0.5625 25.132812 1.414062 23.90625 2.125 Z M 13.140625 -1.171875 L 14.625 1.40625 C 15.03125 2.09375 15.582031 2.234375 16.28125 1.828125 L 21.15625 -0.984375 C 21.84375 -1.378906 21.984375 -1.921875 21.578125 -2.609375 L 20.09375 -5.1875 Z M 13.140625 -1.171875 "/></g></g><g style="fill:#000000;fill-opacity:1;"><g transform="translate(340.10485, 212.710283)"><path style="stroke:none" d="M 23.640625 -6.953125 L 25.3125 -4.0625 C 26.019531 -2.832031 26.238281 -1.71875 25.96875 -0.71875 C 25.707031 0.269531 24.960938 1.117188 23.734375 1.828125 L 21 3.421875 C 20.71875 3.578125 20.5 3.519531 20.34375 3.25 L 18.78125 0.546875 C 18.625 0.273438 18.6875 0.0625 18.96875 -0.09375 L 20.984375 -1.265625 C 21.671875 -1.660156 21.816406 -2.203125 21.421875 -2.890625 L 20.703125 -4.140625 C 20.296875 -4.835938 19.75 -4.988281 19.0625 -4.59375 L 15.484375 -2.53125 L 17.015625 4.8125 C 17.085938 5.375 16.90625 5.78125 16.46875 6.03125 L 10.46875 9.5 C 9.257812 10.195312 8.148438 10.414062 7.140625 10.15625 C 6.140625 9.894531 5.285156 9.148438 4.578125 7.921875 L 2.90625 5.03125 C 2.207031 3.820312 1.992188 2.710938 2.265625 1.703125 C 2.535156 0.691406 3.273438 -0.160156 4.484375 -0.859375 L 7.203125 -2.4375 C 7.484375 -2.59375 7.703125 -2.535156 7.859375 -2.265625 L 9.421875 0.4375 C 9.578125 0.707031 9.515625 0.921875 9.234375 1.078125 L 7.25 2.234375 C 6.550781 2.628906 6.40625 3.175781 6.8125 3.875 L 7.53125 5.125 C 7.925781 5.8125 8.472656 5.957031 9.171875 5.5625 L 12.609375 3.578125 L 11.09375 -3.734375 C 10.96875 -4.296875 11.148438 -4.71875 11.640625 -5 L 17.75 -8.53125 C 18.976562 -9.238281 20.09375 -9.453125 21.09375 -9.171875 C 22.09375 -8.898438 22.941406 -8.160156 23.640625 -6.953125 Z M 23.640625 -6.953125 "/></g></g><g style="fill:#000000;fill-opacity:1;"><g transform="translate(158.285182, 343.09261)"><path style="stroke:none" d="M 1.5 -0.59375 L 1.5 -3.359375 C 1.5 -3.753906 1.695312 -3.953125 2.09375 -3.953125 L 4.8125 -3.953125 C 5.21875 -3.953125 5.421875 -3.753906 5.421875 -3.359375 L 5.421875 -0.59375 C 5.421875 -0.195312 5.21875 0 4.8125 0 L 2.09375 0 C 1.695312 0 1.5 -0.195312 1.5 -0.59375 Z M 1.5 -0.59375 "/></g></g><g style="fill:#000000;fill-opacity:1;"><g transform="translate(165.200616, 343.09261)"><path style="stroke:none" d="M 1.5 -4.3125 L 1.5 -19.640625 C 1.5 -21.054688 1.867188 -22.128906 2.609375 -22.859375 C 3.347656 -23.585938 4.414062 -23.953125 5.8125 -23.953125 L 9.15625 -23.953125 C 10.570312 -23.953125 11.644531 -23.585938 12.375 -22.859375 C 13.101562 -22.128906 13.46875 -21.054688 13.46875 -19.640625 L 13.46875 -4.3125 C 13.46875 -2.914062 13.101562 -1.847656 12.375 -1.109375 C 11.644531 -0.367188 10.570312 0 9.15625 0 L 5.8125 0 C 4.414062 0 3.347656 -0.367188 2.609375 -1.109375 C 1.867188 -1.847656 1.5 -2.914062 1.5 -4.3125 Z M 6.671875 -3.859375 L 8.40625 -3.859375 C 9.207031 -3.859375 9.609375 -4.257812 9.609375 -5.0625 L 9.609375 -18.890625 C 9.609375 -19.691406 9.207031 -20.09375 8.40625 -20.09375 L 6.671875 -20.09375 C 5.878906 -20.09375 5.484375 -19.691406 5.484375 -18.890625 L 5.484375 -5.0625 C 5.484375 -4.257812 5.878906 -3.859375 6.671875 -3.859375 Z M 6.671875 -3.859375 "/></g></g><g style="fill:#000000;fill-opacity:1;"><g transform="translate(180.169091, 343.09261)"><path style="stroke:none" d="M 13.796875 -19.640625 L 13.796875 -12.328125 C 13.796875 -10.335938 13.066406 -9.019531 11.609375 -8.375 L 13.6875 -0.53125 C 13.78125 -0.175781 13.640625 0 13.265625 0 L 10.15625 0 C 9.875 0 9.703125 -0.140625 9.640625 -0.421875 L 7.640625 -8.015625 L 5.5625 -8.015625 L 5.5625 -0.484375 C 5.5625 -0.160156 5.40625 0 5.09375 0 L 1.96875 0 C 1.65625 0 1.5 -0.160156 1.5 -0.484375 L 1.5 -23.46875 C 1.5 -23.789062 1.65625 -23.953125 1.96875 -23.953125 L 9.484375 -23.953125 C 10.898438 -23.953125 11.972656 -23.585938 12.703125 -22.859375 C 13.429688 -22.128906 13.796875 -21.054688 13.796875 -19.640625 Z M 5.5625 -11.96875 L 8.53125 -11.96875 C 9.332031 -11.96875 9.734375 -12.367188 9.734375 -13.171875 L 9.734375 -18.796875 C 9.734375 -19.597656 9.332031 -20 8.53125 -20 L 5.5625 -20 Z M 5.5625 -11.96875 "/></g></g><g style="fill:#000000;fill-opacity:1;"><g transform="translate(195.466875, 343.09261)"><path style="stroke:none" d="M 1.5 -4.3125 L 1.5 -19.640625 C 1.5 -21.054688 1.867188 -22.128906 2.609375 -22.859375 C 3.347656 -23.585938 4.414062 -23.953125 5.8125 -23.953125 L 9.765625 -23.953125 C 11.160156 -23.953125 12.226562 -23.585938 12.96875 -22.859375 C 13.707031 -22.128906 14.078125 -21.054688 14.078125 -19.640625 L 14.078125 -16.53125 C 14.078125 -16.207031 13.914062 -16.046875 13.59375 -16.046875 L 10.59375 -16.046875 C 10.28125 -16.046875 10.125 -16.207031 10.125 -16.53125 L 10.125 -18.796875 C 10.125 -19.597656 9.722656 -20 8.921875 -20 L 6.765625 -20 C 5.960938 -20 5.5625 -19.597656 5.5625 -18.796875 L 5.5625 -5.15625 C 5.5625 -4.351562 5.960938 -3.953125 6.765625 -3.953125 L 8.921875 -3.953125 C 9.722656 -3.953125 10.125 -4.351562 10.125 -5.15625 L 10.125 -9.15625 L 8.5625 -9.15625 C 8.238281 -9.15625 8.078125 -9.316406 8.078125 -9.640625 L 8.078125 -12.640625 C 8.078125 -12.953125 8.238281 -13.109375 8.5625 -13.109375 L 13.59375 -13.109375 C 13.914062 -13.109375 14.078125 -12.953125 14.078125 -12.640625 L 14.078125 -4.3125 C 14.078125 -2.914062 13.707031 -1.847656 12.96875 -1.109375 C 12.226562 -0.367188 11.160156 0 9.765625 0 L 5.8125 0 C 4.414062 0 3.347656 -0.367188 2.609375 -1.109375 C 1.867188 -1.847656 1.5 -2.914062 1.5 -4.3125 Z M 1.5 -4.3125 "/></g></g><g style="fill:#000000;fill-opacity:1;"><g transform="translate(211.034093, 343.09261)"><path style="stroke:none" d="M 1.5 -0.59375 L 1.5 -3.359375 C 1.5 -3.753906 1.695312 -3.953125 2.09375 -3.953125 L 4.8125 -3.953125 C 5.21875 -3.953125 5.421875 -3.753906 5.421875 -3.359375 L 5.421875 -0.59375 C 5.421875 -0.195312 5.21875 0 4.8125 0 L 2.09375 0 C 1.695312 0 1.5 -0.195312 1.5 -0.59375 Z M 1.5 -0.59375 "/></g></g><g style="fill:#000000;fill-opacity:1;"><g transform="translate(217.949526, 343.09261)"><path style="stroke:none" d="M 10.125 -23.953125 L 12.875 -23.953125 C 13.03125 -23.953125 13.164062 -23.890625 13.28125 -23.765625 C 13.40625 -23.648438 13.46875 -23.507812 13.46875 -23.34375 L 13.46875 -4.3125 C 13.46875 -2.914062 13.101562 -1.847656 12.375 -1.109375 C 11.644531 -0.367188 10.570312 0 9.15625 0 L 5.8125 0 C 4.414062 0 3.347656 -0.367188 2.609375 -1.109375 C 1.867188 -1.847656 1.5 -2.914062 1.5 -4.3125 L 1.5 -23.34375 C 1.5 -23.507812 1.554688 -23.648438 1.671875 -23.765625 C 1.796875 -23.890625 1.9375 -23.953125 2.09375 -23.953125 L 4.96875 -23.953125 C 5.125 -23.953125 5.257812 -23.890625 5.375 -23.765625 C 5.5 -23.648438 5.5625 -23.507812 5.5625 -23.34375 L 5.5625 -5.15625 C 5.5625 -4.351562 5.960938 -3.953125 6.765625 -3.953125 L 8.328125 -3.953125 C 9.117188 -3.953125 9.515625 -4.351562 9.515625 -5.15625 L 9.515625 -23.34375 C 9.515625 -23.507812 9.570312 -23.648438 9.6875 -23.765625 C 9.8125 -23.890625 9.957031 -23.953125 10.125 -23.953125 Z M 10.125 -23.953125 "/></g></g><g style="fill:#000000;fill-opacity:1;"><g transform="translate(232.918002, 343.09261)"><path style="stroke:none" d="M 14.3125 0 L 11.140625 0 C 10.796875 0 10.566406 -0.148438 10.453125 -0.453125 L 6.671875 -9.34375 L 5.5625 -7.21875 L 5.5625 -0.59375 C 5.5625 -0.195312 5.363281 0 4.96875 0 L 2.09375 0 C 1.695312 0 1.5 -0.195312 1.5 -0.59375 L 1.5 -23.34375 C 1.5 -23.75 1.695312 -23.953125 2.09375 -23.953125 L 4.96875 -23.953125 C 5.363281 -23.953125 5.5625 -23.75 5.5625 -23.34375 L 5.5625 -14.078125 L 10.171875 -23.5 C 10.335938 -23.800781 10.570312 -23.953125 10.875 -23.953125 L 14.015625 -23.953125 C 14.234375 -23.953125 14.378906 -23.882812 14.453125 -23.75 C 14.535156 -23.625 14.53125 -23.453125 14.4375 -23.234375 L 9.34375 -12.78125 L 14.765625 -0.6875 C 14.859375 -0.488281 14.863281 -0.320312 14.78125 -0.1875 C 14.707031 -0.0625 14.550781 0 14.3125 0 Z M 14.3125 0 "/></g></g></g></svg>